<svg xmlns="http://www.w3.org/2000/svg" xmlns:xlink="http://www.w3.org/1999/xlink" width="108" height="108" viewBox="0 0 108 108">
  <defs>
    <filter id="Trazado_904820" x="0" y="0" width="108" height="108" filterUnits="userSpaceOnUse">
      <feOffset dy="3" input="SourceAlpha"/>
      <feGaussianBlur stdDeviation="3" result="blur"/>
      <feFlood flood-opacity="0.161"/>
      <feComposite operator="in" in2="blur"/>
      <feComposite in="SourceGraphic"/>
    </filter>
  </defs>
  <g id="Grupo_1179326" data-name="Grupo 1179326" transform="translate(-200.051 -625)">
    <g id="Grupo_1179220" data-name="Grupo 1179220" transform="translate(209.051 631)">
      <g id="Grupo_1173585" data-name="Grupo 1173585" transform="translate(0 0)">
        <g id="Grupo_1173428" data-name="Grupo 1173428">
          <g id="Grupo_1171958" data-name="Grupo 1171958">
            <g id="Grupo_1167341" data-name="Grupo 1167341">
              <g id="Grupo_1166792" data-name="Grupo 1166792">
                <g transform="matrix(1, 0, 0, 1, -9, -6)" filter="url(#Trazado_904820)">
                  <g id="Trazado_904820-2" data-name="Trazado 904820" transform="translate(9 6)" fill="#fefcea">
                    <path d="M 44.99999618530273 88.50004577636719 C 39.12687301635742 88.50004577636719 33.43022155761719 87.35012054443359 28.06829643249512 85.08220672607422 C 22.88852119445801 82.89134216308594 18.23629570007324 79.75463104248047 14.24084663391113 75.75917816162109 C 10.24540901184082 71.76371765136719 7.108683586120605 67.11149597167969 4.917821407318115 61.93173217773438 C 2.649921178817749 56.56979370117188 1.499996185302734 50.87314224243164 1.499996185302734 45.00001907348633 C 1.499996185302734 39.12689590454102 2.649921178817749 33.43024444580078 4.917821407318115 28.06830596923828 C 7.108683586120605 22.88853073120117 10.24540901184082 18.23631858825684 14.24084663391113 14.24086952209473 C 18.23629570007324 10.2454195022583 22.88852119445801 7.108694076538086 28.06829643249512 4.917831420898438 C 33.43022155761719 2.649931669235229 39.12687301635742 1.500006556510925 44.99999618530273 1.500006556510925 C 50.87311935424805 1.500006556510925 56.56977081298828 2.649931669235229 61.93169784545898 4.917831420898438 C 67.11147308349609 7.108694076538086 71.76369476318359 10.2454195022583 75.75914764404297 14.24086952209473 C 79.75458526611328 18.23631858825684 82.89131164550781 22.88853073120117 85.08216857910156 28.06830596923828 C 87.35007476806641 33.43024444580078 88.5 39.12689590454102 88.5 45.00001907348633 C 88.5 50.87314224243164 87.35007476806641 56.56979370117188 85.08216857910156 61.93173217773438 C 82.89131164550781 67.11149597167969 79.75458526611328 71.76371765136719 75.75914764404297 75.75917816162109 C 71.76369476318359 79.75463104248047 67.11147308349609 82.89134216308594 61.93169784545898 85.08220672607422 C 56.56977081298828 87.35012054443359 50.87311935424805 88.50004577636719 44.99999618530273 88.50004577636719 Z" stroke="none"/>
                    <path d="M 44.99999618530273 3.000007629394531 C 39.32870864868164 3.000007629394531 33.82865142822266 4.110061645507812 28.65262603759766 6.299346923828125 C 23.65165710449219 8.414573669433594 19.15968322753906 11.44334411621094 15.301513671875 15.30152130126953 C 11.44333648681641 19.15969085693359 8.414566040039062 23.65166473388672 6.299339294433594 28.65263366699219 C 4.110054016113281 33.82867431640625 2.999992370605469 39.32873153686523 2.999992370605469 45.00001907348633 C 2.999992370605469 50.67130661010742 4.110054016113281 56.17136383056641 6.299339294433594 61.34738922119141 C 8.414566040039062 66.34837341308594 11.44333648681641 70.84033203125 15.301513671875 74.69850158691406 C 19.15968322753906 78.55668640136719 23.65165710449219 81.58546447753906 28.65262603759766 83.70069122314453 C 33.82865142822266 85.88997650146484 39.32870864868164 87.00003051757812 44.99999618530273 87.00003051757812 C 50.67128372192383 87.00003051757812 56.17134094238281 85.88997650146484 61.34736633300781 83.70069122314453 C 66.34834289550781 81.58546447753906 70.84030914306641 78.55668640136719 74.69847869873047 74.69850158691406 C 78.55665588378906 70.84033203125 81.58542633056641 66.34837341308594 83.70065307617188 61.34738922119141 C 85.88993835449219 56.17136383056641 87 50.67130661010742 87 45.00001907348633 C 87 39.32873153686523 85.88993835449219 33.82867431640625 83.70065307617188 28.65263366699219 C 81.58542633056641 23.65166473388672 78.55665588378906 19.15969085693359 74.69847869873047 15.30152130126953 C 70.84030914306641 11.44334411621094 66.34834289550781 8.414573669433594 61.34736633300781 6.299346923828125 C 56.17134094238281 4.110061645507812 50.67128372192383 3.000007629394531 44.99999618530273 3.000007629394531 M 44.99999618530273 7.62939453125e-06 C 69.85281372070312 7.62939453125e-06 90 20.14719390869141 90 45.00001907348633 C 90 69.85282897949219 69.85281372070312 90.00003051757812 44.99999618530273 90.00003051757812 C 20.14717864990234 90.00003051757812 -7.62939453125e-06 69.85282897949219 -7.62939453125e-06 45.00001907348633 C -7.62939453125e-06 20.14719390869141 20.14717864990234 7.62939453125e-06 44.99999618530273 7.62939453125e-06 Z" stroke="none" fill="#958919"/>
                  </g>
                </g>
              </g>
            </g>
          </g>
        </g>
      </g>
    </g>
    <g id="programmer_644617" transform="translate(228.016 647.953)">
      <path id="Trazado_1050018" data-name="Trazado 1050018" d="M130.145,223.846v6.361l7.006.22v0l.008,0v-6.6A8.4,8.4,0,0,1,130.145,223.846Z" transform="translate(-115.849 -199.296)" fill="#eab883"/>
      <path id="Trazado_1050019" data-name="Trazado 1050019" d="M133.433,224.834a8.108,8.108,0,0,1-3.288-.752v6.361l4.022.126-.509-1.407C133.294,228.157,133.487,227.606,133.433,224.834Z" transform="translate(-115.849 -199.532)" fill="#dda36f"/>
      <path id="Trazado_1050020" data-name="Trazado 1050020" d="M140.935,268.772a5.014,5.014,0,0,1-5.883-.035l-.045-.033v7.016h6.023V268.7Z" transform="translate(-120.178 -239.265)" fill="#efefef"/>
      <path id="Trazado_1050021" data-name="Trazado 1050021" d="M139.963,274.356l-1.684-4.655a5.224,5.224,0,0,1-3.271-1v7.016h3.308C138.891,275.3,139.963,274.356,139.963,274.356Z" transform="translate(-120.179 -239.266)" fill="#ddd"/>
      <path id="Trazado_1050022" data-name="Trazado 1050022" d="M41.371,286.918l-2.89-17.962a3.947,3.947,0,0,0-3.014-3.064h0L32.239,265l-.394-.232-6.472,5.8,0,0a.966.966,0,0,1-1.807,0l0,0-6.471-5.8L16.7,265l-3.228.893h0a3.947,3.947,0,0,0-3.014,3.064l-2.89,17.962a3.485,3.485,0,0,0,3.417,4.114H37.954A3.485,3.485,0,0,0,41.371,286.918Z" transform="translate(-6.661 -235.759)" fill="#70b5e8"/>
      <g id="Grupo_1181704" data-name="Grupo 1181704" transform="translate(0.862 26.731)">
        <path id="Trazado_1050023" data-name="Trazado 1050023" d="M10.853,293.4l2.89-19.5a3.788,3.788,0,0,1,.918-1.858l-1.184.328h0a3.947,3.947,0,0,0-3.014,3.064L7.573,293.4a3.485,3.485,0,0,0,3.417,4.114h3.28A3.485,3.485,0,0,1,10.853,293.4Z" transform="translate(-7.524 -268.973)" fill="#52a5d8"/>
        <path id="Trazado_1050024" data-name="Trazado 1050024" d="M98.191,252.063l-6.865-5.569,4.253-2.509v1.332Z" transform="translate(-82.145 -243.985)" fill="#52a5d8"/>
        <path id="Trazado_1050025" data-name="Trazado 1050025" d="M170.455,252.063l6.865-5.569-4.268-2.509v1.332Z" transform="translate(-152.604 -243.985)" fill="#52a5d8"/>
      </g>
      <path id="Trazado_1050026" data-name="Trazado 1050026" d="M109.144,415.306v4h8.484v-4a2.368,2.368,0,0,1,1.794-2.293,4.807,4.807,0,0,1-2.287-3.4.987.987,0,0,0-.965-.79h-5.63a.988.988,0,0,0-.965.791A4.818,4.818,0,0,1,107.308,413,2.368,2.368,0,0,1,109.144,415.306Z" transform="translate(-95.514 -364.033)" fill="#a4d9f4"/>
      <path id="Trazado_1050027" data-name="Trazado 1050027" d="M111.979,419.305V415.4a2.526,2.526,0,0,0-.479-1.482,2.066,2.066,0,0,1,.019-2.365,6.46,6.46,0,0,0,.922-2.273,1.073,1.073,0,0,1,.216-.455H110.54a.988.988,0,0,0-.965.791A4.818,4.818,0,0,1,107.309,413a2.368,2.368,0,0,1,1.835,2.3v4Z" transform="translate(-95.515 -364.033)" fill="#84c7ef"/>
      <g id="Grupo_1181705" data-name="Grupo 1181705" transform="translate(13.027 50.692)">
        <path id="Trazado_1050028" data-name="Trazado 1050028" d="M167.018,462.688H166.8a4.594,4.594,0,0,0-4.581,4.581h4.8v-4.581Z" transform="translate(-157.438 -462.688)" fill="#eab883"/>
        <path id="Trazado_1050029" data-name="Trazado 1050029" d="M118.563,462.688v4.581h4.783a4.594,4.594,0,0,0-4.581-4.581Z" transform="translate(-118.563 -462.688)" fill="#eab883"/>
      </g>
      <g id="Grupo_1181706" data-name="Grupo 1181706" transform="translate(13.027 52.982)">
        <path id="Trazado_1050030" data-name="Trazado 1050030" d="M162.222,485.885h4.8v-2.291h-4.177A4.541,4.541,0,0,0,162.222,485.885Z" transform="translate(-157.439 -483.594)" fill="#dda36f"/>
        <path id="Trazado_1050031" data-name="Trazado 1050031" d="M118.563,483.594v2.291h4.783a4.542,4.542,0,0,0-.619-2.291Z" transform="translate(-118.563 -483.594)" fill="#dda36f"/>
      </g>
      <path id="Trazado_1050032" data-name="Trazado 1050032" d="M83.066,10.511a1.28,1.28,0,0,1-.728-.445c-2.85-3.552-10.43-3.258-14.371.683-3.631,3.631-1.623,9.426-1.623,9.426H86.426C88.181,12.808,84.413,10.806,83.066,10.511Z" transform="translate(-58.544 -6.754)" fill="#93482b"/>
      <path id="Trazado_1050033" data-name="Trazado 1050033" d="M72.948,10.751a11.144,11.144,0,0,1,5.577-2.895,11.855,11.855,0,0,0-10.559,2.895c-3.631,3.632-1.623,9.426-1.623,9.426h4.982S69.317,14.382,72.948,10.751Z" transform="translate(-58.544 -6.756)" fill="#843d26"/>
      <g id="Grupo_1181707" data-name="Grupo 1181707" transform="translate(6.832 12.431)">
        <path id="Trazado_1050034" data-name="Trazado 1050034" d="M63,113.943l0,0a1.984,1.984,0,0,0,0,3.42l0,0a2.934,2.934,0,0,0,1.634.481v-4.375h0A2.934,2.934,0,0,0,63,113.943Z" transform="translate(-62.018 -113.462)" fill="#eab883"/>
        <path id="Trazado_1050035" data-name="Trazado 1050035" d="M240.708,113.945l0,0a2.143,2.143,0,0,1,.947,1.376l0,.009c.006.032.011.065.015.1,0,.009,0,.018,0,.027,0,.028.006.056.008.084s0,.05,0,.075,0,.025,0,.038v.005c0,.013,0,.025,0,.038s0,.05,0,.075,0,.056-.008.084c0,.009,0,.018,0,.027,0,.033-.009.066-.015.1l0,.009a2.143,2.143,0,0,1-.947,1.376l0,0a2.934,2.934,0,0,1-1.634.481v-4.375A2.963,2.963,0,0,1,240.708,113.945Z" transform="translate(-219.676 -113.464)" fill="#eab883"/>
      </g>
      <g id="Grupo_1181708" data-name="Grupo 1181708" transform="translate(6.832 13.634)">
        <path id="Trazado_1050036" data-name="Trazado 1050036" d="M62.991,125.171a2.321,2.321,0,0,1-.7-.726,1.966,1.966,0,0,0,.7,2.694l0,0a2.934,2.934,0,0,0,1.634.481v-1.968a2.933,2.933,0,0,1-1.634-.481Z" transform="translate(-62.013 -124.446)" fill="#dda36f"/>
        <path id="Trazado_1050037" data-name="Trazado 1050037" d="M241.688,125.389c0-.025,0-.05,0-.075s0-.056-.008-.084c0-.009,0-.018,0-.027,0-.033-.009-.066-.015-.1l0-.009a1.933,1.933,0,0,0-.25-.65,2.318,2.318,0,0,1-.7.726l0,0a2.934,2.934,0,0,1-1.634.481v1.968a2.934,2.934,0,0,0,1.634-.481l0,0a2.142,2.142,0,0,0,.947-1.376l0-.009c.006-.032.011-.065.015-.1,0-.009,0-.018,0-.027,0-.028.006-.056.008-.084s0-.05,0-.075,0-.025,0-.038v-.005C241.689,125.414,241.688,125.4,241.688,125.389Z" transform="translate(-219.675 -124.445)" fill="#dda36f"/>
      </g>
      <path id="Trazado_1050038" data-name="Trazado 1050038" d="M102.479,103.325v-2.817a3.616,3.616,0,0,1-3.338-1.3.745.745,0,0,0-1.025-.152c-1.986,1.44-7.584,3.667-12.444,1.454v1.61h-.009a34.366,34.366,0,0,0,.236,5.459,8.4,8.4,0,0,0,16.58-1.944c0-.951,0-1.7,0-2.307h0Z" transform="translate(-76.235 -88.076)" fill="#f7cf9c"/>
      <path id="Trazado_1050039" data-name="Trazado 1050039" d="M89.156,120.531a34.366,34.366,0,0,1-.236-5.459h.009v-.739a10.431,10.431,0,0,1-3.258-.87v1.61h-.009a34.38,34.38,0,0,0,.236,5.459,8.341,8.341,0,0,0,9.719,6.3A8.444,8.444,0,0,1,89.156,120.531Z" transform="translate(-76.235 -101.032)" fill="#eab883"/>
      <path id="Trazado_1050040" data-name="Trazado 1050040" d="M258.446,229.264c-29.616,0-27.643-.057-28.049.163a1.35,1.35,0,0,0-.707,1.187v21.576a1.35,1.35,0,0,0,1.35,1.35h27.405a1.35,1.35,0,0,0,1.35-1.35V230.614A1.531,1.531,0,0,0,258.446,229.264Z" transform="translate(-204.488 -204.14)" fill="#efefef"/>
      <path id="Trazado_1050041" data-name="Trazado 1050041" d="M234.388,252.2V230.624a1.35,1.35,0,0,1,1.35-1.35c-4.758.055-4.813-.124-5.34.163a1.35,1.35,0,0,0-.707,1.187V252.2a1.35,1.35,0,0,0,1.35,1.35h4.7A1.35,1.35,0,0,1,234.388,252.2Z" transform="translate(-204.488 -204.15)" fill="#ddd"/>
      <path id="Trazado_1050042" data-name="Trazado 1050042" d="M318.442,79.936h-17.55a1.318,1.318,0,0,0-1.315,1.315v8.873a1.318,1.318,0,0,0,1.315,1.315H316.34a1.444,1.444,0,0,1,.971.375l1.281,1.164a.7.7,0,0,0,1.165-.516V81.251A1.319,1.319,0,0,0,318.442,79.936Z" transform="translate(-266.719 -71.178)" fill="#ffb70d"/>
      <path id="Trazado_1050043" data-name="Trazado 1050043" d="M303.231,90.123V81.251a1.318,1.318,0,0,1,1.315-1.315h-3.652a1.318,1.318,0,0,0-1.315,1.315v8.873a1.318,1.318,0,0,0,1.315,1.315h3.652A1.318,1.318,0,0,1,303.231,90.123Z" transform="translate(-266.72 -71.178)" fill="#f4a403"/>
      <circle id="Elipse_12515" data-name="Elipse 12515" cx="1.782" cy="1.782" r="1.782" transform="translate(38.453 29.532)" fill="#ccc"/>
      <path id="Trazado_1050044" data-name="Trazado 1050044" d="M352.4,269.56a1.781,1.781,0,1,0,1.542,2.67A1.78,1.78,0,0,1,352.4,269.56Z" transform="translate(-312.162 -240.027)" fill="#bcbbb8"/>
      <path id="Trazado_1050045" data-name="Trazado 1050045" d="M346,355.131V338.425a0,0,0,0,0,0,0h-6.163a0,0,0,0,0,0,0v16.706Z" transform="translate(-302.562 -301.345)" fill="#ddd"/>
      <path id="Trazado_1050046" data-name="Trazado 1050046" d="M342.915,338.425a0,0,0,0,1,0,0h-3.084a0,0,0,0,0,0,0v16.706h3.084Z" transform="translate(-302.562 -301.345)" fill="#ccc"/>
      <path id="Trazado_1050047" data-name="Trazado 1050047" d="M325.663,478.845h0a1.487,1.487,0,0,0-1.487-1.487h-8.649a1.487,1.487,0,0,0-1.487,1.487h0a1.487,1.487,0,0,0,1.487,1.487h8.649A1.487,1.487,0,0,0,325.663,478.845Z" transform="translate(-279.596 -425.059)" fill="#efefef"/>
      <path id="Trazado_1050048" data-name="Trazado 1050048" d="M318.462,478.845h0a1.487,1.487,0,0,1,1.487-1.487h-4.421a1.487,1.487,0,0,0-1.487,1.487h0a1.487,1.487,0,0,0,1.487,1.487h4.421A1.487,1.487,0,0,1,318.462,478.845Z" transform="translate(-279.597 -425.059)" fill="#ddd"/>
      <path id="Trazado_1050049" data-name="Trazado 1050049" d="M343.117,264.652a2.6,2.6,0,1,0,2.6-2.6A2.607,2.607,0,0,0,343.117,264.652Zm3.564,0a.961.961,0,1,1-.961-.961A.962.962,0,0,1,346.681,264.652Z" transform="translate(-305.488 -233.338)"/>
      <path id="Trazado_1050050" data-name="Trazado 1050050" d="M254.323,410.5a.822.822,0,0,0,0,1.643h2.529a.822.822,0,0,0,0-1.643Z" transform="translate(-225.69 -365.529)"/>
      <path id="Trazado_1050051" data-name="Trazado 1050051" d="M303.356,410.745a.829.829,0,0,0-.742-.225.817.817,0,0,0-.153.047.844.844,0,0,0-.142.076.8.8,0,0,0-.227.227.846.846,0,0,0-.123.3.822.822,0,1,0,1.628.161.82.82,0,0,0-.064-.314A1.1,1.1,0,0,0,303.356,410.745Z" transform="translate(-268.835 -365.53)"/>
      <path id="Trazado_1050052" data-name="Trazado 1050052" d="M336.324,105.01a.822.822,0,0,0-1.162,0l-2.028,2.028a.821.821,0,0,0,0,1.162l2.028,2.028a.822.822,0,1,0,1.162-1.162l-1.447-1.447,1.447-1.447A.822.822,0,0,0,336.324,105.01Z" transform="translate(-296.384 -93.291)"/>
      <path id="Trazado_1050053" data-name="Trazado 1050053" d="M414.055,110.468c.588,0,.636-.4,2.609-2.268a.821.821,0,0,0,0-1.162l-2.028-2.028a.822.822,0,1,0-1.162,1.162l1.447,1.447-1.447,1.447A.823.823,0,0,0,414.055,110.468Z" transform="translate(-367.921 -93.291)"/>
      <path id="Trazado_1050054" data-name="Trazado 1050054" d="M373.443,96.913l-2.277,6.257a.822.822,0,1,0,1.544.562l2.277-6.257a.822.822,0,1,0-1.544-.562Z" transform="translate(-330.419 -85.814)"/>
      <path id="Trazado_1050055" data-name="Trazado 1050055" d="M53.956,24.3c-28.56.092-27.536-.229-28.441.263a2.171,2.171,0,0,0-1.136,1.909v1.162L22.13,26.269V25.69a9.05,9.05,0,0,0,4.917-8.137v-.012a3.642,3.642,0,0,0,1.191-.482.815.815,0,0,0,.084-.05,2.894,2.894,0,0,0,1.339-2.318,2.765,2.765,0,0,0-.886-2.1c.652-3.066.432-5.5-.657-7.233A5.4,5.4,0,0,0,24.68,2.954a.461.461,0,0,1-.263-.157C22.1-.088,16.962-.851,12.461,1.024a.822.822,0,0,0,.632,1.517c3.788-1.577,8.2-1.013,10.043,1.285a2.11,2.11,0,0,0,1.193.734,3.768,3.768,0,0,1,2.4,1.675c.8,1.274.98,3.127.541,5.515a3.487,3.487,0,0,0-1.252-.118,2.77,2.77,0,0,1-2.483-1.011,1.566,1.566,0,0,0-2.152-.309C19.554,11.636,14.36,13.7,9.869,11.729a.813.813,0,0,0-.438-.12.536.536,0,0,0-.069,0,3.873,3.873,0,0,0-1.053.159,7.463,7.463,0,0,1,1.8-7.317h0A.822.822,0,1,0,8.975,3.267C6.4,5.734,5.882,9.282,6.832,12.632c-1.7,1.7-.726,4.4,1.8,4.916a13.184,13.184,0,0,0,.219,2.141,9.12,9.12,0,0,0,1.976,3.874,9.4,9.4,0,0,0,2.651,2.15v.549L9.718,28.477l-3.184.882a4.7,4.7,0,0,0-3.54,3.677l-.005.03L.1,51.029a4.372,4.372,0,0,0,4.316,5.066H31.291a4.277,4.277,0,0,0,2.743-.994,2.307,2.307,0,0,0,1.895.994h8.649a2.308,2.308,0,0,0,0-4.617h-.32V50.222h3.3a.822.822,0,1,0,0-1.643h-3.3V37.788a.822.822,0,0,0-.405-1.536h-7.1a.822.822,0,0,0-.308,1.583V48.579c-10.923,0-10.066.048-10.269-.155-.224-.224-.155,1.1-.155-21.95a.528.528,0,0,1,.529-.528c29.2.023,27.436-.057,27.657.063a.529.529,0,0,1,.277.465V48.051a.529.529,0,0,1-.277.465c-.2.111-.141.043-2.82.063a.822.822,0,1,0,0,1.643c2.444-.067,3.208.26,4.1-.636a2.157,2.157,0,0,0,.636-1.536V26.474A2.172,2.172,0,0,0,53.956,24.3ZM22.039,49.883a5.405,5.405,0,0,0-4.229,2.531,5.406,5.406,0,0,0-4.216-2.53,2.38,2.38,0,0,0-.6-.755,6.113,6.113,0,0,0,1.864-3.517h5.9a6.107,6.107,0,0,0,1.872,3.522A2.378,2.378,0,0,0,22.039,49.883ZM17.67,34.5,16.341,31.07a5.793,5.793,0,0,0,2.984,0l-1.352,3.435a.147.147,0,0,1-.151.1C17.712,34.611,17.7,34.571,17.67,34.5Zm2.817-8.136v1.752l-.31.788a4.182,4.182,0,0,1-4.672,0l-.388-1V26.4A9.187,9.187,0,0,0,20.487,26.368Zm3.683,3.065-3.545,2.823c1.545-3.929,1.525-3.776,1.5-4.063Zm2.878-13.6V13.408A1.241,1.241,0,0,1,27.048,15.829ZM8.6,13.408c-.012.642-.021,1.512-.012,2.416A1.238,1.238,0,0,1,8.6,13.408Zm3.47,9.084c-2.258-2.63-1.766-5.048-1.827-8.865a14.832,14.832,0,0,0,12.042-1.94,4.292,4.292,0,0,0,3.122,1.591c0,.4,0,1.9,0,4.277A7.593,7.593,0,0,1,12.068,22.491Zm1.411,5.674c.029.229.115.305,1.545,4.059l-3.547-2.878ZM6.544,29.357q-.035.012-.068.027A.586.586,0,0,1,6.544,29.357ZM1.721,51.29,4.609,33.344c.511-2.506,2.859-2.4,5.245-3.2l2.8,2.271v5.277a.822.822,0,1,0,1.643,0V33.749l1.951,1.583a1.806,1.806,0,0,0,3.148,0l1.953-1.555v3.913a.822.822,0,0,0,1.643,0V32.472l1.387-1.1c.008,17.806-.017,16.665.018,16.952a3.11,3.11,0,0,1-1.54-1.546,5.837,5.837,0,0,1-.562-2.024.822.822,0,0,0-.82-.78H14.144a.824.824,0,0,0-.82.777,5.837,5.837,0,0,1-.562,2.027c-1.214,2.412-3.418,1.667-4.283,1.806l1.571-10.615a.822.822,0,1,0-1.625-.241L6.818,48.579H5.97a.822.822,0,1,0,0,1.643h5.512a.723.723,0,0,1,.722.72v3.509H4.415A2.729,2.729,0,0,1,1.721,51.29Zm12.126,3.161V51.565a3.77,3.77,0,0,1,3.05,2.887Zm7.936-2.889v2.889H18.721A3.77,3.77,0,0,1,21.784,51.562Zm23.459,2.224a.666.666,0,0,1-.665.665H35.929a.665.665,0,1,1,0-1.33h8.649A.666.666,0,0,1,45.243,53.786Zm-7.154-2.308V37.9h4.526V51.478Zm-1.643,0a5.338,5.338,0,0,0-.882.032c-.024-.346-.058-.444-.189-1.287h1.071ZM33.71,50.222l.188,1.169a2.641,2.641,0,0,1-2.607,3.06H23.428V50.942a.723.723,0,0,1,.722-.72Z" transform="translate(0 0)"/>
      <path id="Trazado_1050056" data-name="Trazado 1050056" d="M294.2,85.582h15.448c.408,0,.49.288,1.7,1.325a1.518,1.518,0,0,0,2.539-1.124V81.036a.822.822,0,0,0-1.643,0V85.5c-.795-.611-1.318-1.563-2.6-1.563H294.2a.5.5,0,0,1-.493-.493V74.573a.5.5,0,0,1,.493-.493h17.55a.5.5,0,0,1,.493.493V77.2a.822.822,0,0,0,1.643,0V74.573a2.139,2.139,0,0,0-2.136-2.136H294.2a2.139,2.139,0,0,0-2.136,2.136v8.873A2.139,2.139,0,0,0,294.2,85.582Z" transform="translate(-260.023 -64.501)"/>
    </g>
  </g>
</svg>
