<svg xmlns="http://www.w3.org/2000/svg" width="1240" height="691.548" viewBox="0 0 1240 691.548">
  <g id="Grupo_1182458" data-name="Grupo 1182458" transform="translate(-180 -6769)">
    <path id="Fondo" d="M0,0H1240V691.548H0Z" transform="translate(180 6769)" fill="#d1fbfd"/>
    <g id="Grupo_1182451" data-name="Grupo 1182451" transform="translate(25.051 2294)">
      <g id="Grupo_1099019" data-name="Grupo 1099019" transform="translate(365.051 4534)">
        <path id="Rect치ngulo_389225" data-name="Rect치ngulo 389225" d="M9,0H811a9,9,0,0,1,9,9V55a0,0,0,0,1,0,0H0a0,0,0,0,1,0,0V9A9,9,0,0,1,9,0Z" fill="#3a1d71"/>
        <path id="Rect치ngulo_389226" data-name="Rect치ngulo 389226" d="M0,0H820a0,0,0,0,1,0,0V510a9,9,0,0,1-9,9H9a9,9,0,0,1-9-9V0A0,0,0,0,1,0,0Z" transform="translate(0 55)" fill="#110628"/>
        <g id="Grupo_1181759" data-name="Grupo 1181759" transform="translate(32 19)">
          <circle id="Elipse_11380" data-name="Elipse 11380" cx="8" cy="8" r="8" fill="#fb130d"/>
          <circle id="Elipse_11381" data-name="Elipse 11381" cx="8" cy="8" r="8" transform="translate(27)" fill="#fecd02"/>
          <circle id="Elipse_11382" data-name="Elipse 11382" cx="8" cy="8" r="8" transform="translate(53)" fill="#43dfaa"/>
        </g>
      </g>
      <text id="public_class_Persona_String_nombre_int_edad_public_void_saludar_System.out.prinln_hola_mi_nombre_e_nombre_public_class_Mais_public_static_void_main_Strinh_args_" data-name="public   class   Persona {        String nombre;        int edad;        public void saludar ( ) {              System.out.prinln(&quot;hola, mi nombre e  &quot;  +  nombre ) ;       }}public class Mais   {      public static void main (Strinh[ ] args )  " transform="translate(399.051 4629)" fill="#ff3afb" font-size="16" font-family="SegoeUI, Segoe UI"><tspan x="0" y="17" xml:space="preserve">public   class   </tspan><tspan y="17" fill="#6595fe">Persona </tspan><tspan y="17" fill="#fff">{</tspan><tspan fill="#fff"><tspan x="0" y="40" xml:space="preserve">        String nombre;</tspan><tspan x="0" y="63" xml:space="preserve">        </tspan><tspan y="63" fill="#bb7e00">int </tspan><tspan y="63">edad;</tspan><tspan x="0" y="86"></tspan><tspan x="0" y="109" xml:space="preserve">        public void saludar ( ) {</tspan><tspan x="0" y="132" xml:space="preserve">              System.out.prinln(</tspan><tspan y="132" xml:space="preserve" fill="#5ed45d">&quot;hola, mi nombre e  &quot; </tspan><tspan y="132" xml:space="preserve"> +  nombre ) ;</tspan><tspan x="0" y="155"></tspan><tspan x="0" y="178" xml:space="preserve">       }</tspan><tspan x="0" y="201">}</tspan><tspan x="0" y="224"></tspan><tspan x="0" y="247" xml:space="preserve">public class Mais   {</tspan><tspan x="0" y="270" xml:space="preserve">      public static void main (Strinh[ ] args )    {</tspan><tspan x="0" y="293" xml:space="preserve">     </tspan><tspan y="293" xml:space="preserve" fill="#bb7e00">     persona persona1</tspan><tspan y="293" xml:space="preserve">  = </tspan><tspan y="293" fill="#ff3afb">new </tspan><tspan y="293" fill="#6595fe">Persona </tspan><tspan y="293" xml:space="preserve">( )  ;</tspan><tspan x="0" y="316" xml:space="preserve">          persona1.edad  = </tspan><tspan y="316" fill="#5ed45d">&quot;Juan&quot; </tspan><tspan y="316" xml:space="preserve"> ;</tspan><tspan x="0" y="339" xml:space="preserve">         persona1.edad  =  </tspan><tspan y="339" fill="#bb7e00">25</tspan><tspan y="339">;</tspan><tspan x="0" y="362" xml:space="preserve">         persona1. saludar ( </tspan><tspan y="362" xml:space="preserve" font-family="SegoeUI-Italic, Segoe UI" font-style="italic">);   </tspan><tspan y="362" xml:space="preserve" fill="#b3b3cb" font-family="SegoeUI-Italic, Segoe UI" font-style="italic">//  Imprime:   &quot;Hola, mi nombre es Juan&quot;</tspan></tspan><tspan fill="#b3b3cb" font-family="SegoeUI-Italic, Segoe UI" font-style="italic"><tspan x="0" y="385"></tspan></tspan><tspan fill="#fff" font-family="SegoeUI-Italic, Segoe UI" font-style="italic"><tspan x="0" y="408" xml:space="preserve">     </tspan><tspan y="408" font-family="SegoeUI, Segoe UI" font-style="normal">}</tspan></tspan><tspan fill="#fff"><tspan x="0" y="431" xml:space="preserve">}    </tspan></tspan></text>
    </g>
  </g>
</svg>
