<svg xmlns="http://www.w3.org/2000/svg" width="136.263" height="418.357" viewBox="0 0 136.263 418.357">
  <g id="Grupo_1182460" data-name="Grupo 1182460" transform="translate(-731.375 -5755.644)">
    <path id="Trazado_1047429" data-name="Trazado 1047429" d="M-7892.821-5803.466l-11.281,37h106.8l8.167-37Z" transform="translate(8646.152 11677.363)" fill="#1bebf5" stroke="#1bebf5" stroke-width="1"/>
    <path id="Trazado_1047432" data-name="Trazado 1047432" d="M-7892.821-5803.466l-11.281,37h126.8l8.167-37Z" transform="translate(8636.152 11820.615)" fill="#1bebf5" stroke="#1bebf5" stroke-width="1"/>
    <path id="Trazado_1050622" data-name="Trazado 1050622" d="M2.828-1.227H8.219V0H1.32V-11.375H2.828ZM13.211.156a3.693,3.693,0,0,1-2.8-1.129,4.19,4.19,0,0,1-1.078-3.02v-.266A5.073,5.073,0,0,1,9.816-6.5,3.748,3.748,0,0,1,11.16-8.051a3.378,3.378,0,0,1,1.871-.559,3.166,3.166,0,0,1,2.563,1.086,4.7,4.7,0,0,1,.914,3.109v.6H10.781a3,3,0,0,0,.73,2.02,2.3,2.3,0,0,0,1.777.77,2.517,2.517,0,0,0,1.3-.312,3.259,3.259,0,0,0,.93-.828l.883.688A3.55,3.55,0,0,1,13.211.156Zm-.18-7.578a1.928,1.928,0,0,0-1.469.637A3.1,3.1,0,0,0,10.828-5h4.234v-.109a2.753,2.753,0,0,0-.594-1.707A1.815,1.815,0,0,0,13.031-7.422ZM21.688.156a3.693,3.693,0,0,1-2.8-1.129,4.19,4.19,0,0,1-1.078-3.02v-.266a5.073,5.073,0,0,1,.48-2.246,3.748,3.748,0,0,1,1.344-1.547,3.378,3.378,0,0,1,1.871-.559A3.166,3.166,0,0,1,24.07-7.523a4.7,4.7,0,0,1,.914,3.109v.6H19.258a3,3,0,0,0,.73,2.02,2.3,2.3,0,0,0,1.777.77,2.517,2.517,0,0,0,1.3-.312,3.259,3.259,0,0,0,.93-.828l.883.688A3.55,3.55,0,0,1,21.688.156Zm-.18-7.578a1.928,1.928,0,0,0-1.469.637A3.1,3.1,0,0,0,19.3-5h4.234v-.109a2.753,2.753,0,0,0-.594-1.707A1.815,1.815,0,0,0,21.508-7.422Zm9.234.266a4.331,4.331,0,0,0-.711-.055A1.9,1.9,0,0,0,28.1-6V0H26.656V-8.453h1.406l.023.977A2.251,2.251,0,0,1,30.1-8.609a1.477,1.477,0,0,1,.641.109Zm11.8,4.18H37.773L36.7,0H35.156L39.5-11.375h1.313L45.164,0H43.625ZM38.227-4.2h3.867l-1.937-5.32ZM53.2-2.117l1.969-6.336h1.547L53.313,1.3Q52.523,3.414,50.8,3.414l-.273-.023-.539-.1V2.117l.391.031a1.923,1.923,0,0,0,1.145-.3A2.148,2.148,0,0,0,52.2.766l.32-.859L49.508-8.453h1.578ZM62.188,0V-11.375h3.719a4.317,4.317,0,0,1,2.785.766,2.759,2.759,0,0,1,.934,2.266,2.31,2.31,0,0,1-.453,1.41,2.937,2.937,0,0,1-1.234.949A2.638,2.638,0,0,1,69.395-5a2.814,2.814,0,0,1,.535,1.723,3.042,3.042,0,0,1-.992,2.406,4.1,4.1,0,0,1-2.8.875Zm1.5-5.32v4.094h2.477a2.385,2.385,0,0,0,1.652-.543,1.907,1.907,0,0,0,.605-1.5q0-2.055-2.234-2.055Zm0-1.2h2.266a2.375,2.375,0,0,0,1.574-.493,1.654,1.654,0,0,0,.59-1.339,1.626,1.626,0,0,0-.547-1.366,2.686,2.686,0,0,0-1.664-.427H63.688Z" transform="translate(763.551 5899.396)" fill="#12263f"/>
    <path id="Trazado_1050623" data-name="Trazado 1050623" d="M3.258-11.375,6.977-2.094,10.7-11.375h1.945V0h-1.5V-4.43l.141-4.781L7.547,0H6.4L2.672-9.187,2.82-4.43V0H1.32V-11.375ZM14.68-4.3a4.993,4.993,0,0,1,.488-2.234A3.643,3.643,0,0,1,16.527-8.07a3.7,3.7,0,0,1,1.988-.539,3.565,3.565,0,0,1,2.793,1.2,4.6,4.6,0,0,1,1.066,3.18v.1A5.036,5.036,0,0,1,21.9-1.918,3.589,3.589,0,0,1,20.551-.391a3.743,3.743,0,0,1-2.02.547,3.556,3.556,0,0,1-2.785-1.2A4.575,4.575,0,0,1,14.68-4.2Zm1.453.172a3.616,3.616,0,0,0,.652,2.258,2.088,2.088,0,0,0,1.746.852,2.075,2.075,0,0,0,1.75-.863A3.955,3.955,0,0,0,20.93-4.3a3.61,3.61,0,0,0-.66-2.254,2.1,2.1,0,0,0-1.754-.863,2.075,2.075,0,0,0-1.727.852A3.925,3.925,0,0,0,16.133-4.133ZM29.109-2.242a1.064,1.064,0,0,0-.441-.91,4.249,4.249,0,0,0-1.539-.559,7.277,7.277,0,0,1-1.742-.562,2.479,2.479,0,0,1-.953-.781,1.869,1.869,0,0,1-.309-1.078A2.193,2.193,0,0,1,25-7.891a3.432,3.432,0,0,1,2.246-.719,3.532,3.532,0,0,1,2.332.742,2.357,2.357,0,0,1,.895,1.9H29.023a1.3,1.3,0,0,0-.5-1.023,1.888,1.888,0,0,0-1.27-.43,1.976,1.976,0,0,0-1.234.344,1.082,1.082,0,0,0-.445.9.877.877,0,0,0,.414.789,5.1,5.1,0,0,0,1.5.508,7.8,7.8,0,0,1,1.754.578,2.558,2.558,0,0,1,1,.809,1.988,1.988,0,0,1,.324,1.152,2.163,2.163,0,0,1-.906,1.816A3.8,3.8,0,0,1,27.3.156,4.257,4.257,0,0,1,25.5-.2a2.922,2.922,0,0,1-1.223-1A2.42,2.42,0,0,1,23.836-2.6h1.445a1.5,1.5,0,0,0,.582,1.152,2.258,2.258,0,0,0,1.434.426,2.331,2.331,0,0,0,1.316-.332A1.02,1.02,0,0,0,29.109-2.242ZM34.4-10.5v2.047h1.578v1.117H34.4v5.249a1.173,1.173,0,0,0,.211.763.888.888,0,0,0,.719.254,3.5,3.5,0,0,0,.688-.094V0a4.215,4.215,0,0,1-1.109.155A1.8,1.8,0,0,1,33.445-.43a2.517,2.517,0,0,1-.492-1.664V-7.336H31.414V-8.453h1.539V-10.5ZM41.75-7.156a4.331,4.331,0,0,0-.711-.055A1.9,1.9,0,0,0,39.109-6V0H37.664V-8.453H39.07l.023.977a2.251,2.251,0,0,1,2.016-1.133,1.477,1.477,0,0,1,.641.109ZM47.984,0a3.036,3.036,0,0,1-.2-.891A3.225,3.225,0,0,1,45.375.156a2.984,2.984,0,0,1-2.051-.707,2.287,2.287,0,0,1-.8-1.793,2.39,2.39,0,0,1,1-2.051,4.733,4.733,0,0,1,2.824-.73h1.406v-.664A1.623,1.623,0,0,0,47.3-7a1.821,1.821,0,0,0-1.336-.449,2.107,2.107,0,0,0-1.3.391,1.151,1.151,0,0,0-.523.945H42.7a2,2,0,0,1,.449-1.223,3.066,3.066,0,0,1,1.219-.934,4.1,4.1,0,0,1,1.691-.344,3.342,3.342,0,0,1,2.289.73A2.635,2.635,0,0,1,49.2-5.867v3.891a4.757,4.757,0,0,0,.3,1.852V0Zm-2.4-1.1a2.54,2.54,0,0,0,1.289-.352,2.127,2.127,0,0,0,.883-.914V-4.1H46.625q-2.656,0-2.656,1.555a1.316,1.316,0,0,0,.453,1.063A1.742,1.742,0,0,0,45.586-1.1Zm9.969-6.055a4.331,4.331,0,0,0-.711-.055A1.9,1.9,0,0,0,52.914-6V0H51.469V-8.453h1.406l.023.977a2.251,2.251,0,0,1,2.016-1.133,1.477,1.477,0,0,1,.641.109ZM65.766-2.242a1.064,1.064,0,0,0-.441-.91,4.249,4.249,0,0,0-1.539-.559,7.277,7.277,0,0,1-1.742-.562,2.479,2.479,0,0,1-.953-.781,1.869,1.869,0,0,1-.309-1.078,2.193,2.193,0,0,1,.879-1.758,3.432,3.432,0,0,1,2.246-.719,3.532,3.532,0,0,1,2.332.742,2.357,2.357,0,0,1,.895,1.9H65.68a1.3,1.3,0,0,0-.5-1.023,1.888,1.888,0,0,0-1.27-.43,1.976,1.976,0,0,0-1.234.344,1.082,1.082,0,0,0-.445.9.877.877,0,0,0,.414.789,5.1,5.1,0,0,0,1.5.508,7.8,7.8,0,0,1,1.754.578,2.558,2.558,0,0,1,1,.809,1.988,1.988,0,0,1,.324,1.152A2.163,2.163,0,0,1,66.3-.527a3.8,3.8,0,0,1-2.352.684,4.257,4.257,0,0,1-1.8-.359,2.922,2.922,0,0,1-1.223-1A2.42,2.42,0,0,1,60.492-2.6h1.445a1.5,1.5,0,0,0,.582,1.152,2.258,2.258,0,0,0,1.434.426,2.331,2.331,0,0,0,1.316-.332A1.02,1.02,0,0,0,65.766-2.242ZM74.313-.836a3.07,3.07,0,0,1-2.477.992,2.628,2.628,0,0,1-2.059-.785,3.4,3.4,0,0,1-.715-2.324v-5.5h1.445v5.461q0,1.922,1.563,1.922a2.163,2.163,0,0,0,2.2-1.234V-8.453h1.445V0H74.344Zm4.961-7.617.039.938A3.122,3.122,0,0,1,81.82-8.609,2.417,2.417,0,0,1,84.234-7.25a3.2,3.2,0,0,1,1.1-.984,3.242,3.242,0,0,1,1.6-.375q2.781,0,2.828,2.945V0H88.313V-5.578A1.941,1.941,0,0,0,87.9-6.934a1.823,1.823,0,0,0-1.391-.449,1.916,1.916,0,0,0-1.336.48,1.949,1.949,0,0,0-.617,1.293V0H83.1V-5.539a1.613,1.613,0,0,0-1.8-1.844,1.934,1.934,0,0,0-1.945,1.211V0H77.906V-8.453ZM97.156,0a3.036,3.036,0,0,1-.2-.891A3.225,3.225,0,0,1,94.547.156,2.984,2.984,0,0,1,92.5-.551a2.288,2.288,0,0,1-.8-1.793,2.39,2.39,0,0,1,1-2.051,4.733,4.733,0,0,1,2.824-.73H96.93v-.664A1.623,1.623,0,0,0,96.477-7a1.821,1.821,0,0,0-1.336-.449,2.108,2.108,0,0,0-1.3.391,1.151,1.151,0,0,0-.523.945H91.867a2,2,0,0,1,.449-1.223,3.066,3.066,0,0,1,1.219-.934,4.1,4.1,0,0,1,1.691-.344,3.342,3.342,0,0,1,2.289.73,2.635,2.635,0,0,1,.859,2.012v3.891a4.757,4.757,0,0,0,.3,1.852V0Zm-2.4-1.1a2.54,2.54,0,0,0,1.289-.352,2.127,2.127,0,0,0,.883-.914V-4.1H95.8q-2.656,0-2.656,1.555a1.316,1.316,0,0,0,.453,1.063A1.742,1.742,0,0,0,94.758-1.1Z" transform="translate(749.551 6042.649)" fill="#12263f"/>
    <g id="Grupo_1179615" data-name="Grupo 1179615" transform="translate(-1.5 77.396)">
      <g id="Rectángulo_406412" data-name="Rectángulo 406412" transform="translate(738.051 5867)" fill="#1bebf5" stroke="#1bebf5" stroke-width="1">
        <rect width="125" height="37" stroke="none"/>
        <rect x="0.5" y="0.5" width="124" height="36" fill="none"/>
      </g>
      <path id="Trazado_1050626" data-name="Trazado 1050626" d="M4.672-5.07A7.053,7.053,0,0,1,1.863-6.434a2.6,2.6,0,0,1-.879-2,2.751,2.751,0,0,1,1.074-2.223,4.269,4.269,0,0,1,2.793-.879,4.66,4.66,0,0,1,2.09.453,3.436,3.436,0,0,1,1.422,1.25,3.2,3.2,0,0,1,.5,1.742H7.359A2.08,2.08,0,0,0,6.7-9.713,2.669,2.669,0,0,0,4.852-10.3a2.732,2.732,0,0,0-1.73.489A1.632,1.632,0,0,0,2.5-8.458,1.468,1.468,0,0,0,3.09-7.28,5.785,5.785,0,0,0,5.1-6.4a9.316,9.316,0,0,1,2.219.88A3.367,3.367,0,0,1,8.5-4.4a2.861,2.861,0,0,1,.387,1.508A2.658,2.658,0,0,1,7.813-.676,4.6,4.6,0,0,1,4.93.156,5.347,5.347,0,0,1,2.742-.293a3.681,3.681,0,0,1-1.566-1.23A3,3,0,0,1,.625-3.3H2.133a1.959,1.959,0,0,0,.762,1.629,3.207,3.207,0,0,0,2.035.6,2.948,2.948,0,0,0,1.82-.484,1.573,1.573,0,0,0,.633-1.32A1.545,1.545,0,0,0,6.8-4.168,6.755,6.755,0,0,0,4.672-5.07ZM15.8-.836a3.07,3.07,0,0,1-2.477.992A2.628,2.628,0,0,1,11.27-.629a3.4,3.4,0,0,1-.715-2.324v-5.5H12v5.461Q12-1.07,13.563-1.07a2.163,2.163,0,0,0,2.2-1.234V-8.453h1.445V0H15.836Zm4.961-7.617.039.938a3.122,3.122,0,0,1,2.508-1.094A2.417,2.417,0,0,1,25.727-7.25a3.2,3.2,0,0,1,1.1-.984,3.242,3.242,0,0,1,1.6-.375q2.781,0,2.828,2.945V0H29.8V-5.578a1.941,1.941,0,0,0-.414-1.355A1.823,1.823,0,0,0,28-7.383a1.916,1.916,0,0,0-1.336.48,1.949,1.949,0,0,0-.617,1.293V0H24.594V-5.539a1.613,1.613,0,0,0-1.8-1.844,1.934,1.934,0,0,0-1.945,1.211V0H19.4V-8.453ZM38.648,0a3.036,3.036,0,0,1-.2-.891A3.225,3.225,0,0,1,36.039.156a2.984,2.984,0,0,1-2.051-.707,2.287,2.287,0,0,1-.8-1.793,2.39,2.39,0,0,1,1-2.051,4.733,4.733,0,0,1,2.824-.73h1.406v-.664A1.623,1.623,0,0,0,37.969-7a1.821,1.821,0,0,0-1.336-.449,2.107,2.107,0,0,0-1.3.391,1.151,1.151,0,0,0-.523.945H33.359a2,2,0,0,1,.449-1.223,3.066,3.066,0,0,1,1.219-.934,4.1,4.1,0,0,1,1.691-.344,3.342,3.342,0,0,1,2.289.73,2.635,2.635,0,0,1,.859,2.012v3.891a4.757,4.757,0,0,0,.3,1.852V0Zm-2.4-1.1a2.54,2.54,0,0,0,1.289-.352,2.127,2.127,0,0,0,.883-.914V-4.1H37.289q-2.656,0-2.656,1.555a1.316,1.316,0,0,0,.453,1.063A1.742,1.742,0,0,0,36.25-1.1Z" transform="translate(744.051 5892)" fill="#12263f"/>
      <path id="Trazado_1050625" data-name="Trazado 1050625" d="M7.6-2.977H2.836L1.766,0H.219L4.563-11.375H5.875L10.227,0H8.688ZM3.289-4.2H7.156L5.219-9.523ZM15.672-6.1h3.172v1.367H15.672v3.594H14.219V-4.734H11.047V-6.1h3.172v-3.32h1.453ZM20.828,0V-11.375h3.719a4.317,4.317,0,0,1,2.785.766,2.759,2.759,0,0,1,.934,2.266,2.31,2.31,0,0,1-.453,1.41,2.937,2.937,0,0,1-1.234.949A2.638,2.638,0,0,1,28.035-5a2.814,2.814,0,0,1,.535,1.723,3.042,3.042,0,0,1-.992,2.406,4.1,4.1,0,0,1-2.8.875Zm1.5-5.32v4.094H24.8a2.385,2.385,0,0,0,1.652-.543,1.907,1.907,0,0,0,.605-1.5q0-2.055-2.234-2.055Zm0-1.2h2.266a2.375,2.375,0,0,0,1.574-.493,1.654,1.654,0,0,0,.59-1.339,1.626,1.626,0,0,0-.547-1.366,2.686,2.686,0,0,0-1.664-.427H22.328Z" transform="translate(812.051 5892)" fill="#12263f"/>
      <g id="Grupo_1179614" data-name="Grupo 1179614">
        <path id="Trazado_1047430" data-name="Trazado 1047430" d="M-7846.684-5721.044h-14.347l5.464-5.3" transform="translate(8654.051 11608)" fill="none" stroke="#12263f" stroke-linecap="round" stroke-linejoin="round" stroke-width="1"/>
        <path id="Trazado_1047431" data-name="Trazado 1047431" d="M-7846.684-5726.341h-14.347l5.464,5.3" transform="translate(8654.051 11613.297)" fill="none" stroke="#12263f" stroke-linecap="round" stroke-linejoin="round" stroke-width="1"/>
      </g>
    </g>
    <g id="Grupo_1179616" data-name="Grupo 1179616" transform="translate(-5088.108 6659.545) rotate(-90)">
      <path id="Trazado_1047430-2" data-name="Trazado 1047430" d="M-7846.684-5721.044h-14.347l5.464-5.3" transform="translate(8654.051 11608)" fill="none" stroke="#12263f" stroke-linecap="round" stroke-linejoin="round" stroke-width="1"/>
      <path id="Trazado_1047431-2" data-name="Trazado 1047431" d="M-7837.684-5726.341h-23.347l5.464,5.3" transform="translate(8654.051 11613.297)" fill="none" stroke="#12263f" stroke-linecap="round" stroke-linejoin="round" stroke-width="1"/>
    </g>
    <g id="Grupo_1179617" data-name="Grupo 1179617" transform="translate(-5088.108 6731.545) rotate(-90)">
      <path id="Trazado_1047430-3" data-name="Trazado 1047430" d="M-7846.684-5721.044h-14.347l5.464-5.3" transform="translate(8654.051 11608)" fill="none" stroke="#12263f" stroke-linecap="round" stroke-linejoin="round" stroke-width="1"/>
      <path id="Trazado_1047431-3" data-name="Trazado 1047431" d="M-7837.684-5726.341h-23.347l5.464,5.3" transform="translate(8654.051 11613.297)" fill="none" stroke="#12263f" stroke-linecap="round" stroke-linejoin="round" stroke-width="1"/>
    </g>
    <g id="Grupo_1179618" data-name="Grupo 1179618" transform="translate(-5088.108 6803.634) rotate(-90)">
      <path id="Trazado_1047430-4" data-name="Trazado 1047430" d="M-7846.684-5721.044h-14.347l5.464-5.3" transform="translate(8654.051 11608)" fill="none" stroke="#12263f" stroke-linecap="round" stroke-linejoin="round" stroke-width="1"/>
      <path id="Trazado_1047431-4" data-name="Trazado 1047431" d="M-7837.684-5726.341h-23.347l5.464,5.3" transform="translate(8654.051 11613.297)" fill="none" stroke="#12263f" stroke-linecap="round" stroke-linejoin="round" stroke-width="1"/>
    </g>
    <g id="Grupo_1182457" data-name="Grupo 1182457" transform="translate(-5088.108 6874.634) rotate(-90)">
      <path id="Trazado_1047430-5" data-name="Trazado 1047430" d="M-7846.684-5721.044h-14.347l5.464-5.3" transform="translate(8654.051 11608)" fill="none" stroke="#12263f" stroke-linecap="round" stroke-linejoin="round" stroke-width="1"/>
      <path id="Trazado_1047431-5" data-name="Trazado 1047431" d="M-7837.684-5726.341h-23.347l5.464,5.3" transform="translate(8654.051 11613.297)" fill="none" stroke="#12263f" stroke-linecap="round" stroke-linejoin="round" stroke-width="1"/>
    </g>
    <circle id="Elipse_12521" data-name="Elipse 12521" cx="40.5" cy="40.5" r="40.5" transform="translate(759.55 5755.644)" fill="#1bebf5"/>
    <circle id="Elipse_12522" data-name="Elipse 12522" cx="40.5" cy="40.5" r="40.5" transform="translate(759.051 6093)" fill="#1bebf5"/>
    <path id="Trazado_1050621" data-name="Trazado 1050621" d="M2.93,0H1.43V-11.375h1.5ZM6.813-8.453l.047,1.063A3.08,3.08,0,0,1,9.391-8.609q2.68,0,2.7,3.023V0H10.648V-5.594a1.946,1.946,0,0,0-.418-1.352,1.675,1.675,0,0,0-1.277-.437,2.086,2.086,0,0,0-1.234.375,2.546,2.546,0,0,0-.828.984V0H5.445V-8.453ZM15.844,0H14.4V-8.453h1.445ZM14.281-10.7a.863.863,0,0,1,.215-.594.807.807,0,0,1,.637-.242.819.819,0,0,1,.641.242.854.854,0,0,1,.219.594.826.826,0,0,1-.219.586.834.834,0,0,1-.641.234.821.821,0,0,1-.637-.234A.834.834,0,0,1,14.281-10.7Zm7.266,9.672A2.082,2.082,0,0,0,22.9-1.492a1.649,1.649,0,0,0,.641-1.172h1.367a2.621,2.621,0,0,1-.5,1.383,3.293,3.293,0,0,1-1.23,1.047,3.55,3.55,0,0,1-1.629.391A3.482,3.482,0,0,1,18.8-1a4.59,4.59,0,0,1-1.02-3.152v-.242a5.089,5.089,0,0,1,.453-2.2,3.451,3.451,0,0,1,1.3-1.492,3.7,3.7,0,0,1,2-.531,3.39,3.39,0,0,1,2.363.852,3.043,3.043,0,0,1,1,2.211H23.539a1.992,1.992,0,0,0-.621-1.348,1.932,1.932,0,0,0-1.379-.527,2.023,2.023,0,0,0-1.707.793,3.724,3.724,0,0,0-.605,2.293v.273a3.65,3.65,0,0,0,.6,2.25A2.033,2.033,0,0,0,21.547-1.023ZM28.1,0H26.656V-8.453H28.1ZM26.539-10.7a.863.863,0,0,1,.215-.594.807.807,0,0,1,.637-.242.819.819,0,0,1,.641.242.854.854,0,0,1,.219.594.826.826,0,0,1-.219.586.834.834,0,0,1-.641.234.821.821,0,0,1-.637-.234A.834.834,0,0,1,26.539-10.7ZM30.031-4.3a4.993,4.993,0,0,1,.488-2.234A3.643,3.643,0,0,1,31.879-8.07a3.7,3.7,0,0,1,1.988-.539,3.565,3.565,0,0,1,2.793,1.2,4.6,4.6,0,0,1,1.066,3.18v.1a5.036,5.036,0,0,1-.473,2.215A3.589,3.589,0,0,1,35.9-.391a3.743,3.743,0,0,1-2.02.547,3.556,3.556,0,0,1-2.785-1.2A4.575,4.575,0,0,1,30.031-4.2Zm1.453.172a3.616,3.616,0,0,0,.652,2.258,2.088,2.088,0,0,0,1.746.852,2.075,2.075,0,0,0,1.75-.863A3.955,3.955,0,0,0,36.281-4.3a3.61,3.61,0,0,0-.66-2.254,2.1,2.1,0,0,0-1.754-.863,2.075,2.075,0,0,0-1.727.852A3.925,3.925,0,0,0,31.484-4.133Z" transform="translate(780.551 5802.644)" fill="#12263f"/>
    <path id="Trazado_1050624" data-name="Trazado 1050624" d="M7.594-5.023H2.82V0H1.32V-11.375H8.367v1.227H2.82v3.9H7.594ZM11.508,0H10.063V-8.453h1.445ZM9.945-10.7a.863.863,0,0,1,.215-.594.807.807,0,0,1,.637-.242.819.819,0,0,1,.641.242.854.854,0,0,1,.219.594.826.826,0,0,1-.219.586.834.834,0,0,1-.641.234.821.821,0,0,1-.637-.234A.834.834,0,0,1,9.945-10.7Zm5.242,2.242.047,1.063a3.08,3.08,0,0,1,2.531-1.219q2.68,0,2.7,3.023V0H19.023V-5.594a1.946,1.946,0,0,0-.418-1.352,1.675,1.675,0,0,0-1.277-.437,2.086,2.086,0,0,0-1.234.375,2.546,2.546,0,0,0-.828.984V0H13.82V-8.453Z" transform="translate(789.051 6140)" fill="#12263f"/>
  </g>
</svg>
