<svg id="Grupo_1099019" data-name="Grupo 1099019" xmlns="http://www.w3.org/2000/svg" width="884" height="280" viewBox="0 0 884 280">
  <path id="Rect치ngulo_389225" data-name="Rect치ngulo 389225" d="M9,0H875a9,9,0,0,1,9,9V40a0,0,0,0,1,0,0H0a0,0,0,0,1,0,0V9A9,9,0,0,1,9,0Z" fill="#3a1d71"/>
  <path id="Rect치ngulo_389226" data-name="Rect치ngulo 389226" d="M0,0H884a0,0,0,0,1,0,0V231a9,9,0,0,1-9,9H9a9,9,0,0,1-9-9V0A0,0,0,0,1,0,0Z" transform="translate(0 40)" fill="#110628"/>
  <g id="Grupo_1181759" data-name="Grupo 1181759" transform="translate(32 12)">
    <circle id="Elipse_11380" data-name="Elipse 11380" cx="8" cy="8" r="8" fill="#fb130d"/>
    <circle id="Elipse_11381" data-name="Elipse 11381" cx="8" cy="8" r="8" transform="translate(27)" fill="#fecd02"/>
    <circle id="Elipse_11382" data-name="Elipse 11382" cx="8" cy="8" r="8" transform="translate(53)" fill="#43dfaa"/>
  </g>
</svg>
