<svg xmlns="http://www.w3.org/2000/svg" width="820" height="327" viewBox="0 0 820 327">
  <g id="Grupo_1181758" data-name="Grupo 1181758" transform="translate(-365.051 -4534)">
    <g id="Grupo_1099019" data-name="Grupo 1099019" transform="translate(365.051 4534)">
      <path id="Rect치ngulo_389225" data-name="Rect치ngulo 389225" d="M9,0H811a9,9,0,0,1,9,9V55a0,0,0,0,1,0,0H0a0,0,0,0,1,0,0V9A9,9,0,0,1,9,0Z" fill="#3a1d71"/>
      <path id="Rect치ngulo_389226" data-name="Rect치ngulo 389226" d="M0,0H820a0,0,0,0,1,0,0V263a9,9,0,0,1-9,9H9a9,9,0,0,1-9-9V0A0,0,0,0,1,0,0Z" transform="translate(0 55)" fill="#110628"/>
      <g id="Grupo_1181759" data-name="Grupo 1181759" transform="translate(32 19)">
        <circle id="Elipse_11380" data-name="Elipse 11380" cx="8" cy="8" r="8" fill="#fb130d"/>
        <circle id="Elipse_11381" data-name="Elipse 11381" cx="8" cy="8" r="8" transform="translate(27)" fill="#fecd02"/>
        <circle id="Elipse_11382" data-name="Elipse 11382" cx="8" cy="8" r="8" transform="translate(53)" fill="#43dfaa"/>
      </g>
    </g>
    <text id="Inicio_Asignar_valores_directamente_edad_18_nombre_Carlos_Mostrar_los_valores_Mostrar_La_edad_de_nombre_es_edad_Fin" data-name="Inicio
    // Asignar valores directamente
    edad = 18
    nombre = &quot;Carlos&quot;

    // Mostrar los valores
    Mostrar &quot;La edad de&quot;, nombre, &quot;es&quot;, edad
Fin" transform="translate(399.051 4623)" fill="#fff" font-size="16" font-family="SegoeUI, Segoe UI"><tspan x="0" y="17">Inicio</tspan><tspan x="0" y="40" xml:space="preserve">    // Asignar valores directamente</tspan><tspan x="0" y="63" xml:space="preserve">    edad = 18</tspan><tspan x="0" y="86" xml:space="preserve">    nombre = &quot;Carlos&quot;</tspan><tspan x="0" y="109"></tspan><tspan x="0" y="132" xml:space="preserve">    // Mostrar los valores</tspan><tspan x="0" y="155" xml:space="preserve">    Mostrar &quot;La edad de&quot;, nombre, &quot;es&quot;, </tspan><tspan x="0" y="178">edad</tspan><tspan x="0" y="201">Fin</tspan></text>
  </g>
</svg>
