<svg xmlns="http://www.w3.org/2000/svg" xmlns:xlink="http://www.w3.org/1999/xlink" width="108.914" height="108.914" viewBox="0 0 108.914 108.914">
  <defs>
    <filter id="Trazado_874925" x="0" y="0" width="108.914" height="108.914" filterUnits="userSpaceOnUse">
      <feOffset dy="3" input="SourceAlpha"/>
      <feGaussianBlur stdDeviation="3" result="blur"/>
      <feFlood flood-opacity="0.161"/>
      <feComposite operator="in" in2="blur"/>
      <feComposite in="SourceGraphic"/>
    </filter>
  </defs>
  <g id="Grupo_1179792" data-name="Grupo 1179792" transform="translate(9 6)">
    <g id="Grupo_1179015" data-name="Grupo 1179015" transform="translate(0 0)">
      <g id="Grupo_1111527" data-name="Grupo 1111527" transform="translate(0 0)">
        <g id="Grupo_1111316" data-name="Grupo 1111316">
          <g id="Grupo_1109835" data-name="Grupo 1109835" transform="translate(0 0)">
            <g id="Grupo_1107913" data-name="Grupo 1107913" transform="translate(0 0)">
              <g transform="matrix(1, 0, 0, 1, -9, -6)" filter="url(#Trazado_874925)">
                <g id="Trazado_874925-2" data-name="Trazado 874925" transform="translate(9 6)" fill="#fdf9d4" opacity="0.859">
                  <path d="M 45.45676803588867 89.41407012939453 C 39.52198028564453 89.41407012939453 33.76551818847656 88.25206756591797 28.34726715087891 85.96034240722656 C 23.11310577392578 83.74648284912109 18.41203117370605 80.57682800292969 14.37464332580566 76.5394287109375 C 10.33724308013916 72.50202941894531 7.167593002319336 67.80095672607422 4.953730583190918 62.56679534912109 C 2.662005424499512 57.14855575561523 1.500005483627319 51.39208221435547 1.500005483627319 45.45729446411133 C 1.500005483627319 39.52198028564453 2.662005424499512 33.76550674438477 4.953730583190918 28.34726905822754 C 7.167593002319336 23.11310577392578 10.33724308013916 18.41203117370605 14.37464332580566 14.37464332580566 C 18.41203117370605 10.33724403381348 23.11310577392578 7.167593955993652 28.34726715087891 4.953731060028076 C 33.76550674438477 2.662006139755249 39.52198028564453 1.500006198883057 45.45676803588867 1.500006198883057 C 51.39155578613281 1.500006198883057 57.14802932739258 2.662006139755249 62.56626892089844 4.953731060028076 C 67.80043029785156 7.167593955993652 72.50150299072266 10.33724403381348 76.53890228271484 14.37464332580566 C 80.57630920410156 18.41203117370605 83.74595642089844 23.11310577392578 85.95981597900391 28.34726905822754 C 88.25154113769531 33.76551818847656 89.41354370117188 39.52198028564453 89.41354370117188 45.45676803588867 C 89.41354370117188 51.39208221435547 88.25154113769531 57.14855575561523 85.95981597900391 62.56679534912109 C 83.74595642089844 67.80095672607422 80.57630920410156 72.50202941894531 76.53890228271484 76.5394287109375 C 72.50150299072266 80.57682800292969 67.80043029785156 83.74648284912109 62.56626892089844 85.96034240722656 C 57.14802932739258 88.25206756591797 51.39155578613281 89.41407012939453 45.45676803588867 89.41407012939453 Z" stroke="none"/>
                  <path d="M 45.45676803588867 3 C 39.72381210327148 3 34.1639404296875 4.12213134765625 28.93159484863281 6.335227966308594 C 23.87622833251953 8.473472595214844 19.33542633056641 11.53517150878906 15.43529510498047 15.435302734375 C 11.53517150878906 19.33543395996094 8.473464965820312 23.87622833251953 6.335227966308594 28.93160247802734 C 4.122123718261719 34.16394424438477 3 39.72381591796875 3 45.4572868347168 C 3 51.19024658203125 4.122123718261719 56.75011825561523 6.335227966308594 61.98246002197266 C 8.473464965820312 67.03782653808594 11.53517150878906 71.57862854003906 15.43529510498047 75.478759765625 C 19.33542633056641 79.37889099121094 23.87622833251953 82.44058990478516 28.93159484863281 84.57883453369141 C 34.1639404296875 86.79193115234375 39.72381210327148 87.9140625 45.45676803588867 87.9140625 C 51.18972396850586 87.9140625 56.74959564208984 86.79193115234375 61.98194122314453 84.57883453369141 C 67.03730773925781 82.44058990478516 71.57810974121094 79.37889099121094 75.47824096679688 75.478759765625 C 79.37837219238281 71.57862854003906 82.44007110595703 67.03782653808594 84.57830810546875 61.98246002197266 C 86.79141235351562 56.75011825561523 87.91353607177734 51.19024658203125 87.91353607177734 45.4567756652832 C 87.91353607177734 39.72381591796875 86.79141235351562 34.16394424438477 84.57830810546875 28.93160247802734 C 82.44007110595703 23.87622833251953 79.37837219238281 19.33543395996094 75.47824096679688 15.435302734375 C 71.57810974121094 11.53517150878906 67.03730773925781 8.473472595214844 61.98194122314453 6.335227966308594 C 56.74959564208984 4.12213134765625 51.18972396850586 3 45.45676803588867 3 M 45.45676803588867 0 C 70.56185150146484 0 90.91353607177734 20.35169219970703 90.91353607177734 45.4567756652832 L 90.91353607177734 45.4572868347168 C 90.91353607177734 70.5623779296875 70.56185150146484 90.9140625 45.45676803588867 90.9140625 C 20.3516845703125 90.9140625 0 70.5623779296875 0 45.4572868347168 L 0 45.4567756652832 C 0 20.35169219970703 20.3516845703125 0 45.45676803588867 0 Z" stroke="none" fill="#c7b622"/>
                </g>
              </g>
              <g id="Trazado_874923" data-name="Trazado 874923" transform="translate(0)" fill="none">
                <path d="M45.457,0A45.457,45.457,0,0,1,90.914,45.457h0A45.457,45.457,0,0,1,0,45.457H0A45.457,45.457,0,0,1,45.457,0Z" stroke="none"/>
                <path d="M 45.45676803588867 3 C 39.72381210327148 3 34.1639404296875 4.12213134765625 28.93159484863281 6.335227966308594 C 23.87622833251953 8.473472595214844 19.33542633056641 11.53517150878906 15.43529510498047 15.435302734375 C 11.53517150878906 19.33543395996094 8.473464965820312 23.87622833251953 6.335227966308594 28.93160247802734 C 4.122123718261719 34.16394424438477 3 39.72381591796875 3 45.4572868347168 C 3 51.19024658203125 4.122123718261719 56.75011825561523 6.335227966308594 61.98246002197266 C 8.473464965820312 67.03782653808594 11.53517150878906 71.57862854003906 15.43529510498047 75.478759765625 C 19.33542633056641 79.37889099121094 23.87622833251953 82.44058990478516 28.93159484863281 84.57883453369141 C 34.1639404296875 86.79193115234375 39.72381210327148 87.9140625 45.45676803588867 87.9140625 C 51.18972396850586 87.9140625 56.74959564208984 86.79193115234375 61.98194122314453 84.57883453369141 C 67.03730773925781 82.44058990478516 71.57810974121094 79.37889099121094 75.47824096679688 75.478759765625 C 79.37837219238281 71.57862854003906 82.44007110595703 67.03782653808594 84.57830810546875 61.98246002197266 C 86.79141235351562 56.75011825561523 87.91353607177734 51.19024658203125 87.91353607177734 45.4567756652832 C 87.91353607177734 39.72381591796875 86.79141235351562 34.16394424438477 84.57830810546875 28.93160247802734 C 82.44007110595703 23.87622833251953 79.37837219238281 19.33543395996094 75.47824096679688 15.435302734375 C 71.57810974121094 11.53517150878906 67.03730773925781 8.473472595214844 61.98194122314453 6.335227966308594 C 56.74959564208984 4.12213134765625 51.18972396850586 3 45.45676803588867 3 M 45.45676803588867 0 C 70.56185150146484 0 90.91353607177734 20.35169219970703 90.91353607177734 45.4567756652832 L 90.91353607177734 45.4572868347168 C 90.91353607177734 70.5623779296875 70.56185150146484 90.9140625 45.45676803588867 90.9140625 C 20.3516845703125 90.9140625 0 70.5623779296875 0 45.4572868347168 L 0 45.4567756652832 C 0 20.35169219970703 20.3516845703125 0 45.45676803588867 0 Z" stroke="none" fill="#c7b622"/>
              </g>
            </g>
          </g>
        </g>
      </g>
    </g>
    <g id="diagram_1865728" transform="translate(15.579 15.951)">
      <path id="Trazado_1049885" data-name="Trazado 1049885" d="M17.13,249.184H9.39a1.777,1.777,0,0,1-1.777-1.777v-7.74A1.777,1.777,0,0,1,9.39,237.89h7.74a1.777,1.777,0,0,1,1.777,1.777v7.74A1.777,1.777,0,0,1,17.13,249.184Zm0,0" transform="translate(-6.725 -209.685)" fill="#ffec56"/>
      <path id="Trazado_1049886" data-name="Trazado 1049886" d="M62.261,237.891H58.707a1.777,1.777,0,0,1,1.777,1.777v7.74a1.777,1.777,0,0,1-1.777,1.777h3.554a1.777,1.777,0,0,0,1.777-1.777v-7.74A1.777,1.777,0,0,0,62.261,237.891Zm0,0" transform="translate(-51.856 -209.685)" fill="#f9cd45"/>
      <path id="Trazado_1049887" data-name="Trazado 1049887" d="M211.641,240.051a6.149,6.149,0,1,1-6.149-6.149A6.148,6.148,0,0,1,211.641,240.051Zm0,0" transform="translate(-176.079 -206.162)" fill="#ff318e"/>
      <path id="Trazado_1049888" data-name="Trazado 1049888" d="M238.581,233.9a6.146,6.146,0,0,0-1.777.262,6.149,6.149,0,0,1,0,11.774,6.149,6.149,0,1,0,1.777-12.036Zm0,0" transform="translate(-209.167 -206.162)" fill="#e21e89"/>
      <path id="Trazado_1049889" data-name="Trazado 1049889" d="M118.306,19.5H81.355a1.782,1.782,0,0,1-1.777-1.777V9.89a1.782,1.782,0,0,1,1.777-1.777h36.951a1.781,1.781,0,0,1,1.777,1.777v7.834A1.782,1.782,0,0,1,118.306,19.5Zm0,0" transform="translate(-70.291 -6.725)" fill="#5e8ee1"/>
      <path id="Trazado_1049890" data-name="Trazado 1049890" d="M397.223,233.188l-6.641,11.5h13.282l-6.641-11.5-6.641,11.5h13.282Zm0,0" transform="translate(-344.998 -205.531)" fill="#aceded"/>
      <path id="Trazado_1049891" data-name="Trazado 1049891" d="M434.038,233.188l-1.777,3.077,4.864,8.425h3.553Zm0,0" transform="translate(-381.813 -205.531)" fill="#66d6e6"/>
      <path id="Trazado_1049892" data-name="Trazado 1049892" d="M384.518,8.113h-3.554a1.782,1.782,0,0,1,1.777,1.777v7.834a1.782,1.782,0,0,1-1.777,1.777h3.554a1.782,1.782,0,0,0,1.777-1.777V9.89A1.782,1.782,0,0,0,384.518,8.113Zm0,0" transform="translate(-336.503 -6.724)" fill="#467bff"/>
      <path id="Trazado_1049893" data-name="Trazado 1049893" d="M139.414,417.447H108.89a1.782,1.782,0,0,1-1.777-1.777v-6.027a1.782,1.782,0,0,1,1.777-1.777h30.524a1.782,1.782,0,0,1,1.777,1.777v6.027A1.782,1.782,0,0,1,139.414,417.447Zm0,0" transform="translate(-94.612 -359.824)" fill="#30d8b8"/>
      <path id="Trazado_1049894" data-name="Trazado 1049894" d="M356.983,407.867H353.43a1.782,1.782,0,0,1,1.777,1.777v6.027a1.782,1.782,0,0,1-1.777,1.777h3.554a1.782,1.782,0,0,0,1.777-1.777v-6.027A1.782,1.782,0,0,0,356.983,407.867Zm0,0" transform="translate(-312.182 -359.823)" fill="#008b74"/>
      <path id="Trazado_1049895" data-name="Trazado 1049895" d="M59.635,38.715,53.07,27.344c0-.023,0-.046,0-.07V24.947a2.7,2.7,0,0,0-2.7-2.7h-20.1V13.665H48.015A2.668,2.668,0,0,0,50.68,11V3.166A2.668,2.668,0,0,0,48.015.5H11.064A2.668,2.668,0,0,0,8.4,3.166V11a2.668,2.668,0,0,0,2.665,2.665h2.655a.889.889,0,0,0,0-1.777H11.064A.889.889,0,0,1,10.176,11V3.166a.889.889,0,0,1,.888-.889H48.015a.889.889,0,0,1,.889.889V11a.889.889,0,0,1-.889.888H17.272a.889.889,0,0,0,0,1.777h11.22v8.582H8.259a2.7,2.7,0,0,0-2.7,2.7v2.371H2.665A2.668,2.668,0,0,0,0,29.983v7.74a2.668,2.668,0,0,0,2.665,2.665H5.559V51.33a2.7,2.7,0,0,0,2.7,2.7h3.353v1.817a2.668,2.668,0,0,0,2.665,2.665H44.8a2.668,2.668,0,0,0,2.665-2.665V54.03h2.907a2.7,2.7,0,0,0,2.7-2.7V40.048h5.792a.888.888,0,0,0,.77-1.333ZM1.776,37.723v-7.74a.889.889,0,0,1,.889-.888H10.4a.889.889,0,0,1,.888.888v7.74a.889.889,0,0,1-.888.889H2.665a.889.889,0,0,1-.889-.889ZM51.3,51.33a.924.924,0,0,1-.923.924H47.467V49.82A2.668,2.668,0,0,0,44.8,47.155H35.943a.888.888,0,1,0,0,1.777H44.8a.889.889,0,0,1,.888.889v6.027a.889.889,0,0,1-.888.889H14.278a.889.889,0,0,1-.889-.889V49.82a.889.889,0,0,1,.889-.889H32.389a.888.888,0,1,0,0-1.777H14.278a2.668,2.668,0,0,0-2.665,2.665v2.433H8.259a.924.924,0,0,1-.923-.924V40.388h3.069a2.668,2.668,0,0,0,2.665-2.665v-7.74a2.668,2.668,0,0,0-2.665-2.665H7.336V24.947a.925.925,0,0,1,.923-.924H28.492v2.891a7.038,7.038,0,1,0,1.777-.008V24.024h20.1a.924.924,0,0,1,.923.923v2.327a.918.918,0,0,0,.019.182l-6.5,11.26a.889.889,0,0,0,.77,1.333H51.3Zm-21.883-22.7a5.261,5.261,0,1,1-5.26,5.261,5.267,5.267,0,0,1,5.26-5.261Zm17.709,9.643,5.1-8.837,5.1,8.837Zm0,0"/>
      <path id="Trazado_1049896" data-name="Trazado 1049896" d="M156.255,51.738a.888.888,0,1,0,0-1.777H130.029a.888.888,0,1,0,0,1.777Zm0,0" transform="translate(-114.069 -43.688)"/>
      <path id="Trazado_1049897" data-name="Trazado 1049897" d="M220.978,441.293a.888.888,0,1,0,.889.889A.889.889,0,0,0,220.978,441.293Zm0,0" transform="translate(-194.404 -389.348)"/>
      <path id="Trazado_1049898" data-name="Trazado 1049898" d="M153.994,441.293a.888.888,0,1,0,.888.889A.889.889,0,0,0,153.994,441.293Zm0,0" transform="translate(-135.237 -389.348)"/>
      <path id="Trazado_1049899" data-name="Trazado 1049899" d="M187.486,441.293a.888.888,0,1,0,.889.889A.889.889,0,0,0,187.486,441.293Zm0,0" transform="translate(-164.82 -389.348)"/>
      <path id="Trazado_1049900" data-name="Trazado 1049900" d="M254.47,441.293a.888.888,0,1,0,.889.889A.889.889,0,0,0,254.47,441.293Zm0,0" transform="translate(-223.987 -389.348)"/>
      <path id="Trazado_1049901" data-name="Trazado 1049901" d="M287.967,441.293a.888.888,0,1,0,.889.889A.889.889,0,0,0,287.967,441.293Zm0,0" transform="translate(-253.574 -389.348)"/>
      <path id="Trazado_1049902" data-name="Trazado 1049902" d="M321.459,443.07a.888.888,0,1,0-.888-.888A.888.888,0,0,0,321.459,443.07Zm0,0" transform="translate(-283.158 -389.349)"/>
    </g>
  </g>
</svg>
