<svg xmlns="http://www.w3.org/2000/svg" xmlns:xlink="http://www.w3.org/1999/xlink" width="108.914" height="108.914" viewBox="0 0 108.914 108.914">
  <defs>
    <filter id="Trazado_874925" x="0" y="0" width="108.914" height="108.914" filterUnits="userSpaceOnUse">
      <feOffset dy="3" input="SourceAlpha"/>
      <feGaussianBlur stdDeviation="3" result="blur"/>
      <feFlood flood-opacity="0.161"/>
      <feComposite operator="in" in2="blur"/>
      <feComposite in="SourceGraphic"/>
    </filter>
  </defs>
  <g id="Grupo_1179830" data-name="Grupo 1179830" transform="translate(9 6)">
    <g id="Grupo_1179015" data-name="Grupo 1179015" transform="translate(0 0)">
      <g id="Grupo_1111527" data-name="Grupo 1111527">
        <g id="Grupo_1111316" data-name="Grupo 1111316">
          <g id="Grupo_1109835" data-name="Grupo 1109835">
            <g id="Grupo_1107913" data-name="Grupo 1107913">
              <g transform="matrix(1, 0, 0, 1, -9, -6)" filter="url(#Trazado_874925)">
                <g id="Trazado_874925-2" data-name="Trazado 874925" transform="translate(9 6)" fill="#fdf9d4" opacity="0.859">
                  <path d="M 45.45676803588867 89.41407012939453 C 39.52198028564453 89.41407012939453 33.76551818847656 88.25206756591797 28.34726715087891 85.96034240722656 C 23.11310577392578 83.74648284912109 18.41203117370605 80.57682800292969 14.37464332580566 76.5394287109375 C 10.33724308013916 72.50202941894531 7.167593002319336 67.80095672607422 4.953730583190918 62.56679534912109 C 2.662005424499512 57.14855575561523 1.500005483627319 51.39208221435547 1.500005483627319 45.45729446411133 C 1.500005483627319 39.52198028564453 2.662005424499512 33.76550674438477 4.953730583190918 28.34726905822754 C 7.167593002319336 23.11310577392578 10.33724308013916 18.41203117370605 14.37464332580566 14.37464332580566 C 18.41203117370605 10.33724403381348 23.11310577392578 7.167593955993652 28.34726715087891 4.953731060028076 C 33.76550674438477 2.662006139755249 39.52198028564453 1.500006198883057 45.45676803588867 1.500006198883057 C 51.39155578613281 1.500006198883057 57.14802932739258 2.662006139755249 62.56626892089844 4.953731060028076 C 67.80043029785156 7.167593955993652 72.50150299072266 10.33724403381348 76.53890228271484 14.37464332580566 C 80.57630920410156 18.41203117370605 83.74595642089844 23.11310577392578 85.95981597900391 28.34726905822754 C 88.25154113769531 33.76551818847656 89.41354370117188 39.52198028564453 89.41354370117188 45.45676803588867 C 89.41354370117188 51.39208221435547 88.25154113769531 57.14855575561523 85.95981597900391 62.56679534912109 C 83.74595642089844 67.80095672607422 80.57630920410156 72.50202941894531 76.53890228271484 76.5394287109375 C 72.50150299072266 80.57682800292969 67.80043029785156 83.74648284912109 62.56626892089844 85.96034240722656 C 57.14802932739258 88.25206756591797 51.39155578613281 89.41407012939453 45.45676803588867 89.41407012939453 Z" stroke="none"/>
                  <path d="M 45.45676803588867 3 C 39.72381210327148 3 34.1639404296875 4.12213134765625 28.93159484863281 6.335227966308594 C 23.87622833251953 8.473472595214844 19.33542633056641 11.53517150878906 15.43529510498047 15.435302734375 C 11.53517150878906 19.33543395996094 8.473464965820312 23.87622833251953 6.335227966308594 28.93160247802734 C 4.122123718261719 34.16394424438477 3 39.72381591796875 3 45.4572868347168 C 3 51.19024658203125 4.122123718261719 56.75011825561523 6.335227966308594 61.98246002197266 C 8.473464965820312 67.03782653808594 11.53517150878906 71.57862854003906 15.43529510498047 75.478759765625 C 19.33542633056641 79.37889099121094 23.87622833251953 82.44058990478516 28.93159484863281 84.57883453369141 C 34.1639404296875 86.79193115234375 39.72381210327148 87.9140625 45.45676803588867 87.9140625 C 51.18972396850586 87.9140625 56.74959564208984 86.79193115234375 61.98194122314453 84.57883453369141 C 67.03730773925781 82.44058990478516 71.57810974121094 79.37889099121094 75.47824096679688 75.478759765625 C 79.37837219238281 71.57862854003906 82.44007110595703 67.03782653808594 84.57830810546875 61.98246002197266 C 86.79141235351562 56.75011825561523 87.91353607177734 51.19024658203125 87.91353607177734 45.4567756652832 C 87.91353607177734 39.72381591796875 86.79141235351562 34.16394424438477 84.57830810546875 28.93160247802734 C 82.44007110595703 23.87622833251953 79.37837219238281 19.33543395996094 75.47824096679688 15.435302734375 C 71.57810974121094 11.53517150878906 67.03730773925781 8.473472595214844 61.98194122314453 6.335227966308594 C 56.74959564208984 4.12213134765625 51.18972396850586 3 45.45676803588867 3 M 45.45676803588867 0 C 70.56185150146484 0 90.91353607177734 20.35169219970703 90.91353607177734 45.4567756652832 L 90.91353607177734 45.4572868347168 C 90.91353607177734 70.5623779296875 70.56185150146484 90.9140625 45.45676803588867 90.9140625 C 20.3516845703125 90.9140625 0 70.5623779296875 0 45.4572868347168 L 0 45.4567756652832 C 0 20.35169219970703 20.3516845703125 0 45.45676803588867 0 Z" stroke="none" fill="#c7b622"/>
                </g>
              </g>
              <g id="Trazado_874923" data-name="Trazado 874923" transform="translate(0)" fill="none">
                <path d="M45.457,0A45.457,45.457,0,0,1,90.914,45.457h0A45.457,45.457,0,0,1,0,45.457H0A45.457,45.457,0,0,1,45.457,0Z" stroke="none"/>
                <path d="M 45.45676803588867 3 C 39.72381210327148 3 34.1639404296875 4.12213134765625 28.93159484863281 6.335227966308594 C 23.87622833251953 8.473472595214844 19.33542633056641 11.53517150878906 15.43529510498047 15.435302734375 C 11.53517150878906 19.33543395996094 8.473464965820312 23.87622833251953 6.335227966308594 28.93160247802734 C 4.122123718261719 34.16394424438477 3 39.72381591796875 3 45.4572868347168 C 3 51.19024658203125 4.122123718261719 56.75011825561523 6.335227966308594 61.98246002197266 C 8.473464965820312 67.03782653808594 11.53517150878906 71.57862854003906 15.43529510498047 75.478759765625 C 19.33542633056641 79.37889099121094 23.87622833251953 82.44058990478516 28.93159484863281 84.57883453369141 C 34.1639404296875 86.79193115234375 39.72381210327148 87.9140625 45.45676803588867 87.9140625 C 51.18972396850586 87.9140625 56.74959564208984 86.79193115234375 61.98194122314453 84.57883453369141 C 67.03730773925781 82.44058990478516 71.57810974121094 79.37889099121094 75.47824096679688 75.478759765625 C 79.37837219238281 71.57862854003906 82.44007110595703 67.03782653808594 84.57830810546875 61.98246002197266 C 86.79141235351562 56.75011825561523 87.91353607177734 51.19024658203125 87.91353607177734 45.4567756652832 C 87.91353607177734 39.72381591796875 86.79141235351562 34.16394424438477 84.57830810546875 28.93160247802734 C 82.44007110595703 23.87622833251953 79.37837219238281 19.33543395996094 75.47824096679688 15.435302734375 C 71.57810974121094 11.53517150878906 67.03730773925781 8.473472595214844 61.98194122314453 6.335227966308594 C 56.74959564208984 4.12213134765625 51.18972396850586 3 45.45676803588867 3 M 45.45676803588867 0 C 70.56185150146484 0 90.91353607177734 20.35169219970703 90.91353607177734 45.4567756652832 L 90.91353607177734 45.4572868347168 C 90.91353607177734 70.5623779296875 70.56185150146484 90.9140625 45.45676803588867 90.9140625 C 20.3516845703125 90.9140625 0 70.5623779296875 0 45.4572868347168 L 0 45.4567756652832 C 0 20.35169219970703 20.3516845703125 0 45.45676803588867 0 Z" stroke="none" fill="#c7b622"/>
              </g>
            </g>
          </g>
        </g>
      </g>
    </g>
    <g id="formula" transform="translate(13.457 13.457)">
      <g id="Grupo_1181701" data-name="Grupo 1181701">
        <g id="Grupo_1181692" data-name="Grupo 1181692">
          <path id="Trazado_1049984" data-name="Trazado 1049984" d="M2.256,19.431v28.9H61.744v-28.9a3.569,3.569,0,0,0-3.558-3.558H5.81a3.566,3.566,0,0,0-3.554,3.558Z" fill="#81d4fa" fill-rule="evenodd"/>
        </g>
        <g id="Grupo_1181693" data-name="Grupo 1181693">
          <path id="Trazado_1049985" data-name="Trazado 1049985" d="M38.818,54.3H25.179L21.824,62H42.172Z" fill="#eee" fill-rule="evenodd"/>
        </g>
        <g id="Grupo_1181694" data-name="Grupo 1181694">
          <path id="Trazado_1049986" data-name="Trazado 1049986" d="M61.744,48.33H2.256v2.413A3.566,3.566,0,0,0,5.81,54.3H58.186a3.569,3.569,0,0,0,3.558-3.558V48.33Z" fill="#eee" fill-rule="evenodd"/>
        </g>
        <g id="Grupo_1181695" data-name="Grupo 1181695">
          <path id="Trazado_1049987" data-name="Trazado 1049987" d="M23.817,57.428h7.9c2.537,0,3.6-.421,4.589,1.865L37.48,62h4.692l-3.354-7.7H25.179Z" fill="#d4d4d4" fill-rule="evenodd"/>
        </g>
        <g id="Grupo_1181696" data-name="Grupo 1181696">
          <path id="Trazado_1049988" data-name="Trazado 1049988" d="M26.22,2H38.207a11.791,11.791,0,0,1,0,23.582H33.15L27.289,30.9c-2.148,1.441-3.41-.138-3.058-1.4l1.2-3.937A11.792,11.792,0,0,1,26.22,2Z" fill="#ffd54f" fill-rule="evenodd"/>
        </g>
        <g id="Grupo_1181697" data-name="Grupo 1181697">
          <path id="Trazado_1049989" data-name="Trazado 1049989" d="M44.606,14.094a11.642,11.642,0,0,1-.134,1.779,11.855,11.855,0,0,1-9.005,9.709h2.741A11.791,11.791,0,0,0,38.207,2H32.815A12.089,12.089,0,0,1,44.606,14.094Z" fill="#ffc107" fill-rule="evenodd"/>
        </g>
        <g id="Grupo_1181698" data-name="Grupo 1181698">
          <path id="Trazado_1049990" data-name="Trazado 1049990" d="M49.815,15.873a11.64,11.64,0,0,1-.879,2.8,30.753,30.753,0,0,1,2.031,29.66H61.744v-28.9a3.569,3.569,0,0,0-3.558-3.558H49.815Z" fill="#4fc3f7" fill-rule="evenodd"/>
        </g>
        <g id="Grupo_1181699" data-name="Grupo 1181699">
          <path id="Trazado_1049991" data-name="Trazado 1049991" d="M61.744,48.33H50.967A31.278,31.278,0,0,1,47.313,54.3H58.186a3.569,3.569,0,0,0,3.558-3.558Z" fill="#d4d4d4" fill-rule="evenodd"/>
        </g>
        <g id="Grupo_1181700" data-name="Grupo 1181700">
          <path id="Trazado_1049992" data-name="Trazado 1049992" d="M31.614,50.346l-.049.023a.977.977,0,0,0-.444,1.322,1.006,1.006,0,0,0,.912.559,1.03,1.03,0,0,0,.446-.1,1,1,0,1,0-.865-1.8Z"/>
          <path id="Trazado_1049993" data-name="Trazado 1049993" d="M24.636,18.754a1,1,0,0,0,1.641-.342l3.354-8.606H41.266a1,1,0,0,0,0-2H28.947a1,1,0,0,0-.932.637l-3.045,7.812-2.3-2.31a1,1,0,1,0-1.418,1.41Z"/>
          <path id="Trazado_1049994" data-name="Trazado 1049994" d="M37.2,12.586a1,1,0,0,0-1.414.031l-1.546,1.615-1.546-1.615A1,1,0,1,0,31.244,14l1.607,1.679-1.607,1.679A1,1,0,0,0,32.69,18.74l1.546-1.615,1.546,1.615a1,1,0,1,0,1.445-1.383L35.62,15.679,37.227,14a1,1,0,0,0-.031-1.414Z"/>
          <path id="Trazado_1049995" data-name="Trazado 1049995" d="M15.061,38.745H48.937a1,1,0,0,0,0-2H15.061a1,1,0,0,0,0,2Z"/>
          <path id="Trazado_1049996" data-name="Trazado 1049996" d="M48.937,41.352H35.212a1,1,0,0,0,0,2H48.937a1,1,0,0,0,0-2Z"/>
          <path id="Trazado_1049997" data-name="Trazado 1049997" d="M15.061,43.352H28.785a1,1,0,1,0,0-2H15.06a1,1,0,0,0,0,2Z"/>
          <path id="Trazado_1049998" data-name="Trazado 1049998" d="M58.187,14.873H50.943c.03-.358.055-.717.055-1.082A12.806,12.806,0,0,0,38.207,1H26.22A12.807,12.807,0,0,0,13.426,13.791c0,.365.019.725.049,1.083H5.811a4.562,4.562,0,0,0-4.555,4.558V50.743A4.562,4.562,0,0,0,5.811,55.3H23.652L21.169,61h-3.94a1,1,0,1,0,0,2H46.771a1,1,0,0,0,0-2H42.827l-2.483-5.7H58.186a4.563,4.563,0,0,0,4.558-4.559V19.432a4.563,4.563,0,0,0-4.558-4.558ZM26.22,3H38.207a10.791,10.791,0,0,1,0,21.582H33.149a1,1,0,0,0-.672.259l-5.8,5.265c-.548.353-1.037.459-1.292.278a.587.587,0,0,1-.2-.6l1.2-3.937a1,1,0,0,0-.89-1.29A10.792,10.792,0,0,1,26.22,3ZM5.81,16.874h8a12.84,12.84,0,0,0,10.312,9.539l-.86,2.815A2.577,2.577,0,0,0,24.212,32a2.545,2.545,0,0,0,1.493.469,3.844,3.844,0,0,0,2.141-.745.979.979,0,0,0,.115-.09l5.574-5.057h4.672a12.8,12.8,0,0,0,12.4-9.708h7.58a2.561,2.561,0,0,1,2.558,2.558v27.9H3.256v-27.9a2.559,2.559,0,0,1,2.555-2.558ZM40.645,61H23.351l2.483-5.7H38.162Zm17.541-7.7H5.81a2.56,2.56,0,0,1-2.555-2.559V49.33H60.744v1.413A2.561,2.561,0,0,1,58.187,53.3Z"/>
        </g>
      </g>
    </g>
  </g>
</svg>
