<svg xmlns="http://www.w3.org/2000/svg" xmlns:xlink="http://www.w3.org/1999/xlink" width="108.914" height="108.914" viewBox="0 0 108.914 108.914">
  <defs>
    <filter id="Trazado_874925" x="0" y="0" width="108.914" height="108.914" filterUnits="userSpaceOnUse">
      <feOffset dy="3" input="SourceAlpha"/>
      <feGaussianBlur stdDeviation="3" result="blur"/>
      <feFlood flood-opacity="0.161"/>
      <feComposite operator="in" in2="blur"/>
      <feComposite in="SourceGraphic"/>
    </filter>
  </defs>
  <g id="Grupo_1179826" data-name="Grupo 1179826" transform="translate(8.999 6)">
    <g id="Grupo_1179014" data-name="Grupo 1179014" transform="translate(0 0)">
      <g id="Grupo_1111527" data-name="Grupo 1111527">
        <g id="Grupo_1111316" data-name="Grupo 1111316">
          <g id="Grupo_1109835" data-name="Grupo 1109835">
            <g id="Grupo_1107913" data-name="Grupo 1107913">
              <g transform="matrix(1, 0, 0, 1, -9, -6)" filter="url(#Trazado_874925)">
                <g id="Trazado_874925-2" data-name="Trazado 874925" transform="translate(9 6)" fill="#fdf9d4" opacity="0.859">
                  <path d="M 45.45676803588867 89.41407012939453 C 39.52198028564453 89.41407012939453 33.76551818847656 88.25206756591797 28.34726715087891 85.96034240722656 C 23.11310577392578 83.74648284912109 18.41203117370605 80.57682800292969 14.37464332580566 76.5394287109375 C 10.33724308013916 72.50202941894531 7.167593002319336 67.80095672607422 4.953730583190918 62.56679534912109 C 2.662005424499512 57.14855575561523 1.500005483627319 51.39208221435547 1.500005483627319 45.45729446411133 C 1.500005483627319 39.52198028564453 2.662005424499512 33.76550674438477 4.953730583190918 28.34726905822754 C 7.167593002319336 23.11310577392578 10.33724308013916 18.41203117370605 14.37464332580566 14.37464332580566 C 18.41203117370605 10.33724403381348 23.11310577392578 7.167593955993652 28.34726715087891 4.953731060028076 C 33.76550674438477 2.662006139755249 39.52198028564453 1.500006198883057 45.45676803588867 1.500006198883057 C 51.39155578613281 1.500006198883057 57.14802932739258 2.662006139755249 62.56626892089844 4.953731060028076 C 67.80043029785156 7.167593955993652 72.50150299072266 10.33724403381348 76.53890228271484 14.37464332580566 C 80.57630920410156 18.41203117370605 83.74595642089844 23.11310577392578 85.95981597900391 28.34726905822754 C 88.25154113769531 33.76551818847656 89.41354370117188 39.52198028564453 89.41354370117188 45.45676803588867 C 89.41354370117188 51.39208221435547 88.25154113769531 57.14855575561523 85.95981597900391 62.56679534912109 C 83.74595642089844 67.80095672607422 80.57630920410156 72.50202941894531 76.53890228271484 76.5394287109375 C 72.50150299072266 80.57682800292969 67.80043029785156 83.74648284912109 62.56626892089844 85.96034240722656 C 57.14802932739258 88.25206756591797 51.39155578613281 89.41407012939453 45.45676803588867 89.41407012939453 Z" stroke="none"/>
                  <path d="M 45.45676803588867 3 C 39.72381210327148 3 34.1639404296875 4.12213134765625 28.93159484863281 6.335227966308594 C 23.87622833251953 8.473472595214844 19.33542633056641 11.53517150878906 15.43529510498047 15.435302734375 C 11.53517150878906 19.33543395996094 8.473464965820312 23.87622833251953 6.335227966308594 28.93160247802734 C 4.122123718261719 34.16394424438477 3 39.72381591796875 3 45.4572868347168 C 3 51.19024658203125 4.122123718261719 56.75011825561523 6.335227966308594 61.98246002197266 C 8.473464965820312 67.03782653808594 11.53517150878906 71.57862854003906 15.43529510498047 75.478759765625 C 19.33542633056641 79.37889099121094 23.87622833251953 82.44058990478516 28.93159484863281 84.57883453369141 C 34.1639404296875 86.79193115234375 39.72381210327148 87.9140625 45.45676803588867 87.9140625 C 51.18972396850586 87.9140625 56.74959564208984 86.79193115234375 61.98194122314453 84.57883453369141 C 67.03730773925781 82.44058990478516 71.57810974121094 79.37889099121094 75.47824096679688 75.478759765625 C 79.37837219238281 71.57862854003906 82.44007110595703 67.03782653808594 84.57830810546875 61.98246002197266 C 86.79141235351562 56.75011825561523 87.91353607177734 51.19024658203125 87.91353607177734 45.4567756652832 C 87.91353607177734 39.72381591796875 86.79141235351562 34.16394424438477 84.57830810546875 28.93160247802734 C 82.44007110595703 23.87622833251953 79.37837219238281 19.33543395996094 75.47824096679688 15.435302734375 C 71.57810974121094 11.53517150878906 67.03730773925781 8.473472595214844 61.98194122314453 6.335227966308594 C 56.74959564208984 4.12213134765625 51.18972396850586 3 45.45676803588867 3 M 45.45676803588867 0 C 70.56185150146484 0 90.91353607177734 20.35169219970703 90.91353607177734 45.4567756652832 L 90.91353607177734 45.4572868347168 C 90.91353607177734 70.5623779296875 70.56185150146484 90.9140625 45.45676803588867 90.9140625 C 20.3516845703125 90.9140625 0 70.5623779296875 0 45.4572868347168 L 0 45.4567756652832 C 0 20.35169219970703 20.3516845703125 0 45.45676803588867 0 Z" stroke="none" fill="#c7b622"/>
                </g>
              </g>
              <g id="Trazado_874923" data-name="Trazado 874923" transform="translate(0)" fill="none">
                <path d="M45.457,0A45.457,45.457,0,0,1,90.914,45.457h0A45.457,45.457,0,0,1,0,45.457H0A45.457,45.457,0,0,1,45.457,0Z" stroke="none"/>
                <path d="M 45.45676803588867 3 C 39.72381210327148 3 34.1639404296875 4.12213134765625 28.93159484863281 6.335227966308594 C 23.87622833251953 8.473472595214844 19.33542633056641 11.53517150878906 15.43529510498047 15.435302734375 C 11.53517150878906 19.33543395996094 8.473464965820312 23.87622833251953 6.335227966308594 28.93160247802734 C 4.122123718261719 34.16394424438477 3 39.72381591796875 3 45.4572868347168 C 3 51.19024658203125 4.122123718261719 56.75011825561523 6.335227966308594 61.98246002197266 C 8.473464965820312 67.03782653808594 11.53517150878906 71.57862854003906 15.43529510498047 75.478759765625 C 19.33542633056641 79.37889099121094 23.87622833251953 82.44058990478516 28.93159484863281 84.57883453369141 C 34.1639404296875 86.79193115234375 39.72381210327148 87.9140625 45.45676803588867 87.9140625 C 51.18972396850586 87.9140625 56.74959564208984 86.79193115234375 61.98194122314453 84.57883453369141 C 67.03730773925781 82.44058990478516 71.57810974121094 79.37889099121094 75.47824096679688 75.478759765625 C 79.37837219238281 71.57862854003906 82.44007110595703 67.03782653808594 84.57830810546875 61.98246002197266 C 86.79141235351562 56.75011825561523 87.91353607177734 51.19024658203125 87.91353607177734 45.4567756652832 C 87.91353607177734 39.72381591796875 86.79141235351562 34.16394424438477 84.57830810546875 28.93160247802734 C 82.44007110595703 23.87622833251953 79.37837219238281 19.33543395996094 75.47824096679688 15.435302734375 C 71.57810974121094 11.53517150878906 67.03730773925781 8.473472595214844 61.98194122314453 6.335227966308594 C 56.74959564208984 4.12213134765625 51.18972396850586 3 45.45676803588867 3 M 45.45676803588867 0 C 70.56185150146484 0 90.91353607177734 20.35169219970703 90.91353607177734 45.4567756652832 L 90.91353607177734 45.4572868347168 C 90.91353607177734 70.5623779296875 70.56185150146484 90.9140625 45.45676803588867 90.9140625 C 20.3516845703125 90.9140625 0 70.5623779296875 0 45.4572868347168 L 0 45.4567756652832 C 0 20.35169219970703 20.3516845703125 0 45.45676803588867 0 Z" stroke="none" fill="#c7b622"/>
              </g>
            </g>
          </g>
        </g>
      </g>
    </g>
    <g id="expert_6601289" transform="translate(13.883 11.906)">
      <path id="Trazado_1046380" data-name="Trazado 1046380" d="M5,57.422V20.931A4.931,4.931,0,0,1,9.931,16h43.4a4.931,4.931,0,0,1,4.931,4.931V57.422Z" transform="translate(-0.055 -0.179)" fill="#a5badb"/>
      <path id="Trazado_1046381" data-name="Trazado 1046381" d="M53.354,16H11.931A4.931,4.931,0,0,0,7,20.931V57.422H58.285V20.931A4.931,4.931,0,0,0,53.354,16Z" transform="translate(-0.082 -0.179)" fill="#c1cfe8"/>
      <path id="Trazado_1046382" data-name="Trazado 1046382" d="M37.5,54v1.972H25.67V54H2a5.918,5.918,0,0,0,5.917,5.917h47.34A5.918,5.918,0,0,0,61.175,54Z" transform="translate(-0.014 -0.701)" fill="#0059be"/>
      <path id="Trazado_1046383" data-name="Trazado 1046383" d="M9,56.491V20H54.368V56.491" transform="translate(-0.11 -0.234)" fill="#66c3e9"/>
      <path id="Trazado_1046384" data-name="Trazado 1046384" d="M37.537,55.972H25.7V54H4.349a5.918,5.918,0,0,0,5.573,3.945h47.34a5.886,5.886,0,0,0,3.076-.869A5.886,5.886,0,0,0,61.207,54H37.537Z" transform="translate(-0.046 -0.701)" fill="#006bdb"/>
      <path id="Trazado_1046385" data-name="Trazado 1046385" d="M11,20V45.173a6.388,6.388,0,0,0,6.386,6.387H54.4V20Z" transform="translate(-0.137 -0.234)" fill="#8adef9"/>
      <path id="Trazado_1046386" data-name="Trazado 1046386" d="M48.505,14H14.973A1.973,1.973,0,0,0,13,15.972v31.56a1.973,1.973,0,0,0,1.973,1.972H48.505a1.973,1.973,0,0,0,1.972-1.972V15.972A1.972,1.972,0,0,0,48.505,14Z" transform="translate(-0.165 -0.151)" fill="#0059be"/>
      <path id="Trazado_1046387" data-name="Trazado 1046387" d="M48.546,14H16V44.574a1.973,1.973,0,0,0,1.973,1.972H50.519V15.972A1.973,1.973,0,0,0,48.546,14Z" transform="translate(-0.206 -0.151)" fill="#006bdb"/>
      <path id="Trazado_1046388" data-name="Trazado 1046388" d="M13,20V47.615a1.973,1.973,0,0,0,1.973,1.972H48.505a1.973,1.973,0,0,0,1.972-1.972V20Z" transform="translate(-0.165 -0.234)" fill="#f79b31"/>
      <path id="Trazado_1046389" data-name="Trazado 1046389" d="M16,44.656a1.973,1.973,0,0,0,1.973,1.972H50.519V20H16Z" transform="translate(-0.206 -0.234)" fill="#fcb732"/>
      <g id="Grupo_1179469" data-name="Grupo 1179469" transform="translate(16.78 28.529)">
        <path id="Trazado_1046390" data-name="Trazado 1046390" d="M17,28.885h1.972v7.89H17Z" transform="translate(-17 -28.885)" fill="#fff"/>
        <path id="Trazado_1046391" data-name="Trazado 1046391" d="M25.931,36.775H21.986A.986.986,0,0,1,21,35.789V29.871a.986.986,0,0,1,.986-.986h3.945a.986.986,0,0,1,.986.986v5.918A.986.986,0,0,1,25.931,36.775ZM22.973,34.8h1.972V30.857H22.973Z" transform="translate(-17.055 -28.885)" fill="#fff"/>
        <path id="Trazado_1046392" data-name="Trazado 1046392" d="M29,28.885h1.972v7.89H29Z" transform="translate(-17.165 -28.885)" fill="#fff"/>
        <path id="Trazado_1046393" data-name="Trazado 1046393" d="M33,28.885h1.973v7.89H33Z" transform="translate(-17.22 -28.885)" fill="#fff"/>
        <path id="Trazado_1046394" data-name="Trazado 1046394" d="M41.931,36.775H37.986A.986.986,0,0,1,37,35.789V29.871a.986.986,0,0,1,.986-.986h3.945a.986.986,0,0,1,.986.986v5.918A.986.986,0,0,1,41.931,36.775ZM38.972,34.8h1.973V30.857H38.972Z" transform="translate(-17.275 -28.885)" fill="#fff"/>
        <path id="Trazado_1046395" data-name="Trazado 1046395" d="M45,28.885h1.972v7.89H45Z" transform="translate(-17.385 -28.885)" fill="#fff"/>
        <path id="Trazado_1046396" data-name="Trazado 1046396" d="M17,38.885h1.972v7.89H17Z" transform="translate(-17 -29.022)" fill="#fff"/>
        <path id="Trazado_1046397" data-name="Trazado 1046397" d="M41.931,46.775H37.986A.986.986,0,0,1,37,45.789V39.871a.986.986,0,0,1,.986-.986h3.945a.986.986,0,0,1,.986.986v5.918A.986.986,0,0,1,41.931,46.775ZM38.972,44.8h1.973V40.858H38.972Z" transform="translate(-17.275 -29.022)" fill="#fff"/>
        <path id="Trazado_1046398" data-name="Trazado 1046398" d="M45,38.885h1.972v7.89H45Z" transform="translate(-17.385 -29.022)" fill="#fff"/>
        <path id="Trazado_1046399" data-name="Trazado 1046399" d="M33.931,46.775H29.986A.986.986,0,0,1,29,45.789V39.871a.986.986,0,0,1,.986-.986h3.945a.986.986,0,0,1,.986.986v5.918A.986.986,0,0,1,33.931,46.775ZM30.972,44.8h1.973V40.858H30.972Z" transform="translate(-17.165 -29.022)" fill="#fff"/>
        <path id="Trazado_1046400" data-name="Trazado 1046400" d="M21,38.885h1.973v7.89H21Z" transform="translate(-17.055 -29.022)" fill="#fff"/>
        <path id="Trazado_1046401" data-name="Trazado 1046401" d="M25,38.885h1.972v7.89H25Z" transform="translate(-17.11 -29.022)" fill="#fff"/>
      </g>
      <circle id="Elipse_11913" data-name="Elipse 11913" cx="10.849" cy="10.849" r="10.849" transform="translate(20.725 3.986)" fill="#66c3e9"/>
      <path id="Trazado_1046402" data-name="Trazado 1046402" d="M31.876,4a10.79,10.79,0,0,0-6.614,2.262,10.836,10.836,0,0,0,15.2,15.2A10.836,10.836,0,0,0,31.876,4Z" transform="translate(-0.303 -0.014)" fill="#8adef9"/>
      <path id="Trazado_1046403" data-name="Trazado 1046403" d="M27.248,18.605l-2.959-2.959a.986.986,0,0,1,0-1.395l2.959-2.959,1.395,1.395-2.261,2.261,2.261,2.261Z" transform="translate(-0.316 -0.114)" fill="#fff"/>
      <path id="Trazado_1046404" data-name="Trazado 1046404" d="M0,0H8.821V1.972H0Z" transform="translate(28.708 18.347) rotate(-63.435)" fill="#fff"/>
      <path id="Trazado_1046405" data-name="Trazado 1046405" d="M36.688,18.605l-1.395-1.395,2.261-2.261-2.261-2.261,1.395-1.395,2.959,2.959a.986.986,0,0,1,0,1.395Z" transform="translate(-0.472 -0.114)" fill="#fff"/>
      <path id="Trazado_1046406" data-name="Trazado 1046406" d="M7.9,60.09h47.34a6.913,6.913,0,0,0,6.9-6.9.986.986,0,0,0-.986-.986H59.189V20.64a5.923,5.923,0,0,0-5.918-5.917H51.117a2.959,2.959,0,0,0-2.778-1.972H43.211a11.823,11.823,0,0,0-23.276,0H14.807a2.959,2.959,0,0,0-2.777,1.972H9.876A5.923,5.923,0,0,0,3.959,20.64V52.2H1.986A.986.986,0,0,0,1,53.186a6.913,6.913,0,0,0,6.9,6.9ZM57.216,20.64V52.2H55.244V19.654a.986.986,0,0,0-.986-.986H51.3V16.7h1.972A3.945,3.945,0,0,1,57.216,20.64ZM25.656,52.2H9.876V20.64h1.973V47.269a2.959,2.959,0,0,0,2.959,2.959H48.34A2.964,2.964,0,0,0,51.3,47.269V20.64h1.972V52.2H37.491a.986.986,0,0,0-.986.986v.986H26.642v-.986A.986.986,0,0,0,25.656,52.2Zm5.918-25.53a11.835,11.835,0,0,0,10.3-6.03h7.45V47.269a.986.986,0,0,1-.986.986H14.807a.986.986,0,0,1-.986-.986V20.64h7.451A11.835,11.835,0,0,0,31.574,26.67ZM48.34,14.722a.986.986,0,0,1,.986.986v2.959H42.76a11.779,11.779,0,0,0,.649-3.832c0-.038,0-.075-.006-.113ZM31.574,4.973a9.863,9.863,0,1,1-9.863,9.863,9.862,9.862,0,0,1,9.863-9.863ZM14.807,14.722h4.937c0,.038-.006.075-.006.113a11.779,11.779,0,0,0,.649,3.833H13.821V15.709a.986.986,0,0,1,.986-.987ZM5.931,20.639a3.945,3.945,0,0,1,3.945-3.945h1.972v1.972H8.89a.986.986,0,0,0-.986.986V52.2H5.931ZM24.67,54.172v.986a.986.986,0,0,0,.986.986H37.491a.986.986,0,0,0,.986-.986v-.986h21.6a4.939,4.939,0,0,1-4.833,3.945H7.9a4.939,4.939,0,0,1-4.833-3.945Z"/>
      <path id="Trazado_1046407" data-name="Trazado 1046407" d="M17,28.885h1.972v7.89H17Z" transform="translate(-0.22 -0.356)"/>
      <path id="Trazado_1046408" data-name="Trazado 1046408" d="M21.986,36.775h3.945a.986.986,0,0,0,.986-.986V29.871a.986.986,0,0,0-.986-.986H21.986a.986.986,0,0,0-.986.986v5.918A.986.986,0,0,0,21.986,36.775Zm.986-5.918h1.972V34.8H22.973Z" transform="translate(-0.275 -0.356)"/>
      <path id="Trazado_1046409" data-name="Trazado 1046409" d="M29,28.885h1.972v7.89H29Z" transform="translate(-0.385 -0.356)"/>
      <path id="Trazado_1046410" data-name="Trazado 1046410" d="M33,28.885h1.973v7.89H33Z" transform="translate(-0.44 -0.356)"/>
      <path id="Trazado_1046411" data-name="Trazado 1046411" d="M37.986,36.775h3.945a.986.986,0,0,0,.986-.986V29.871a.986.986,0,0,0-.986-.986H37.986a.986.986,0,0,0-.986.986v5.918A.986.986,0,0,0,37.986,36.775Zm.986-5.918h1.973V34.8H38.972Z" transform="translate(-0.495 -0.356)"/>
      <path id="Trazado_1046412" data-name="Trazado 1046412" d="M45,28.885h1.972v7.89H45Z" transform="translate(-0.605 -0.356)"/>
      <path id="Trazado_1046413" data-name="Trazado 1046413" d="M17,38.885h1.972v7.89H17Z" transform="translate(-0.22 -0.493)"/>
      <path id="Trazado_1046414" data-name="Trazado 1046414" d="M37.986,46.775h3.945a.986.986,0,0,0,.986-.986V39.871a.986.986,0,0,0-.986-.986H37.986a.986.986,0,0,0-.986.986v5.918A.986.986,0,0,0,37.986,46.775Zm.986-5.917h1.973V44.8H38.972Z" transform="translate(-0.495 -0.493)"/>
      <path id="Trazado_1046415" data-name="Trazado 1046415" d="M45,38.885h1.972v7.89H45Z" transform="translate(-0.605 -0.493)"/>
      <path id="Trazado_1046416" data-name="Trazado 1046416" d="M29.986,46.775h3.945a.986.986,0,0,0,.986-.986V39.871a.986.986,0,0,0-.986-.986H29.986a.986.986,0,0,0-.986.986v5.918A.986.986,0,0,0,29.986,46.775Zm.986-5.917h1.973V44.8H30.972Z" transform="translate(-0.385 -0.493)"/>
      <path id="Trazado_1046417" data-name="Trazado 1046417" d="M21,38.885h1.973v7.89H21Z" transform="translate(-0.275 -0.493)"/>
      <path id="Trazado_1046418" data-name="Trazado 1046418" d="M25,38.885h1.972v7.89H25Z" transform="translate(-0.33 -0.493)"/>
      <path id="Trazado_1046419" data-name="Trazado 1046419" d="M28.642,17.21l-2.261-2.261,2.261-2.261-1.395-1.395-2.959,2.959a.986.986,0,0,0,0,1.395l2.959,2.959Z" transform="translate(-0.316 -0.114)"/>
      <path id="Trazado_1046420" data-name="Trazado 1046420" d="M0,0H8.821V1.972H0Z" transform="translate(28.708 18.347) rotate(-63.435)"/>
      <path id="Trazado_1046421" data-name="Trazado 1046421" d="M36.688,18.605l2.959-2.959a.986.986,0,0,0,0-1.395l-2.959-2.959-1.395,1.395,2.261,2.261-2.261,2.261Z" transform="translate(-0.472 -0.114)"/>
    </g>
  </g>
</svg>
