<svg xmlns="http://www.w3.org/2000/svg" width="589" height="201" viewBox="0 0 589 201">
  <g id="Grupo_1181773" data-name="Grupo 1181773" transform="translate(-365.051 -4534)">
    <g id="Grupo_1099019" data-name="Grupo 1099019" transform="translate(365.051 4534)">
      <path id="Rectángulo_389225" data-name="Rectángulo 389225" d="M9,0H580a9,9,0,0,1,9,9V40a0,0,0,0,1,0,0H0a0,0,0,0,1,0,0V9A9,9,0,0,1,9,0Z" fill="#3a1d71"/>
      <path id="Rectángulo_389226" data-name="Rectángulo 389226" d="M0,0H589a0,0,0,0,1,0,0V152a9,9,0,0,1-9,9H9a9,9,0,0,1-9-9V0A0,0,0,0,1,0,0Z" transform="translate(0 40)" fill="#110628"/>
      <g id="Grupo_1181759" data-name="Grupo 1181759" transform="translate(32 12)">
        <circle id="Elipse_11380" data-name="Elipse 11380" cx="8" cy="8" r="8" fill="#fb130d"/>
        <circle id="Elipse_11381" data-name="Elipse 11381" cx="8" cy="8" r="8" transform="translate(27)" fill="#fecd02"/>
        <circle id="Elipse_11382" data-name="Elipse 11382" cx="8" cy="8" r="8" transform="translate(53)" fill="#43dfaa"/>
      </g>
    </g>
    <text id="Inicio_Para_i_desde_1_hasta_5_hacer_Mostrar_Número:_i_Fin_Para_Fin" data-name="Inicio
Para i desde 1 hasta 5 hacer
        Mostrar &quot;Número:&quot;, i
Fin Para
Fin" transform="translate(399.051 4591)" fill="#fff" font-size="16" font-family="SegoeUI, Segoe UI"><tspan x="0" y="17">Inicio</tspan><tspan x="0" y="40">Para i desde 1 hasta 5 hacer</tspan><tspan x="0" y="63" xml:space="preserve">        Mostrar &quot;Número:&quot;, i</tspan><tspan x="0" y="86">Fin Para</tspan><tspan x="0" y="109">Fin</tspan></text>
  </g>
</svg>
