<svg xmlns="http://www.w3.org/2000/svg" xmlns:xlink="http://www.w3.org/1999/xlink" width="108" height="108" viewBox="0 0 108 108">
  <defs>
    <filter id="Trazado_904820" x="0" y="0" width="108" height="108" filterUnits="userSpaceOnUse">
      <feOffset dy="3" input="SourceAlpha"/>
      <feGaussianBlur stdDeviation="3" result="blur"/>
      <feFlood flood-opacity="0.161"/>
      <feComposite operator="in" in2="blur"/>
      <feComposite in="SourceGraphic"/>
    </filter>
  </defs>
  <g id="Grupo_1181703" data-name="Grupo 1181703" transform="translate(-200.051 -438.555)">
    <g id="Grupo_1179326" data-name="Grupo 1179326" transform="translate(0 -186.445)">
      <g id="Grupo_1179220" data-name="Grupo 1179220" transform="translate(209.051 631)">
        <g id="Grupo_1173585" data-name="Grupo 1173585" transform="translate(0 0)">
          <g id="Grupo_1173428" data-name="Grupo 1173428">
            <g id="Grupo_1171958" data-name="Grupo 1171958">
              <g id="Grupo_1167341" data-name="Grupo 1167341">
                <g id="Grupo_1166792" data-name="Grupo 1166792">
                  <g transform="matrix(1, 0, 0, 1, -9, -6)" filter="url(#Trazado_904820)">
                    <g id="Trazado_904820-2" data-name="Trazado 904820" transform="translate(9 6)" fill="#f0f4f5">
                      <path d="M 44.99999618530273 88.50004577636719 C 39.12687301635742 88.50004577636719 33.43022155761719 87.35012054443359 28.06829643249512 85.08220672607422 C 22.88852119445801 82.89134216308594 18.23629570007324 79.75463104248047 14.24084663391113 75.75917816162109 C 10.24540901184082 71.76371765136719 7.108683586120605 67.11149597167969 4.917821407318115 61.93173217773438 C 2.649921178817749 56.56979370117188 1.499996185302734 50.87314224243164 1.499996185302734 45.00001907348633 C 1.499996185302734 39.12689590454102 2.649921178817749 33.43024444580078 4.917821407318115 28.06830596923828 C 7.108683586120605 22.88853073120117 10.24540901184082 18.23631858825684 14.24084663391113 14.24086952209473 C 18.23629570007324 10.2454195022583 22.88852119445801 7.108694076538086 28.06829643249512 4.917831420898438 C 33.43022155761719 2.649931669235229 39.12687301635742 1.500006556510925 44.99999618530273 1.500006556510925 C 50.87311935424805 1.500006556510925 56.56977081298828 2.649931669235229 61.93169784545898 4.917831420898438 C 67.11147308349609 7.108694076538086 71.76369476318359 10.2454195022583 75.75914764404297 14.24086952209473 C 79.75458526611328 18.23631858825684 82.89131164550781 22.88853073120117 85.08216857910156 28.06830596923828 C 87.35007476806641 33.43024444580078 88.5 39.12689590454102 88.5 45.00001907348633 C 88.5 50.87314224243164 87.35007476806641 56.56979370117188 85.08216857910156 61.93173217773438 C 82.89131164550781 67.11149597167969 79.75458526611328 71.76371765136719 75.75914764404297 75.75917816162109 C 71.76369476318359 79.75463104248047 67.11147308349609 82.89134216308594 61.93169784545898 85.08220672607422 C 56.56977081298828 87.35012054443359 50.87311935424805 88.50004577636719 44.99999618530273 88.50004577636719 Z" stroke="none"/>
                      <path d="M 44.99999618530273 3.000007629394531 C 39.32870864868164 3.000007629394531 33.82865142822266 4.110061645507812 28.65262603759766 6.299346923828125 C 23.65165710449219 8.414573669433594 19.15968322753906 11.44334411621094 15.301513671875 15.30152130126953 C 11.44333648681641 19.15969085693359 8.414566040039062 23.65166473388672 6.299339294433594 28.65263366699219 C 4.110054016113281 33.82867431640625 2.999992370605469 39.32873153686523 2.999992370605469 45.00001907348633 C 2.999992370605469 50.67130661010742 4.110054016113281 56.17136383056641 6.299339294433594 61.34738922119141 C 8.414566040039062 66.34837341308594 11.44333648681641 70.84033203125 15.301513671875 74.69850158691406 C 19.15968322753906 78.55668640136719 23.65165710449219 81.58546447753906 28.65262603759766 83.70069122314453 C 33.82865142822266 85.88997650146484 39.32870864868164 87.00003051757812 44.99999618530273 87.00003051757812 C 50.67128372192383 87.00003051757812 56.17134094238281 85.88997650146484 61.34736633300781 83.70069122314453 C 66.34834289550781 81.58546447753906 70.84030914306641 78.55668640136719 74.69847869873047 74.69850158691406 C 78.55665588378906 70.84033203125 81.58542633056641 66.34837341308594 83.70065307617188 61.34738922119141 C 85.88993835449219 56.17136383056641 87 50.67130661010742 87 45.00001907348633 C 87 39.32873153686523 85.88993835449219 33.82867431640625 83.70065307617188 28.65263366699219 C 81.58542633056641 23.65166473388672 78.55665588378906 19.15969085693359 74.69847869873047 15.30152130126953 C 70.84030914306641 11.44334411621094 66.34834289550781 8.414573669433594 61.34736633300781 6.299346923828125 C 56.17134094238281 4.110061645507812 50.67128372192383 3.000007629394531 44.99999618530273 3.000007629394531 M 44.99999618530273 7.62939453125e-06 C 69.85281372070312 7.62939453125e-06 90 20.14719390869141 90 45.00001907348633 C 90 69.85282897949219 69.85281372070312 90.00003051757812 44.99999618530273 90.00003051757812 C 20.14717864990234 90.00003051757812 -7.62939453125e-06 69.85282897949219 -7.62939453125e-06 45.00001907348633 C -7.62939453125e-06 20.14719390869141 20.14717864990234 7.62939453125e-06 44.99999618530273 7.62939453125e-06 Z" stroke="none" fill="#41484b"/>
                    </g>
                  </g>
                </g>
              </g>
            </g>
          </g>
        </g>
      </g>
    </g>
    <g id="algorithm_12372640" transform="translate(206.821 440.371)">
      <g id="Grupo_1181702" data-name="Grupo 1181702" transform="translate(19.885 19.832)">
        <path id="Trazado_1050001" data-name="Trazado 1050001" d="M77.859,187.507v21.711H53.815v-23.63a3.668,3.668,0,0,1,3.658-3.658H69.346l7.681,5.031Z" transform="translate(-50.514 -163.387)" fill="#99bce3"/>
        <path id="Trazado_1050002" data-name="Trazado 1050002" d="M280.049,185.588v23.63H256V187.507l.832-.546,7.68-5.031H276.39A3.669,3.669,0,0,1,280.049,185.588Z" transform="translate(-228.66 -163.387)" fill="#7ba0d4"/>
        <path id="Trazado_1050003" data-name="Trazado 1050003" d="M283.349,411.4v4.54a4.331,4.331,0,0,1-4.33,4.331H256v-4.436h7.239l2.127-4.436Z" transform="translate(-228.66 -365.569)" fill="#505a5d"/>
        <path id="Trazado_1050004" data-name="Trazado 1050004" d="M53.4,415.836v4.436H30.385a4.331,4.331,0,0,1-4.33-4.331V411.4H44.033l2.127,4.436Z" transform="translate(-26.055 -365.569)" fill="#5b6a70"/>
        <path id="Trazado_1050005" data-name="Trazado 1050005" d="M425.262,411.4h3.916v2.711h-3.916Z" transform="translate(-377.789 -365.567)" fill="#cccccd"/>
        <path id="Trazado_1050006" data-name="Trazado 1050006" d="M366.758,411.4h3.916v2.711h-3.916Z" transform="translate(-326.242 -365.567)" fill="#cccccd"/>
        <path id="Trazado_1050007" data-name="Trazado 1050007" d="M202.99,327.89v6.1h-5.448a1.713,1.713,0,0,1-1.708-1.708V329.6a1.713,1.713,0,0,1,1.708-1.706Z" transform="translate(-175.645 -291.99)" fill="#f9bc15"/>
        <path id="Trazado_1050008" data-name="Trazado 1050008" d="M263.159,329.6v2.683a1.712,1.712,0,0,1-1.708,1.708h-5.446v-6.1h5.446A1.712,1.712,0,0,1,263.159,329.6Z" transform="translate(-228.66 -291.99)" fill="#e2ab25"/>
        <path id="Trazado_1050009" data-name="Trazado 1050009" d="M347.344,248.5v2.683a1.712,1.712,0,0,1-1.706,1.706h-5.895a1.713,1.713,0,0,1-1.708-1.706V248.5a1.713,1.713,0,0,1,1.708-1.708h5.895A1.712,1.712,0,0,1,347.344,248.5Z" transform="translate(-300.935 -220.534)" fill="#ec594c"/>
        <path id="Trazado_1050010" data-name="Trazado 1050010" d="M104.994,248.5v2.683a1.712,1.712,0,0,1-1.708,1.706H97.393a1.712,1.712,0,0,1-1.708-1.706V248.5a1.712,1.712,0,0,1,1.708-1.708h5.894A1.712,1.712,0,0,1,104.994,248.5Z" transform="translate(-87.405 -220.534)" fill="#ef6d63"/>
        <path id="Trazado_1050011" data-name="Trazado 1050011" d="M264.517,140.607l-7.68,5.031-.832.546V135.03l.832.546Z" transform="translate(-228.66 -122.064)" fill="#e2ab25"/>
        <path id="Trazado_1050012" data-name="Trazado 1050012" d="M192.928,135.03v11.155l-.832-.546-7.681-5.031,7.681-5.031Z" transform="translate(-165.583 -122.064)" fill="#f9bc15"/>
        <path id="Trazado_1050013" data-name="Trazado 1050013" d="M187.633,26v9.031h-6.789a2.446,2.446,0,0,1-2.439-2.439V28.439A2.446,2.446,0,0,1,180.844,26Z" transform="translate(-160.288 -26)" fill="#f9bc15"/>
        <path id="Trazado_1050014" data-name="Trazado 1050014" d="M265.232,28.439v4.153a2.446,2.446,0,0,1-2.439,2.439H256V26h6.788A2.446,2.446,0,0,1,265.232,28.439Z" transform="translate(-228.66 -26)" fill="#e2ab25"/>
        <path id="Trazado_1050015" data-name="Trazado 1050015" d="M186.6,411.4v4.436h-7.24l-2.127-4.436Z" transform="translate(-159.257 -365.569)" fill="#dededf"/>
        <path id="Trazado_1050016" data-name="Trazado 1050016" d="M265.371,411.4l-2.127,4.436H256V411.4Z" transform="translate(-228.66 -365.569)" fill="#cccccd"/>
      </g>
      <path id="Trazado_1050017" data-name="Trazado 1050017" d="M74.575,64.831H72.106v-22.8a4.5,4.5,0,0,0-4.491-4.491H55.99l-7.928-5.195V29.7h5.955a3.275,3.275,0,0,0,3.271-3.271V22.271A3.275,3.275,0,0,0,54.018,19H40.441a3.275,3.275,0,0,0-3.271,3.271v4.153A3.275,3.275,0,0,0,40.441,29.7H46.4v2.652l-7.93,5.195H26.844a4.5,4.5,0,0,0-4.491,4.491v22.8H19.884a.832.832,0,0,0-.832.832V70.2a5.169,5.169,0,0,0,5.163,5.164H70.244A5.169,5.169,0,0,0,75.407,70.2v-4.54A.832.832,0,0,0,74.575,64.831ZM40.441,28.03a1.608,1.608,0,0,1-1.606-1.607V22.271a1.608,1.608,0,0,1,1.606-1.607H54.018a1.608,1.608,0,0,1,1.606,1.607v4.153a1.608,1.608,0,0,1-1.606,1.607H40.441Zm6.789,5.762,6.993,4.582L47.23,42.957l-6.995-4.582ZM58.693,53.018h2.115v4.93H55.216v-.509a2.543,2.543,0,0,0-2.54-2.54H41.783a2.542,2.542,0,0,0-2.54,2.54v.509H33.652v-4.93h2.115a2.543,2.543,0,0,0,2.54-2.54V49.97H56.153v.509A2.542,2.542,0,0,0,58.693,53.018Zm-.875-2.54V47.8a.876.876,0,0,1,.875-.875h5.894a.876.876,0,0,1,.875.875v2.683a.876.876,0,0,1-.875.875H58.693A.876.876,0,0,1,57.818,50.478Zm-4.266,6.961v2.683a.876.876,0,0,1-.875.875H41.783a.876.876,0,0,1-.875-.875V57.439a.876.876,0,0,1,.875-.875H52.677A.876.876,0,0,1,53.551,57.439ZM29.872,51.353A.876.876,0,0,1,29,50.478V47.8a.876.876,0,0,1,.875-.875h5.894a.876.876,0,0,1,.875.875v2.683a.876.876,0,0,1-.875.875Zm-5.854-9.32a2.829,2.829,0,0,1,2.826-2.826H38.468L46.4,44.4v3.9H38.306V47.8a2.543,2.543,0,0,0-2.54-2.54H29.872a2.543,2.543,0,0,0-2.54,2.54v2.683a2.543,2.543,0,0,0,2.54,2.54h2.115v5.763a.832.832,0,0,0,.832.832h6.423v.509a2.543,2.543,0,0,0,2.54,2.54H52.676a2.543,2.543,0,0,0,2.54-2.54v-.509H61.64a.832.832,0,0,0,.832-.832V53.018h2.115a2.543,2.543,0,0,0,2.54-2.54V47.8a2.543,2.543,0,0,0-2.54-2.54H58.692a2.543,2.543,0,0,0-2.54,2.54V48.3h-8.09V44.4l7.928-5.195H67.615a2.829,2.829,0,0,1,2.826,2.826v22.8H24.018ZM70.441,66.5v1.046H68.19V66.5Zm-6.957,0v1.046H61.233V66.5Zm-8.21,0-1.329,2.771H40.514L39.185,66.5ZM73.742,70.2a3.5,3.5,0,0,1-3.5,3.5H24.215a3.5,3.5,0,0,1-3.5-3.5V66.5H37.339l1.9,3.963a.832.832,0,0,0,.751.473H54.469a.832.832,0,0,0,.751-.473l1.9-3.963h2.448v1.878a.832.832,0,0,0,.832.832h3.916a.832.832,0,0,0,.832-.832V66.5h1.376v1.878a.832.832,0,0,0,.832.832h3.916a.832.832,0,0,0,.832-.832V66.5h1.636Zm-22.1-11.423a.832.832,0,0,1-.832.832H43.652a.832.832,0,1,1,0-1.665h7.154A.832.832,0,0,1,51.639,58.781ZM43.615,24.348a1.162,1.162,0,1,1-1.162-1.162,1.162,1.162,0,0,1,1.162,1.162Zm4.776,0a1.162,1.162,0,1,1-1.162-1.162,1.162,1.162,0,0,1,1.162,1.162Zm4.776,0a1.162,1.162,0,1,1-1.162-1.162,1.162,1.162,0,0,1,1.162,1.162Z" transform="translate(0 0)"/>
    </g>
  </g>
</svg>
