<svg xmlns="http://www.w3.org/2000/svg" xmlns:xlink="http://www.w3.org/1999/xlink" width="108.914" height="108.914" viewBox="0 0 108.914 108.914">
  <defs>
    <filter id="Trazado_874925" x="0" y="0" width="108.914" height="108.914" filterUnits="userSpaceOnUse">
      <feOffset dy="3" input="SourceAlpha"/>
      <feGaussianBlur stdDeviation="3" result="blur"/>
      <feFlood flood-opacity="0.161"/>
      <feComposite operator="in" in2="blur"/>
      <feComposite in="SourceGraphic"/>
    </filter>
  </defs>
  <g id="Grupo_1181639" data-name="Grupo 1181639" transform="translate(-690.66 -3840.49)">
    <g id="Grupo_1179789" data-name="Grupo 1179789" transform="translate(699.66 3846.49)">
      <g id="Grupo_1179015" data-name="Grupo 1179015" transform="translate(0 0)">
        <g id="Grupo_1111527" data-name="Grupo 1111527" transform="translate(0 0)">
          <g id="Grupo_1111316" data-name="Grupo 1111316">
            <g id="Grupo_1109835" data-name="Grupo 1109835" transform="translate(0 0)">
              <g id="Grupo_1107913" data-name="Grupo 1107913" transform="translate(0 0)">
                <g transform="matrix(1, 0, 0, 1, -9, -6)" filter="url(#Trazado_874925)">
                  <g id="Trazado_874925-2" data-name="Trazado 874925" transform="translate(9 6)" fill="#fdf9d4" opacity="0.859">
                    <path d="M 45.45676803588867 89.41407012939453 C 39.52198028564453 89.41407012939453 33.76551818847656 88.25206756591797 28.34726715087891 85.96034240722656 C 23.11310577392578 83.74648284912109 18.41203117370605 80.57682800292969 14.37464332580566 76.5394287109375 C 10.33724308013916 72.50202941894531 7.167593002319336 67.80095672607422 4.953730583190918 62.56679534912109 C 2.662005424499512 57.14855575561523 1.500005483627319 51.39208221435547 1.500005483627319 45.45729446411133 C 1.500005483627319 39.52198028564453 2.662005424499512 33.76550674438477 4.953730583190918 28.34726905822754 C 7.167593002319336 23.11310577392578 10.33724308013916 18.41203117370605 14.37464332580566 14.37464332580566 C 18.41203117370605 10.33724403381348 23.11310577392578 7.167593955993652 28.34726715087891 4.953731060028076 C 33.76550674438477 2.662006139755249 39.52198028564453 1.500006198883057 45.45676803588867 1.500006198883057 C 51.39155578613281 1.500006198883057 57.14802932739258 2.662006139755249 62.56626892089844 4.953731060028076 C 67.80043029785156 7.167593955993652 72.50150299072266 10.33724403381348 76.53890228271484 14.37464332580566 C 80.57630920410156 18.41203117370605 83.74595642089844 23.11310577392578 85.95981597900391 28.34726905822754 C 88.25154113769531 33.76551818847656 89.41354370117188 39.52198028564453 89.41354370117188 45.45676803588867 C 89.41354370117188 51.39208221435547 88.25154113769531 57.14855575561523 85.95981597900391 62.56679534912109 C 83.74595642089844 67.80095672607422 80.57630920410156 72.50202941894531 76.53890228271484 76.5394287109375 C 72.50150299072266 80.57682800292969 67.80043029785156 83.74648284912109 62.56626892089844 85.96034240722656 C 57.14802932739258 88.25206756591797 51.39155578613281 89.41407012939453 45.45676803588867 89.41407012939453 Z" stroke="none"/>
                    <path d="M 45.45676803588867 3 C 39.72381210327148 3 34.1639404296875 4.12213134765625 28.93159484863281 6.335227966308594 C 23.87622833251953 8.473472595214844 19.33542633056641 11.53517150878906 15.43529510498047 15.435302734375 C 11.53517150878906 19.33543395996094 8.473464965820312 23.87622833251953 6.335227966308594 28.93160247802734 C 4.122123718261719 34.16394424438477 3 39.72381591796875 3 45.4572868347168 C 3 51.19024658203125 4.122123718261719 56.75011825561523 6.335227966308594 61.98246002197266 C 8.473464965820312 67.03782653808594 11.53517150878906 71.57862854003906 15.43529510498047 75.478759765625 C 19.33542633056641 79.37889099121094 23.87622833251953 82.44058990478516 28.93159484863281 84.57883453369141 C 34.1639404296875 86.79193115234375 39.72381210327148 87.9140625 45.45676803588867 87.9140625 C 51.18972396850586 87.9140625 56.74959564208984 86.79193115234375 61.98194122314453 84.57883453369141 C 67.03730773925781 82.44058990478516 71.57810974121094 79.37889099121094 75.47824096679688 75.478759765625 C 79.37837219238281 71.57862854003906 82.44007110595703 67.03782653808594 84.57830810546875 61.98246002197266 C 86.79141235351562 56.75011825561523 87.91353607177734 51.19024658203125 87.91353607177734 45.4567756652832 C 87.91353607177734 39.72381591796875 86.79141235351562 34.16394424438477 84.57830810546875 28.93160247802734 C 82.44007110595703 23.87622833251953 79.37837219238281 19.33543395996094 75.47824096679688 15.435302734375 C 71.57810974121094 11.53517150878906 67.03730773925781 8.473472595214844 61.98194122314453 6.335227966308594 C 56.74959564208984 4.12213134765625 51.18972396850586 3 45.45676803588867 3 M 45.45676803588867 0 C 70.56185150146484 0 90.91353607177734 20.35169219970703 90.91353607177734 45.4567756652832 L 90.91353607177734 45.4572868347168 C 90.91353607177734 70.5623779296875 70.56185150146484 90.9140625 45.45676803588867 90.9140625 C 20.3516845703125 90.9140625 0 70.5623779296875 0 45.4572868347168 L 0 45.4567756652832 C 0 20.35169219970703 20.3516845703125 0 45.45676803588867 0 Z" stroke="none" fill="#c7b622"/>
                  </g>
                </g>
                <g id="Trazado_874923" data-name="Trazado 874923" transform="translate(0)" fill="none">
                  <path d="M45.457,0A45.457,45.457,0,0,1,90.914,45.457h0A45.457,45.457,0,0,1,0,45.457H0A45.457,45.457,0,0,1,45.457,0Z" stroke="none"/>
                  <path d="M 45.45676803588867 3 C 39.72381210327148 3 34.1639404296875 4.12213134765625 28.93159484863281 6.335227966308594 C 23.87622833251953 8.473472595214844 19.33542633056641 11.53517150878906 15.43529510498047 15.435302734375 C 11.53517150878906 19.33543395996094 8.473464965820312 23.87622833251953 6.335227966308594 28.93160247802734 C 4.122123718261719 34.16394424438477 3 39.72381591796875 3 45.4572868347168 C 3 51.19024658203125 4.122123718261719 56.75011825561523 6.335227966308594 61.98246002197266 C 8.473464965820312 67.03782653808594 11.53517150878906 71.57862854003906 15.43529510498047 75.478759765625 C 19.33542633056641 79.37889099121094 23.87622833251953 82.44058990478516 28.93159484863281 84.57883453369141 C 34.1639404296875 86.79193115234375 39.72381210327148 87.9140625 45.45676803588867 87.9140625 C 51.18972396850586 87.9140625 56.74959564208984 86.79193115234375 61.98194122314453 84.57883453369141 C 67.03730773925781 82.44058990478516 71.57810974121094 79.37889099121094 75.47824096679688 75.478759765625 C 79.37837219238281 71.57862854003906 82.44007110595703 67.03782653808594 84.57830810546875 61.98246002197266 C 86.79141235351562 56.75011825561523 87.91353607177734 51.19024658203125 87.91353607177734 45.4567756652832 C 87.91353607177734 39.72381591796875 86.79141235351562 34.16394424438477 84.57830810546875 28.93160247802734 C 82.44007110595703 23.87622833251953 79.37837219238281 19.33543395996094 75.47824096679688 15.435302734375 C 71.57810974121094 11.53517150878906 67.03730773925781 8.473472595214844 61.98194122314453 6.335227966308594 C 56.74959564208984 4.12213134765625 51.18972396850586 3 45.45676803588867 3 M 45.45676803588867 0 C 70.56185150146484 0 90.91353607177734 20.35169219970703 90.91353607177734 45.4567756652832 L 90.91353607177734 45.4572868347168 C 90.91353607177734 70.5623779296875 70.56185150146484 90.9140625 45.45676803588867 90.9140625 C 20.3516845703125 90.9140625 0 70.5623779296875 0 45.4572868347168 L 0 45.4567756652832 C 0 20.35169219970703 20.3516845703125 0 45.45676803588867 0 Z" stroke="none" fill="#c7b622"/>
                </g>
              </g>
            </g>
          </g>
        </g>
      </g>
    </g>
    <g id="information_4795494" transform="translate(714.986 3861.816)">
      <path id="Trazado_1049861" data-name="Trazado 1049861" d="M8.813,3H51.947a2.813,2.813,0,0,1,2.813,2.813V36.757H6V5.813A2.813,2.813,0,0,1,8.813,3Z" transform="translate(-0.249 -0.062)" fill="#707070"/>
      <path id="Trazado_1049862" data-name="Trazado 1049862" d="M51.947,3H8.813A2.813,2.813,0,0,0,6,5.813V36.757H7.875V7.689a2.813,2.813,0,0,1,2.813-2.813H53.823a2.8,2.8,0,0,1,.806.131A2.8,2.8,0,0,0,51.947,3Z" transform="translate(-0.249 -0.062)" fill="#858585"/>
      <path id="Trazado_1049863" data-name="Trazado 1049863" d="M10,7H51.259V37.007H10Z" transform="translate(-0.498 -0.311)" fill="#4c94fc"/>
      <path id="Trazado_1049864" data-name="Trazado 1049864" d="M3,39H56.449a4.689,4.689,0,0,1-4.689,4.689H7.689A4.689,4.689,0,0,1,3,39Z" transform="translate(-0.062 -2.305)" fill="#707070"/>
      <path id="Trazado_1049865" data-name="Trazado 1049865" d="M51.761,41.813H7.689A4.689,4.689,0,0,1,3.4,39H3a4.689,4.689,0,0,0,4.689,4.689H51.761A4.689,4.689,0,0,0,56.449,39h-.4A4.689,4.689,0,0,1,51.761,41.813Z" transform="translate(-0.062 -2.305)" fill="#606060"/>
      <circle id="Elipse_12506" data-name="Elipse 12506" cx="2" cy="2" r="2" transform="translate(13.262 45)" fill="#f2c341"/>
      <ellipse id="Elipse_12507" data-name="Elipse 12507" cx="1.5" cy="2" rx="1.5" ry="2" transform="translate(4.262 51)" fill="#f2c341"/>
      <path id="Trazado_1049866" data-name="Trazado 1049866" d="M24.252,10A11.252,11.252,0,1,0,35.5,21.252,11.252,11.252,0,0,0,24.252,10Z" transform="translate(-0.685 -0.498)" fill="#f2c341"/>
      <g id="Grupo_1181638" data-name="Grupo 1181638" transform="translate(21.692 12.315)">
        <path id="Trazado_1049867" data-name="Trazado 1049867" d="M23,20h3.751v9.377H23Z" transform="translate(-23 -13.436)" fill="#4c94fc"/>
        <circle id="Elipse_12508" data-name="Elipse 12508" cx="2" cy="2" r="2" transform="translate(-0.429 -0.314)" fill="#4c94fc"/>
        <path id="Trazado_1049868" data-name="Trazado 1049868" d="M54.567,31H37.689A4.689,4.689,0,0,0,33,35.689V59.131H50.816V35.689a4.674,4.674,0,0,1,4.22-4.642C54.879,31.032,54.728,31,54.567,31Z" transform="translate(-23.623 -14.121)" fill="#4c94fc"/>
      </g>
      <path id="Trazado_1049869" data-name="Trazado 1049869" d="M52,35.692v.938h8.439v-.938a4.674,4.674,0,0,0-4.22-4.642A4.674,4.674,0,0,0,52,35.692Z" transform="translate(-3.115 -1.81)" fill="#3f8aeb"/>
      <path id="Trazado_1049870" data-name="Trazado 1049870" d="M35.813,37.564A4.689,4.689,0,0,1,40.5,32.875H51.788a4.689,4.689,0,0,1,3.248-1.829c-.157-.015-.309-.047-.469-.047H37.689A4.689,4.689,0,0,0,33,35.689V59.131h2.813Z" transform="translate(-1.931 -1.807)" fill="#3f8cfc"/>
      <path id="Trazado_1049871" data-name="Trazado 1049871" d="M14.875,21.252A11.252,11.252,0,0,1,25.19,10.047c-.31-.025-.621-.047-.938-.047a11.252,11.252,0,0,0,0,22.5c.317,0,.627-.022.938-.047A11.252,11.252,0,0,1,14.875,21.252Z" transform="translate(-0.685 -0.498)" fill="#f2b91b"/>
      <path id="Trazado_1049872" data-name="Trazado 1049872" d="M55.449,29.017V5.751A3.751,3.751,0,0,0,51.7,2H8.564A3.751,3.751,0,0,0,4.813,5.751V35.757H2.938A.938.938,0,0,0,2,36.7,5.626,5.626,0,0,0,4.813,41.56V50a2.807,2.807,0,1,0,3.578,3.575H14.17l3,4.288a.938.938,0,0,0,.77.4H35.757a.938.938,0,1,0,0-1.875H18.43l-3-4.288a.938.938,0,0,0-.77-.4H8.391a2.813,2.813,0,0,0-1.7-1.7V42.237a5.626,5.626,0,0,0,.938.084H9.5V47.01a.938.938,0,0,0,.938.938h2.048a2.8,2.8,0,0,0,5.281,0h3.393l2.54,4.234a.938.938,0,0,0,.8.455h3.751a.938.938,0,0,0,0-1.875h-3.22L22.5,46.527a.938.938,0,0,0-.8-.455H17.768a2.8,2.8,0,0,0-5.281,0h-1.11V42.321H30.131V53.574a.938.938,0,0,0,1.875,0V33.882a3.751,3.751,0,0,1,3.751-3.751H49.392a5.6,5.6,0,0,0-1.444,3.751V57.324a.938.938,0,0,0,1.875,0V35.757h7.5a.938.938,0,0,0,.938-.938v-.938A5.626,5.626,0,0,0,55.449,29.017ZM5.751,53.574a.938.938,0,1,1,.938-.938A.938.938,0,0,1,5.751,53.574Zm9.377-7.5a.938.938,0,1,1-.938.938A.938.938,0,0,1,15.128,46.072ZM6.689,5.751A1.875,1.875,0,0,1,8.564,3.875H51.7a1.875,1.875,0,0,1,1.875,1.875v22.5c-.158,0-.314.011-.469.023-.155-.012-.31-.023-.469-.023H51.7V6.689a.938.938,0,0,0-.938-.938H9.5a.938.938,0,0,0-.938.938V35.757H6.689Zm.938,34.7a3.756,3.756,0,0,1-3.632-2.813H30.131v2.813Zm22.5-6.564v1.875H10.439V7.626H49.823V28.256H35.757A5.632,5.632,0,0,0,30.131,33.882Zm19.692,0a3.743,3.743,0,0,1,3.282-3.7,3.743,3.743,0,0,1,3.282,3.7Z"/>
      <path id="Trazado_1049873" data-name="Trazado 1049873" d="M35.938,39.875h4.689a.938.938,0,1,0,0-1.875H35.938a.938.938,0,1,0,0,1.875Z" transform="translate(-2.056 -2.243)"/>
      <path id="Trazado_1049874" data-name="Trazado 1049874" d="M47.751,39.875a.938.938,0,0,0,0-1.875H44.938a.938.938,0,1,0,0,1.875Z" transform="translate(-2.616 -2.243)"/>
      <path id="Trazado_1049875" data-name="Trazado 1049875" d="M35.938,43.875H47.19a.938.938,0,0,0,0-1.875H35.938a.938.938,0,1,0,0,1.875Z" transform="translate(-2.056 -2.492)"/>
      <path id="Trazado_1049876" data-name="Trazado 1049876" d="M35.938,47.875h4.689a.938.938,0,1,0,0-1.875H35.938a.938.938,0,1,0,0,1.875Z" transform="translate(-2.056 -2.741)"/>
      <path id="Trazado_1049877" data-name="Trazado 1049877" d="M47.751,46H44.938a.938.938,0,1,0,0,1.875h2.813a.938.938,0,0,0,0-1.875Z" transform="translate(-2.616 -2.741)"/>
      <path id="Trazado_1049878" data-name="Trazado 1049878" d="M35.938,51.875H47.19a.938.938,0,0,0,0-1.875H35.938a.938.938,0,1,0,0,1.875Z" transform="translate(-2.056 -2.99)"/>
      <path id="Trazado_1049879" data-name="Trazado 1049879" d="M27.5,28.377V19.938A.938.938,0,0,0,26.564,19H20.938a.938.938,0,1,0,0,1.875h.938v7.5a.938.938,0,0,0,0,1.875H27.5a.938.938,0,1,0,0-1.875Zm-3.751,0v-7.5h1.875v7.5Z" transform="translate(-1.121 -1.059)"/>
      <path id="Trazado_1049880" data-name="Trazado 1049880" d="M24.813,17.626A2.813,2.813,0,1,0,22,14.813a2.813,2.813,0,0,0,2.813,2.813Zm0-3.751a.938.938,0,1,1-.938.938A.938.938,0,0,1,24.813,13.875Z" transform="translate(-1.246 -0.623)"/>
      <path id="Trazado_1049881" data-name="Trazado 1049881" d="M24.19,9A12.19,12.19,0,1,0,36.38,21.19,12.19,12.19,0,0,0,24.19,9Zm0,22.5A10.315,10.315,0,1,1,34.5,21.19,10.315,10.315,0,0,1,24.19,31.5Z" transform="translate(-0.623 -0.436)"/>
      <path id="Trazado_1049882" data-name="Trazado 1049882" d="M41.938,12.875h7.5a.938.938,0,1,0,0-1.875h-7.5a.938.938,0,1,0,0,1.875Z" transform="translate(-2.43 -0.561)"/>
      <path id="Trazado_1049883" data-name="Trazado 1049883" d="M49.439,15h-7.5a.938.938,0,1,0,0,1.875h7.5a.938.938,0,1,0,0-1.875Z" transform="translate(-2.43 -0.81)"/>
      <path id="Trazado_1049884" data-name="Trazado 1049884" d="M49.439,19h-7.5a.938.938,0,1,0,0,1.875h7.5a.938.938,0,1,0,0-1.875Z" transform="translate(-2.43 -1.059)"/>
    </g>
  </g>
</svg>
