<svg xmlns="http://www.w3.org/2000/svg" width="610" height="334" viewBox="0 0 610 334">
  <g id="Grupo_1182446" data-name="Grupo 1182446" transform="translate(-365.051 -4534)">
    <g id="Grupo_1099019" data-name="Grupo 1099019" transform="translate(365.051 4534)">
      <path id="Rectángulo_389225" data-name="Rectángulo 389225" d="M9,0H601a9,9,0,0,1,9,9V55a0,0,0,0,1,0,0H0a0,0,0,0,1,0,0V9A9,9,0,0,1,9,0Z" fill="#3a1d71"/>
      <path id="Rectángulo_389226" data-name="Rectángulo 389226" d="M0,0H610a0,0,0,0,1,0,0V270a9,9,0,0,1-9,9H9a9,9,0,0,1-9-9V0A0,0,0,0,1,0,0Z" transform="translate(0 55)" fill="#110628"/>
      <g id="Grupo_1181759" data-name="Grupo 1181759" transform="translate(32 19)">
        <circle id="Elipse_11380" data-name="Elipse 11380" cx="8" cy="8" r="8" fill="#fb130d"/>
        <circle id="Elipse_11381" data-name="Elipse 11381" cx="8" cy="8" r="8" transform="translate(27)" fill="#fecd02"/>
        <circle id="Elipse_11382" data-name="Elipse 11382" cx="8" cy="8" r="8" transform="translate(53)" fill="#43dfaa"/>
      </g>
    </g>
    <text id="Python_Calcula_La_suma_de_dos_número_a_5_a_3_resultados_a_b_print_resultado_Imprime_8" data-name="Python

# Calcula La suma de dos número 

a  =  5a  =  3

resultados  =  a  +  bprint (resultado)   # Imprime 8" transform="translate(399.051 4623)" fill="#fff" font-size="16" font-family="SegoeUI, Segoe UI"><tspan x="0" y="17">Python</tspan><tspan x="0" y="40"></tspan><tspan fill="#9c9cb1" font-family="SegoeUI-Italic, Segoe UI" font-style="italic"><tspan x="0" y="63"># Calcula La suma de dos número </tspan></tspan><tspan x="0" y="86"></tspan><tspan x="0" y="109" xml:space="preserve">a  =  </tspan><tspan y="109" fill="#bb7e00">5</tspan><tspan y="109"></tspan><tspan x="0" y="132" xml:space="preserve">a  =  </tspan><tspan y="132" fill="#bb7e00">3</tspan><tspan x="0" y="155"></tspan><tspan x="0" y="178" xml:space="preserve">resultados  =  a  +  b</tspan><tspan fill="#bb7e00"><tspan x="0" y="201">print</tspan><tspan y="201" xml:space="preserve" fill="#fff"> (resultado)  </tspan><tspan y="201" fill="#9c9cb1"> </tspan><tspan y="201" fill="#9c9cb1" font-family="SegoeUI-Italic, Segoe UI" font-style="italic"># Imprime 8</tspan></tspan></text>
  </g>
</svg>
