<svg xmlns="http://www.w3.org/2000/svg" xmlns:xlink="http://www.w3.org/1999/xlink" width="108" height="108" viewBox="0 0 108 108">
  <defs>
    <filter id="Trazado_904820" x="0" y="0" width="108" height="108" filterUnits="userSpaceOnUse">
      <feOffset dy="3" input="SourceAlpha"/>
      <feGaussianBlur stdDeviation="3" result="blur"/>
      <feFlood flood-opacity="0.161"/>
      <feComposite operator="in" in2="blur"/>
      <feComposite in="SourceGraphic"/>
    </filter>
  </defs>
  <g id="Grupo_1179619" data-name="Grupo 1179619" transform="translate(-214.5 -1515)">
    <g id="Grupo_1179123" data-name="Grupo 1179123" transform="translate(223.5 1521)">
      <g id="Grupo_1173585" data-name="Grupo 1173585" transform="translate(0 0)">
        <g id="Grupo_1173428" data-name="Grupo 1173428">
          <g id="Grupo_1171958" data-name="Grupo 1171958">
            <g id="Grupo_1167341" data-name="Grupo 1167341">
              <g id="Grupo_1166792" data-name="Grupo 1166792">
                <g transform="matrix(1, 0, 0, 1, -9, -6)" filter="url(#Trazado_904820)">
                  <g id="Trazado_904820-2" data-name="Trazado 904820" transform="translate(9 6)" fill="#fefcea">
                    <path d="M 44.99999618530273 88.50004577636719 C 39.12687301635742 88.50004577636719 33.43022155761719 87.35012054443359 28.06829643249512 85.08220672607422 C 22.88852119445801 82.89134216308594 18.23629570007324 79.75463104248047 14.24084663391113 75.75917816162109 C 10.24540901184082 71.76371765136719 7.108683586120605 67.11149597167969 4.917821407318115 61.93173217773438 C 2.649921178817749 56.56979370117188 1.499996185302734 50.87314224243164 1.499996185302734 45.00001907348633 C 1.499996185302734 39.12689590454102 2.649921178817749 33.43024444580078 4.917821407318115 28.06830596923828 C 7.108683586120605 22.88853073120117 10.24540901184082 18.23631858825684 14.24084663391113 14.24086952209473 C 18.23629570007324 10.2454195022583 22.88852119445801 7.108694076538086 28.06829643249512 4.917831420898438 C 33.43022155761719 2.649931669235229 39.12687301635742 1.500006556510925 44.99999618530273 1.500006556510925 C 50.87311935424805 1.500006556510925 56.56977081298828 2.649931669235229 61.93169784545898 4.917831420898438 C 67.11147308349609 7.108694076538086 71.76369476318359 10.2454195022583 75.75914764404297 14.24086952209473 C 79.75458526611328 18.23631858825684 82.89131164550781 22.88853073120117 85.08216857910156 28.06830596923828 C 87.35007476806641 33.43024444580078 88.5 39.12689590454102 88.5 45.00001907348633 C 88.5 50.87314224243164 87.35007476806641 56.56979370117188 85.08216857910156 61.93173217773438 C 82.89131164550781 67.11149597167969 79.75458526611328 71.76371765136719 75.75914764404297 75.75917816162109 C 71.76369476318359 79.75463104248047 67.11147308349609 82.89134216308594 61.93169784545898 85.08220672607422 C 56.56977081298828 87.35012054443359 50.87311935424805 88.50004577636719 44.99999618530273 88.50004577636719 Z" stroke="none"/>
                    <path d="M 44.99999618530273 3.000007629394531 C 39.32870864868164 3.000007629394531 33.82865142822266 4.110061645507812 28.65262603759766 6.299346923828125 C 23.65165710449219 8.414573669433594 19.15968322753906 11.44334411621094 15.301513671875 15.30152130126953 C 11.44333648681641 19.15969085693359 8.414566040039062 23.65166473388672 6.299339294433594 28.65263366699219 C 4.110054016113281 33.82867431640625 2.999992370605469 39.32873153686523 2.999992370605469 45.00001907348633 C 2.999992370605469 50.67130661010742 4.110054016113281 56.17136383056641 6.299339294433594 61.34738922119141 C 8.414566040039062 66.34837341308594 11.44333648681641 70.84033203125 15.301513671875 74.69850158691406 C 19.15968322753906 78.55668640136719 23.65165710449219 81.58546447753906 28.65262603759766 83.70069122314453 C 33.82865142822266 85.88997650146484 39.32870864868164 87.00003051757812 44.99999618530273 87.00003051757812 C 50.67128372192383 87.00003051757812 56.17134094238281 85.88997650146484 61.34736633300781 83.70069122314453 C 66.34834289550781 81.58546447753906 70.84030914306641 78.55668640136719 74.69847869873047 74.69850158691406 C 78.55665588378906 70.84033203125 81.58542633056641 66.34837341308594 83.70065307617188 61.34738922119141 C 85.88993835449219 56.17136383056641 87 50.67130661010742 87 45.00001907348633 C 87 39.32873153686523 85.88993835449219 33.82867431640625 83.70065307617188 28.65263366699219 C 81.58542633056641 23.65166473388672 78.55665588378906 19.15969085693359 74.69847869873047 15.30152130126953 C 70.84030914306641 11.44334411621094 66.34834289550781 8.414573669433594 61.34736633300781 6.299346923828125 C 56.17134094238281 4.110061645507812 50.67128372192383 3.000007629394531 44.99999618530273 3.000007629394531 M 44.99999618530273 7.62939453125e-06 C 69.85281372070312 7.62939453125e-06 90 20.14719390869141 90 45.00001907348633 C 90 69.85282897949219 69.85281372070312 90.00003051757812 44.99999618530273 90.00003051757812 C 20.14717864990234 90.00003051757812 -7.62939453125e-06 69.85282897949219 -7.62939453125e-06 45.00001907348633 C -7.62939453125e-06 20.14719390869141 20.14717864990234 7.62939453125e-06 44.99999618530273 7.62939453125e-06 Z" stroke="none" fill="#958919"/>
                  </g>
                </g>
              </g>
            </g>
          </g>
        </g>
      </g>
    </g>
    <g id="Layer_16" data-name="Layer 16" transform="translate(236.505 1534.003)">
      <path id="Trazado_1047068" data-name="Trazado 1047068" d="M58.5,37.35c1.41-1.48,3-3.16,3-5.35s-1.59-3.87-3-5.35a9,9,0,0,1-2-2.61,9.12,9.12,0,0,1,.06-3.44c.25-2,.53-4.24-.7-5.94s-3.5-2.14-5.48-2.52a8.73,8.73,0,0,1-3.24-1A8.86,8.86,0,0,1,45.23,8.4c-1-1.78-2.06-3.8-4.11-4.46s-4,.32-5.8,1.16A9.13,9.13,0,0,1,32,6.23,9.13,9.13,0,0,1,28.68,5.1c-1.79-.84-3.83-1.8-5.8-1.16S19.74,6.62,18.77,8.4a8.86,8.86,0,0,1-1.92,2.75,8.73,8.73,0,0,1-3.24,1c-2,.38-4.23.8-5.48,2.52s-1,3.95-.7,5.94A9.12,9.12,0,0,1,7.49,24a9,9,0,0,1-2,2.61c-1.41,1.48-3,3.16-3,5.35s1.59,3.87,3,5.35a9,9,0,0,1,2,2.61,9.12,9.12,0,0,1-.06,3.44c-.25,2-.53,4.24.7,5.94s3.5,2.14,5.48,2.52a8.73,8.73,0,0,1,3.24,1,8.86,8.86,0,0,1,1.92,2.75c1,1.78,2.06,3.8,4.11,4.46s4-.32,5.8-1.16A9.13,9.13,0,0,1,32,57.77a9.13,9.13,0,0,1,3.32,1.13,11,11,0,0,0,4.44,1.37,4.24,4.24,0,0,0,1.36-.21c2.05-.66,3.14-2.68,4.11-4.46a8.86,8.86,0,0,1,1.92-2.75,8.73,8.73,0,0,1,3.24-1c2-.38,4.23-.8,5.48-2.52s1-4,.7-5.94A9.12,9.12,0,0,1,56.51,40a9,9,0,0,1,1.99-2.65Z" fill="#f1c40f"/>
      <path id="Trazado_1047069" data-name="Trazado 1047069" d="M36.08,15.61a5.56,5.56,0,0,0-9.62,4.21l1.29,16.27a4.26,4.26,0,0,0,8.5,0l1.29-16.27a5.58,5.58,0,0,0-1.46-4.21Z" fill="#d8e1ef"/>
      <circle id="Elipse_11943" data-name="Elipse 11943" cx="4.05" cy="4.05" r="4.05" transform="translate(27.95 42.07)" fill="#d8e1ef"/>
      <path id="Trazado_1047070" data-name="Trazado 1047070" d="M58.5,37.35c1.41-1.48,3-3.16,3-5.35s-1.59-3.87-3-5.35a9,9,0,0,1-2-2.61,9.12,9.12,0,0,1,.06-3.44c.25-2,.53-4.24-.7-5.94s-3.5-2.14-5.48-2.52a8.73,8.73,0,0,1-3.24-1A8.86,8.86,0,0,1,45.23,8.4c-1-1.78-2.06-3.8-4.11-4.46s-4,.32-5.8,1.16A9.13,9.13,0,0,1,32,6.23,9.13,9.13,0,0,1,28.68,5.1c-1.79-.84-3.83-1.8-5.8-1.16S19.74,6.62,18.77,8.4a8.86,8.86,0,0,1-1.92,2.75,8.73,8.73,0,0,1-3.24,1c-2,.38-4.23.8-5.48,2.52s-1,3.95-.7,5.94A9.12,9.12,0,0,1,7.49,24a9,9,0,0,1-2,2.61c-1.41,1.48-3,3.16-3,5.35s1.59,3.87,3,5.35a9,9,0,0,1,2,2.61,9.12,9.12,0,0,1-.06,3.44c-.25,2-.53,4.24.7,5.94s3.5,2.14,5.48,2.52a8.73,8.73,0,0,1,3.24,1,8.86,8.86,0,0,1,1.92,2.75c1,1.78,2.06,3.8,4.11,4.46s4-.32,5.8-1.16A9.13,9.13,0,0,1,32,57.77a9.13,9.13,0,0,1,3.32,1.13,11,11,0,0,0,4.44,1.37,4.24,4.24,0,0,0,1.36-.21c2.05-.66,3.14-2.68,4.11-4.46a8.86,8.86,0,0,1,1.92-2.75,8.73,8.73,0,0,1,3.24-1c2-.38,4.23-.8,5.48-2.52s1-4,.7-5.94A9.12,9.12,0,0,1,56.51,40a9,9,0,0,1,1.99-2.65Zm-2.18-2.06A10.58,10.58,0,0,0,53.66,39a11.12,11.12,0,0,0-.07,4.74c.19,1.5.39,3.06-.15,3.8s-2.1,1.05-3.6,1.33a10.79,10.79,0,0,0-4.46,1.51,10.81,10.81,0,0,0-2.78,3.74c-.74,1.36-1.5,2.75-2.41,3.05s-2.24-.39-3.59-1a11.23,11.23,0,0,0-4.6-1.4,11.23,11.23,0,0,0-4.6,1.41c-1.35.64-2.75,1.3-3.59,1s-1.67-1.69-2.41-3.05a10.81,10.81,0,0,0-2.78-3.74,10.79,10.79,0,0,0-4.46-1.51c-1.5-.28-3.05-.58-3.6-1.33s-.34-2.3-.15-3.8A11.12,11.12,0,0,0,10.34,39a10.58,10.58,0,0,0-2.66-3.75C6.61,34.16,5.5,33,5.5,32s1.11-2.16,2.18-3.29A10.58,10.58,0,0,0,10.34,25a11.12,11.12,0,0,0,.07-4.74c-.19-1.5-.39-3.06.15-3.8s2.1-1.05,3.6-1.33a10.79,10.79,0,0,0,4.46-1.51A10.81,10.81,0,0,0,21.4,9.84c.74-1.36,1.5-2.75,2.41-3s2.24.39,3.59,1A11.23,11.23,0,0,0,32,9.23a11.23,11.23,0,0,0,4.6-1.41c1.35-.64,2.75-1.3,3.59-1s1.67,1.69,2.41,3.05a10.81,10.81,0,0,0,2.78,3.74,10.79,10.79,0,0,0,4.46,1.51c1.5.28,3,.58,3.6,1.33s.34,2.3.15,3.8A11.12,11.12,0,0,0,53.66,25a10.58,10.58,0,0,0,2.66,3.75C57.39,29.84,58.5,31,58.5,32S57.39,34.16,56.32,35.29Z"/>
      <path id="Trazado_1047071" data-name="Trazado 1047071" d="M32,13.83a5.55,5.55,0,0,0-5.54,6L27.75,36.1a4.26,4.26,0,0,0,8.5,0l1.29-16.27a5.55,5.55,0,0,0-5.54-6Zm1.26,22a1.26,1.26,0,0,1-2.52,0L29.45,19.59a2.56,2.56,0,1,1,5.1,0Z"/>
      <path id="Trazado_1047072" data-name="Trazado 1047072" d="M32,42.06a4.06,4.06,0,1,0,4,4.06,4.06,4.06,0,0,0-4-4.06Zm0,5.11a1.06,1.06,0,1,1,1-1.05,1,1,0,0,1-1,1.05Z"/>
    </g>
  </g>
</svg>
