<svg xmlns="http://www.w3.org/2000/svg" xmlns:xlink="http://www.w3.org/1999/xlink" width="108.914" height="108.914" viewBox="0 0 108.914 108.914">
  <defs>
    <filter id="Trazado_874925" x="0" y="0" width="108.914" height="108.914" filterUnits="userSpaceOnUse">
      <feOffset dy="3" input="SourceAlpha"/>
      <feGaussianBlur stdDeviation="3" result="blur"/>
      <feFlood flood-opacity="0.161"/>
      <feComposite operator="in" in2="blur"/>
      <feComposite in="SourceGraphic"/>
    </filter>
  </defs>
  <g id="Grupo_1181718" data-name="Grupo 1181718" transform="translate(-375.284 -3201.157)">
    <g id="Grupo_1179939" data-name="Grupo 1179939" transform="translate(384.283 3207.157)">
      <g id="Grupo_1179014" data-name="Grupo 1179014" transform="translate(0 0)">
        <g id="Grupo_1111527" data-name="Grupo 1111527" transform="translate(0 0)">
          <g id="Grupo_1111316" data-name="Grupo 1111316">
            <g id="Grupo_1109835" data-name="Grupo 1109835" transform="translate(0 0)">
              <g id="Grupo_1107913" data-name="Grupo 1107913" transform="translate(0 0)">
                <g transform="matrix(1, 0, 0, 1, -9, -6)" filter="url(#Trazado_874925)">
                  <g id="Trazado_874925-2" data-name="Trazado 874925" transform="translate(9 6)" fill="#fdf9d4" opacity="0.859">
                    <path d="M 45.45676803588867 89.41407012939453 C 39.52198028564453 89.41407012939453 33.76551818847656 88.25206756591797 28.34726715087891 85.96034240722656 C 23.11310577392578 83.74648284912109 18.41203117370605 80.57682800292969 14.37464332580566 76.5394287109375 C 10.33724308013916 72.50202941894531 7.167593002319336 67.80095672607422 4.953730583190918 62.56679534912109 C 2.662005424499512 57.14855575561523 1.500005483627319 51.39208221435547 1.500005483627319 45.45729446411133 C 1.500005483627319 39.52198028564453 2.662005424499512 33.76550674438477 4.953730583190918 28.34726905822754 C 7.167593002319336 23.11310577392578 10.33724308013916 18.41203117370605 14.37464332580566 14.37464332580566 C 18.41203117370605 10.33724403381348 23.11310577392578 7.167593955993652 28.34726715087891 4.953731060028076 C 33.76550674438477 2.662006139755249 39.52198028564453 1.500006198883057 45.45676803588867 1.500006198883057 C 51.39155578613281 1.500006198883057 57.14802932739258 2.662006139755249 62.56626892089844 4.953731060028076 C 67.80043029785156 7.167593955993652 72.50150299072266 10.33724403381348 76.53890228271484 14.37464332580566 C 80.57630920410156 18.41203117370605 83.74595642089844 23.11310577392578 85.95981597900391 28.34726905822754 C 88.25154113769531 33.76551818847656 89.41354370117188 39.52198028564453 89.41354370117188 45.45676803588867 C 89.41354370117188 51.39208221435547 88.25154113769531 57.14855575561523 85.95981597900391 62.56679534912109 C 83.74595642089844 67.80095672607422 80.57630920410156 72.50202941894531 76.53890228271484 76.5394287109375 C 72.50150299072266 80.57682800292969 67.80043029785156 83.74648284912109 62.56626892089844 85.96034240722656 C 57.14802932739258 88.25206756591797 51.39155578613281 89.41407012939453 45.45676803588867 89.41407012939453 Z" stroke="none"/>
                    <path d="M 45.45676803588867 3 C 39.72381210327148 3 34.1639404296875 4.12213134765625 28.93159484863281 6.335227966308594 C 23.87622833251953 8.473472595214844 19.33542633056641 11.53517150878906 15.43529510498047 15.435302734375 C 11.53517150878906 19.33543395996094 8.473464965820312 23.87622833251953 6.335227966308594 28.93160247802734 C 4.122123718261719 34.16394424438477 3 39.72381591796875 3 45.4572868347168 C 3 51.19024658203125 4.122123718261719 56.75011825561523 6.335227966308594 61.98246002197266 C 8.473464965820312 67.03782653808594 11.53517150878906 71.57862854003906 15.43529510498047 75.478759765625 C 19.33542633056641 79.37889099121094 23.87622833251953 82.44058990478516 28.93159484863281 84.57883453369141 C 34.1639404296875 86.79193115234375 39.72381210327148 87.9140625 45.45676803588867 87.9140625 C 51.18972396850586 87.9140625 56.74959564208984 86.79193115234375 61.98194122314453 84.57883453369141 C 67.03730773925781 82.44058990478516 71.57810974121094 79.37889099121094 75.47824096679688 75.478759765625 C 79.37837219238281 71.57862854003906 82.44007110595703 67.03782653808594 84.57830810546875 61.98246002197266 C 86.79141235351562 56.75011825561523 87.91353607177734 51.19024658203125 87.91353607177734 45.4567756652832 C 87.91353607177734 39.72381591796875 86.79141235351562 34.16394424438477 84.57830810546875 28.93160247802734 C 82.44007110595703 23.87622833251953 79.37837219238281 19.33543395996094 75.47824096679688 15.435302734375 C 71.57810974121094 11.53517150878906 67.03730773925781 8.473472595214844 61.98194122314453 6.335227966308594 C 56.74959564208984 4.12213134765625 51.18972396850586 3 45.45676803588867 3 M 45.45676803588867 0 C 70.56185150146484 0 90.91353607177734 20.35169219970703 90.91353607177734 45.4567756652832 L 90.91353607177734 45.4572868347168 C 90.91353607177734 70.5623779296875 70.56185150146484 90.9140625 45.45676803588867 90.9140625 C 20.3516845703125 90.9140625 0 70.5623779296875 0 45.4572868347168 L 0 45.4567756652832 C 0 20.35169219970703 20.3516845703125 0 45.45676803588867 0 Z" stroke="none" fill="#c7b622"/>
                  </g>
                </g>
                <g id="Trazado_874923" data-name="Trazado 874923" transform="translate(0)" fill="none">
                  <path d="M45.457,0A45.457,45.457,0,0,1,90.914,45.457h0A45.457,45.457,0,0,1,0,45.457H0A45.457,45.457,0,0,1,45.457,0Z" stroke="none"/>
                  <path d="M 45.45676803588867 3 C 39.72381210327148 3 34.1639404296875 4.12213134765625 28.93159484863281 6.335227966308594 C 23.87622833251953 8.473472595214844 19.33542633056641 11.53517150878906 15.43529510498047 15.435302734375 C 11.53517150878906 19.33543395996094 8.473464965820312 23.87622833251953 6.335227966308594 28.93160247802734 C 4.122123718261719 34.16394424438477 3 39.72381591796875 3 45.4572868347168 C 3 51.19024658203125 4.122123718261719 56.75011825561523 6.335227966308594 61.98246002197266 C 8.473464965820312 67.03782653808594 11.53517150878906 71.57862854003906 15.43529510498047 75.478759765625 C 19.33542633056641 79.37889099121094 23.87622833251953 82.44058990478516 28.93159484863281 84.57883453369141 C 34.1639404296875 86.79193115234375 39.72381210327148 87.9140625 45.45676803588867 87.9140625 C 51.18972396850586 87.9140625 56.74959564208984 86.79193115234375 61.98194122314453 84.57883453369141 C 67.03730773925781 82.44058990478516 71.57810974121094 79.37889099121094 75.47824096679688 75.478759765625 C 79.37837219238281 71.57862854003906 82.44007110595703 67.03782653808594 84.57830810546875 61.98246002197266 C 86.79141235351562 56.75011825561523 87.91353607177734 51.19024658203125 87.91353607177734 45.4567756652832 C 87.91353607177734 39.72381591796875 86.79141235351562 34.16394424438477 84.57830810546875 28.93160247802734 C 82.44007110595703 23.87622833251953 79.37837219238281 19.33543395996094 75.47824096679688 15.435302734375 C 71.57810974121094 11.53517150878906 67.03730773925781 8.473472595214844 61.98194122314453 6.335227966308594 C 56.74959564208984 4.12213134765625 51.18972396850586 3 45.45676803588867 3 M 45.45676803588867 0 C 70.56185150146484 0 90.91353607177734 20.35169219970703 90.91353607177734 45.4567756652832 L 90.91353607177734 45.4572868347168 C 90.91353607177734 70.5623779296875 70.56185150146484 90.9140625 45.45676803588867 90.9140625 C 20.3516845703125 90.9140625 0 70.5623779296875 0 45.4572868347168 L 0 45.4567756652832 C 0 20.35169219970703 20.3516845703125 0 45.45676803588867 0 Z" stroke="none" fill="#c7b622"/>
                </g>
              </g>
            </g>
          </g>
        </g>
      </g>
    </g>
    <g id="laptop_1471446" transform="translate(399.592 3226.504)">
      <path id="Trazado_1050096" data-name="Trazado 1050096" d="M77.7,121.918H24.942a.943.943,0,0,1-.942-.942V88.942A.943.943,0,0,1,24.942,88H77.7a.943.943,0,0,1,.942.942v32.033A.943.943,0,0,1,77.7,121.918Zm0,0" transform="translate(-21.174 -77.636)" fill="#e2aafd"/>
      <path id="Trazado_1050097" data-name="Trazado 1050097" d="M56,120h47.108v25.438H56Zm0,0" transform="translate(-49.406 -105.868)" fill="#fdf8ff"/>
      <path id="Trazado_1050098" data-name="Trazado 1050098" d="M65.143,372.711H9.27L8,371.121V368H27.545l2.619.942H44.171l2.46-.942H66.414v3.533Zm0,0" transform="translate(-7.058 -324.661)" fill="#cf71fb"/>
      <path id="Trazado_1050099" data-name="Trazado 1050099" d="M240,328h3.769v1.884H240Zm0,0" transform="translate(-211.736 -289.372)"/>
      <path id="Trazado_1050100" data-name="Trazado 1050100" d="M59.355,112.976h-.942V80.942A.943.943,0,0,0,57.471,80H52.76v1.884h3.769v31.091H39.573a.929.929,0,0,0-.336.062l-2.3.88H23.271l-2.466-.886a.939.939,0,0,0-.318-.056H3.768V81.884H7.537V80H2.826a.943.943,0,0,0-.942.942v32.033H.941a.943.943,0,0,0-.942.942v3.121a.939.939,0,0,0,.207.588l1.27,1.589a.939.939,0,0,0,.736.354H58.086a.942.942,0,0,0,.641-.252L60,118.141a.947.947,0,0,0,.3-.691v-3.533a.943.943,0,0,0-.942-.942Zm-.942,4.064-.7.647H2.665l-.781-.977V114.86H5.652v.942H7.537v-.942H20.322l2.466.886a.939.939,0,0,0,.318.056H37.112a.931.931,0,0,0,.336-.062l2.3-.88h9.244v.942h1.884v-.942H52.76v.942h1.884v-.942h3.769Zm0,0" transform="translate(0 -70.578)"/>
      <path id="Trazado_1050101" data-name="Trazado 1050101" d="M68.727,139.323H48.942A.943.943,0,0,1,48,138.38V112.942a.943.943,0,0,1,.942-.942h.942v25.438H68.727Zm0,0" transform="translate(-42.348 -98.81)"/>
      <path id="Trazado_1050102" data-name="Trazado 1050102" d="M307.785,139.323H288v-1.884h18.843V112h.942a.943.943,0,0,1,.942.942V138.38A.943.943,0,0,1,307.785,139.323Zm0,0" transform="translate(-254.083 -98.81)"/>
      <path id="Trazado_1050103" data-name="Trazado 1050103" d="M225.438,112a.943.943,0,0,1,.942.942V133.67h-3.571l-3-4.711H200.942a.943.943,0,0,1-.942-.942V112.942a.943.943,0,0,1,.942-.942Zm0,0" transform="translate(-176.446 -98.81)" fill="#f96437"/>
      <path id="Trazado_1050104" data-name="Trazado 1050104" d="M288,144h1.884v1.884H288Zm0,0" transform="translate(-254.083 -127.041)"/>
      <path id="Trazado_1050105" data-name="Trazado 1050105" d="M288,208h13.19v1.884H288Zm0,0" transform="translate(-254.083 -183.504)"/>
      <path id="Trazado_1050106" data-name="Trazado 1050106" d="M368,176h3.769v1.884H368Zm0,0" transform="translate(-324.661 -155.273)"/>
      <path id="Trazado_1050107" data-name="Trazado 1050107" d="M224,176h15.075v1.884H224Zm0,0" transform="translate(-197.62 -155.273)"/>
      <path id="Trazado_1050108" data-name="Trazado 1050108" d="M336,144h7.537v1.884H336Zm0,0" transform="translate(-296.43 -127.041)"/>
      <path id="Trazado_1050109" data-name="Trazado 1050109" d="M219.323,127.554h-3.571a.943.943,0,0,1-.795-.436l-2.72-4.275H193.884A1.886,1.886,0,0,1,192,120.959v-8.479h1.884v8.479h18.869a.944.944,0,0,1,.8.436l2.72,4.275h2.112V105.884h-9.422V104h9.422a1.886,1.886,0,0,1,1.884,1.884v20.727a.943.943,0,0,1-.942.942Zm0,0" transform="translate(-169.389 -91.752)"/>
      <path id="Trazado_1050110" data-name="Trazado 1050110" d="M224,208h1.884v1.884H224Zm0,0" transform="translate(-197.62 -183.504)"/>
      <path id="Trazado_1050111" data-name="Trazado 1050111" d="M256,208h1.884v1.884H256Zm0,0" transform="translate(-225.852 -183.504)"/>
      <path id="Trazado_1050112" data-name="Trazado 1050112" d="M113.438,8h-24.5A.943.943,0,0,0,88,8.942V29.67h3.57l3-4.711h18.87a.943.943,0,0,0,.942-.942V8.942A.943.943,0,0,0,113.438,8Zm0,0" transform="translate(-77.637 -7.058)" fill="#fddf81"/>
      <path id="Trazado_1050113" data-name="Trazado 1050113" d="M84.513,23.554H80.942A.943.943,0,0,1,80,22.612V1.884A1.886,1.886,0,0,1,81.884,0h24.5a1.886,1.886,0,0,1,1.884,1.884V16.959a1.886,1.886,0,0,1-1.884,1.884H88.028l-2.72,4.275a.944.944,0,0,1-.795.436ZM81.884,21.67H84l2.72-4.275a.944.944,0,0,1,.8-.436H106.38V1.884h-24.5Zm0,0" transform="translate(-70.579)"/>
      <path id="Trazado_1050114" data-name="Trazado 1050114" d="M139.1,57.329,136.274,54.5a.941.941,0,0,1,0-1.332l2.826-2.826,1.332,1.332-2.16,2.16,2.16,2.16Zm0,0" transform="translate(-119.982 -44.415)"/>
      <path id="Trazado_1050115" data-name="Trazado 1050115" d="M227.676,57.329,226.344,56l2.16-2.16-2.16-2.16,1.332-1.332L230.5,53.17a.941.941,0,0,1,0,1.332Zm0,0" transform="translate(-199.688 -44.414)"/>
      <path id="Trazado_1050116" data-name="Trazado 1050116" d="M184.41,59.13l1.885-5.653,1.788.6L186.2,59.726Zm0,0" transform="translate(-162.693 -47.179)"/>
    </g>
  </g>
</svg>
