<svg xmlns="http://www.w3.org/2000/svg" xmlns:xlink="http://www.w3.org/1999/xlink" width="108.914" height="108.914" viewBox="0 0 108.914 108.914">
  <defs>
    <filter id="Trazado_874925" x="0" y="0" width="108.914" height="108.914" filterUnits="userSpaceOnUse">
      <feOffset dy="3" input="SourceAlpha"/>
      <feGaussianBlur stdDeviation="3" result="blur"/>
      <feFlood flood-opacity="0.161"/>
      <feComposite operator="in" in2="blur"/>
      <feComposite in="SourceGraphic"/>
    </filter>
  </defs>
  <g id="Grupo_1181685" data-name="Grupo 1181685" transform="translate(2762.956 7384.51)">
    <g id="Grupo_1179794" data-name="Grupo 1179794" transform="translate(-2753.956 -7378.51)">
      <g id="Grupo_1179015" data-name="Grupo 1179015" transform="translate(0 0)">
        <g id="Grupo_1111527" data-name="Grupo 1111527" transform="translate(0 0)">
          <g id="Grupo_1111316" data-name="Grupo 1111316">
            <g id="Grupo_1109835" data-name="Grupo 1109835" transform="translate(0 0)">
              <g id="Grupo_1107913" data-name="Grupo 1107913" transform="translate(0 0)">
                <g transform="matrix(1, 0, 0, 1, -9, -6)" filter="url(#Trazado_874925)">
                  <g id="Trazado_874925-2" data-name="Trazado 874925" transform="translate(9 6)" fill="#fdf9d4" opacity="0.859">
                    <path d="M 45.45676803588867 89.41407012939453 C 39.52198028564453 89.41407012939453 33.76551818847656 88.25206756591797 28.34726715087891 85.96034240722656 C 23.11310577392578 83.74648284912109 18.41203117370605 80.57682800292969 14.37464332580566 76.5394287109375 C 10.33724308013916 72.50202941894531 7.167593002319336 67.80095672607422 4.953730583190918 62.56679534912109 C 2.662005424499512 57.14855575561523 1.500005483627319 51.39208221435547 1.500005483627319 45.45729446411133 C 1.500005483627319 39.52198028564453 2.662005424499512 33.76550674438477 4.953730583190918 28.34726905822754 C 7.167593002319336 23.11310577392578 10.33724308013916 18.41203117370605 14.37464332580566 14.37464332580566 C 18.41203117370605 10.33724403381348 23.11310577392578 7.167593955993652 28.34726715087891 4.953731060028076 C 33.76550674438477 2.662006139755249 39.52198028564453 1.500006198883057 45.45676803588867 1.500006198883057 C 51.39155578613281 1.500006198883057 57.14802932739258 2.662006139755249 62.56626892089844 4.953731060028076 C 67.80043029785156 7.167593955993652 72.50150299072266 10.33724403381348 76.53890228271484 14.37464332580566 C 80.57630920410156 18.41203117370605 83.74595642089844 23.11310577392578 85.95981597900391 28.34726905822754 C 88.25154113769531 33.76551818847656 89.41354370117188 39.52198028564453 89.41354370117188 45.45676803588867 C 89.41354370117188 51.39208221435547 88.25154113769531 57.14855575561523 85.95981597900391 62.56679534912109 C 83.74595642089844 67.80095672607422 80.57630920410156 72.50202941894531 76.53890228271484 76.5394287109375 C 72.50150299072266 80.57682800292969 67.80043029785156 83.74648284912109 62.56626892089844 85.96034240722656 C 57.14802932739258 88.25206756591797 51.39155578613281 89.41407012939453 45.45676803588867 89.41407012939453 Z" stroke="none"/>
                    <path d="M 45.45676803588867 3 C 39.72381210327148 3 34.1639404296875 4.12213134765625 28.93159484863281 6.335227966308594 C 23.87622833251953 8.473472595214844 19.33542633056641 11.53517150878906 15.43529510498047 15.435302734375 C 11.53517150878906 19.33543395996094 8.473464965820312 23.87622833251953 6.335227966308594 28.93160247802734 C 4.122123718261719 34.16394424438477 3 39.72381591796875 3 45.4572868347168 C 3 51.19024658203125 4.122123718261719 56.75011825561523 6.335227966308594 61.98246002197266 C 8.473464965820312 67.03782653808594 11.53517150878906 71.57862854003906 15.43529510498047 75.478759765625 C 19.33542633056641 79.37889099121094 23.87622833251953 82.44058990478516 28.93159484863281 84.57883453369141 C 34.1639404296875 86.79193115234375 39.72381210327148 87.9140625 45.45676803588867 87.9140625 C 51.18972396850586 87.9140625 56.74959564208984 86.79193115234375 61.98194122314453 84.57883453369141 C 67.03730773925781 82.44058990478516 71.57810974121094 79.37889099121094 75.47824096679688 75.478759765625 C 79.37837219238281 71.57862854003906 82.44007110595703 67.03782653808594 84.57830810546875 61.98246002197266 C 86.79141235351562 56.75011825561523 87.91353607177734 51.19024658203125 87.91353607177734 45.4567756652832 C 87.91353607177734 39.72381591796875 86.79141235351562 34.16394424438477 84.57830810546875 28.93160247802734 C 82.44007110595703 23.87622833251953 79.37837219238281 19.33543395996094 75.47824096679688 15.435302734375 C 71.57810974121094 11.53517150878906 67.03730773925781 8.473472595214844 61.98194122314453 6.335227966308594 C 56.74959564208984 4.12213134765625 51.18972396850586 3 45.45676803588867 3 M 45.45676803588867 0 C 70.56185150146484 0 90.91353607177734 20.35169219970703 90.91353607177734 45.4567756652832 L 90.91353607177734 45.4572868347168 C 90.91353607177734 70.5623779296875 70.56185150146484 90.9140625 45.45676803588867 90.9140625 C 20.3516845703125 90.9140625 0 70.5623779296875 0 45.4572868347168 L 0 45.4567756652832 C 0 20.35169219970703 20.3516845703125 0 45.45676803588867 0 Z" stroke="none" fill="#c7b622"/>
                  </g>
                </g>
                <g id="Trazado_874923" data-name="Trazado 874923" transform="translate(0)" fill="none">
                  <path d="M45.457,0A45.457,45.457,0,0,1,90.914,45.457h0A45.457,45.457,0,0,1,0,45.457H0A45.457,45.457,0,0,1,45.457,0Z" stroke="none"/>
                  <path d="M 45.45676803588867 3 C 39.72381210327148 3 34.1639404296875 4.12213134765625 28.93159484863281 6.335227966308594 C 23.87622833251953 8.473472595214844 19.33542633056641 11.53517150878906 15.43529510498047 15.435302734375 C 11.53517150878906 19.33543395996094 8.473464965820312 23.87622833251953 6.335227966308594 28.93160247802734 C 4.122123718261719 34.16394424438477 3 39.72381591796875 3 45.4572868347168 C 3 51.19024658203125 4.122123718261719 56.75011825561523 6.335227966308594 61.98246002197266 C 8.473464965820312 67.03782653808594 11.53517150878906 71.57862854003906 15.43529510498047 75.478759765625 C 19.33542633056641 79.37889099121094 23.87622833251953 82.44058990478516 28.93159484863281 84.57883453369141 C 34.1639404296875 86.79193115234375 39.72381210327148 87.9140625 45.45676803588867 87.9140625 C 51.18972396850586 87.9140625 56.74959564208984 86.79193115234375 61.98194122314453 84.57883453369141 C 67.03730773925781 82.44058990478516 71.57810974121094 79.37889099121094 75.47824096679688 75.478759765625 C 79.37837219238281 71.57862854003906 82.44007110595703 67.03782653808594 84.57830810546875 61.98246002197266 C 86.79141235351562 56.75011825561523 87.91353607177734 51.19024658203125 87.91353607177734 45.4567756652832 C 87.91353607177734 39.72381591796875 86.79141235351562 34.16394424438477 84.57830810546875 28.93160247802734 C 82.44007110595703 23.87622833251953 79.37837219238281 19.33543395996094 75.47824096679688 15.435302734375 C 71.57810974121094 11.53517150878906 67.03730773925781 8.473472595214844 61.98194122314453 6.335227966308594 C 56.74959564208984 4.12213134765625 51.18972396850586 3 45.45676803588867 3 M 45.45676803588867 0 C 70.56185150146484 0 90.91353607177734 20.35169219970703 90.91353607177734 45.4567756652832 L 90.91353607177734 45.4572868347168 C 90.91353607177734 70.5623779296875 70.56185150146484 90.9140625 45.45676803588867 90.9140625 C 20.3516845703125 90.9140625 0 70.5623779296875 0 45.4572868347168 L 0 45.4567756652832 C 0 20.35169219970703 20.3516845703125 0 45.45676803588867 0 Z" stroke="none" fill="#c7b622"/>
                </g>
              </g>
            </g>
          </g>
        </g>
      </g>
    </g>
    <g id="configuration_8558564" transform="translate(-2746.017 -7370.57)">
      <g id="Grupo_1181680" data-name="Grupo 1181680" transform="translate(7.499 7.5)">
        <g id="Grupo_1181676" data-name="Grupo 1181676" transform="translate(20.628 0)">
          <path id="Trazado_1049914" data-name="Trazado 1049914" d="M193.217,20.97a11.628,11.628,0,0,0,1.219-9.825l-.751.154-.02.012a.36.36,0,0,1-.425-.045,8.188,8.188,0,0,0-3.167-1.832.36.36,0,0,1-.258-.343v-1.2a.393.393,0,0,0-.393-.393H185.9a.393.393,0,0,0-.393.393v1.2a.36.36,0,0,1-.258.343,8.184,8.184,0,0,0-3.167,1.832.36.36,0,0,1-.424.045l-1.035-.6a.393.393,0,0,0-.537.144l-1.761,3.05a.393.393,0,0,0,.144.537l1.035.6a.357.357,0,0,1,.172.386,8.247,8.247,0,0,0,0,3.672.357.357,0,0,1-.172.387l-1.035.6a.392.392,0,0,0-.144.537l1.761,3.049a.393.393,0,0,0,.537.144l1.035-.6a.36.36,0,0,1,.424.045,8.22,8.22,0,0,0,1.074.845c.882.351,1.724.473,2.473.7a.368.368,0,0,1,.166.107A8.515,8.515,0,0,0,193.217,20.97Zm-5.557-.017a3.689,3.689,0,1,1,3.689-3.69A3.689,3.689,0,0,1,187.661,20.953Z" transform="translate(-178.271 -7.501)" fill="#25c2ce"/>
          <path id="Trazado_1049915" data-name="Trazado 1049915" d="M232.543,43.614l-1.761,3.049a.392.392,0,0,1-.536.144l-1.035-.6a.359.359,0,0,0-.424.045,8.217,8.217,0,0,1-3.167,1.832.36.36,0,0,0-.258.343v1.2a.393.393,0,0,1-.393.394h-3.522a.393.393,0,0,1-.393-.394v-1.2a.359.359,0,0,0-.258-.343A8.2,8.2,0,0,1,218.7,47.1a9.645,9.645,0,0,0,.975.048,9.984,9.984,0,0,0,9.555-12.855l1.015-.586a.393.393,0,0,1,.536.144l1.761,3.05a.393.393,0,0,1-.144.538l-1.035.6a.356.356,0,0,0-.172.387,8.264,8.264,0,0,1,0,3.672.357.357,0,0,0,.172.387l1.035.6A.393.393,0,0,1,232.543,43.614Z" transform="translate(-213.817 -30.495)" fill="#0cacba"/>
        </g>
        <g id="Grupo_1181677" data-name="Grupo 1181677" transform="translate(41.257 3.2)">
          <path id="Trazado_1049916" data-name="Trazado 1049916" d="M363.988,47.465a11.628,11.628,0,0,0,1.219-9.825l-.751.154-.02.012a.36.36,0,0,1-.425-.045,8.188,8.188,0,0,0-3.167-1.832.36.36,0,0,1-.258-.343v-1.2a.393.393,0,0,0-.393-.393H356.67a.393.393,0,0,0-.393.393v1.2a.361.361,0,0,1-.258.343,8.184,8.184,0,0,0-3.167,1.832.36.36,0,0,1-.424.045l-1.035-.6a.393.393,0,0,0-.537.144L349.1,40.4a.393.393,0,0,0,.144.537l1.035.6a.357.357,0,0,1,.172.386,8.248,8.248,0,0,0,0,3.672.357.357,0,0,1-.172.387l-1.035.6a.392.392,0,0,0-.144.537l1.761,3.049a.393.393,0,0,0,.537.144l1.035-.6a.36.36,0,0,1,.424.045,8.219,8.219,0,0,0,1.074.845c.882.351,1.724.473,2.473.7a.368.368,0,0,1,.166.107A8.515,8.515,0,0,0,363.988,47.465Zm-5.557-.017a3.689,3.689,0,1,1,3.689-3.69A3.689,3.689,0,0,1,358.432,47.448Z" transform="translate(-349.042 -33.996)" fill="#25c2ce"/>
          <path id="Trazado_1049917" data-name="Trazado 1049917" d="M403.314,70.109l-1.761,3.049a.392.392,0,0,1-.536.144l-1.035-.6a.359.359,0,0,0-.424.045,8.217,8.217,0,0,1-3.167,1.832.36.36,0,0,0-.258.343v1.2a.393.393,0,0,1-.393.394h-3.522a.393.393,0,0,1-.393-.394v-1.2a.36.36,0,0,0-.259-.343,8.2,8.2,0,0,1-2.093-.988,9.645,9.645,0,0,0,.975.048A9.984,9.984,0,0,0,400,60.788l1.015-.586a.393.393,0,0,1,.536.144l1.761,3.05a.393.393,0,0,1-.144.538l-1.035.6a.356.356,0,0,0-.172.387,8.264,8.264,0,0,1,0,3.672.357.357,0,0,0,.172.387l1.035.6A.393.393,0,0,1,403.314,70.109Z" transform="translate(-384.588 -56.99)" fill="#0cacba"/>
        </g>
        <g id="Grupo_1181678" data-name="Grupo 1181678" transform="translate(0 3.2)">
          <path id="Trazado_1049918" data-name="Trazado 1049918" d="M22.445,47.465a11.628,11.628,0,0,0,1.219-9.825l-.751.154-.02.012a.36.36,0,0,1-.425-.045A8.188,8.188,0,0,0,19.3,35.929a.36.36,0,0,1-.258-.343v-1.2A.393.393,0,0,0,18.65,34H15.127a.393.393,0,0,0-.393.393v1.2a.36.36,0,0,1-.258.343,8.184,8.184,0,0,0-3.167,1.832.36.36,0,0,1-.424.045l-1.035-.6a.393.393,0,0,0-.537.144L7.552,40.4a.393.393,0,0,0,.144.537l1.035.6a.357.357,0,0,1,.172.386,8.247,8.247,0,0,0,0,3.672.357.357,0,0,1-.172.387l-1.035.6a.392.392,0,0,0-.144.537l1.761,3.049a.393.393,0,0,0,.537.144l1.035-.6a.36.36,0,0,1,.424.045,8.221,8.221,0,0,0,1.074.845c.882.351,1.724.473,2.473.7a.368.368,0,0,1,.166.107A8.515,8.515,0,0,0,22.445,47.465Zm-5.557-.017a3.689,3.689,0,1,1,3.689-3.69A3.689,3.689,0,0,1,16.889,47.448Z" transform="translate(-7.499 -33.996)" fill="#25c2ce"/>
          <path id="Trazado_1049919" data-name="Trazado 1049919" d="M61.771,70.109,60.01,73.158a.392.392,0,0,1-.536.144l-1.035-.6a.359.359,0,0,0-.424.045,8.217,8.217,0,0,1-3.167,1.832.36.36,0,0,0-.259.343v1.2a.393.393,0,0,1-.393.394H50.673a.393.393,0,0,1-.393-.394v-1.2a.36.36,0,0,0-.259-.343,8.2,8.2,0,0,1-2.093-.988,9.645,9.645,0,0,0,.975.048,9.984,9.984,0,0,0,9.555-12.855l1.015-.586a.393.393,0,0,1,.536.144l1.761,3.05a.393.393,0,0,1-.144.538l-1.035.6a.356.356,0,0,0-.172.387,8.263,8.263,0,0,1,0,3.672.357.357,0,0,0,.172.387l1.035.6A.393.393,0,0,1,61.771,70.109Z" transform="translate(-43.045 -56.99)" fill="#0cacba"/>
        </g>
        <ellipse id="Elipse_12509" data-name="Elipse 12509" cx="2.299" cy="2.299" rx="2.299" ry="2.299" transform="translate(55.436 43.712)" fill="#f99675"/>
        <ellipse id="Elipse_12510" data-name="Elipse 12510" cx="2.299" cy="2.299" rx="2.299" ry="2.299" transform="translate(0 43.712)" fill="#f99675"/>
        <ellipse id="Elipse_12511" data-name="Elipse 12511" cx="2.299" cy="2.299" rx="2.299" ry="2.299" transform="translate(27.718 48.286)" fill="#f99675"/>
        <g id="Grupo_1181679" data-name="Grupo 1181679" transform="translate(4.599 32.505)">
          <path id="Trazado_1049920" data-name="Trazado 1049920" d="M199.7,276.589h12.924a.386.386,0,0,1,.386.386v5.652a.386.386,0,0,1-.386.386H199.7a.386.386,0,0,1-.386-.386v-5.652A.386.386,0,0,1,199.7,276.589Z" transform="translate(-180.738 -276.589)" fill="#fe5694"/>
          <path id="Trazado_1049921" data-name="Trazado 1049921" d="M387.384,284.579h9.041a.27.27,0,0,1,.27.27V288.8a.27.27,0,0,1-.27.27h-9.041a.27.27,0,0,1-.27-.27v-3.954A.27.27,0,0,1,387.384,284.579Z" transform="translate(-345.857 -283.614)" fill="#fe5694"/>
          <path id="Trazado_1049922" data-name="Trazado 1049922" d="M54.882,284.579H45.841a.27.27,0,0,0-.27.27V288.8a.27.27,0,0,0,.27.27h9.041a.27.27,0,0,0,.27-.27v-3.954A.27.27,0,0,0,54.882,284.579Z" transform="translate(-45.571 -283.614)" fill="#fe5694"/>
        </g>
      </g>
      <g id="Grupo_1181684" data-name="Grupo 1181684" transform="translate(7.499 7.5)">
        <path id="Trazado_1049923" data-name="Trazado 1049923" d="M196.854,20.082l-1.268-.732a8.258,8.258,0,0,0,0-4.175l1.268-.732a.393.393,0,0,0,.144-.538l-1.761-3.05a.393.393,0,0,0-.536-.144l-1.271.734a8.184,8.184,0,0,0-3.614-2.089V7.893a.393.393,0,0,0-.393-.393H185.9a.393.393,0,0,0-.393.393V9.358a8.177,8.177,0,0,0-3.614,2.089l-1.271-.734a.393.393,0,0,0-.536.144l-1.761,3.05a.393.393,0,0,0,.144.538l1.268.732a8.258,8.258,0,0,0,0,4.175l-1.268.732a.393.393,0,0,0-.144.538l1.761,3.049a.393.393,0,0,0,.536.144l1.271-.733a8.175,8.175,0,0,0,3.614,2.087v1.465a.393.393,0,0,0,.393.394h3.522a.393.393,0,0,0,.393-.394V25.166a8.181,8.181,0,0,0,3.614-2.087l1.61.93L197,20.62A.393.393,0,0,0,196.854,20.082Zm-9.193.87a3.689,3.689,0,1,1,3.689-3.689A3.689,3.689,0,0,1,187.661,20.952Z" transform="translate(-157.643 -7.5)" fill="none" stroke="#000" stroke-linecap="round" stroke-linejoin="round" stroke-miterlimit="10" stroke-width="1"/>
        <path id="Trazado_1049924" data-name="Trazado 1049924" d="M367.624,46.582l-1.268-.733a8.253,8.253,0,0,0,0-4.173l1.268-.733a.392.392,0,0,0,.144-.536l-1.761-3.05a.393.393,0,0,0-.536-.144l-1.271.733a8.182,8.182,0,0,0-3.614-2.087V34.393a.392.392,0,0,0-.393-.393H356.67a.392.392,0,0,0-.393.393v1.465a8.175,8.175,0,0,0-3.614,2.087l-1.271-.733a.393.393,0,0,0-.536.144l-1.761,3.05a.392.392,0,0,0,.144.536l1.27.733a8.217,8.217,0,0,0,0,4.173l-1.27.733a.392.392,0,0,0-.144.536l1.761,3.05a.393.393,0,0,0,.536.144l1.271-.733a8.175,8.175,0,0,0,3.614,2.087v1.465a.392.392,0,0,0,.393.393h3.522a.392.392,0,0,0,.393-.393V51.666a8.182,8.182,0,0,0,3.614-2.087l1.611.93,1.957-3.391A.392.392,0,0,0,367.624,46.582Zm-5.705-1.614a3.69,3.69,0,1,1-1.232-4.125" transform="translate(-307.785 -30.799)" fill="none" stroke="#000" stroke-linecap="round" stroke-linejoin="round" stroke-miterlimit="10" stroke-width="1"/>
        <path id="Trazado_1049925" data-name="Trazado 1049925" d="M26.083,46.582l-1.27-.733a8.217,8.217,0,0,0,0-4.173l1.27-.733a.392.392,0,0,0,.144-.536l-1.761-3.05a.393.393,0,0,0-.536-.144l-1.271.733a8.175,8.175,0,0,0-3.614-2.087V34.393A.393.393,0,0,0,18.652,34H15.13a.392.392,0,0,0-.393.393v1.465a8.181,8.181,0,0,0-3.614,2.087l-1.271-.733a.393.393,0,0,0-.536.144l-1.761,3.05a.392.392,0,0,0,.144.536l1.268.733a8.253,8.253,0,0,0,0,4.173L7.7,46.582a.392.392,0,0,0-.144.536l1.957,3.391,1.611-.93a8.181,8.181,0,0,0,3.614,2.087v1.465a.392.392,0,0,0,.393.393h3.522a.393.393,0,0,0,.393-.393V51.666a8.175,8.175,0,0,0,3.614-2.087l1.271.733a.393.393,0,0,0,.536-.144l1.761-3.05A.392.392,0,0,0,26.083,46.582Zm-11.332.187a3.69,3.69,0,1,1,4.233.031" transform="translate(-7.502 -30.799)" fill="none" stroke="#000" stroke-linecap="round" stroke-linejoin="round" stroke-miterlimit="10" stroke-width="1"/>
        <line id="Línea_705" data-name="Línea 705" y1="2.209" transform="translate(30.018 45.955)" fill="none" stroke="#000" stroke-linecap="round" stroke-linejoin="round" stroke-miterlimit="10" stroke-width="1"/>
        <line id="Línea_706" data-name="Línea 706" y1="2.459" transform="translate(30.018 39.263)" fill="none" stroke="#000" stroke-linecap="round" stroke-linejoin="round" stroke-miterlimit="10" stroke-width="1"/>
        <line id="Línea_707" data-name="Línea 707" y2="9.021" transform="translate(30.018 23.148)" fill="none" stroke="#000" stroke-linecap="round" stroke-linejoin="round" stroke-miterlimit="10" stroke-width="1"/>
        <path id="Trazado_1049926" data-name="Trazado 1049926" d="M426.771,323.879v6.587a1.208,1.208,0,0,0,1.208,1.208h3.607" transform="translate(-376.125 -285.662)" fill="none" stroke="#000" stroke-linecap="round" stroke-linejoin="round" stroke-miterlimit="10" stroke-width="1"/>
        <line id="Línea_708" data-name="Línea 708" y2="6.82" transform="translate(50.646 26.349)" fill="none" stroke="#000" stroke-linecap="round" stroke-linejoin="round" stroke-miterlimit="10" stroke-width="1"/>
        <ellipse id="Elipse_12512" data-name="Elipse 12512" cx="2.299" cy="2.299" rx="2.299" ry="2.299" transform="translate(55.436 43.713)" fill="none" stroke="#000" stroke-linecap="round" stroke-linejoin="round" stroke-miterlimit="10" stroke-width="1"/>
        <path id="Trazado_1049927" data-name="Trazado 1049927" d="M50.186,324.345v6.53a1.208,1.208,0,0,1-1.208,1.208H45.371" transform="translate(-40.796 -286.072)" fill="none" stroke="#000" stroke-linecap="round" stroke-linejoin="round" stroke-miterlimit="10" stroke-width="1"/>
        <line id="Línea_709" data-name="Línea 709" y2="6.729" transform="translate(9.389 26.349)" fill="none" stroke="#000" stroke-linecap="round" stroke-linejoin="round" stroke-miterlimit="10" stroke-width="1"/>
        <ellipse id="Elipse_12513" data-name="Elipse 12513" cx="2.299" cy="2.299" rx="2.299" ry="2.299" transform="translate(0 43.713)" fill="none" stroke="#000" stroke-linecap="round" stroke-linejoin="round" stroke-miterlimit="10" stroke-width="1"/>
        <ellipse id="Elipse_12514" data-name="Elipse 12514" cx="2.299" cy="2.299" rx="2.299" ry="2.299" transform="translate(27.718 48.286)" fill="none" stroke="#000" stroke-linecap="round" stroke-linejoin="round" stroke-miterlimit="10" stroke-width="1"/>
        <line id="Línea_710" data-name="Línea 710" x2="5.557" transform="translate(27.239 57.016)" fill="none" stroke="#000" stroke-linecap="round" stroke-linejoin="round" stroke-miterlimit="10" stroke-width="1"/>
        <line id="Línea_711" data-name="Línea 711" x2="9.739" transform="translate(25.148 60.035)" fill="none" stroke="#000" stroke-linecap="round" stroke-linejoin="round" stroke-miterlimit="10" stroke-width="1"/>
        <g id="Grupo_1181681" data-name="Grupo 1181681" transform="translate(0 51.934)">
          <line id="Línea_712" data-name="Línea 712" x2="4.618" transform="translate(0 0)" fill="none" stroke="#000" stroke-linecap="round" stroke-linejoin="round" stroke-miterlimit="10" stroke-width="1"/>
          <line id="Línea_713" data-name="Línea 713" x2="7.817" transform="translate(0 3.019)" fill="none" stroke="#000" stroke-linecap="round" stroke-linejoin="round" stroke-miterlimit="10" stroke-width="1"/>
        </g>
        <g id="Grupo_1181682" data-name="Grupo 1181682" transform="translate(52.218 51.934)">
          <line id="Línea_714" data-name="Línea 714" x1="4.618" transform="translate(3.2 0)" fill="none" stroke="#000" stroke-linecap="round" stroke-linejoin="round" stroke-miterlimit="10" stroke-width="1"/>
          <line id="Línea_715" data-name="Línea 715" x1="7.817" transform="translate(0 3.019)" fill="none" stroke="#000" stroke-linecap="round" stroke-linejoin="round" stroke-miterlimit="10" stroke-width="1"/>
        </g>
        <g id="Grupo_1181683" data-name="Grupo 1181683" transform="translate(4.599 32.505)">
          <path id="Trazado_1049928" data-name="Trazado 1049928" d="M199.7,276.589h12.924a.386.386,0,0,1,.386.386v5.652a.386.386,0,0,1-.386.386H199.7a.386.386,0,0,1-.386-.386v-5.652A.386.386,0,0,1,199.7,276.589Z" transform="translate(-180.738 -276.589)" fill="none" stroke="#000" stroke-linecap="round" stroke-linejoin="round" stroke-miterlimit="10" stroke-width="1"/>
          <path id="Trazado_1049929" data-name="Trazado 1049929" d="M387.384,284.579h9.041a.27.27,0,0,1,.27.27V288.8a.27.27,0,0,1-.27.27h-9.041a.27.27,0,0,1-.27-.27v-3.954A.27.27,0,0,1,387.384,284.579Z" transform="translate(-345.857 -283.614)" fill="none" stroke="#000" stroke-linecap="round" stroke-linejoin="round" stroke-miterlimit="10" stroke-width="1"/>
          <path id="Trazado_1049930" data-name="Trazado 1049930" d="M54.882,284.579H45.841a.27.27,0,0,0-.27.27V288.8a.27.27,0,0,0,.27.27h9.041a.27.27,0,0,0,.27-.27v-3.954A.27.27,0,0,0,54.882,284.579Z" transform="translate(-45.571 -283.614)" fill="none" stroke="#000" stroke-linecap="round" stroke-linejoin="round" stroke-miterlimit="10" stroke-width="1"/>
        </g>
      </g>
    </g>
  </g>
</svg>
