<svg xmlns="http://www.w3.org/2000/svg" xmlns:xlink="http://www.w3.org/1999/xlink" width="108.914" height="108.914" viewBox="0 0 108.914 108.914">
  <defs>
    <filter id="Trazado_874925" x="0" y="0" width="108.914" height="108.914" filterUnits="userSpaceOnUse">
      <feOffset dy="3" input="SourceAlpha"/>
      <feGaussianBlur stdDeviation="3" result="blur"/>
      <feFlood flood-opacity="0.161"/>
      <feComposite operator="in" in2="blur"/>
      <feComposite in="SourceGraphic"/>
    </filter>
  </defs>
  <g id="Grupo_1181742" data-name="Grupo 1181742" transform="translate(-1274.182 7985.843)">
    <g id="Grupo_1179943" data-name="Grupo 1179943" transform="translate(1283.182 -7979.843)">
      <g id="Grupo_1179014" data-name="Grupo 1179014" transform="translate(0 0)">
        <g id="Grupo_1111527" data-name="Grupo 1111527" transform="translate(0 0)">
          <g id="Grupo_1111316" data-name="Grupo 1111316">
            <g id="Grupo_1109835" data-name="Grupo 1109835" transform="translate(0 0)">
              <g id="Grupo_1107913" data-name="Grupo 1107913" transform="translate(0 0)">
                <g transform="matrix(1, 0, 0, 1, -9, -6)" filter="url(#Trazado_874925)">
                  <g id="Trazado_874925-2" data-name="Trazado 874925" transform="translate(9 6)" fill="#fdf9d4" opacity="0.859">
                    <path d="M 45.45676803588867 89.41407012939453 C 39.52198028564453 89.41407012939453 33.76551818847656 88.25206756591797 28.34726715087891 85.96034240722656 C 23.11310577392578 83.74648284912109 18.41203117370605 80.57682800292969 14.37464332580566 76.5394287109375 C 10.33724308013916 72.50202941894531 7.167593002319336 67.80095672607422 4.953730583190918 62.56679534912109 C 2.662005424499512 57.14855575561523 1.500005483627319 51.39208221435547 1.500005483627319 45.45729446411133 C 1.500005483627319 39.52198028564453 2.662005424499512 33.76550674438477 4.953730583190918 28.34726905822754 C 7.167593002319336 23.11310577392578 10.33724308013916 18.41203117370605 14.37464332580566 14.37464332580566 C 18.41203117370605 10.33724403381348 23.11310577392578 7.167593955993652 28.34726715087891 4.953731060028076 C 33.76550674438477 2.662006139755249 39.52198028564453 1.500006198883057 45.45676803588867 1.500006198883057 C 51.39155578613281 1.500006198883057 57.14802932739258 2.662006139755249 62.56626892089844 4.953731060028076 C 67.80043029785156 7.167593955993652 72.50150299072266 10.33724403381348 76.53890228271484 14.37464332580566 C 80.57630920410156 18.41203117370605 83.74595642089844 23.11310577392578 85.95981597900391 28.34726905822754 C 88.25154113769531 33.76551818847656 89.41354370117188 39.52198028564453 89.41354370117188 45.45676803588867 C 89.41354370117188 51.39208221435547 88.25154113769531 57.14855575561523 85.95981597900391 62.56679534912109 C 83.74595642089844 67.80095672607422 80.57630920410156 72.50202941894531 76.53890228271484 76.5394287109375 C 72.50150299072266 80.57682800292969 67.80043029785156 83.74648284912109 62.56626892089844 85.96034240722656 C 57.14802932739258 88.25206756591797 51.39155578613281 89.41407012939453 45.45676803588867 89.41407012939453 Z" stroke="none"/>
                    <path d="M 45.45676803588867 3 C 39.72381210327148 3 34.1639404296875 4.12213134765625 28.93159484863281 6.335227966308594 C 23.87622833251953 8.473472595214844 19.33542633056641 11.53517150878906 15.43529510498047 15.435302734375 C 11.53517150878906 19.33543395996094 8.473464965820312 23.87622833251953 6.335227966308594 28.93160247802734 C 4.122123718261719 34.16394424438477 3 39.72381591796875 3 45.4572868347168 C 3 51.19024658203125 4.122123718261719 56.75011825561523 6.335227966308594 61.98246002197266 C 8.473464965820312 67.03782653808594 11.53517150878906 71.57862854003906 15.43529510498047 75.478759765625 C 19.33542633056641 79.37889099121094 23.87622833251953 82.44058990478516 28.93159484863281 84.57883453369141 C 34.1639404296875 86.79193115234375 39.72381210327148 87.9140625 45.45676803588867 87.9140625 C 51.18972396850586 87.9140625 56.74959564208984 86.79193115234375 61.98194122314453 84.57883453369141 C 67.03730773925781 82.44058990478516 71.57810974121094 79.37889099121094 75.47824096679688 75.478759765625 C 79.37837219238281 71.57862854003906 82.44007110595703 67.03782653808594 84.57830810546875 61.98246002197266 C 86.79141235351562 56.75011825561523 87.91353607177734 51.19024658203125 87.91353607177734 45.4567756652832 C 87.91353607177734 39.72381591796875 86.79141235351562 34.16394424438477 84.57830810546875 28.93160247802734 C 82.44007110595703 23.87622833251953 79.37837219238281 19.33543395996094 75.47824096679688 15.435302734375 C 71.57810974121094 11.53517150878906 67.03730773925781 8.473472595214844 61.98194122314453 6.335227966308594 C 56.74959564208984 4.12213134765625 51.18972396850586 3 45.45676803588867 3 M 45.45676803588867 0 C 70.56185150146484 0 90.91353607177734 20.35169219970703 90.91353607177734 45.4567756652832 L 90.91353607177734 45.4572868347168 C 90.91353607177734 70.5623779296875 70.56185150146484 90.9140625 45.45676803588867 90.9140625 C 20.3516845703125 90.9140625 0 70.5623779296875 0 45.4572868347168 L 0 45.4567756652832 C 0 20.35169219970703 20.3516845703125 0 45.45676803588867 0 Z" stroke="none" fill="#c7b622"/>
                  </g>
                </g>
                <g id="Trazado_874923" data-name="Trazado 874923" transform="translate(0)" fill="none">
                  <path d="M45.457,0A45.457,45.457,0,0,1,90.914,45.457h0A45.457,45.457,0,0,1,0,45.457H0A45.457,45.457,0,0,1,45.457,0Z" stroke="none"/>
                  <path d="M 45.45676803588867 3 C 39.72381210327148 3 34.1639404296875 4.12213134765625 28.93159484863281 6.335227966308594 C 23.87622833251953 8.473472595214844 19.33542633056641 11.53517150878906 15.43529510498047 15.435302734375 C 11.53517150878906 19.33543395996094 8.473464965820312 23.87622833251953 6.335227966308594 28.93160247802734 C 4.122123718261719 34.16394424438477 3 39.72381591796875 3 45.4572868347168 C 3 51.19024658203125 4.122123718261719 56.75011825561523 6.335227966308594 61.98246002197266 C 8.473464965820312 67.03782653808594 11.53517150878906 71.57862854003906 15.43529510498047 75.478759765625 C 19.33542633056641 79.37889099121094 23.87622833251953 82.44058990478516 28.93159484863281 84.57883453369141 C 34.1639404296875 86.79193115234375 39.72381210327148 87.9140625 45.45676803588867 87.9140625 C 51.18972396850586 87.9140625 56.74959564208984 86.79193115234375 61.98194122314453 84.57883453369141 C 67.03730773925781 82.44058990478516 71.57810974121094 79.37889099121094 75.47824096679688 75.478759765625 C 79.37837219238281 71.57862854003906 82.44007110595703 67.03782653808594 84.57830810546875 61.98246002197266 C 86.79141235351562 56.75011825561523 87.91353607177734 51.19024658203125 87.91353607177734 45.4567756652832 C 87.91353607177734 39.72381591796875 86.79141235351562 34.16394424438477 84.57830810546875 28.93160247802734 C 82.44007110595703 23.87622833251953 79.37837219238281 19.33543395996094 75.47824096679688 15.435302734375 C 71.57810974121094 11.53517150878906 67.03730773925781 8.473472595214844 61.98194122314453 6.335227966308594 C 56.74959564208984 4.12213134765625 51.18972396850586 3 45.45676803588867 3 M 45.45676803588867 0 C 70.56185150146484 0 90.91353607177734 20.35169219970703 90.91353607177734 45.4567756652832 L 90.91353607177734 45.4572868347168 C 90.91353607177734 70.5623779296875 70.56185150146484 90.9140625 45.45676803588867 90.9140625 C 20.3516845703125 90.9140625 0 70.5623779296875 0 45.4572868347168 L 0 45.4567756652832 C 0 20.35169219970703 20.3516845703125 0 45.45676803588867 0 Z" stroke="none" fill="#c7b622"/>
                </g>
              </g>
            </g>
          </g>
        </g>
      </g>
    </g>
    <g id="collaboration_11068817" transform="translate(1291.149 -7971.67)">
      <g id="Grupo_1181740" data-name="Grupo 1181740" transform="translate(7.498 7.499)">
        <g id="Grupo_1181734" data-name="Grupo 1181734" transform="translate(32.26 33.658)">
          <path id="Trazado_1050155" data-name="Trazado 1050155" d="M284.993,314.228a.6.6,0,0,0,.54-.342,4.062,4.062,0,0,1,1.452-1.762l10.847-7.07a3.315,3.315,0,0,0,1.336-1.739l4.481-13.449a1.107,1.107,0,0,0-.7-1.4h0a2.972,2.972,0,0,0-3.744,1.909l-2.157,6.541L297,298.991l-1.093,1.393,0,0a2.147,2.147,0,0,0-.12-1.647h0a2.1,2.1,0,0,0-2.827-.939l-10.775,5.435a7.035,7.035,0,0,0-3.507,4.079l-1.993,6.131a.6.6,0,0,0,.57.785Z" transform="translate(-276.651 -288.316)" fill="#c68d7a"/>
          <path id="Trazado_1050156" data-name="Trazado 1050156" d="M375.168,366.13l-7.035,3.968a.809.809,0,0,1-1.1-.308h0a.809.809,0,0,1,.308-1.1l7.035-3.968a2.121,2.121,0,0,0,.42-.31,2.158,2.158,0,0,0,.566-.892v0l1.145-3.47a4.579,4.579,0,0,1,.584.865C377.855,362.344,376.893,365.05,375.168,366.13Z" transform="translate(-356.106 -351.449)" fill="#bc7c63"/>
        </g>
        <g id="Grupo_1181735" data-name="Grupo 1181735" transform="translate(33.658 0.255)">
          <path id="Trazado_1050157" data-name="Trazado 1050157" d="M314.227,28.338a.6.6,0,0,0-.342-.54,4.062,4.062,0,0,1-1.762-1.452L305.053,15.5a3.315,3.315,0,0,0-1.739-1.336L289.865,9.682a1.107,1.107,0,0,0-1.4.7h0a2.972,2.972,0,0,0,1.909,3.744l6.541,2.157,2.077.052,1.393,1.093,0,0a2.147,2.147,0,0,0-1.647.12h0a2.1,2.1,0,0,0-.939,2.827l5.435,10.775a7.035,7.035,0,0,0,4.079,3.507l6.131,1.993a.6.6,0,0,0,.785-.57Z" transform="translate(-288.315 -9.625)" fill="#f3c6bd"/>
          <path id="Trazado_1050158" data-name="Trazado 1050158" d="M366.13,60.252l3.968,7.035a.809.809,0,0,1-.308,1.1h0a.809.809,0,0,1-1.1-.308l-3.968-7.035a2.12,2.12,0,0,0-.31-.42,2.158,2.158,0,0,0-.892-.566h0l-3.47-1.145a4.579,4.579,0,0,1,.865-.584C362.344,57.565,365.05,58.527,366.13,60.252Z" transform="translate(-351.448 -52.259)" fill="#efb9af"/>
        </g>
        <g id="Grupo_1181736" data-name="Grupo 1181736" transform="translate(0.255 0)">
          <path id="Trazado_1050159" data-name="Trazado 1050159" d="M28.338,7.5a.6.6,0,0,0-.54.342A4.062,4.062,0,0,1,26.346,9.6L15.5,16.673a3.315,3.315,0,0,0-1.336,1.739L9.682,31.861a1.107,1.107,0,0,0,.7,1.4h0a2.972,2.972,0,0,0,3.744-1.909l2.157-6.541.052-2.077,1.093-1.393,0,0a2.147,2.147,0,0,0,.12,1.647h0a2.1,2.1,0,0,0,2.827.939l10.775-5.435a7.035,7.035,0,0,0,3.507-4.079l1.993-6.131a.6.6,0,0,0-.57-.785Z" transform="translate(-9.625 -7.499)" fill="#c68d7a"/>
          <path id="Trazado_1050160" data-name="Trazado 1050160" d="M60.252,71.288l7.035-3.968a.809.809,0,0,1,1.1.308h0a.809.809,0,0,1-.308,1.1L61.047,72.7a2.12,2.12,0,0,0-.42.31,2.158,2.158,0,0,0-.566.892v0l-1.145,3.47a4.579,4.579,0,0,1-.584-.865C57.565,75.075,58.527,72.369,60.252,71.288Z" transform="translate(-52.259 -60.058)" fill="#bc7c63"/>
        </g>
        <g id="Grupo_1181737" data-name="Grupo 1181737" transform="translate(0 32.26)">
          <path id="Trazado_1050161" data-name="Trazado 1050161" d="M7.5,284.993a.6.6,0,0,0,.342.54A4.062,4.062,0,0,1,9.6,286.986l7.07,10.847a3.315,3.315,0,0,0,1.739,1.336L31.86,303.65a1.107,1.107,0,0,0,1.4-.7h0a2.972,2.972,0,0,0-1.909-3.744l-6.541-2.157L22.735,297l-1.393-1.093,0,0a2.147,2.147,0,0,0,1.647-.12h0a2.1,2.1,0,0,0,.939-2.827l-5.435-10.775a7.035,7.035,0,0,0-4.079-3.507l-6.131-1.993a.6.6,0,0,0-.785.57Z" transform="translate(-7.498 -276.651)" fill="#f3c6bd"/>
          <path id="Trazado_1050162" data-name="Trazado 1050162" d="M71.288,375.168l-3.968-7.035a.809.809,0,0,1,.308-1.1h0a.809.809,0,0,1,1.1.308l3.968,7.035a2.121,2.121,0,0,0,.31.42,2.158,2.158,0,0,0,.892.566h0l3.47,1.145a4.578,4.578,0,0,1-.865.584C75.075,377.855,72.369,376.893,71.288,375.168Z" transform="translate(-60.058 -356.106)" fill="#efb9af"/>
        </g>
        <g id="Grupo_1181739" data-name="Grupo 1181739" transform="translate(12.957 12.927)">
          <path id="Trazado_1050163" data-name="Trazado 1050163" d="M148.922,134.905l.113-5.419a.649.649,0,0,0-.567-.644l-1.908-.231a.643.643,0,0,1-.536-.446,16.179,16.179,0,0,0-.785-2.7l-.034-.067a.644.644,0,0,1,.063-.694l1.169-1.513a.649.649,0,0,0-.055-.856l-4.117-4.117a.649.649,0,0,0-.856-.055l-1.513,1.169a.644.644,0,0,1-.694.063,14.377,14.377,0,0,0-2.534-1.05.644.644,0,0,1-.446-.536l-.243-1.9a.649.649,0,0,0-.644-.567h-5.823a.649.649,0,0,0-.644.567l-.243,1.9a.643.643,0,0,1-.446.536,14.373,14.373,0,0,0-2.534,1.05.644.644,0,0,1-.694-.063l-1.513-1.169a.649.649,0,0,0-.856.055l-4.117,4.117a.649.649,0,0,0-.055.856l1.169,1.513a.644.644,0,0,1,.063.694,14.372,14.372,0,0,0-1.05,2.534.644.644,0,0,1-.536.446l-1.9.243a.649.649,0,0,0-.567.644v5.839a.649.649,0,0,0,.573.645l1.787.213a.808.808,0,0,1,.669.557,14.382,14.382,0,0,0,1.019,2.434.644.644,0,0,1-.063.7l-1.169,1.513a.649.649,0,0,0,.055.856l4.117,4.117a.649.649,0,0,0,.856.055l1.513-1.169a.644.644,0,0,1,.694-.063l.066.035a15.748,15.748,0,0,0,2.658.8.644.644,0,0,1,.446.536l.2,1.8a.649.649,0,0,0,.644.567l5.414.12a.649.649,0,0,0,.644-.567l.108-1.918a.643.643,0,0,1,.446-.536,19.354,19.354,0,0,0,2.934-1.238.644.644,0,0,1,.694.063l1.513,1.181a.649.649,0,0,0,.856-.055l3.616-3.811a.649.649,0,0,0,.055-.856l-1-1.426a.644.644,0,0,1-.063-.7,17.718,17.718,0,0,0,1.135-2.7.808.808,0,0,1,.669-.557l1.668-.145A.649.649,0,0,0,148.922,134.905Z" transform="translate(-115.596 -115.349)" fill="#918291"/>
          <g id="Grupo_1181738" data-name="Grupo 1181738" transform="translate(10.117 10.118)">
            <path id="Trazado_1050164" data-name="Trazado 1050164" d="M222.978,202.919l-1.9-.243a.643.643,0,0,1-.536-.446,14.371,14.371,0,0,0-1.016-2.467c-.419,5.182-2.279,10.442-5.738,13.916-3.48,3.495-8.576,5.19-13.789,5.611a14.384,14.384,0,0,0,2.468,1.015.644.644,0,0,1,.446.536l.243,1.9a.649.649,0,0,0,.644.567h5.823a.649.649,0,0,0,.644-.567l.243-1.9a.643.643,0,0,1,.446-.536,14.375,14.375,0,0,0,2.534-1.05.644.644,0,0,1,.694.063l1.513,1.169a.649.649,0,0,0,.856-.055l4.117-4.117a.649.649,0,0,0,.055-.856l-1.169-1.513a.644.644,0,0,1-.063-.7,14.373,14.373,0,0,0,1.019-2.434.808.808,0,0,1,.669-.557l1.783-.2a.649.649,0,0,0,.577-.645v-5.851A.649.649,0,0,0,222.978,202.919Z" transform="translate(-200.004 -199.763)" fill="#7a6d79"/>
          </g>
          <circle id="Elipse_12519" data-name="Elipse 12519" cx="10.1" cy="10.1" r="10.1" transform="translate(6.729 6.729)" fill="#f9f7f8"/>
        </g>
      </g>
      <g id="Grupo_1181741" data-name="Grupo 1181741" transform="translate(7.498 7.499)">
        <path id="Trazado_1050165" data-name="Trazado 1050165" d="M150.823,137.286V131.2a.441.441,0,0,0-.385-.438l-2.169-.278a.444.444,0,0,1-.368-.316,14.171,14.171,0,0,0-1.12-2.7.444.444,0,0,1,.037-.483l1.338-1.731a.441.441,0,0,0-.037-.582l-4.3-4.3a.441.441,0,0,0-.582-.037l-1.731,1.338a.443.443,0,0,1-.483.037,14.163,14.163,0,0,0-2.7-1.12.444.444,0,0,1-.316-.368l-.278-2.169a.441.441,0,0,0-.438-.385H131.2a.441.441,0,0,0-.438.385l-.278,2.169a.444.444,0,0,1-.316.368,14.169,14.169,0,0,0-2.7,1.12.444.444,0,0,1-.483-.037l-1.731-1.338a.441.441,0,0,0-.582.037l-4.3,4.3a.441.441,0,0,0-.037.582l1.337,1.731a.443.443,0,0,1,.037.483,14.162,14.162,0,0,0-1.12,2.7.444.444,0,0,1-.368.316l-2.169.278a.441.441,0,0,0-.385.438v6.086a.441.441,0,0,0,.385.438l2.169.278a.444.444,0,0,1,.368.316,14.168,14.168,0,0,0,1.12,2.7.444.444,0,0,1-.037.483l-1.337,1.731a.441.441,0,0,0,.037.582l4.3,4.3a.441.441,0,0,0,.582.037l1.731-1.337a.443.443,0,0,1,.483-.037,14.163,14.163,0,0,0,2.7,1.12.444.444,0,0,1,.316.368l.278,2.169a.441.441,0,0,0,.438.385h6.086a.441.441,0,0,0,.438-.385l.278-2.169a.444.444,0,0,1,.316-.368,14.169,14.169,0,0,0,2.7-1.12.444.444,0,0,1,.483.037l1.731,1.337a.441.441,0,0,0,.582-.037l4.3-4.3a.441.441,0,0,0,.037-.582l-1.338-1.731a.443.443,0,0,1-.037-.483,14.164,14.164,0,0,0,1.12-2.7.444.444,0,0,1,.368-.316l2.169-.278A.441.441,0,0,0,150.823,137.286Z" transform="translate(-104.457 -104.458)" fill="none" stroke="#000" stroke-linecap="round" stroke-linejoin="round" stroke-miterlimit="10" stroke-width="1"/>
        <circle id="Elipse_12520" data-name="Elipse 12520" cx="10.1" cy="10.1" r="10.1" transform="translate(19.685 19.685)" fill="none" stroke="#000" stroke-linecap="round" stroke-linejoin="round" stroke-miterlimit="10" stroke-width="1"/>
        <path id="Trazado_1050166" data-name="Trazado 1050166" d="M203.488,239.654l-2.577-2.577,2.577-2.577" transform="translate(-177.729 -207.292)" fill="none" stroke="#000" stroke-linecap="round" stroke-linejoin="round" stroke-miterlimit="10" stroke-width="1"/>
        <path id="Trazado_1050167" data-name="Trazado 1050167" d="M289.589,239.654l2.577-2.577-2.577-2.577" transform="translate(-255.778 -207.292)" fill="none" stroke="#000" stroke-linecap="round" stroke-linejoin="round" stroke-miterlimit="10" stroke-width="1"/>
        <line id="Línea_818" data-name="Línea 818" y1="6.419" x2="2.318" transform="translate(28.626 26.576)" fill="none" stroke="#000" stroke-linecap="round" stroke-linejoin="round" stroke-miterlimit="10" stroke-width="1"/>
        <path id="Trazado_1050168" data-name="Trazado 1050168" d="M304.051,18.822l-9.6-3.307a2.883,2.883,0,0,1-1.787-3.664h0a1.074,1.074,0,0,1,1.365-.666l13.077,4.5a3.183,3.183,0,0,1,1.66,1.319l7.179,11.283a2.769,2.769,0,0,0,1.434,1.131l.537.185" transform="translate(-258.341 -10.691)" fill="none" stroke="#000" stroke-linecap="round" stroke-linejoin="round" stroke-miterlimit="10" stroke-width="1"/>
        <path id="Trazado_1050169" data-name="Trazado 1050169" d="M374.131,83.116l-4.1-7.58a2.058,2.058,0,0,0-1.169-.979s0,0,0,0a2.047,2.047,0,0,0-.648-.105,2.073,2.073,0,0,0-1.864,2.971l2.343,4.858" transform="translate(-323.151 -66.425)" fill="none" stroke="#000" stroke-linecap="round" stroke-linejoin="round" stroke-miterlimit="10" stroke-width="1"/>
        <path id="Trazado_1050170" data-name="Trazado 1050170" d="M402.62,171.3l.916,1.9a6.764,6.764,0,0,0,3.888,3.454l1.291.445,6.116,2.106" transform="translate(-355.261 -151.667)" fill="none" stroke="#000" stroke-linecap="round" stroke-linejoin="round" stroke-miterlimit="10" stroke-width="1"/>
        <path id="Trazado_1050171" data-name="Trazado 1050171" d="M124.11,11.774l3.621-2.3a2.762,2.762,0,0,0,1.13-1.434l.186-.537" transform="translate(-110.133 -7.5)" fill="none" stroke="#000" stroke-linecap="round" stroke-linejoin="round" stroke-miterlimit="10" stroke-width="1"/>
        <path id="Trazado_1050172" data-name="Trazado 1050172" d="M21.129,61.97l-4.12,2.621a3.192,3.192,0,0,0-1.318,1.66l-4.5,13.077a1.073,1.073,0,0,0,.665,1.365,2.882,2.882,0,0,0,3.664-1.787l3.307-9.6s0,0,0,0" transform="translate(-10.695 -55.441)" fill="none" stroke="#000" stroke-linecap="round" stroke-linejoin="round" stroke-miterlimit="10" stroke-width="1"/>
        <path id="Trazado_1050173" data-name="Trazado 1050173" d="M93.966,7.5,91.86,13.617l-.444,1.29A6.762,6.762,0,0,1,87.96,18.8L77.427,23.878a2.071,2.071,0,0,1-2.755-.945h0a2.071,2.071,0,0,1,.87-2.741l7.579-4.1" transform="translate(-66.43 -7.5)" fill="none" stroke="#000" stroke-linecap="round" stroke-linejoin="round" stroke-miterlimit="10" stroke-width="1"/>
        <path id="Trazado_1050174" data-name="Trazado 1050174" d="M21.36,357.486l9.6,3.307a2.883,2.883,0,0,1,1.787,3.664h0a1.074,1.074,0,0,1-1.365.666l-13.077-4.5a3.183,3.183,0,0,1-1.66-1.319L9.471,348.019a2.769,2.769,0,0,0-1.434-1.131L7.5,346.7" transform="translate(-7.5 -306.046)" fill="none" stroke="#000" stroke-linecap="round" stroke-linejoin="round" stroke-miterlimit="10" stroke-width="1"/>
        <path id="Trazado_1050175" data-name="Trazado 1050175" d="M79.17,365.25l4.1,7.58a2.058,2.058,0,0,0,1.169.979s0,0,0,0a2.048,2.048,0,0,0,.648.105,2.073,2.073,0,0,0,1.864-2.971L84.9,366.688" transform="translate(-70.58 -322.37)" fill="none" stroke="#000" stroke-linecap="round" stroke-linejoin="round" stroke-miterlimit="10" stroke-width="1"/>
        <path id="Trazado_1050176" data-name="Trazado 1050176" d="M7.5,274.77l6.116,2.106,1.291.445a6.763,6.763,0,0,1,3.888,3.454l1.2,2.489" transform="translate(-7.5 -242.735)" fill="none" stroke="#000" stroke-linecap="round" stroke-linejoin="round" stroke-miterlimit="10" stroke-width="1"/>
        <path id="Trazado_1050177" data-name="Trazado 1050177" d="M346.7,470.174l.186-.537a2.761,2.761,0,0,1,1.13-1.433l4.25-2.7" transform="translate(-306.044 -410.605)" fill="none" stroke="#000" stroke-linecap="round" stroke-linejoin="round" stroke-miterlimit="10" stroke-width="1"/>
        <path id="Trazado_1050178" data-name="Trazado 1050178" d="M422.69,310.982l3.492-2.221a3.192,3.192,0,0,0,1.318-1.66l4.5-13.077a1.074,1.074,0,0,0-.665-1.365,2.882,2.882,0,0,0-3.664,1.787l-3.307,9.6s0,0,0,0" transform="translate(-372.926 -258.341)" fill="none" stroke="#000" stroke-linecap="round" stroke-linejoin="round" stroke-miterlimit="10" stroke-width="1"/>
        <path id="Trazado_1050179" data-name="Trazado 1050179" d="M274.77,382.721l2.106-6.117.444-1.29a6.762,6.762,0,0,1,3.455-3.889l10.533-5.082a2.071,2.071,0,0,1,2.755.945h0a2.071,2.071,0,0,1-.87,2.741l-7.579,4.1" transform="translate(-242.735 -323.151)" fill="none" stroke="#000" stroke-linecap="round" stroke-linejoin="round" stroke-miterlimit="10" stroke-width="1"/>
      </g>
    </g>
  </g>
</svg>
