<svg xmlns="http://www.w3.org/2000/svg" width="820" height="313" viewBox="0 0 820 313">
  <g id="Grupo_1181744" data-name="Grupo 1181744" transform="translate(-365.051 -4534)">
    <g id="Grupo_1099019" data-name="Grupo 1099019" transform="translate(365.051 4534)">
      <path id="Rectángulo_389225" data-name="Rectángulo 389225" d="M9,0H811a9,9,0,0,1,9,9V55a0,0,0,0,1,0,0H0a0,0,0,0,1,0,0V9A9,9,0,0,1,9,0Z" fill="#3a1d71"/>
      <path id="Rectángulo_389226" data-name="Rectángulo 389226" d="M0,0H820a0,0,0,0,1,0,0V249a9,9,0,0,1-9,9H9a9,9,0,0,1-9-9V0A0,0,0,0,1,0,0Z" transform="translate(0 55)" fill="#110628"/>
    </g>
    <text id="Pedir_al_usuario_el_valor_del_primer_número_Pedir_al_usuario_el_valor_del_segundo_número_Sumar_los_dos_números_Mostrar_el_resultado_de_la_suma_de_los_dos_números" data-name="Pedir al usuario el valor del primer número

Pedir al usuario el valor del segundo número

Sumar los dos números

Mostrar el resultado de la suma de los dos números" transform="translate(399.051 4623)" fill="#fff" font-size="16" font-family="SegoeUI, Segoe UI"><tspan x="0" y="17">Pedir al usuario el valor del primer número</tspan><tspan x="0" y="40"></tspan><tspan x="0" y="63">Pedir al usuario el valor del segundo número</tspan><tspan x="0" y="86"></tspan><tspan x="0" y="109">Sumar los dos números</tspan><tspan x="0" y="132"></tspan><tspan x="0" y="155">Mostrar el resultado de la suma de los dos </tspan><tspan x="0" y="178">números</tspan></text>
    <g id="Grupo_1181760" data-name="Grupo 1181760" transform="translate(365.051 4534)">
      <circle id="Elipse_11380" data-name="Elipse 11380" cx="8" cy="8" r="8" transform="translate(32 19)" fill="#fb130d"/>
      <circle id="Elipse_11381" data-name="Elipse 11381" cx="8" cy="8" r="8" transform="translate(59 19)" fill="#fecd02"/>
      <circle id="Elipse_11382" data-name="Elipse 11382" cx="8" cy="8" r="8" transform="translate(85 19)" fill="#43dfaa"/>
    </g>
  </g>
</svg>
