<svg xmlns="http://www.w3.org/2000/svg" xmlns:xlink="http://www.w3.org/1999/xlink" width="108.914" height="108.914" viewBox="0 0 108.914 108.914">
  <defs>
    <filter id="Trazado_874925" x="0" y="0" width="108.914" height="108.914" filterUnits="userSpaceOnUse">
      <feOffset dy="3" input="SourceAlpha"/>
      <feGaussianBlur stdDeviation="3" result="blur"/>
      <feFlood flood-opacity="0.161"/>
      <feComposite operator="in" in2="blur"/>
      <feComposite in="SourceGraphic"/>
    </filter>
  </defs>
  <g id="Grupo_1181733" data-name="Grupo 1181733" transform="translate(-1620.182 8406.843)">
    <g id="Grupo_1179942" data-name="Grupo 1179942" transform="translate(1629.182 -8400.843)">
      <g id="Grupo_1179014" data-name="Grupo 1179014" transform="translate(0 0)">
        <g id="Grupo_1111527" data-name="Grupo 1111527" transform="translate(0 0)">
          <g id="Grupo_1111316" data-name="Grupo 1111316">
            <g id="Grupo_1109835" data-name="Grupo 1109835" transform="translate(0 0)">
              <g id="Grupo_1107913" data-name="Grupo 1107913" transform="translate(0 0)">
                <g transform="matrix(1, 0, 0, 1, -9, -6)" filter="url(#Trazado_874925)">
                  <g id="Trazado_874925-2" data-name="Trazado 874925" transform="translate(9 6)" fill="#fdf9d4" opacity="0.859">
                    <path d="M 45.45676803588867 89.41407012939453 C 39.52198028564453 89.41407012939453 33.76551818847656 88.25206756591797 28.34726715087891 85.96034240722656 C 23.11310577392578 83.74648284912109 18.41203117370605 80.57682800292969 14.37464332580566 76.5394287109375 C 10.33724308013916 72.50202941894531 7.167593002319336 67.80095672607422 4.953730583190918 62.56679534912109 C 2.662005424499512 57.14855575561523 1.500005483627319 51.39208221435547 1.500005483627319 45.45729446411133 C 1.500005483627319 39.52198028564453 2.662005424499512 33.76550674438477 4.953730583190918 28.34726905822754 C 7.167593002319336 23.11310577392578 10.33724308013916 18.41203117370605 14.37464332580566 14.37464332580566 C 18.41203117370605 10.33724403381348 23.11310577392578 7.167593955993652 28.34726715087891 4.953731060028076 C 33.76550674438477 2.662006139755249 39.52198028564453 1.500006198883057 45.45676803588867 1.500006198883057 C 51.39155578613281 1.500006198883057 57.14802932739258 2.662006139755249 62.56626892089844 4.953731060028076 C 67.80043029785156 7.167593955993652 72.50150299072266 10.33724403381348 76.53890228271484 14.37464332580566 C 80.57630920410156 18.41203117370605 83.74595642089844 23.11310577392578 85.95981597900391 28.34726905822754 C 88.25154113769531 33.76551818847656 89.41354370117188 39.52198028564453 89.41354370117188 45.45676803588867 C 89.41354370117188 51.39208221435547 88.25154113769531 57.14855575561523 85.95981597900391 62.56679534912109 C 83.74595642089844 67.80095672607422 80.57630920410156 72.50202941894531 76.53890228271484 76.5394287109375 C 72.50150299072266 80.57682800292969 67.80043029785156 83.74648284912109 62.56626892089844 85.96034240722656 C 57.14802932739258 88.25206756591797 51.39155578613281 89.41407012939453 45.45676803588867 89.41407012939453 Z" stroke="none"/>
                    <path d="M 45.45676803588867 3 C 39.72381210327148 3 34.1639404296875 4.12213134765625 28.93159484863281 6.335227966308594 C 23.87622833251953 8.473472595214844 19.33542633056641 11.53517150878906 15.43529510498047 15.435302734375 C 11.53517150878906 19.33543395996094 8.473464965820312 23.87622833251953 6.335227966308594 28.93160247802734 C 4.122123718261719 34.16394424438477 3 39.72381591796875 3 45.4572868347168 C 3 51.19024658203125 4.122123718261719 56.75011825561523 6.335227966308594 61.98246002197266 C 8.473464965820312 67.03782653808594 11.53517150878906 71.57862854003906 15.43529510498047 75.478759765625 C 19.33542633056641 79.37889099121094 23.87622833251953 82.44058990478516 28.93159484863281 84.57883453369141 C 34.1639404296875 86.79193115234375 39.72381210327148 87.9140625 45.45676803588867 87.9140625 C 51.18972396850586 87.9140625 56.74959564208984 86.79193115234375 61.98194122314453 84.57883453369141 C 67.03730773925781 82.44058990478516 71.57810974121094 79.37889099121094 75.47824096679688 75.478759765625 C 79.37837219238281 71.57862854003906 82.44007110595703 67.03782653808594 84.57830810546875 61.98246002197266 C 86.79141235351562 56.75011825561523 87.91353607177734 51.19024658203125 87.91353607177734 45.4567756652832 C 87.91353607177734 39.72381591796875 86.79141235351562 34.16394424438477 84.57830810546875 28.93160247802734 C 82.44007110595703 23.87622833251953 79.37837219238281 19.33543395996094 75.47824096679688 15.435302734375 C 71.57810974121094 11.53517150878906 67.03730773925781 8.473472595214844 61.98194122314453 6.335227966308594 C 56.74959564208984 4.12213134765625 51.18972396850586 3 45.45676803588867 3 M 45.45676803588867 0 C 70.56185150146484 0 90.91353607177734 20.35169219970703 90.91353607177734 45.4567756652832 L 90.91353607177734 45.4572868347168 C 90.91353607177734 70.5623779296875 70.56185150146484 90.9140625 45.45676803588867 90.9140625 C 20.3516845703125 90.9140625 0 70.5623779296875 0 45.4572868347168 L 0 45.4567756652832 C 0 20.35169219970703 20.3516845703125 0 45.45676803588867 0 Z" stroke="none" fill="#c7b622"/>
                  </g>
                </g>
                <g id="Trazado_874923" data-name="Trazado 874923" transform="translate(0)" fill="none">
                  <path d="M45.457,0A45.457,45.457,0,0,1,90.914,45.457h0A45.457,45.457,0,0,1,0,45.457H0A45.457,45.457,0,0,1,45.457,0Z" stroke="none"/>
                  <path d="M 45.45676803588867 3 C 39.72381210327148 3 34.1639404296875 4.12213134765625 28.93159484863281 6.335227966308594 C 23.87622833251953 8.473472595214844 19.33542633056641 11.53517150878906 15.43529510498047 15.435302734375 C 11.53517150878906 19.33543395996094 8.473464965820312 23.87622833251953 6.335227966308594 28.93160247802734 C 4.122123718261719 34.16394424438477 3 39.72381591796875 3 45.4572868347168 C 3 51.19024658203125 4.122123718261719 56.75011825561523 6.335227966308594 61.98246002197266 C 8.473464965820312 67.03782653808594 11.53517150878906 71.57862854003906 15.43529510498047 75.478759765625 C 19.33542633056641 79.37889099121094 23.87622833251953 82.44058990478516 28.93159484863281 84.57883453369141 C 34.1639404296875 86.79193115234375 39.72381210327148 87.9140625 45.45676803588867 87.9140625 C 51.18972396850586 87.9140625 56.74959564208984 86.79193115234375 61.98194122314453 84.57883453369141 C 67.03730773925781 82.44058990478516 71.57810974121094 79.37889099121094 75.47824096679688 75.478759765625 C 79.37837219238281 71.57862854003906 82.44007110595703 67.03782653808594 84.57830810546875 61.98246002197266 C 86.79141235351562 56.75011825561523 87.91353607177734 51.19024658203125 87.91353607177734 45.4567756652832 C 87.91353607177734 39.72381591796875 86.79141235351562 34.16394424438477 84.57830810546875 28.93160247802734 C 82.44007110595703 23.87622833251953 79.37837219238281 19.33543395996094 75.47824096679688 15.435302734375 C 71.57810974121094 11.53517150878906 67.03730773925781 8.473472595214844 61.98194122314453 6.335227966308594 C 56.74959564208984 4.12213134765625 51.18972396850586 3 45.45676803588867 3 M 45.45676803588867 0 C 70.56185150146484 0 90.91353607177734 20.35169219970703 90.91353607177734 45.4567756652832 L 90.91353607177734 45.4572868347168 C 90.91353607177734 70.5623779296875 70.56185150146484 90.9140625 45.45676803588867 90.9140625 C 20.3516845703125 90.9140625 0 70.5623779296875 0 45.4572868347168 L 0 45.4567756652832 C 0 20.35169219970703 20.3516845703125 0 45.45676803588867 0 Z" stroke="none" fill="#c7b622"/>
                </g>
              </g>
            </g>
          </g>
        </g>
      </g>
    </g>
    <g id="Layer_x0020_1" transform="translate(1638.129 -8393.181)">
      <g id="_350506168" transform="translate(9.14 9.14)">
        <g id="Grupo_1181731" data-name="Grupo 1181731" transform="translate(0.596 0.6)">
          <g id="Grupo_1181728" data-name="Grupo 1181728" transform="translate(0 27.985)">
            <path id="_350510224" d="M19.877,133.47l3.591,2.885,3.591-2.885h3.909a5.159,5.159,0,0,1,5.143,5.143v5.143H25.454l-1.88-.491-2.091.491H10.825v-5.143a5.158,5.158,0,0,1,5.143-5.143Z" transform="translate(-10.825 -118.11)" fill="#d2d8e4" fill-rule="evenodd"/>
            <path id="_350509576" d="M36.435,126.941l.814,2.026,2.778.859,2.283-.973,1.308-1.912v-3.569H36.435Z" transform="translate(-27.383 -111.581)" fill="#fdc28c" fill-rule="evenodd"/>
            <path id="_350510032" d="M44.976,143.213l.021-.777-1.974-.8-1.638.53-.316,1.049,1.232,1.8.827.491.616-.491Z" transform="translate(-30.38 -123.387)" fill="#ff65de" fill-rule="evenodd"/>
            <path id="_350509984" d="M43.686,151.186H42.243L40.98,155.21h3.97Z" transform="translate(-30.321 -129.564)" fill="#ff65de" fill-rule="evenodd"/>
            <path id="_350509672" d="M41.862,96.363c0,3.551-2.814,7.365-5.709,7.365s-5.709-3.814-5.709-7.365c0-8.467,11.419-8.467,11.419,0Z" transform="translate(-23.509 -90.013)" fill="#fdc28c" fill-rule="evenodd"/>
            <g id="Grupo_1181727" data-name="Grupo 1181727" transform="translate(5.143 15.36)">
              <path id="_350508664" d="M25.377,133.47h3.909l3.591,2.885-2.64,2.135Z" transform="translate(-25.377 -133.47)" fill="#afb4be" fill-rule="evenodd"/>
              <path id="_350508952" d="M54.1,133.47H50.187L46.6,136.355l2.64,2.135Z" transform="translate(-39.096 -133.47)" fill="#afb4be" fill-rule="evenodd"/>
            </g>
          </g>
          <path id="_350509144" d="M34.9,33.214a2.026,2.026,0,0,1-2.02-2.02V12.858a2.026,2.026,0,0,1,2.02-2.02h34a2.026,2.026,0,0,1,2.02,2.02V31.194a2.026,2.026,0,0,1-2.02,2.02H56.917L51.9,41.246l-5.013-8.032Z" transform="translate(-25.087 -10.837)" fill="#29af5c" fill-rule="evenodd"/>
          <g id="Grupo_1181730" data-name="Grupo 1181730" transform="translate(28.349 27.985)">
            <path id="_350508640" d="M100.082,133.47l3.591,2.885,3.591-2.885h3.909a5.159,5.159,0,0,1,5.143,5.143v5.143H105.659l-1.88-.491-2.091.491H91.03v-5.143a5.158,5.158,0,0,1,5.143-5.143Z" transform="translate(-91.03 -118.11)" fill="#57b3fe" fill-rule="evenodd"/>
            <path id="_350507824" d="M116.64,126.941l.814,2.026,2.777.859,2.283-.973,1.308-1.912v-3.569H116.64Z" transform="translate(-107.588 -111.581)" fill="#fdc28c" fill-rule="evenodd"/>
            <path id="_350507992" d="M125.181,143.213l.021-.777-1.974-.8-1.638.53-.316,1.049,1.232,1.8.827.491.616-.491Z" transform="translate(-110.585 -123.387)" fill="#ff65de" fill-rule="evenodd"/>
            <path id="_350508040" d="M123.891,151.186h-1.443l-1.264,4.024h3.97Z" transform="translate(-110.527 -129.564)" fill="#ff65de" fill-rule="evenodd"/>
            <path id="_350508472" d="M122.067,96.363c0,3.551-2.814,7.365-5.709,7.365s-5.709-3.814-5.709-7.365C110.648,87.9,122.067,87.9,122.067,96.363Z" transform="translate(-103.714 -90.013)" fill="#fdc28c" fill-rule="evenodd"/>
            <g id="Grupo_1181729" data-name="Grupo 1181729" transform="translate(5.143 15.36)">
              <path id="_350508352" d="M105.582,133.47h3.909l3.591,2.885-2.64,2.135Z" transform="translate(-105.582 -133.47)" fill="#4691fe" fill-rule="evenodd"/>
              <path id="_350507464" d="M134.3,133.47h-3.909l-3.591,2.885,2.64,2.135Z" transform="translate(-119.301 -133.47)" fill="#4691fe" fill-rule="evenodd"/>
            </g>
          </g>
        </g>
        <g id="Grupo_1181732" data-name="Grupo 1181732" transform="translate(0)">
          <path id="_350507200" d="M115.227,143.257H89.947a.6.6,0,0,1-.6-.6v-5.142a5.746,5.746,0,0,1,5.74-5.74H99a.6.6,0,0,1,0,1.2H95.089a4.548,4.548,0,0,0-4.544,4.543v4.544h24.083v-4.544a4.548,4.548,0,0,0-4.544-4.543h-3.908a.6.6,0,1,1,0-1.2h3.908a5.746,5.746,0,0,1,5.741,5.74v5.142a.6.6,0,0,1-.6.6Z" transform="translate(-60.998 -88.43)" fill-rule="evenodd"/>
          <path id="_350507416" d="M115.266,89.529c-2.462,0-5.11,1.8-5.11,5.75,0,3.287,2.627,6.765,5.11,6.765s5.109-3.478,5.109-6.765a5.919,5.919,0,0,0-1.606-4.336A4.934,4.934,0,0,0,115.266,89.529Zm0,13.711a5.82,5.82,0,0,1-4.416-2.586,9.091,9.091,0,0,1-1.892-5.375,7.089,7.089,0,0,1,1.961-5.187,6.244,6.244,0,0,1,8.69,0,7.087,7.087,0,0,1,1.961,5.187,9.085,9.085,0,0,1-1.89,5.375A5.82,5.82,0,0,1,115.266,103.24Z" transform="translate(-73.677 -60.341)" fill-rule="evenodd"/>
          <path id="_350507632" d="M115.551,126.446a.6.6,0,0,1-.6-.6v-3.569a.6.6,0,1,1,1.2,0v3.569a.6.6,0,0,1-.6.6Zm7.18,0a.6.6,0,0,1-.6-.6v-3.569a.6.6,0,1,1,1.2,0v3.569a.6.6,0,0,1-.6.6Z" transform="translate(-77.552 -81.902)" fill-rule="evenodd"/>
          <path id="_350507176" d="M109.354,137.992a.6.6,0,0,1-.431-.182l-4.859-5.019a.6.6,0,1,1,.86-.833l4.478,4.625,1.636-1.323-3.011-2.419a.6.6,0,1,1,.749-.934l3.591,2.885a.6.6,0,0,1,0,.931l-2.639,2.135a.593.593,0,0,1-.375.133Z" transform="translate(-70.403 -88.429)" fill-rule="evenodd"/>
          <path id="_350507560" d="M128.346,137.991a.592.592,0,0,1-.375-.133l-2.639-2.135a.6.6,0,0,1,0-.931l3.591-2.885a.6.6,0,0,1,.749.934l-3.011,2.419,1.636,1.323,4.478-4.625a.6.6,0,1,1,.86.833l-4.859,5.019A.6.6,0,0,1,128.346,137.991Z" transform="translate(-84.119 -88.429)" fill-rule="evenodd"/>
          <path id="_350507536" d="M122.857,147.4h-1.442a.6.6,0,0,1-.494-.259l-1.232-1.8a.6.6,0,0,1,.987-.677l1.054,1.536h.81l1.054-1.536a.6.6,0,0,1,.987.677l-1.231,1.8A.6.6,0,0,1,122.857,147.4Z" transform="translate(-80.547 -96.595)" fill-rule="evenodd"/>
          <path id="_350507488" d="M120.094,154.707a.6.6,0,0,1-.572-.778l1.263-4.024a.6.6,0,0,1,1.142.359l-1.264,4.024A.6.6,0,0,1,120.094,154.707Zm3.968,0a.6.6,0,0,1-.57-.419l-1.264-4.024a.6.6,0,1,1,1.142-.359l1.263,4.024a.6.6,0,0,1-.392.751.59.59,0,0,1-.179.027Z" transform="translate(-80.489 -99.88)" fill-rule="evenodd"/>
          <path id="_350507344" d="M35.018,143.257H9.739a.6.6,0,0,1-.6-.6v-5.142a5.746,5.746,0,0,1,5.74-5.74h3.908a.6.6,0,0,1,0,1.2H14.88a4.548,4.548,0,0,0-4.543,4.543v4.544H34.419v-4.544a4.547,4.547,0,0,0-4.542-4.543H25.969a.6.6,0,1,1,0-1.2h3.908a5.746,5.746,0,0,1,5.739,5.74v5.142a.6.6,0,0,1-.6.6Z" transform="translate(-9.14 -88.43)" fill-rule="evenodd"/>
          <path id="_350506792" d="M35.057,89.529c-2.46,0-5.109,1.8-5.109,5.75,0,3.287,2.626,6.765,5.109,6.765s5.11-3.478,5.11-6.765a5.92,5.92,0,0,0-1.606-4.336A4.94,4.94,0,0,0,35.057,89.529Zm0,13.711a5.819,5.819,0,0,1-4.414-2.586,9.093,9.093,0,0,1-1.892-5.375,7.09,7.09,0,0,1,1.961-5.187,6.245,6.245,0,0,1,8.69,0,7.086,7.086,0,0,1,1.961,5.187,9.086,9.086,0,0,1-1.892,5.375A5.818,5.818,0,0,1,35.057,103.24Z" transform="translate(-21.82 -60.341)" fill-rule="evenodd"/>
          <path id="_350506432" d="M35.341,126.446a.6.6,0,0,1-.6-.6v-3.569a.6.6,0,1,1,1.2,0v3.569a.6.6,0,0,1-.6.6Zm7.181,0a.6.6,0,0,1-.6-.6v-3.569a.6.6,0,1,1,1.2,0v3.569a.6.6,0,0,1-.6.6Z" transform="translate(-25.693 -81.902)" fill-rule="evenodd"/>
          <path id="_350506336" d="M48.139,137.991a.6.6,0,0,1-.377-.133l-2.638-2.135a.6.6,0,0,1,0-.931l3.59-2.885a.6.6,0,0,1,.75.934l-3.013,2.419,1.636,1.323,4.479-4.625a.6.6,0,1,1,.86.833l-4.859,5.019A.6.6,0,0,1,48.139,137.991Z" transform="translate(-32.262 -88.429)" fill-rule="evenodd"/>
          <path id="_350506528" d="M29.144,137.992a.6.6,0,0,1-.43-.182l-4.859-5.019a.6.6,0,1,1,.86-.833l4.479,4.625,1.636-1.323-3.013-2.419a.6.6,0,0,1,.75-.934l3.59,2.885a.6.6,0,0,1,0,.931l-2.638,2.135A.594.594,0,0,1,29.144,137.992Z" transform="translate(-18.545 -88.43)" fill-rule="evenodd"/>
          <path id="_350506288" d="M42.648,147.4H41.2a.6.6,0,0,1-.494-.259l-1.232-1.8a.6.6,0,0,1,.988-.677L41.52,146.2h.812l1.054-1.536a.6.6,0,1,1,.986.677l-1.231,1.8a.6.6,0,0,1-.494.259Z" transform="translate(-28.688 -96.595)" fill-rule="evenodd"/>
          <path id="_350506600" d="M39.883,154.707a.6.6,0,0,1-.571-.778l1.263-4.024a.6.6,0,1,1,1.142.359l-1.263,4.024A.6.6,0,0,1,39.883,154.707Zm3.969,0a.6.6,0,0,1-.571-.419l-1.263-4.024a.6.6,0,0,1,1.142-.359l1.263,4.024a.6.6,0,0,1-.571.778Z" transform="translate(-28.629 -99.88)" fill-rule="evenodd"/>
          <path id="_350506864" d="M33.806,10.337a1.424,1.424,0,0,0-1.423,1.421V30.1a1.423,1.423,0,0,0,1.423,1.421h11.99a.6.6,0,0,1,.507.282l4.505,7.22,4.505-7.22a.6.6,0,0,1,.507-.282H67.809A1.422,1.422,0,0,0,69.23,30.1V11.759a1.422,1.422,0,0,0-1.422-1.421Zm17,30.41a.6.6,0,0,1-.508-.282l-4.838-7.751H33.806a2.622,2.622,0,0,1-2.62-2.619V11.759a2.621,2.621,0,0,1,2.62-2.619h34a2.621,2.621,0,0,1,2.618,2.619V30.1a2.622,2.622,0,0,1-2.619,2.619H56.151l-4.837,7.751a.6.6,0,0,1-.507.282Z" transform="translate(-23.394 -9.14)" fill-rule="evenodd"/>
          <path id="_350506840" d="M50.266,28.259a.6.6,0,0,1-.418-.17l-2.384-2.322a.6.6,0,0,1,0-.858l2.384-2.322a.6.6,0,0,1,.835.858L48.74,25.339l1.944,1.894a.6.6,0,0,1,.01.845A.591.591,0,0,1,50.266,28.259Z" transform="translate(-33.801 -17.725)" fill-rule="evenodd"/>
          <path id="_350506816" d="M74.77,28.259a.6.6,0,0,1-.418-1.026L76.3,25.339l-1.944-1.893a.6.6,0,1,1,.835-.858l2.384,2.322a.6.6,0,0,1,.18.429.6.6,0,0,1-.181.429L75.188,28.09A.6.6,0,0,1,74.77,28.259Z" transform="translate(-51.186 -17.725)" fill-rule="evenodd"/>
          <path id="_350506936" d="M62.651,27.272a.555.555,0,0,1-.135-.016.6.6,0,0,1-.449-.717l1.645-7.17a.6.6,0,0,1,1.167.268l-1.646,7.17a.6.6,0,0,1-.582.465Z" transform="translate(-43.35 -15.453)" fill-rule="evenodd"/>
          <path id="_350506744" d="M74.548,48.79H47.882a.6.6,0,1,1,0-1.2H74.548a.6.6,0,0,1,0,1.2Zm0,3.688H47.882a.6.6,0,1,1,0-1.2H74.548a.6.6,0,0,1,0,1.2Z" transform="translate(-33.801 -34.002)" fill-rule="evenodd"/>
          <path id="_350506144" d="M101.68,35.247H89.848a.6.6,0,1,1,0-1.2H101.68a.6.6,0,0,1,0,1.2Z" transform="translate(-60.934 -25.246)" fill-rule="evenodd"/>
          <path id="_350506024" d="M101.68,25.122H89.848a.6.6,0,1,1,0-1.2H101.68a.6.6,0,0,1,0,1.2Z" transform="translate(-60.934 -18.7)" fill-rule="evenodd"/>
        </g>
      </g>
    </g>
  </g>
</svg>
