<svg xmlns="http://www.w3.org/2000/svg" xmlns:xlink="http://www.w3.org/1999/xlink" width="108.914" height="108.914" viewBox="0 0 108.914 108.914">
  <defs>
    <filter id="Trazado_874925" x="0" y="0" width="108.914" height="108.914" filterUnits="userSpaceOnUse">
      <feOffset dy="3" input="SourceAlpha"/>
      <feGaussianBlur stdDeviation="3" result="blur"/>
      <feFlood flood-opacity="0.161"/>
      <feComposite operator="in" in2="blur"/>
      <feComposite in="SourceGraphic"/>
    </filter>
  </defs>
  <g id="Grupo_1181726" data-name="Grupo 1181726" transform="translate(-1274.182 8406.843)">
    <g id="Grupo_1179941" data-name="Grupo 1179941" transform="translate(1283.182 -8400.843)">
      <g id="Grupo_1179014" data-name="Grupo 1179014" transform="translate(0 0)">
        <g id="Grupo_1111527" data-name="Grupo 1111527" transform="translate(0 0)">
          <g id="Grupo_1111316" data-name="Grupo 1111316">
            <g id="Grupo_1109835" data-name="Grupo 1109835" transform="translate(0 0)">
              <g id="Grupo_1107913" data-name="Grupo 1107913" transform="translate(0 0)">
                <g transform="matrix(1, 0, 0, 1, -9, -6)" filter="url(#Trazado_874925)">
                  <g id="Trazado_874925-2" data-name="Trazado 874925" transform="translate(9 6)" fill="#fdf9d4" opacity="0.859">
                    <path d="M 45.45676803588867 89.41407012939453 C 39.52198028564453 89.41407012939453 33.76551818847656 88.25206756591797 28.34726715087891 85.96034240722656 C 23.11310577392578 83.74648284912109 18.41203117370605 80.57682800292969 14.37464332580566 76.5394287109375 C 10.33724308013916 72.50202941894531 7.167593002319336 67.80095672607422 4.953730583190918 62.56679534912109 C 2.662005424499512 57.14855575561523 1.500005483627319 51.39208221435547 1.500005483627319 45.45729446411133 C 1.500005483627319 39.52198028564453 2.662005424499512 33.76550674438477 4.953730583190918 28.34726905822754 C 7.167593002319336 23.11310577392578 10.33724308013916 18.41203117370605 14.37464332580566 14.37464332580566 C 18.41203117370605 10.33724403381348 23.11310577392578 7.167593955993652 28.34726715087891 4.953731060028076 C 33.76550674438477 2.662006139755249 39.52198028564453 1.500006198883057 45.45676803588867 1.500006198883057 C 51.39155578613281 1.500006198883057 57.14802932739258 2.662006139755249 62.56626892089844 4.953731060028076 C 67.80043029785156 7.167593955993652 72.50150299072266 10.33724403381348 76.53890228271484 14.37464332580566 C 80.57630920410156 18.41203117370605 83.74595642089844 23.11310577392578 85.95981597900391 28.34726905822754 C 88.25154113769531 33.76551818847656 89.41354370117188 39.52198028564453 89.41354370117188 45.45676803588867 C 89.41354370117188 51.39208221435547 88.25154113769531 57.14855575561523 85.95981597900391 62.56679534912109 C 83.74595642089844 67.80095672607422 80.57630920410156 72.50202941894531 76.53890228271484 76.5394287109375 C 72.50150299072266 80.57682800292969 67.80043029785156 83.74648284912109 62.56626892089844 85.96034240722656 C 57.14802932739258 88.25206756591797 51.39155578613281 89.41407012939453 45.45676803588867 89.41407012939453 Z" stroke="none"/>
                    <path d="M 45.45676803588867 3 C 39.72381210327148 3 34.1639404296875 4.12213134765625 28.93159484863281 6.335227966308594 C 23.87622833251953 8.473472595214844 19.33542633056641 11.53517150878906 15.43529510498047 15.435302734375 C 11.53517150878906 19.33543395996094 8.473464965820312 23.87622833251953 6.335227966308594 28.93160247802734 C 4.122123718261719 34.16394424438477 3 39.72381591796875 3 45.4572868347168 C 3 51.19024658203125 4.122123718261719 56.75011825561523 6.335227966308594 61.98246002197266 C 8.473464965820312 67.03782653808594 11.53517150878906 71.57862854003906 15.43529510498047 75.478759765625 C 19.33542633056641 79.37889099121094 23.87622833251953 82.44058990478516 28.93159484863281 84.57883453369141 C 34.1639404296875 86.79193115234375 39.72381210327148 87.9140625 45.45676803588867 87.9140625 C 51.18972396850586 87.9140625 56.74959564208984 86.79193115234375 61.98194122314453 84.57883453369141 C 67.03730773925781 82.44058990478516 71.57810974121094 79.37889099121094 75.47824096679688 75.478759765625 C 79.37837219238281 71.57862854003906 82.44007110595703 67.03782653808594 84.57830810546875 61.98246002197266 C 86.79141235351562 56.75011825561523 87.91353607177734 51.19024658203125 87.91353607177734 45.4567756652832 C 87.91353607177734 39.72381591796875 86.79141235351562 34.16394424438477 84.57830810546875 28.93160247802734 C 82.44007110595703 23.87622833251953 79.37837219238281 19.33543395996094 75.47824096679688 15.435302734375 C 71.57810974121094 11.53517150878906 67.03730773925781 8.473472595214844 61.98194122314453 6.335227966308594 C 56.74959564208984 4.12213134765625 51.18972396850586 3 45.45676803588867 3 M 45.45676803588867 0 C 70.56185150146484 0 90.91353607177734 20.35169219970703 90.91353607177734 45.4567756652832 L 90.91353607177734 45.4572868347168 C 90.91353607177734 70.5623779296875 70.56185150146484 90.9140625 45.45676803588867 90.9140625 C 20.3516845703125 90.9140625 0 70.5623779296875 0 45.4572868347168 L 0 45.4567756652832 C 0 20.35169219970703 20.3516845703125 0 45.45676803588867 0 Z" stroke="none" fill="#c7b622"/>
                  </g>
                </g>
                <g id="Trazado_874923" data-name="Trazado 874923" transform="translate(0)" fill="none">
                  <path d="M45.457,0A45.457,45.457,0,0,1,90.914,45.457h0A45.457,45.457,0,0,1,0,45.457H0A45.457,45.457,0,0,1,45.457,0Z" stroke="none"/>
                  <path d="M 45.45676803588867 3 C 39.72381210327148 3 34.1639404296875 4.12213134765625 28.93159484863281 6.335227966308594 C 23.87622833251953 8.473472595214844 19.33542633056641 11.53517150878906 15.43529510498047 15.435302734375 C 11.53517150878906 19.33543395996094 8.473464965820312 23.87622833251953 6.335227966308594 28.93160247802734 C 4.122123718261719 34.16394424438477 3 39.72381591796875 3 45.4572868347168 C 3 51.19024658203125 4.122123718261719 56.75011825561523 6.335227966308594 61.98246002197266 C 8.473464965820312 67.03782653808594 11.53517150878906 71.57862854003906 15.43529510498047 75.478759765625 C 19.33542633056641 79.37889099121094 23.87622833251953 82.44058990478516 28.93159484863281 84.57883453369141 C 34.1639404296875 86.79193115234375 39.72381210327148 87.9140625 45.45676803588867 87.9140625 C 51.18972396850586 87.9140625 56.74959564208984 86.79193115234375 61.98194122314453 84.57883453369141 C 67.03730773925781 82.44058990478516 71.57810974121094 79.37889099121094 75.47824096679688 75.478759765625 C 79.37837219238281 71.57862854003906 82.44007110595703 67.03782653808594 84.57830810546875 61.98246002197266 C 86.79141235351562 56.75011825561523 87.91353607177734 51.19024658203125 87.91353607177734 45.4567756652832 C 87.91353607177734 39.72381591796875 86.79141235351562 34.16394424438477 84.57830810546875 28.93160247802734 C 82.44007110595703 23.87622833251953 79.37837219238281 19.33543395996094 75.47824096679688 15.435302734375 C 71.57810974121094 11.53517150878906 67.03730773925781 8.473472595214844 61.98194122314453 6.335227966308594 C 56.74959564208984 4.12213134765625 51.18972396850586 3 45.45676803588867 3 M 45.45676803588867 0 C 70.56185150146484 0 90.91353607177734 20.35169219970703 90.91353607177734 45.4567756652832 L 90.91353607177734 45.4572868347168 C 90.91353607177734 70.5623779296875 70.56185150146484 90.9140625 45.45676803588867 90.9140625 C 20.3516845703125 90.9140625 0 70.5623779296875 0 45.4572868347168 L 0 45.4567756652832 C 0 20.35169219970703 20.3516845703125 0 45.45676803588867 0 Z" stroke="none" fill="#c7b622"/>
                </g>
              </g>
            </g>
          </g>
        </g>
      </g>
    </g>
    <g id="filled_outline" data-name="filled outline" transform="translate(1285.062 -8399.007)">
      <path id="Trazado_1050134" data-name="Trazado 1050134" d="M128,80h29.462v40.51H128Z" transform="translate(-99.111 -56.635)" fill="#e6e5e0"/>
      <path id="Trazado_1050135" data-name="Trazado 1050135" d="M205.431,191.365c0-.112,0-.222-.011-.332l1.749-1.691-1.841-3.189-2.3.657a5.516,5.516,0,0,0-.68-.4l-.6-2.411h-3.683l-.6,2.411a5.5,5.5,0,0,0-.565.322l-2.486-.711-1.841,3.189,1.828,1.767c-.009.128-.015.256-.015.386,0,.065,0,.128,0,.192l-1.893,1.83,1.841,3.189,2.4-.688a5.507,5.507,0,0,0,.551.341l.625,2.5H201.6l.583-2.331a5.488,5.488,0,0,0,.689-.373l2.382.681,1.841-3.189-1.688-1.632C205.422,191.715,205.431,191.541,205.431,191.365Zm-5.524,1.841a1.841,1.841,0,1,1,1.841-1.841A1.841,1.841,0,0,1,199.907,193.207Z" transform="translate(-156.183 -148.666)" fill="#529fff"/>
      <path id="Trazado_1050136" data-name="Trazado 1050136" d="M35.969,308.6V304L28.6,308.6H24v16.572H44.255V308.6Z" transform="translate(-7.079 -254.856)" fill="#ecab2c"/>
      <path id="Trazado_1050137" data-name="Trazado 1050137" d="M66.762,388.889v-3.683L65.354,383.8a4.623,4.623,0,0,1,2.148-7.753l.181-.045v4.6l1.841.921,1.841-.921V376l.181.045a4.622,4.622,0,0,1,2.148,7.753l-1.408,1.409v3.683Z" transform="translate(-42.476 -318.57)" fill="#e6e5e0"/>
      <g id="Grupo_1181725" data-name="Grupo 1181725" transform="translate(16.921 16.921)">
        <path id="Trazado_1050138" data-name="Trazado 1050138" d="M320.286,308.6V304l7.365,4.6h4.6v16.572H312V308.6Z" transform="translate(-278.856 -271.776)" fill="#ecab2c"/>
        <path id="Trazado_1050139" data-name="Trazado 1050139" d="M320.286,40.572v4.6l7.365-4.6h4.6V24H312V40.572Z" transform="translate(-278.856 -24)" fill="#ecab2c"/>
        <path id="Trazado_1050140" data-name="Trazado 1050140" d="M35.969,40.572v4.6l-7.365-4.6H24V24H44.255V40.572Z" transform="translate(-24 -24)" fill="#ecab2c"/>
      </g>
      <path id="Trazado_1050141" data-name="Trazado 1050141" d="M368,465.138a1.138,1.138,0,0,0,.629,1.018l1.212.606h3.683l1.212-.606a1.138,1.138,0,0,0-.509-2.156h-5.089A1.138,1.138,0,0,0,368,465.138Z" transform="translate(-311.49 -396.442)" fill="#e42a3c"/>
      <path id="Trazado_1050142" data-name="Trazado 1050142" d="M376.921,394.762v5.524H380.6v-5.524l.921-2.762H376Z" transform="translate(-318.57 -332.728)" fill="#e6e5e0"/>
      <path id="Trazado_1050143" data-name="Trazado 1050143" d="M376.921,368,376,370.762h5.524L380.6,368Z" transform="translate(-318.57 -311.49)" fill="#d6d5d0"/>
      <path id="Trazado_1050144" data-name="Trazado 1050144" d="M352,67.222v.46h8.286V64h-5.064A3.222,3.222,0,0,0,352,67.222Z" transform="translate(-297.332 -42.476)" fill="#0a71cd"/>
      <path id="Trazado_1050145" data-name="Trazado 1050145" d="M376,109.5V96h4.6v10.588Z" transform="translate(-318.57 -70.793)" fill="#a8652f"/>
      <path id="Trazado_1050146" data-name="Trazado 1050146" d="M376,96h4.6v4.6H376Z" transform="translate(-318.57 -70.793)" fill="#e6e5e0"/>
      <path id="Trazado_1050147" data-name="Trazado 1050147" d="M424,64.921,425.841,64h1.841v3.683h-1.841L424,66.762Z" transform="translate(-361.045 -42.476)" fill="#005dbb"/>
      <path id="Trazado_1050148" data-name="Trazado 1050148" d="M440,64h1.841v3.683H440Z" transform="translate(-375.204 -42.476)" fill="#529fff"/>
      <path id="Trazado_1050149" data-name="Trazado 1050149" d="M235.662,224a2.762,2.762,0,1,0,2.762,2.762A2.762,2.762,0,0,0,235.662,224Zm0,3.683a.921.921,0,1,1,.921-.921A.921.921,0,0,1,235.662,227.683Z" transform="translate(-191.938 -184.062)"/>
      <path id="Trazado_1050150" data-name="Trazado 1050150" d="M198.969,190.089l1.841-3.189a.921.921,0,0,0-.157-1.122l-1.384-1.338q0-.053,0-.106l1.457-1.409a.921.921,0,0,0,.157-1.122l-1.841-3.189a.921.921,0,0,0-1.051-.425l-1.9.543-.03-.017-.5-2.017a.921.921,0,0,0-.893-.7h-3.683a.921.921,0,0,0-.893.7l-.485,1.94-2.023-.579a.921.921,0,0,0-1.05.425l-1.841,3.189a.921.921,0,0,0,.157,1.122l1.437,1.39-1.513,1.463a.921.921,0,0,0-.157,1.122l1.841,3.189a.921.921,0,0,0,1.051.425l1.922-.55.51,2.041a.921.921,0,0,0,.893.7h3.683a.921.921,0,0,0,.893-.7l.48-1.919.026-.014,2,.573a.92.92,0,0,0,1.05-.425Zm-1.235-1.543-1.691-.483a.92.92,0,0,0-.748.109,4.588,4.588,0,0,1-.574.311.921.921,0,0,0-.514.616l-.408,1.633h-2.245l-.451-1.8a.921.921,0,0,0-.457-.587,4.623,4.623,0,0,1-.458-.284.921.921,0,0,0-.782-.131l-1.712.49-1.123-1.944,1.376-1.331a.921.921,0,0,0,.28-.693v-.032c0-.043,0-.086,0-.129,0-.094,0-.2.013-.322a.921.921,0,0,0-.279-.725l-1.311-1.268,1.123-1.945,1.8.514a.921.921,0,0,0,.756-.114,4.634,4.634,0,0,1,.471-.269.921.921,0,0,0,.485-.6l.428-1.714h2.245l.428,1.714a.921.921,0,0,0,.485.6,4.6,4.6,0,0,1,.567.332.92.92,0,0,0,.775.127l1.6-.459,1.123,1.945-1.231,1.191a.921.921,0,0,0-.279.716c.006.1.009.195.009.278,0,.141-.007.284-.021.436a.921.921,0,0,0,.277.748l1.171,1.132Z" transform="translate(-149.102 -141.586)"/>
      <path id="Trazado_1050151" data-name="Trazado 1050151" d="M70.32,16H50.065a.921.921,0,0,0-.921.921v5.524H38.1V16.921A.921.921,0,0,0,37.176,16H16.921a.921.921,0,0,0-.921.921V33.493a.921.921,0,0,0,.921.921H21.26l6.709,4.193V48.634L21.26,52.827H16.921a.921.921,0,0,0-.921.921V70.32a.921.921,0,0,0,.921.921H37.176a.921.921,0,0,0,.921-.921V64.8H49.144V70.32a.921.921,0,0,0,.921.921H70.32a.921.921,0,0,0,.921-.921V53.748a.921.921,0,0,0-.921-.921H65.981l-6.709-4.193V38.607l6.709-4.193H70.32a.921.921,0,0,0,.921-.921V16.921A.921.921,0,0,0,70.32,16ZM22.012,32.712a.92.92,0,0,0-.488-.14H17.841V17.841H36.255V32.572H28.889a.921.921,0,0,0-.921.921v2.942ZM25.207,69.4V66.637a.921.921,0,0,0-.27-.651l-1.408-1.408a3.7,3.7,0,0,1,.757-5.819v3.275a.921.921,0,0,0,.509.823l1.841.921a.921.921,0,0,0,.824,0l1.841-.921a.921.921,0,0,0,.509-.823V58.759a3.7,3.7,0,0,1,.757,5.819l-1.408,1.408a.921.921,0,0,0-.27.651V69.4Zm11.048,0H30.731V67.019l1.138-1.138a5.543,5.543,0,0,0-2.575-9.3l-.181-.045a.921.921,0,0,0-1.144.893v4.034l-.921.46-.921-.46V57.43a.921.921,0,0,0-1.144-.893l-.181.045a5.543,5.543,0,0,0-2.575,9.3l1.138,1.138V69.4H17.841V54.668h3.683a.92.92,0,0,0,.488-.14l5.957-3.723v2.942a.921.921,0,0,0,.921.921h7.365ZM38.1,62.955V53.748a.921.921,0,0,0-.921-.921H29.81V34.414h7.365a.921.921,0,0,0,.921-.921V24.286H49.144v9.207a.921.921,0,0,0,.921.921H57.43V52.827H50.065a.921.921,0,0,0-.921.921v9.207ZM62.034,24.286h-6.4a2.306,2.306,0,0,1,2.256-1.841h4.143Zm-.921,1.841v2.762H58.351V26.127ZM58.569,69.4l-1.018-.509a.217.217,0,0,1,.1-.412h5.089a.217.217,0,0,1,.1.412l-1.018.509Zm.656-7.657-.517-1.55h2.969l-.517,1.55a.921.921,0,0,0-.047.291v4.6H59.272v-4.6a.92.92,0,0,0-.047-.291Zm-.517-3.392.307-.921H61.37l.307.921Zm7.009-3.683H69.4V69.4H64.674a2.062,2.062,0,0,0-1.719-2.751V62.183l.873-2.62a.92.92,0,0,0,0-.582l-.921-2.762a.921.921,0,0,0-.873-.63H58.351a.921.921,0,0,0-.873.629l-.921,2.762a.92.92,0,0,0,0,.582l.873,2.62v4.465A2.062,2.062,0,0,0,55.711,69.4H50.986V54.668h7.365a.921.921,0,0,0,.921-.921V50.805l5.957,3.723a.92.92,0,0,0,.488.14Zm-7.365-22.1V30.731h2.762v4.553l-1.841,1.151V33.493a.921.921,0,0,0-.921-.921Zm11.048,0H65.717a.92.92,0,0,0-.488.14l-2.274,1.421V26.127a.919.919,0,0,0,.775-.425l.655.327a.92.92,0,0,0,.412.1h1.841a.921.921,0,0,0,.921-.921V21.524a.921.921,0,0,0-.921-.921H64.8a.92.92,0,0,0-.412.1l-.655.327a.919.919,0,0,0-.775-.425H57.891a4.148,4.148,0,0,0-4.143,4.143v.46a.921.921,0,0,0,.921.921H56.51v6.445H50.986V17.841H69.4ZM65.013,22.445h.7v1.841h-.7l-1.138-.569v-.7Z"/>
      <path id="Trazado_1050152" data-name="Trazado 1050152" d="M52.235,56.184a.921.921,0,0,0-1.289.184l-2.762,3.683a.921.921,0,0,0,0,1.1l2.762,3.683a.921.921,0,0,0,1.473-1.1L50.072,60.6l2.348-3.13A.921.921,0,0,0,52.235,56.184Z" transform="translate(-28.317 -35.396)"/>
      <path id="Trazado_1050153" data-name="Trazado 1050153" d="M136.368,65.022a.921.921,0,0,0,1.289-.184l2.762-3.683a.921.921,0,0,0,0-1.1l-2.762-3.683a.921.921,0,1,0-1.473,1.1l2.348,3.13-2.348,3.13A.921.921,0,0,0,136.368,65.022Z" transform="translate(-106.189 -35.396)"/>
      <path id="Trazado_1050154" data-name="Trazado 1050154" d="M98.985,56.026a.921.921,0,0,0-1.116.67l-1.841,7.365a.921.921,0,1,0,1.786.447l1.841-7.365A.921.921,0,0,0,98.985,56.026Z" transform="translate(-70.793 -35.395)"/>
      <circle id="Elipse_12516" data-name="Elipse 12516" cx="0.809" cy="0.809" r="0.809" transform="translate(42.811 54.945)"/>
      <ellipse id="Elipse_12517" data-name="Elipse 12517" cx="1.213" cy="0.809" rx="1.213" ry="0.809" transform="translate(38.767 54.945)"/>
      <ellipse id="Elipse_12518" data-name="Elipse 12518" cx="1.213" cy="0.809" rx="1.213" ry="0.809" transform="translate(46.047 54.945)"/>
    </g>
  </g>
</svg>
