<svg xmlns="http://www.w3.org/2000/svg" xmlns:xlink="http://www.w3.org/1999/xlink" width="108.914" height="108.914" viewBox="0 0 108.914 108.914">
  <defs>
    <filter id="Trazado_874925" x="0" y="0" width="108.914" height="108.914" filterUnits="userSpaceOnUse">
      <feOffset dy="3" input="SourceAlpha"/>
      <feGaussianBlur stdDeviation="3" result="blur"/>
      <feFlood flood-opacity="0.161"/>
      <feComposite operator="in" in2="blur"/>
      <feComposite in="SourceGraphic"/>
    </filter>
  </defs>
  <g id="Grupo_1181675" data-name="Grupo 1181675" transform="translate(2439.956 7767.51)">
    <g id="Grupo_1179793" data-name="Grupo 1179793" transform="translate(-2430.956 -7761.51)">
      <g id="Grupo_1179015" data-name="Grupo 1179015" transform="translate(0 0)">
        <g id="Grupo_1111527" data-name="Grupo 1111527" transform="translate(0 0)">
          <g id="Grupo_1111316" data-name="Grupo 1111316">
            <g id="Grupo_1109835" data-name="Grupo 1109835" transform="translate(0 0)">
              <g id="Grupo_1107913" data-name="Grupo 1107913" transform="translate(0 0)">
                <g transform="matrix(1, 0, 0, 1, -9, -6)" filter="url(#Trazado_874925)">
                  <g id="Trazado_874925-2" data-name="Trazado 874925" transform="translate(9 6)" fill="#fdf9d4" opacity="0.859">
                    <path d="M 45.45676803588867 89.41407012939453 C 39.52198028564453 89.41407012939453 33.76551818847656 88.25206756591797 28.34726715087891 85.96034240722656 C 23.11310577392578 83.74648284912109 18.41203117370605 80.57682800292969 14.37464332580566 76.5394287109375 C 10.33724308013916 72.50202941894531 7.167593002319336 67.80095672607422 4.953730583190918 62.56679534912109 C 2.662005424499512 57.14855575561523 1.500005483627319 51.39208221435547 1.500005483627319 45.45729446411133 C 1.500005483627319 39.52198028564453 2.662005424499512 33.76550674438477 4.953730583190918 28.34726905822754 C 7.167593002319336 23.11310577392578 10.33724308013916 18.41203117370605 14.37464332580566 14.37464332580566 C 18.41203117370605 10.33724403381348 23.11310577392578 7.167593955993652 28.34726715087891 4.953731060028076 C 33.76550674438477 2.662006139755249 39.52198028564453 1.500006198883057 45.45676803588867 1.500006198883057 C 51.39155578613281 1.500006198883057 57.14802932739258 2.662006139755249 62.56626892089844 4.953731060028076 C 67.80043029785156 7.167593955993652 72.50150299072266 10.33724403381348 76.53890228271484 14.37464332580566 C 80.57630920410156 18.41203117370605 83.74595642089844 23.11310577392578 85.95981597900391 28.34726905822754 C 88.25154113769531 33.76551818847656 89.41354370117188 39.52198028564453 89.41354370117188 45.45676803588867 C 89.41354370117188 51.39208221435547 88.25154113769531 57.14855575561523 85.95981597900391 62.56679534912109 C 83.74595642089844 67.80095672607422 80.57630920410156 72.50202941894531 76.53890228271484 76.5394287109375 C 72.50150299072266 80.57682800292969 67.80043029785156 83.74648284912109 62.56626892089844 85.96034240722656 C 57.14802932739258 88.25206756591797 51.39155578613281 89.41407012939453 45.45676803588867 89.41407012939453 Z" stroke="none"/>
                    <path d="M 45.45676803588867 3 C 39.72381210327148 3 34.1639404296875 4.12213134765625 28.93159484863281 6.335227966308594 C 23.87622833251953 8.473472595214844 19.33542633056641 11.53517150878906 15.43529510498047 15.435302734375 C 11.53517150878906 19.33543395996094 8.473464965820312 23.87622833251953 6.335227966308594 28.93160247802734 C 4.122123718261719 34.16394424438477 3 39.72381591796875 3 45.4572868347168 C 3 51.19024658203125 4.122123718261719 56.75011825561523 6.335227966308594 61.98246002197266 C 8.473464965820312 67.03782653808594 11.53517150878906 71.57862854003906 15.43529510498047 75.478759765625 C 19.33542633056641 79.37889099121094 23.87622833251953 82.44058990478516 28.93159484863281 84.57883453369141 C 34.1639404296875 86.79193115234375 39.72381210327148 87.9140625 45.45676803588867 87.9140625 C 51.18972396850586 87.9140625 56.74959564208984 86.79193115234375 61.98194122314453 84.57883453369141 C 67.03730773925781 82.44058990478516 71.57810974121094 79.37889099121094 75.47824096679688 75.478759765625 C 79.37837219238281 71.57862854003906 82.44007110595703 67.03782653808594 84.57830810546875 61.98246002197266 C 86.79141235351562 56.75011825561523 87.91353607177734 51.19024658203125 87.91353607177734 45.4567756652832 C 87.91353607177734 39.72381591796875 86.79141235351562 34.16394424438477 84.57830810546875 28.93160247802734 C 82.44007110595703 23.87622833251953 79.37837219238281 19.33543395996094 75.47824096679688 15.435302734375 C 71.57810974121094 11.53517150878906 67.03730773925781 8.473472595214844 61.98194122314453 6.335227966308594 C 56.74959564208984 4.12213134765625 51.18972396850586 3 45.45676803588867 3 M 45.45676803588867 0 C 70.56185150146484 0 90.91353607177734 20.35169219970703 90.91353607177734 45.4567756652832 L 90.91353607177734 45.4572868347168 C 90.91353607177734 70.5623779296875 70.56185150146484 90.9140625 45.45676803588867 90.9140625 C 20.3516845703125 90.9140625 0 70.5623779296875 0 45.4572868347168 L 0 45.4567756652832 C 0 20.35169219970703 20.3516845703125 0 45.45676803588867 0 Z" stroke="none" fill="#c7b622"/>
                  </g>
                </g>
                <g id="Trazado_874923" data-name="Trazado 874923" transform="translate(0)" fill="none">
                  <path d="M45.457,0A45.457,45.457,0,0,1,90.914,45.457h0A45.457,45.457,0,0,1,0,45.457H0A45.457,45.457,0,0,1,45.457,0Z" stroke="none"/>
                  <path d="M 45.45676803588867 3 C 39.72381210327148 3 34.1639404296875 4.12213134765625 28.93159484863281 6.335227966308594 C 23.87622833251953 8.473472595214844 19.33542633056641 11.53517150878906 15.43529510498047 15.435302734375 C 11.53517150878906 19.33543395996094 8.473464965820312 23.87622833251953 6.335227966308594 28.93160247802734 C 4.122123718261719 34.16394424438477 3 39.72381591796875 3 45.4572868347168 C 3 51.19024658203125 4.122123718261719 56.75011825561523 6.335227966308594 61.98246002197266 C 8.473464965820312 67.03782653808594 11.53517150878906 71.57862854003906 15.43529510498047 75.478759765625 C 19.33542633056641 79.37889099121094 23.87622833251953 82.44058990478516 28.93159484863281 84.57883453369141 C 34.1639404296875 86.79193115234375 39.72381210327148 87.9140625 45.45676803588867 87.9140625 C 51.18972396850586 87.9140625 56.74959564208984 86.79193115234375 61.98194122314453 84.57883453369141 C 67.03730773925781 82.44058990478516 71.57810974121094 79.37889099121094 75.47824096679688 75.478759765625 C 79.37837219238281 71.57862854003906 82.44007110595703 67.03782653808594 84.57830810546875 61.98246002197266 C 86.79141235351562 56.75011825561523 87.91353607177734 51.19024658203125 87.91353607177734 45.4567756652832 C 87.91353607177734 39.72381591796875 86.79141235351562 34.16394424438477 84.57830810546875 28.93160247802734 C 82.44007110595703 23.87622833251953 79.37837219238281 19.33543395996094 75.47824096679688 15.435302734375 C 71.57810974121094 11.53517150878906 67.03730773925781 8.473472595214844 61.98194122314453 6.335227966308594 C 56.74959564208984 4.12213134765625 51.18972396850586 3 45.45676803588867 3 M 45.45676803588867 0 C 70.56185150146484 0 90.91353607177734 20.35169219970703 90.91353607177734 45.4567756652832 L 90.91353607177734 45.4572868347168 C 90.91353607177734 70.5623779296875 70.56185150146484 90.9140625 45.45676803588867 90.9140625 C 20.3516845703125 90.9140625 0 70.5623779296875 0 45.4572868347168 L 0 45.4567756652832 C 0 20.35169219970703 20.3516845703125 0 45.45676803588867 0 Z" stroke="none" fill="#c7b622"/>
                </g>
              </g>
            </g>
          </g>
        </g>
      </g>
    </g>
    <g id="methodology_11856191" transform="translate(-2422.114 -7748.186)">
      <g id="Grupo_1181674" data-name="Grupo 1181674" transform="translate(9.655 0.903)">
        <path id="Trazado_1049903" data-name="Trazado 1049903" d="M132.763,10.981a12.371,12.371,0,0,0-3.115,1.291.75.75,0,0,1-.732.021l-1.815-.926a.755.755,0,0,0-.889.141l-1.84,1.84a.761.761,0,0,0-.144.892l.926,1.815a.742.742,0,0,1-.021.732,12.5,12.5,0,0,0-1.291,3.115.763.763,0,0,1-.506.537l-1.935.625a.761.761,0,0,0-.53.732v2.6a.756.756,0,0,0,.53.73l1.935.629a.743.743,0,0,1,.506.537,12.42,12.42,0,0,0,1.291,3.112.748.748,0,0,1,.021.736l-.926,1.815a.756.756,0,0,0,.144.889l1.84,1.84a.75.75,0,0,0,.889.141l1.815-.923a.748.748,0,0,1,.736.021,12.438,12.438,0,0,0,3.112,1.291.747.747,0,0,1,.537.506l.629,1.935a.755.755,0,0,0,.73.53h2.6a.756.756,0,0,0,.73-.53l.629-1.935a.749.749,0,0,1,.537-.506,12.5,12.5,0,0,0,3.115-1.291A.742.742,0,0,1,143,33.9l1.815.923a.75.75,0,0,0,.889-.141l1.842-1.84a.753.753,0,0,0,.141-.889l-.926-1.815a.748.748,0,0,1,.021-.736,12.437,12.437,0,0,0,1.291-3.112.747.747,0,0,1,.506-.537l1.935-.629a.755.755,0,0,0,.53-.73V21.8a.761.761,0,0,0-.53-.732l-1.935-.625a.761.761,0,0,1-.506-.537,12.5,12.5,0,0,0-1.291-3.115.742.742,0,0,1-.021-.732l.926-1.815a.761.761,0,0,0-.141-.892l-1.842-1.84a.753.753,0,0,0-.889-.141L143,12.293a.75.75,0,0,1-.732-.021,12.371,12.371,0,0,0-3.115-1.291.763.763,0,0,1-.537-.506l-.629-1.935a.755.755,0,0,0-.73-.53h-2.6a.756.756,0,0,0-.73.53l-.629,1.935a.759.759,0,0,1-.537.506Z" transform="translate(-109.249 -8.01)" fill="#2f5274" fill-rule="evenodd"/>
        <path id="Trazado_1049904" data-name="Trazado 1049904" d="M208.846,89.208a6.778,6.778,0,1,1-6.778-6.778A6.778,6.778,0,0,1,208.846,89.208Z" transform="translate(-175.36 -74.121)" fill="#ebf5fc" fill-rule="evenodd"/>
        <path id="Trazado_1049905" data-name="Trazado 1049905" d="M207.336,406.522a6.116,6.116,0,1,0-6.116-6.116A6.127,6.127,0,0,0,207.336,406.522Z" transform="translate(-180.628 -351.163)" fill="#70da40" fill-rule="evenodd"/>
        <path id="Trazado_1049906" data-name="Trazado 1049906" d="M17.969,394.15h9.884a1.2,1.2,0,0,1,1.192,1.189v9.884a1.193,1.193,0,0,1-1.192,1.189H17.969a1.192,1.192,0,0,1-1.189-1.189v-9.884A1.193,1.193,0,0,1,17.969,394.15Z" transform="translate(-16.78 -351.038)" fill="#ffd400" fill-rule="evenodd"/>
        <path id="Trazado_1049907" data-name="Trazado 1049907" d="M386.552,394.15h9.884a1.194,1.194,0,0,1,1.189,1.189v9.884a1.192,1.192,0,0,1-1.189,1.189h-9.884a1.193,1.193,0,0,1-1.192-1.189v-9.884A1.2,1.2,0,0,1,386.552,394.15Z" transform="translate(-344.209 -351.038)" fill="#ffd400" fill-rule="evenodd"/>
        <path id="Trazado_1049908" data-name="Trazado 1049908" d="M207.336,394.29a6.336,6.336,0,0,1,.641.034,6.116,6.116,0,0,0,0,12.165,6.344,6.344,0,0,1-.641.034,6.116,6.116,0,0,1,0-12.232Z" transform="translate(-180.628 -351.163)" fill="#65c43a" fill-rule="evenodd"/>
        <path id="Trazado_1049909" data-name="Trazado 1049909" d="M17.969,394.15h1.285a1.194,1.194,0,0,0-1.189,1.189v9.884a1.192,1.192,0,0,0,1.189,1.189H17.969a1.192,1.192,0,0,1-1.189-1.189v-9.884A1.193,1.193,0,0,1,17.969,394.15Z" transform="translate(-16.78 -351.038)" fill="#e6bf00" fill-rule="evenodd"/>
        <path id="Trazado_1049910" data-name="Trazado 1049910" d="M386.552,394.15h1.285a1.2,1.2,0,0,0-1.192,1.189v9.884a1.193,1.193,0,0,0,1.192,1.189h-1.285a1.193,1.193,0,0,1-1.192-1.189v-9.884A1.2,1.2,0,0,1,386.552,394.15Z" transform="translate(-344.209 -351.038)" fill="#e6bf00" fill-rule="evenodd"/>
        <path id="Trazado_1049911" data-name="Trazado 1049911" d="M202.906,95.944a6.854,6.854,0,0,1-.837.052,6.778,6.778,0,1,1,0-13.556,6.662,6.662,0,0,1,.837.052,6.777,6.777,0,0,0,0,13.451Z" transform="translate(-175.36 -74.13)" fill="#d4dde3" fill-rule="evenodd"/>
        <path id="Trazado_1049912" data-name="Trazado 1049912" d="M132.763,10.981a12.422,12.422,0,0,0-2.548.978l.653.334a.757.757,0,0,0,.736-.021,12.286,12.286,0,0,1,3.115-1.291.756.756,0,0,0,.534-.506l.629-1.935a.757.757,0,0,1,.73-.53h-1.953a.756.756,0,0,0-.73.53l-.629,1.935A.759.759,0,0,1,132.763,10.981Zm-4.866.794-.8-.408a.755.755,0,0,0-.889.141l-1.84,1.84a.761.761,0,0,0-.144.892l.926,1.815a.742.742,0,0,1-.021.732,12.5,12.5,0,0,0-1.291,3.115.757.757,0,0,1-.506.537l-1.935.625a.761.761,0,0,0-.53.732v2.6a.756.756,0,0,0,.53.73l1.935.629a.743.743,0,0,1,.506.537,12.42,12.42,0,0,0,1.291,3.112.748.748,0,0,1,.021.736l-.926,1.815a.756.756,0,0,0,.144.889l1.84,1.84a.75.75,0,0,0,.889.141l.8-.4-1.573-1.575a.753.753,0,0,1-.141-.889l.923-1.815a.748.748,0,0,0-.021-.736,12.521,12.521,0,0,1-1.291-3.112.747.747,0,0,0-.506-.537l-1.932-.629a.755.755,0,0,1-.53-.73V21.8a.761.761,0,0,1,.53-.732l1.932-.625a.749.749,0,0,0,.506-.537,12.622,12.622,0,0,1,1.291-3.115.742.742,0,0,0,.021-.732l-.923-1.815a.761.761,0,0,1,.141-.892Zm2.318,22.46a12.4,12.4,0,0,0,2.548.978.747.747,0,0,1,.537.506l.629,1.935a.755.755,0,0,0,.73.53h1.953a.759.759,0,0,1-.73-.53l-.629-1.935a.744.744,0,0,0-.534-.506,12.409,12.409,0,0,1-3.115-1.291.748.748,0,0,0-.736-.021Z" transform="translate(-109.249 -8.01)" fill="#2a4a68" fill-rule="evenodd"/>
      </g>
      <path id="Trazado_1049913" data-name="Trazado 1049913" d="M44.035,15.99a7.671,7.671,0,1,0-7.671,7.671,7.68,7.68,0,0,0,7.671-7.671Zm-13.557,0a5.886,5.886,0,1,1,5.886,5.886A5.893,5.893,0,0,1,30.478,15.99ZM35.857,50.56l2.718-2.717A.892.892,0,0,1,39.836,49.1l-3.348,3.348a.892.892,0,0,1-1.262,0L32.89,50.116a.892.892,0,1,1,1.262-1.262Zm26.025-7.438H57.834V38.371a.892.892,0,0,0-.892-.892H37.256v-5.51h.409a1.657,1.657,0,0,0,1.58-1.149l.606-1.87a13.2,13.2,0,0,0,3.211-1.331l1.758.9a1.642,1.642,0,0,0,1.923-.309l1.839-1.839a1.662,1.662,0,0,0,.307-1.929L48,22.688a13.533,13.533,0,0,0,1.332-3.213l1.866-.607a1.654,1.654,0,0,0,1.15-1.578v-2.6a1.657,1.657,0,0,0-1.148-1.58L49.328,12.5A13.54,13.54,0,0,0,48,9.287l.894-1.754a1.652,1.652,0,0,0-.307-1.923L46.74,3.764a1.638,1.638,0,0,0-1.924-.3l-1.753.892a13.311,13.311,0,0,0-3.211-1.331l-.606-1.872A1.656,1.656,0,0,0,37.667.01h-2.6a1.658,1.658,0,0,0-1.58,1.146l-.606,1.87a13.293,13.293,0,0,0-3.211,1.331l-1.752-.89a1.652,1.652,0,0,0-1.93.3L24.152,5.606a1.642,1.642,0,0,0-.31,1.929l.892,1.751A13.394,13.394,0,0,0,23.4,12.5l-1.866.607a1.655,1.655,0,0,0-1.149,1.58v2.6a1.654,1.654,0,0,0,1.148,1.576l1.868.608a13.408,13.408,0,0,0,1.332,3.213l-.891,1.747a1.653,1.653,0,0,0,.3,1.933L25.98,28.2a1.651,1.651,0,0,0,1.929.31l1.756-.894a13.157,13.157,0,0,0,3.211,1.331l.605,1.869a1.655,1.655,0,0,0,1.58,1.149h.409v5.51H15.786a.892.892,0,0,0-.892.892V43.12H10.842A2.084,2.084,0,0,0,8.76,45.2v9.884a2.084,2.084,0,0,0,2.082,2.082h9.886a2.084,2.084,0,0,0,2.082-2.082V45.2a2.085,2.085,0,0,0-2.082-2.082H16.679V39.264H35.472V43.2a7.008,7.008,0,1,0,1.785,0V39.264H56.049v3.857H52A2.084,2.084,0,0,0,49.917,45.2v9.884A2.084,2.084,0,0,0,52,57.17h9.884a2.087,2.087,0,0,0,2.086-2.082V45.2a2.088,2.088,0,0,0-2.087-2.082ZM34.552,28.329a1.646,1.646,0,0,0-1.157-1.087,11.387,11.387,0,0,1-2.888-1.2l-.01-.006A1.642,1.642,0,0,0,28.913,26l-1.731.882-1.712-1.712.886-1.738a1.633,1.633,0,0,0-.049-1.583,11.582,11.582,0,0,1-1.2-2.886A1.644,1.644,0,0,0,24.02,17.8l-1.849-.6V14.78l1.849-.6a1.638,1.638,0,0,0,1.09-1.157,11.581,11.581,0,0,1,1.2-2.888,1.635,1.635,0,0,0,.048-1.592L25.472,6.81,27.182,5.1l1.731.879a1.637,1.637,0,0,0,1.6-.042,11.506,11.506,0,0,1,2.891-1.2h0a1.646,1.646,0,0,0,1.152-1.093l.6-1.848h2.423l.6,1.842a1.634,1.634,0,0,0,1.157,1.1,11.584,11.584,0,0,1,2.894,1.2,1.631,1.631,0,0,0,1.591.042L45.546,5.1l1.71,1.713-.881,1.728a1.623,1.623,0,0,0,.045,1.59,11.7,11.7,0,0,1,1.2,2.885,1.618,1.618,0,0,0,1.092,1.164l1.849.6V17.2l-1.846.6a1.638,1.638,0,0,0-1.093,1.157,11.735,11.735,0,0,1-1.2,2.888,1.622,1.622,0,0,0-.048,1.592l.883,1.733-1.713,1.713L43.818,26a1.644,1.644,0,0,0-1.585.037l-.01.006a11.413,11.413,0,0,1-2.9,1.2,1.633,1.633,0,0,0-1.152,1.093l-.6,1.848H35.156ZM21.027,45.2v9.884a.3.3,0,0,1-.3.3H10.842a.3.3,0,0,1-.3-.3V45.2a.3.3,0,0,1,.3-.3h9.886A.3.3,0,0,1,21.027,45.2Zm20.559,4.944a5.223,5.223,0,1,1-5.222-5.225A5.228,5.228,0,0,1,41.585,50.148Zm20.6,4.94a.3.3,0,0,1-.3.3H52a.3.3,0,0,1-.3-.3V45.2a.3.3,0,0,1,.3-.3h9.884a.3.3,0,0,1,.3.3Z"/>
    </g>
  </g>
</svg>
