<svg xmlns="http://www.w3.org/2000/svg" xmlns:xlink="http://www.w3.org/1999/xlink" width="108.914" height="108.914" viewBox="0 0 108.914 108.914">
  <defs>
    <filter id="Trazado_874925" x="0" y="0" width="108.914" height="108.914" filterUnits="userSpaceOnUse">
      <feOffset dy="3" input="SourceAlpha"/>
      <feGaussianBlur stdDeviation="3" result="blur"/>
      <feFlood flood-opacity="0.161"/>
      <feComposite operator="in" in2="blur"/>
      <feComposite in="SourceGraphic"/>
    </filter>
  </defs>
  <g id="Grupo_1181724" data-name="Grupo 1181724" transform="translate(-690.66 -3201.157)">
    <g id="Grupo_1179940" data-name="Grupo 1179940" transform="translate(699.66 3207.157)">
      <g id="Grupo_1179015" data-name="Grupo 1179015" transform="translate(0 0)">
        <g id="Grupo_1111527" data-name="Grupo 1111527" transform="translate(0 0)">
          <g id="Grupo_1111316" data-name="Grupo 1111316">
            <g id="Grupo_1109835" data-name="Grupo 1109835" transform="translate(0 0)">
              <g id="Grupo_1107913" data-name="Grupo 1107913" transform="translate(0 0)">
                <g transform="matrix(1, 0, 0, 1, -9, -6)" filter="url(#Trazado_874925)">
                  <g id="Trazado_874925-2" data-name="Trazado 874925" transform="translate(9 6)" fill="#fdf9d4" opacity="0.859">
                    <path d="M 45.45676803588867 89.41407012939453 C 39.52198028564453 89.41407012939453 33.76551818847656 88.25206756591797 28.34726715087891 85.96034240722656 C 23.11310577392578 83.74648284912109 18.41203117370605 80.57682800292969 14.37464332580566 76.5394287109375 C 10.33724308013916 72.50202941894531 7.167593002319336 67.80095672607422 4.953730583190918 62.56679534912109 C 2.662005424499512 57.14855575561523 1.500005483627319 51.39208221435547 1.500005483627319 45.45729446411133 C 1.500005483627319 39.52198028564453 2.662005424499512 33.76550674438477 4.953730583190918 28.34726905822754 C 7.167593002319336 23.11310577392578 10.33724308013916 18.41203117370605 14.37464332580566 14.37464332580566 C 18.41203117370605 10.33724403381348 23.11310577392578 7.167593955993652 28.34726715087891 4.953731060028076 C 33.76550674438477 2.662006139755249 39.52198028564453 1.500006198883057 45.45676803588867 1.500006198883057 C 51.39155578613281 1.500006198883057 57.14802932739258 2.662006139755249 62.56626892089844 4.953731060028076 C 67.80043029785156 7.167593955993652 72.50150299072266 10.33724403381348 76.53890228271484 14.37464332580566 C 80.57630920410156 18.41203117370605 83.74595642089844 23.11310577392578 85.95981597900391 28.34726905822754 C 88.25154113769531 33.76551818847656 89.41354370117188 39.52198028564453 89.41354370117188 45.45676803588867 C 89.41354370117188 51.39208221435547 88.25154113769531 57.14855575561523 85.95981597900391 62.56679534912109 C 83.74595642089844 67.80095672607422 80.57630920410156 72.50202941894531 76.53890228271484 76.5394287109375 C 72.50150299072266 80.57682800292969 67.80043029785156 83.74648284912109 62.56626892089844 85.96034240722656 C 57.14802932739258 88.25206756591797 51.39155578613281 89.41407012939453 45.45676803588867 89.41407012939453 Z" stroke="none"/>
                    <path d="M 45.45676803588867 3 C 39.72381210327148 3 34.1639404296875 4.12213134765625 28.93159484863281 6.335227966308594 C 23.87622833251953 8.473472595214844 19.33542633056641 11.53517150878906 15.43529510498047 15.435302734375 C 11.53517150878906 19.33543395996094 8.473464965820312 23.87622833251953 6.335227966308594 28.93160247802734 C 4.122123718261719 34.16394424438477 3 39.72381591796875 3 45.4572868347168 C 3 51.19024658203125 4.122123718261719 56.75011825561523 6.335227966308594 61.98246002197266 C 8.473464965820312 67.03782653808594 11.53517150878906 71.57862854003906 15.43529510498047 75.478759765625 C 19.33542633056641 79.37889099121094 23.87622833251953 82.44058990478516 28.93159484863281 84.57883453369141 C 34.1639404296875 86.79193115234375 39.72381210327148 87.9140625 45.45676803588867 87.9140625 C 51.18972396850586 87.9140625 56.74959564208984 86.79193115234375 61.98194122314453 84.57883453369141 C 67.03730773925781 82.44058990478516 71.57810974121094 79.37889099121094 75.47824096679688 75.478759765625 C 79.37837219238281 71.57862854003906 82.44007110595703 67.03782653808594 84.57830810546875 61.98246002197266 C 86.79141235351562 56.75011825561523 87.91353607177734 51.19024658203125 87.91353607177734 45.4567756652832 C 87.91353607177734 39.72381591796875 86.79141235351562 34.16394424438477 84.57830810546875 28.93160247802734 C 82.44007110595703 23.87622833251953 79.37837219238281 19.33543395996094 75.47824096679688 15.435302734375 C 71.57810974121094 11.53517150878906 67.03730773925781 8.473472595214844 61.98194122314453 6.335227966308594 C 56.74959564208984 4.12213134765625 51.18972396850586 3 45.45676803588867 3 M 45.45676803588867 0 C 70.56185150146484 0 90.91353607177734 20.35169219970703 90.91353607177734 45.4567756652832 L 90.91353607177734 45.4572868347168 C 90.91353607177734 70.5623779296875 70.56185150146484 90.9140625 45.45676803588867 90.9140625 C 20.3516845703125 90.9140625 0 70.5623779296875 0 45.4572868347168 L 0 45.4567756652832 C 0 20.35169219970703 20.3516845703125 0 45.45676803588867 0 Z" stroke="none" fill="#c7b622"/>
                  </g>
                </g>
                <g id="Trazado_874923" data-name="Trazado 874923" transform="translate(0)" fill="none">
                  <path d="M45.457,0A45.457,45.457,0,0,1,90.914,45.457h0A45.457,45.457,0,0,1,0,45.457H0A45.457,45.457,0,0,1,45.457,0Z" stroke="none"/>
                  <path d="M 45.45676803588867 3 C 39.72381210327148 3 34.1639404296875 4.12213134765625 28.93159484863281 6.335227966308594 C 23.87622833251953 8.473472595214844 19.33542633056641 11.53517150878906 15.43529510498047 15.435302734375 C 11.53517150878906 19.33543395996094 8.473464965820312 23.87622833251953 6.335227966308594 28.93160247802734 C 4.122123718261719 34.16394424438477 3 39.72381591796875 3 45.4572868347168 C 3 51.19024658203125 4.122123718261719 56.75011825561523 6.335227966308594 61.98246002197266 C 8.473464965820312 67.03782653808594 11.53517150878906 71.57862854003906 15.43529510498047 75.478759765625 C 19.33542633056641 79.37889099121094 23.87622833251953 82.44058990478516 28.93159484863281 84.57883453369141 C 34.1639404296875 86.79193115234375 39.72381210327148 87.9140625 45.45676803588867 87.9140625 C 51.18972396850586 87.9140625 56.74959564208984 86.79193115234375 61.98194122314453 84.57883453369141 C 67.03730773925781 82.44058990478516 71.57810974121094 79.37889099121094 75.47824096679688 75.478759765625 C 79.37837219238281 71.57862854003906 82.44007110595703 67.03782653808594 84.57830810546875 61.98246002197266 C 86.79141235351562 56.75011825561523 87.91353607177734 51.19024658203125 87.91353607177734 45.4567756652832 C 87.91353607177734 39.72381591796875 86.79141235351562 34.16394424438477 84.57830810546875 28.93160247802734 C 82.44007110595703 23.87622833251953 79.37837219238281 19.33543395996094 75.47824096679688 15.435302734375 C 71.57810974121094 11.53517150878906 67.03730773925781 8.473472595214844 61.98194122314453 6.335227966308594 C 56.74959564208984 4.12213134765625 51.18972396850586 3 45.45676803588867 3 M 45.45676803588867 0 C 70.56185150146484 0 90.91353607177734 20.35169219970703 90.91353607177734 45.4567756652832 L 90.91353607177734 45.4572868347168 C 90.91353607177734 70.5623779296875 70.56185150146484 90.9140625 45.45676803588867 90.9140625 C 20.3516845703125 90.9140625 0 70.5623779296875 0 45.4572868347168 L 0 45.4567756652832 C 0 20.35169219970703 20.3516845703125 0 45.45676803588867 0 Z" stroke="none" fill="#c7b622"/>
                </g>
              </g>
            </g>
          </g>
        </g>
      </g>
    </g>
    <g id="code_2752806" transform="translate(713.102 3221)">
      <g id="Grupo_1181722" data-name="Grupo 1181722">
        <g id="Grupo_1181719" data-name="Grupo 1181719">
          <path id="Trazado_1050117" data-name="Trazado 1050117" d="M58,2H26a4,4,0,0,0-4,4V18a4,4,0,0,0,4,4H43v4.59a1.414,1.414,0,0,0,2.41,1L51,22h7a4,4,0,0,0,4-4V6A4,4,0,0,0,58,2Z" fill="#e6e9ed"/>
        </g>
        <g id="Grupo_1181720" data-name="Grupo 1181720">
          <path id="Trazado_1050118" data-name="Trazado 1050118" d="M35.52,40.16a15.661,15.661,0,0,0-1.84-4.42l1.17-2.35-4.24-4.24-2.35,1.17a15.661,15.661,0,0,0-4.42-1.84L23,26H17l-.84,2.48a15.661,15.661,0,0,0-4.42,1.84L9.39,29.15,5.15,33.39l1.17,2.35a15.661,15.661,0,0,0-1.84,4.42L2,41v6l2.48.84a15.661,15.661,0,0,0,1.84,4.42L5.15,54.61l4.24,4.24,2.35-1.17a15.661,15.661,0,0,0,4.42,1.84L17,62h6l.84-2.48a15.661,15.661,0,0,0,4.42-1.84l2.35,1.17,4.24-4.24-1.17-2.35a15.661,15.661,0,0,0,1.84-4.42L38,47V41ZM20,56A12,12,0,1,1,32,44,12,12,0,0,1,20,56Z" fill="#fcd770"/>
        </g>
        <g id="Grupo_1181721" data-name="Grupo 1181721">
          <path id="Trazado_1050119" data-name="Trazado 1050119" d="M62,47v1a8.113,8.113,0,0,1-7,4,7.982,7.982,0,0,1-6.43-3.25A4.148,4.148,0,0,0,45.27,47H38V41h7.27a4.148,4.148,0,0,0,3.3-1.75A7.982,7.982,0,0,1,55,36a8.113,8.113,0,0,1,7,4v1H56.73A1.724,1.724,0,0,0,55,42.73v2.54A1.724,1.724,0,0,0,56.73,47Z" fill="#ccd1d9"/>
        </g>
      </g>
      <g id="Grupo_1181723" data-name="Grupo 1181723">
        <path id="Trazado_1050120" data-name="Trazado 1050120" d="M55,35a9.037,9.037,0,0,0-7.234,3.652A3.132,3.132,0,0,1,45.266,40h-7.1l-1.817-.612A16.888,16.888,0,0,0,34.82,35.7l1.244-2.509-5.258-5.258L28.3,29.18a16.868,16.868,0,0,0-3.685-1.527L23.718,25H16.281l-.894,2.653A16.888,16.888,0,0,0,11.7,29.18L9.193,27.936,3.935,33.194,5.179,35.7a16.868,16.868,0,0,0-1.527,3.685L1,40.282v7.437l2.653.894A16.888,16.888,0,0,0,5.18,52.3L3.936,54.807l5.258,5.258L11.7,58.821a16.868,16.868,0,0,0,3.685,1.527L16.282,63h7.437l.894-2.653A16.888,16.888,0,0,0,28.3,58.82l2.509,1.244,5.258-5.258L34.821,52.3a16.867,16.867,0,0,0,1.527-3.685L38.164,48h7.1a3.132,3.132,0,0,1,2.5,1.348,9.062,9.062,0,0,0,15.1-.847L63,48.269V46H56.729A.73.73,0,0,1,56,45.271V42.728A.73.73,0,0,1,56.729,42H63V39.731l-.135-.233A9.1,9.1,0,0,0,55,35ZM37,46.282l-2.322.782-.131.533a14.841,14.841,0,0,1-1.718,4.144l-.285.47,1.09,2.2-3.227,3.227-2.2-1.09-.47.285A14.9,14.9,0,0,1,23.6,58.547l-.533.131L22.282,61H17.719l-.782-2.322-.533-.131a14.841,14.841,0,0,1-4.144-1.718l-.47-.285-2.2,1.09L6.367,54.407l1.09-2.2-.285-.47A14.9,14.9,0,0,1,5.454,47.6l-.131-.533L3,46.282V41.719l2.322-.782.131-.533A14.841,14.841,0,0,1,7.171,36.26l.285-.47-1.09-2.2,3.227-3.227,2.2,1.09.47-.285A14.9,14.9,0,0,1,16.4,29.454l.533-.131L17.718,27h4.563l.782,2.322.533.131a14.841,14.841,0,0,1,4.144,1.718l.47.285,2.2-1.09,3.227,3.227-1.09,2.2.285.47A14.9,14.9,0,0,1,34.546,40.4l.131.533L37,41.718ZM56.729,40A2.732,2.732,0,0,0,54,42.729v2.543A2.732,2.732,0,0,0,56.729,48h4.086A7.109,7.109,0,0,1,55,51a6.934,6.934,0,0,1-5.625-2.841A5.117,5.117,0,0,0,45.266,46H39V42h6.266a5.11,5.11,0,0,0,4.108-2.159A6.938,6.938,0,0,1,55,37a7.109,7.109,0,0,1,5.814,3Z"/>
        <path id="Trazado_1050121" data-name="Trazado 1050121" d="M20,31A13,13,0,1,0,33,44,13.015,13.015,0,0,0,20,31Zm0,24A11,11,0,1,1,31,44,11.013,11.013,0,0,1,20,55Z"/>
        <path id="Trazado_1050122" data-name="Trazado 1050122" d="M23.293,40.707,26.586,44l-3.293,3.293,1.414,1.414L29.414,44l-4.707-4.707Z"/>
        <path id="Trazado_1050123" data-name="Trazado 1050123" d="M13.414,44l3.293-3.293-1.414-1.414L10.586,44l4.707,4.707,1.414-1.414Z"/>
        <path id="Trazado_1050124" data-name="Trazado 1050124" d="M11.456,43H28.544v2H11.456Z" transform="translate(-28.221 47.277) rotate(-69.444)"/>
        <path id="Trazado_1050125" data-name="Trazado 1050125" d="M27,7.5a.5.5,0,0,1-.5.5H25v2h1.5a.5.5,0,0,1,.5.5A2.5,2.5,0,0,0,29.5,13H31V11H29.5a.5.5,0,0,1-.5-.5A2.471,2.471,0,0,0,28.487,9,2.471,2.471,0,0,0,29,7.5a.5.5,0,0,1,.5-.5H31V5H29.5A2.5,2.5,0,0,0,27,7.5Z"/>
        <path id="Trazado_1050126" data-name="Trazado 1050126" d="M57,13.5A2.5,2.5,0,0,0,54.5,11H53v2h1.5a.5.5,0,0,1,.5.5,2.471,2.471,0,0,0,.513,1.5A2.471,2.471,0,0,0,55,16.5a.5.5,0,0,1-.5.5H53v2h1.5A2.5,2.5,0,0,0,57,16.5a.5.5,0,0,1,.5-.5H59V14H57.5A.5.5,0,0,1,57,13.5Z"/>
        <path id="Trazado_1050127" data-name="Trazado 1050127" d="M33,5h2V7H33Z"/>
        <path id="Trazado_1050128" data-name="Trazado 1050128" d="M37,5H51V7H37Z"/>
        <path id="Trazado_1050129" data-name="Trazado 1050129" d="M33,9H51v2H33Z"/>
        <path id="Trazado_1050130" data-name="Trazado 1050130" d="M33,13H51v2H33Z"/>
        <path id="Trazado_1050131" data-name="Trazado 1050131" d="M49,17h2v2H49Z"/>
        <path id="Trazado_1050132" data-name="Trazado 1050132" d="M33,17H47v2H33Z"/>
        <path id="Trazado_1050133" data-name="Trazado 1050133" d="M58,1H26a5.006,5.006,0,0,0-5,5V18a5.006,5.006,0,0,0,5,5H42v3.586a2.414,2.414,0,0,0,4.121,1.707L51.414,23H58a5.006,5.006,0,0,0,5-5V6A5.006,5.006,0,0,0,58,1Zm3,17a3,3,0,0,1-3,3H50.586l-5.879,5.879A.43.43,0,0,1,44,26.586V21H26a3,3,0,0,1-3-3V6a3,3,0,0,1,3-3H58a3,3,0,0,1,3,3Z"/>
      </g>
    </g>
  </g>
</svg>
