<svg xmlns="http://www.w3.org/2000/svg" xmlns:xlink="http://www.w3.org/1999/xlink" width="108.914" height="108.914" viewBox="0 0 108.914 108.914">
  <defs>
    <filter id="Trazado_874925" x="0" y="0" width="108.914" height="108.914" filterUnits="userSpaceOnUse">
      <feOffset dy="3" input="SourceAlpha"/>
      <feGaussianBlur stdDeviation="3" result="blur"/>
      <feFlood flood-opacity="0.161"/>
      <feComposite operator="in" in2="blur"/>
      <feComposite in="SourceGraphic"/>
    </filter>
    <clipPath id="clip-path">
      <path id="path9578" d="M0-682.665H65.8v65.8H0Z" transform="translate(0 682.665)"/>
    </clipPath>
  </defs>
  <g id="Grupo_1181637" data-name="Grupo 1181637" transform="translate(-375.284 -3840.49)">
    <g id="Grupo_1179790" data-name="Grupo 1179790" transform="translate(384.284 3846.49)">
      <g id="Grupo_1179014" data-name="Grupo 1179014" transform="translate(0 0)">
        <g id="Grupo_1111527" data-name="Grupo 1111527" transform="translate(0 0)">
          <g id="Grupo_1111316" data-name="Grupo 1111316">
            <g id="Grupo_1109835" data-name="Grupo 1109835" transform="translate(0 0)">
              <g id="Grupo_1107913" data-name="Grupo 1107913" transform="translate(0 0)">
                <g transform="matrix(1, 0, 0, 1, -9, -6)" filter="url(#Trazado_874925)">
                  <g id="Trazado_874925-2" data-name="Trazado 874925" transform="translate(9 6)" fill="#fdf9d4" opacity="0.859">
                    <path d="M 45.45676803588867 89.41407012939453 C 39.52198028564453 89.41407012939453 33.76551818847656 88.25206756591797 28.34726715087891 85.96034240722656 C 23.11310577392578 83.74648284912109 18.41203117370605 80.57682800292969 14.37464332580566 76.5394287109375 C 10.33724308013916 72.50202941894531 7.167593002319336 67.80095672607422 4.953730583190918 62.56679534912109 C 2.662005424499512 57.14855575561523 1.500005483627319 51.39208221435547 1.500005483627319 45.45729446411133 C 1.500005483627319 39.52198028564453 2.662005424499512 33.76550674438477 4.953730583190918 28.34726905822754 C 7.167593002319336 23.11310577392578 10.33724308013916 18.41203117370605 14.37464332580566 14.37464332580566 C 18.41203117370605 10.33724403381348 23.11310577392578 7.167593955993652 28.34726715087891 4.953731060028076 C 33.76550674438477 2.662006139755249 39.52198028564453 1.500006198883057 45.45676803588867 1.500006198883057 C 51.39155578613281 1.500006198883057 57.14802932739258 2.662006139755249 62.56626892089844 4.953731060028076 C 67.80043029785156 7.167593955993652 72.50150299072266 10.33724403381348 76.53890228271484 14.37464332580566 C 80.57630920410156 18.41203117370605 83.74595642089844 23.11310577392578 85.95981597900391 28.34726905822754 C 88.25154113769531 33.76551818847656 89.41354370117188 39.52198028564453 89.41354370117188 45.45676803588867 C 89.41354370117188 51.39208221435547 88.25154113769531 57.14855575561523 85.95981597900391 62.56679534912109 C 83.74595642089844 67.80095672607422 80.57630920410156 72.50202941894531 76.53890228271484 76.5394287109375 C 72.50150299072266 80.57682800292969 67.80043029785156 83.74648284912109 62.56626892089844 85.96034240722656 C 57.14802932739258 88.25206756591797 51.39155578613281 89.41407012939453 45.45676803588867 89.41407012939453 Z" stroke="none"/>
                    <path d="M 45.45676803588867 3 C 39.72381210327148 3 34.1639404296875 4.12213134765625 28.93159484863281 6.335227966308594 C 23.87622833251953 8.473472595214844 19.33542633056641 11.53517150878906 15.43529510498047 15.435302734375 C 11.53517150878906 19.33543395996094 8.473464965820312 23.87622833251953 6.335227966308594 28.93160247802734 C 4.122123718261719 34.16394424438477 3 39.72381591796875 3 45.4572868347168 C 3 51.19024658203125 4.122123718261719 56.75011825561523 6.335227966308594 61.98246002197266 C 8.473464965820312 67.03782653808594 11.53517150878906 71.57862854003906 15.43529510498047 75.478759765625 C 19.33542633056641 79.37889099121094 23.87622833251953 82.44058990478516 28.93159484863281 84.57883453369141 C 34.1639404296875 86.79193115234375 39.72381210327148 87.9140625 45.45676803588867 87.9140625 C 51.18972396850586 87.9140625 56.74959564208984 86.79193115234375 61.98194122314453 84.57883453369141 C 67.03730773925781 82.44058990478516 71.57810974121094 79.37889099121094 75.47824096679688 75.478759765625 C 79.37837219238281 71.57862854003906 82.44007110595703 67.03782653808594 84.57830810546875 61.98246002197266 C 86.79141235351562 56.75011825561523 87.91353607177734 51.19024658203125 87.91353607177734 45.4567756652832 C 87.91353607177734 39.72381591796875 86.79141235351562 34.16394424438477 84.57830810546875 28.93160247802734 C 82.44007110595703 23.87622833251953 79.37837219238281 19.33543395996094 75.47824096679688 15.435302734375 C 71.57810974121094 11.53517150878906 67.03730773925781 8.473472595214844 61.98194122314453 6.335227966308594 C 56.74959564208984 4.12213134765625 51.18972396850586 3 45.45676803588867 3 M 45.45676803588867 0 C 70.56185150146484 0 90.91353607177734 20.35169219970703 90.91353607177734 45.4567756652832 L 90.91353607177734 45.4572868347168 C 90.91353607177734 70.5623779296875 70.56185150146484 90.9140625 45.45676803588867 90.9140625 C 20.3516845703125 90.9140625 0 70.5623779296875 0 45.4572868347168 L 0 45.4567756652832 C 0 20.35169219970703 20.3516845703125 0 45.45676803588867 0 Z" stroke="none" fill="#c7b622"/>
                  </g>
                </g>
                <g id="Trazado_874923" data-name="Trazado 874923" transform="translate(0)" fill="none">
                  <path d="M45.457,0A45.457,45.457,0,0,1,90.914,45.457h0A45.457,45.457,0,0,1,0,45.457H0A45.457,45.457,0,0,1,45.457,0Z" stroke="none"/>
                  <path d="M 45.45676803588867 3 C 39.72381210327148 3 34.1639404296875 4.12213134765625 28.93159484863281 6.335227966308594 C 23.87622833251953 8.473472595214844 19.33542633056641 11.53517150878906 15.43529510498047 15.435302734375 C 11.53517150878906 19.33543395996094 8.473464965820312 23.87622833251953 6.335227966308594 28.93160247802734 C 4.122123718261719 34.16394424438477 3 39.72381591796875 3 45.4572868347168 C 3 51.19024658203125 4.122123718261719 56.75011825561523 6.335227966308594 61.98246002197266 C 8.473464965820312 67.03782653808594 11.53517150878906 71.57862854003906 15.43529510498047 75.478759765625 C 19.33542633056641 79.37889099121094 23.87622833251953 82.44058990478516 28.93159484863281 84.57883453369141 C 34.1639404296875 86.79193115234375 39.72381210327148 87.9140625 45.45676803588867 87.9140625 C 51.18972396850586 87.9140625 56.74959564208984 86.79193115234375 61.98194122314453 84.57883453369141 C 67.03730773925781 82.44058990478516 71.57810974121094 79.37889099121094 75.47824096679688 75.478759765625 C 79.37837219238281 71.57862854003906 82.44007110595703 67.03782653808594 84.57830810546875 61.98246002197266 C 86.79141235351562 56.75011825561523 87.91353607177734 51.19024658203125 87.91353607177734 45.4567756652832 C 87.91353607177734 39.72381591796875 86.79141235351562 34.16394424438477 84.57830810546875 28.93160247802734 C 82.44007110595703 23.87622833251953 79.37837219238281 19.33543395996094 75.47824096679688 15.435302734375 C 71.57810974121094 11.53517150878906 67.03730773925781 8.473472595214844 61.98194122314453 6.335227966308594 C 56.74959564208984 4.12213134765625 51.18972396850586 3 45.45676803588867 3 M 45.45676803588867 0 C 70.56185150146484 0 90.91353607177734 20.35169219970703 90.91353607177734 45.4567756652832 L 90.91353607177734 45.4572868347168 C 90.91353607177734 70.5623779296875 70.56185150146484 90.9140625 45.45676803588867 90.9140625 C 20.3516845703125 90.9140625 0 70.5623779296875 0 45.4572868347168 L 0 45.4567756652832 C 0 20.35169219970703 20.3516845703125 0 45.45676803588867 0 Z" stroke="none" fill="#c7b622"/>
                </g>
              </g>
            </g>
          </g>
        </g>
      </g>
    </g>
    <g id="g9552" transform="translate(399.77 4541.714)">
      <path id="path9554" d="M234.666-676.5h8.286v-6.168h-8.286Z" transform="translate(-212.049 -0.001)" fill="#bddbff"/>
      <path id="path9556" d="M298.667-676.5h2.118v-6.168h-2.118Z" transform="translate(-269.881)" fill="#57a4ff"/>
      <g id="g9558" transform="translate(16.449 -676.497)">
        <path id="path9560" d="M0-57.831,6.168-64h8.225l6.168,6.168" transform="translate(0 64)" fill="#57a4ff"/>
      </g>
      <g id="g9562" transform="translate(16.449 -672.384)">
        <path id="path9564" d="M-192.772-19.277l-2.056-2.056h-16.449l-2.056,2.056Z" transform="translate(213.333 21.333)" fill="#006df0"/>
      </g>
      <path id="path9566" d="M106.666-550.552h32.9v-4.112h-32.9Z" transform="translate(-96.386 -115.664)" fill="#bddbff"/>
      <path id="path9568" d="M426.666-554.664h2.056v4.112h-2.056Z" transform="translate(-385.543 -115.664)" fill="#57a4ff"/>
      <g id="g9570" transform="translate(16.449 -676.497)">
        <path id="path9572" d="M0-57.831,6.168-64h8.225l6.168,6.168" transform="translate(0 64)" fill="none" stroke="#000" stroke-miterlimit="10" stroke-width="1"/>
      </g>
      <g id="g9574" transform="translate(0 -682.665)">
        <g id="g9576" clip-path="url(#clip-path)">
          <g id="g9582" transform="translate(22.617 0)">
            <path id="path9584" d="M0,0V6.168H8.287V0" fill="none" stroke="#000" stroke-miterlimit="10" stroke-width="1"/>
          </g>
        </g>
      </g>
      <g id="g9586" transform="translate(10.281 -670.328)">
        <path id="path9588" d="M-96.386-38.554h-10.281v-4.112h32.9v4.112H-94.33" transform="translate(106.666 42.667)" fill="none" stroke="#000" stroke-miterlimit="10" stroke-width="1"/>
      </g>
      <g id="g9590" transform="translate(0 -682.665)">
        <g id="g9592" clip-path="url(#clip-path)">
          <g id="g9598" transform="translate(10.281 20.561)">
            <path id="path9600" d="M-134.94-48.193h-14.393v-4.112a1.028,1.028,0,0,1,1.028-1.028h8.225Z" transform="translate(149.333 53.333)" fill="#ffe477"/>
          </g>
          <g id="g9602" transform="translate(10.281 23.645)">
            <path id="path9604" d="M-134.94-19.277h-14.393v-2.056H-137Z" transform="translate(149.333 21.333)" fill="#ffb655"/>
          </g>
          <g id="g9606" transform="translate(10.281 25.702)">
            <path id="path9608" d="M-298.8-183.133h-30.842a1.028,1.028,0,0,1-1.028-1.028v-18.505h31.87a1.028,1.028,0,0,1,1.028,1.028v17.477a1.028,1.028,0,0,1-1.028,1.028" transform="translate(330.666 202.666)" fill="#ffe477"/>
          </g>
          <g id="g9610" transform="translate(25.702 35.982)">
            <path id="path9612" d="M0,0H2.056" fill="none" stroke="#fff" stroke-miterlimit="10" stroke-width="1"/>
          </g>
          <g id="g9614" transform="translate(21.589 35.982)">
            <path id="path9616" d="M0,0H2.056" fill="none" stroke="#fff" stroke-miterlimit="10" stroke-width="1"/>
          </g>
          <g id="g9618" transform="translate(29.814 35.982)">
            <path id="path9620" d="M0,0H2.056" fill="none" stroke="#fff" stroke-miterlimit="10" stroke-width="1"/>
          </g>
          <g id="g9622" transform="translate(41.123 25.702)">
            <path id="path9624" d="M-9.639-183.133h-1.028v-19.533h1.028a1.028,1.028,0,0,1,1.028,1.028v17.477a1.028,1.028,0,0,1-1.028,1.028" transform="translate(10.667 202.666)" fill="#ffb655"/>
          </g>
          <g id="g9626" transform="translate(10.281 20.561)">
            <path id="path9628" d="M-28.916-48.193H-.13A1.028,1.028,0,0,1,.9-47.165v17.477A1.028,1.028,0,0,1-.13-28.66H-30.972A1.028,1.028,0,0,1-32-29.688V-52.305a1.028,1.028,0,0,1,1.028-1.028h8.225l5.14,5.14" transform="translate(32 53.333)" fill="none" stroke="#000" stroke-miterlimit="10" stroke-width="1"/>
          </g>
          <g id="g9630" transform="translate(22.617 59.628)">
            <path id="path9632" d="M0-57.831V-64H8.287v6.168" transform="translate(0 64)" fill="#bddbff"/>
          </g>
          <g id="g9634" transform="translate(28.786 59.628)">
            <path id="path9636" d="M0-57.831V-64H2.118v6.168" transform="translate(0 64)" fill="#57a4ff"/>
          </g>
          <g id="g9638" transform="translate(16.449 53.459)">
            <path id="path9640" d="M0,0,6.168,6.168h8.225L20.561,0" fill="#57a4ff"/>
          </g>
          <g id="g9642" transform="translate(16.449 53.459)">
            <path id="path9644" d="M-192.772,0l-2.056,2.056h-16.449L-213.333,0Z" transform="translate(213.333)" fill="#006df0"/>
          </g>
          <path id="path9646" d="M106.666-170.666h32.9v4.112h-32.9Z" transform="translate(-96.386 220.013)" fill="#bddbff"/>
          <path id="path9648" d="M426.666-166.554h2.056v-4.112h-2.056Z" transform="translate(-385.543 220.013)" fill="#57a4ff"/>
          <g id="g9650" transform="translate(10.281 49.347)">
            <path id="path9652" d="M-212.049,0h10.281V4.112h-32.9V0H-214.1" transform="translate(234.666)" fill="none" stroke="#000" stroke-miterlimit="10" stroke-width="1"/>
          </g>
          <g id="g9654" transform="translate(16.449 53.459)">
            <path id="path9656" d="M0,0,6.168,6.168h8.225L20.561,0" fill="none" stroke="#000" stroke-miterlimit="10" stroke-width="1"/>
          </g>
          <g id="g9658" transform="translate(22.617 59.628)">
            <path id="path9660" d="M0-57.831V-64H8.287v6.168" transform="translate(0 64)" fill="none" stroke="#000" stroke-miterlimit="10" stroke-width="1"/>
          </g>
          <g id="g9662" transform="translate(47.291 24.674)">
            <path id="path9664" d="M-77.109,0l-4.112,4.112L-85.333,0" transform="translate(85.333)" fill="none" stroke="#000" stroke-miterlimit="10" stroke-width="1"/>
          </g>
          <g id="g9666" transform="translate(51.403 16.449)">
            <path id="path9668" d="M0,0V12.337" fill="none" stroke="#000" stroke-miterlimit="10" stroke-width="1"/>
          </g>
          <g id="g9670" transform="translate(47.291 37.01)">
            <path id="path9672" d="M0-38.554l4.112-4.112,4.112,4.112" transform="translate(0 42.667)" fill="none" stroke="#000" stroke-miterlimit="10" stroke-width="1"/>
          </g>
          <g id="g9674" transform="translate(51.403 37.01)">
            <path id="path9676" d="M0-115.663V-128" transform="translate(0 128)" fill="none" stroke="#000" stroke-miterlimit="10" stroke-width="1"/>
          </g>
        </g>
      </g>
    </g>
  </g>
</svg>
