<svg xmlns="http://www.w3.org/2000/svg" xmlns:xlink="http://www.w3.org/1999/xlink" width="108.914" height="108.914" viewBox="0 0 108.914 108.914">
  <defs>
    <filter id="Trazado_874925" x="0" y="0" width="108.914" height="108.914" filterUnits="userSpaceOnUse">
      <feOffset dy="3" input="SourceAlpha"/>
      <feGaussianBlur stdDeviation="3" result="blur"/>
      <feFlood flood-opacity="0.161"/>
      <feComposite operator="in" in2="blur"/>
      <feComposite in="SourceGraphic"/>
    </filter>
  </defs>
  <g id="Grupo_1181688" data-name="Grupo 1181688" transform="translate(2777.623 4259.331)">
    <g id="Grupo_1179828" data-name="Grupo 1179828" transform="translate(-2768.623 -4253.331)">
      <g id="Grupo_1179015" data-name="Grupo 1179015" transform="translate(0 0)">
        <g id="Grupo_1111527" data-name="Grupo 1111527">
          <g id="Grupo_1111316" data-name="Grupo 1111316">
            <g id="Grupo_1109835" data-name="Grupo 1109835">
              <g id="Grupo_1107913" data-name="Grupo 1107913">
                <g transform="matrix(1, 0, 0, 1, -9, -6)" filter="url(#Trazado_874925)">
                  <g id="Trazado_874925-2" data-name="Trazado 874925" transform="translate(9 6)" fill="#fdf9d4" opacity="0.859">
                    <path d="M 45.45676803588867 89.41407012939453 C 39.52198028564453 89.41407012939453 33.76551818847656 88.25206756591797 28.34726715087891 85.96034240722656 C 23.11310577392578 83.74648284912109 18.41203117370605 80.57682800292969 14.37464332580566 76.5394287109375 C 10.33724308013916 72.50202941894531 7.167593002319336 67.80095672607422 4.953730583190918 62.56679534912109 C 2.662005424499512 57.14855575561523 1.500005483627319 51.39208221435547 1.500005483627319 45.45729446411133 C 1.500005483627319 39.52198028564453 2.662005424499512 33.76550674438477 4.953730583190918 28.34726905822754 C 7.167593002319336 23.11310577392578 10.33724308013916 18.41203117370605 14.37464332580566 14.37464332580566 C 18.41203117370605 10.33724403381348 23.11310577392578 7.167593955993652 28.34726715087891 4.953731060028076 C 33.76550674438477 2.662006139755249 39.52198028564453 1.500006198883057 45.45676803588867 1.500006198883057 C 51.39155578613281 1.500006198883057 57.14802932739258 2.662006139755249 62.56626892089844 4.953731060028076 C 67.80043029785156 7.167593955993652 72.50150299072266 10.33724403381348 76.53890228271484 14.37464332580566 C 80.57630920410156 18.41203117370605 83.74595642089844 23.11310577392578 85.95981597900391 28.34726905822754 C 88.25154113769531 33.76551818847656 89.41354370117188 39.52198028564453 89.41354370117188 45.45676803588867 C 89.41354370117188 51.39208221435547 88.25154113769531 57.14855575561523 85.95981597900391 62.56679534912109 C 83.74595642089844 67.80095672607422 80.57630920410156 72.50202941894531 76.53890228271484 76.5394287109375 C 72.50150299072266 80.57682800292969 67.80043029785156 83.74648284912109 62.56626892089844 85.96034240722656 C 57.14802932739258 88.25206756591797 51.39155578613281 89.41407012939453 45.45676803588867 89.41407012939453 Z" stroke="none"/>
                    <path d="M 45.45676803588867 3 C 39.72381210327148 3 34.1639404296875 4.12213134765625 28.93159484863281 6.335227966308594 C 23.87622833251953 8.473472595214844 19.33542633056641 11.53517150878906 15.43529510498047 15.435302734375 C 11.53517150878906 19.33543395996094 8.473464965820312 23.87622833251953 6.335227966308594 28.93160247802734 C 4.122123718261719 34.16394424438477 3 39.72381591796875 3 45.4572868347168 C 3 51.19024658203125 4.122123718261719 56.75011825561523 6.335227966308594 61.98246002197266 C 8.473464965820312 67.03782653808594 11.53517150878906 71.57862854003906 15.43529510498047 75.478759765625 C 19.33542633056641 79.37889099121094 23.87622833251953 82.44058990478516 28.93159484863281 84.57883453369141 C 34.1639404296875 86.79193115234375 39.72381210327148 87.9140625 45.45676803588867 87.9140625 C 51.18972396850586 87.9140625 56.74959564208984 86.79193115234375 61.98194122314453 84.57883453369141 C 67.03730773925781 82.44058990478516 71.57810974121094 79.37889099121094 75.47824096679688 75.478759765625 C 79.37837219238281 71.57862854003906 82.44007110595703 67.03782653808594 84.57830810546875 61.98246002197266 C 86.79141235351562 56.75011825561523 87.91353607177734 51.19024658203125 87.91353607177734 45.4567756652832 C 87.91353607177734 39.72381591796875 86.79141235351562 34.16394424438477 84.57830810546875 28.93160247802734 C 82.44007110595703 23.87622833251953 79.37837219238281 19.33543395996094 75.47824096679688 15.435302734375 C 71.57810974121094 11.53517150878906 67.03730773925781 8.473472595214844 61.98194122314453 6.335227966308594 C 56.74959564208984 4.12213134765625 51.18972396850586 3 45.45676803588867 3 M 45.45676803588867 0 C 70.56185150146484 0 90.91353607177734 20.35169219970703 90.91353607177734 45.4567756652832 L 90.91353607177734 45.4572868347168 C 90.91353607177734 70.5623779296875 70.56185150146484 90.9140625 45.45676803588867 90.9140625 C 20.3516845703125 90.9140625 0 70.5623779296875 0 45.4572868347168 L 0 45.4567756652832 C 0 20.35169219970703 20.3516845703125 0 45.45676803588867 0 Z" stroke="none" fill="#c7b622"/>
                  </g>
                </g>
                <g id="Trazado_874923" data-name="Trazado 874923" transform="translate(0)" fill="none">
                  <path d="M45.457,0A45.457,45.457,0,0,1,90.914,45.457h0A45.457,45.457,0,0,1,0,45.457H0A45.457,45.457,0,0,1,45.457,0Z" stroke="none"/>
                  <path d="M 45.45676803588867 3 C 39.72381210327148 3 34.1639404296875 4.12213134765625 28.93159484863281 6.335227966308594 C 23.87622833251953 8.473472595214844 19.33542633056641 11.53517150878906 15.43529510498047 15.435302734375 C 11.53517150878906 19.33543395996094 8.473464965820312 23.87622833251953 6.335227966308594 28.93160247802734 C 4.122123718261719 34.16394424438477 3 39.72381591796875 3 45.4572868347168 C 3 51.19024658203125 4.122123718261719 56.75011825561523 6.335227966308594 61.98246002197266 C 8.473464965820312 67.03782653808594 11.53517150878906 71.57862854003906 15.43529510498047 75.478759765625 C 19.33542633056641 79.37889099121094 23.87622833251953 82.44058990478516 28.93159484863281 84.57883453369141 C 34.1639404296875 86.79193115234375 39.72381210327148 87.9140625 45.45676803588867 87.9140625 C 51.18972396850586 87.9140625 56.74959564208984 86.79193115234375 61.98194122314453 84.57883453369141 C 67.03730773925781 82.44058990478516 71.57810974121094 79.37889099121094 75.47824096679688 75.478759765625 C 79.37837219238281 71.57862854003906 82.44007110595703 67.03782653808594 84.57830810546875 61.98246002197266 C 86.79141235351562 56.75011825561523 87.91353607177734 51.19024658203125 87.91353607177734 45.4567756652832 C 87.91353607177734 39.72381591796875 86.79141235351562 34.16394424438477 84.57830810546875 28.93160247802734 C 82.44007110595703 23.87622833251953 79.37837219238281 19.33543395996094 75.47824096679688 15.435302734375 C 71.57810974121094 11.53517150878906 67.03730773925781 8.473472595214844 61.98194122314453 6.335227966308594 C 56.74959564208984 4.12213134765625 51.18972396850586 3 45.45676803588867 3 M 45.45676803588867 0 C 70.56185150146484 0 90.91353607177734 20.35169219970703 90.91353607177734 45.4567756652832 L 90.91353607177734 45.4572868347168 C 90.91353607177734 70.5623779296875 70.56185150146484 90.9140625 45.45676803588867 90.9140625 C 20.3516845703125 90.9140625 0 70.5623779296875 0 45.4572868347168 L 0 45.4567756652832 C 0 20.35169219970703 20.3516845703125 0 45.45676803588867 0 Z" stroke="none" fill="#c7b622"/>
                </g>
              </g>
            </g>
          </g>
        </g>
      </g>
    </g>
    <g id="laptop_1410395" transform="translate(-2755.213 -4234.046)">
      <path id="Trazado_1049941" data-name="Trazado 1049941" d="M83.285,12.178V47.622a1.5,1.5,0,0,1-1.506,1.506H27.108A1.5,1.5,0,0,1,25.6,47.622V12.178a3.646,3.646,0,0,1,3.643-3.643h50.4a3.646,3.646,0,0,1,3.643,3.643Zm0,0" transform="translate(-22.397 -7.466)" fill="#37474f"/>
      <path id="Trazado_1049942" data-name="Trazado 1049942" d="M80.081,12.178V47.622a1.5,1.5,0,0,1-1.506,1.506H27.108A1.5,1.5,0,0,1,25.6,47.622V12.178a3.646,3.646,0,0,1,3.643-3.643H76.439a3.647,3.647,0,0,1,3.643,3.643Zm0,0" transform="translate(-22.397 -7.466)" fill="#607d8b"/>
      <path id="Trazado_1049943" data-name="Trazado 1049943" d="M108.873,43.736V78.988H59.735V43.736A1.068,1.068,0,0,1,60.8,42.668h47.205a1.057,1.057,0,0,1,.865,1.068Zm0,0" transform="translate(-52.257 -37.326)" fill="#00bcd4"/>
      <path id="Trazado_1049944" data-name="Trazado 1049944" d="M108.873,190.523v15.992H59.735v-5.63c7.264-7.168,22.518-16.707,49.138-10.362Zm0,0" transform="translate(-52.257 -164.853)" fill="#00838f"/>
      <path id="Trazado_1049945" data-name="Trazado 1049945" d="M124.909,170.782l4.273,4.273-4.273,4.273a1.511,1.511,0,0,0,0,2.136l1.068,1.068a1.511,1.511,0,0,0,2.136,0l4.273-4.273,4.273,4.273a1.511,1.511,0,0,0,2.136,0l1.079-1.079a1.511,1.511,0,0,0,.01-2.126l-4.293-4.375,4.253-4.172a1.51,1.51,0,0,0,.011-2.146l-1.059-1.059a1.511,1.511,0,0,0-2.136,0l-4.273,4.273-4.273-4.273a1.511,1.511,0,0,0-2.136,0l-1.068,1.068A1.511,1.511,0,0,0,124.909,170.782Zm0,0" transform="translate(-108.886 -146.212)" fill="#9d27b0"/>
      <path id="Trazado_1049946" data-name="Trazado 1049946" d="M70.492,333.869v4.273a4.273,4.273,0,0,1-4.273,4.273H12.808a4.273,4.273,0,0,1-4.273-4.273v-4.273A1.068,1.068,0,0,1,9.6,332.8H69.424a1.068,1.068,0,0,1,1.068,1.068Zm0,0" transform="translate(-7.467 -291.139)" fill="#37474f"/>
      <path id="Trazado_1049947" data-name="Trazado 1049947" d="M67.288,333.869v4.273a4.273,4.273,0,0,1-4.273,4.273H12.808a4.273,4.273,0,0,1-4.273-4.273v-4.273A1.068,1.068,0,0,1,9.6,332.8H66.219a1.068,1.068,0,0,1,1.068,1.068Zm0,0" transform="translate(-7.467 -291.139)" fill="#607d8b"/>
      <path id="Trazado_1049948" data-name="Trazado 1049948" d="M188.575,337.074H174.124a2.137,2.137,0,0,1-1.911-1.181l-1.546-3.091h21.364l-1.546,3.091a2.137,2.137,0,0,1-1.911,1.181Zm0,0" transform="translate(-149.303 -291.14)" fill="#37474f"/>
      <path id="Trazado_1049949" data-name="Trazado 1049949" d="M293.337,121.6H291.2a1.068,1.068,0,0,1,0-2.137h2.136a1.068,1.068,0,0,1,0,2.137Zm0,0" transform="translate(-253.813 -104.509)"/>
      <path id="Trazado_1049950" data-name="Trazado 1049950" d="M293.429,72.63a1.068,1.068,0,0,1-.756-.313l-2.136-2.136a1.068,1.068,0,0,1,1.511-1.511l2.136,2.136a1.068,1.068,0,0,1-.755,1.823Zm0,0" transform="translate(-253.904 -59.811)"/>
      <path id="Trazado_1049951" data-name="Trazado 1049951" d="M291.2,72.63a1.068,1.068,0,0,1-.755-1.823l2.136-2.136a1.068,1.068,0,0,1,1.51,1.511l-2.136,2.136a1.067,1.067,0,0,1-.755.313Zm0,0" transform="translate(-253.816 -59.811)"/>
      <path id="Trazado_1049952" data-name="Trazado 1049952" d="M242.138,121.6H240a1.068,1.068,0,0,1,0-2.137h2.137a1.068,1.068,0,0,1,0,2.137Zm0,0" transform="translate(-209.023 -104.509)"/>
      <path id="Trazado_1049953" data-name="Trazado 1049953" d="M242.23,72.63a1.068,1.068,0,0,1-.755-.313l-2.136-2.136a1.068,1.068,0,0,1,1.511-1.511l2.136,2.136a1.068,1.068,0,0,1-.755,1.823Zm0,0" transform="translate(-209.115 -59.811)"/>
      <path id="Trazado_1049954" data-name="Trazado 1049954" d="M240,72.63a1.068,1.068,0,0,1-.755-1.823l2.136-2.136A1.068,1.068,0,0,1,242.9,70.18l-2.136,2.136a1.068,1.068,0,0,1-.755.313Zm0,0" transform="translate(-209.025 -59.811)"/>
      <path id="Trazado_1049955" data-name="Trazado 1049955" d="M344.537,121.6H342.4a1.068,1.068,0,1,1,0-2.137h2.136a1.068,1.068,0,0,1,0,2.137Zm0,0" transform="translate(-298.603 -104.509)"/>
      <path id="Trazado_1049956" data-name="Trazado 1049956" d="M344.63,72.63a1.069,1.069,0,0,1-.756-.313l-2.136-2.136a1.068,1.068,0,0,1,1.511-1.511l2.136,2.136a1.068,1.068,0,0,1-.755,1.823Zm0,0" transform="translate(-298.696 -59.811)"/>
      <path id="Trazado_1049957" data-name="Trazado 1049957" d="M342.4,72.63a1.068,1.068,0,0,1-.756-1.823l2.136-2.136a1.068,1.068,0,0,1,1.511,1.511l-2.136,2.136a1.067,1.067,0,0,1-.755.313Zm0,0" transform="translate(-298.605 -59.811)"/>
      <path id="Trazado_1049958" data-name="Trazado 1049958" d="M190.939,121.6H188.8a1.068,1.068,0,0,1,0-2.137h2.136a1.068,1.068,0,1,1,0,2.137Zm0,0" transform="translate(-164.233 -104.509)"/>
      <path id="Trazado_1049959" data-name="Trazado 1049959" d="M191.03,72.63a1.067,1.067,0,0,1-.755-.313l-2.136-2.136a1.068,1.068,0,0,1,1.51-1.511l2.136,2.136a1.068,1.068,0,0,1-.755,1.823Zm0,0" transform="translate(-164.324 -59.811)"/>
      <path id="Trazado_1049960" data-name="Trazado 1049960" d="M188.8,72.63a1.068,1.068,0,0,1-.755-1.823l2.136-2.136a1.068,1.068,0,0,1,1.51,1.511l-2.136,2.136a1.068,1.068,0,0,1-.755.313Zm0,0" transform="translate(-164.233 -59.811)"/>
      <path id="Trazado_1049961" data-name="Trazado 1049961" d="M139.74,121.6H137.6a1.068,1.068,0,0,1,0-2.137h2.136a1.068,1.068,0,1,1,0,2.137Zm0,0" transform="translate(-119.443 -104.509)"/>
      <path id="Trazado_1049962" data-name="Trazado 1049962" d="M139.831,72.63a1.067,1.067,0,0,1-.755-.313l-2.136-2.136a1.068,1.068,0,0,1,1.511-1.511l2.136,2.136a1.068,1.068,0,0,1-.756,1.823Zm0,0" transform="translate(-119.535 -59.811)"/>
      <path id="Trazado_1049963" data-name="Trazado 1049963" d="M137.6,72.63a1.068,1.068,0,0,1-.755-1.823l2.136-2.136a1.068,1.068,0,0,1,1.51,1.511l-2.136,2.136a1.069,1.069,0,0,1-.756.313Zm0,0" transform="translate(-119.442 -59.811)"/>
      <path id="Trazado_1049964" data-name="Trazado 1049964" d="M130.267,176.748a2.565,2.565,0,0,1-1.824-.755l-3.516-3.518-3.518,3.518a2.642,2.642,0,0,1-3.648,0l-1.068-1.068a2.584,2.584,0,0,1,0-3.647l3.519-3.518-3.517-3.517a2.584,2.584,0,0,1,0-3.647l1.068-1.068a2.642,2.642,0,0,1,3.648,0l3.517,3.518,3.517-3.518a2.643,2.643,0,0,1,3.648,0l1.057,1.058a2.581,2.581,0,0,1-.017,3.665l-3.488,3.423,3.543,3.612a2.587,2.587,0,0,1-.017,3.632L132.091,176a2.562,2.562,0,0,1-1.823.752Zm-5.341-6.852a1.069,1.069,0,0,1,.755.313l4.273,4.273a.373.373,0,0,0,.625,0l1.08-1.079a.443.443,0,0,0,0-.622l-4.291-4.38a1.068,1.068,0,0,1,.015-1.511l4.25-4.166a.44.44,0,0,0,.133-.313.447.447,0,0,0-.13-.32l-1.058-1.056a.373.373,0,0,0-.625,0l-4.273,4.273a1.068,1.068,0,0,1-1.511,0l-4.273-4.273a.373.373,0,0,0-.625,0L118.2,162.1a.444.444,0,0,0,0,.626L122.477,167a1.069,1.069,0,0,1,0,1.51l-4.273,4.273a.444.444,0,0,0,0,.626l1.068,1.068a.373.373,0,0,0,.625,0l4.273-4.273A1.069,1.069,0,0,1,124.927,169.9Zm0,0" transform="translate(-101.425 -138.918)"/>
      <path id="Trazado_1049965" data-name="Trazado 1049965" d="M282.669,211.3a1.068,1.068,0,0,1-.755-1.823l4.273-4.273a1.068,1.068,0,0,1,1.51,1.51l-4.273,4.273A1.069,1.069,0,0,1,282.669,211.3Zm0,0" transform="translate(-246.349 -179.254)"/>
      <path id="Trazado_1049966" data-name="Trazado 1049966" d="M287.034,211.3a1.067,1.067,0,0,1-.755-.313l-4.273-4.273a1.068,1.068,0,0,1,1.51-1.511l4.273,4.273a1.068,1.068,0,0,1-.756,1.823Zm0,0" transform="translate(-246.441 -179.254)"/>
      <path id="Trazado_1049967" data-name="Trazado 1049967" d="M354.14,194.144H352a1.068,1.068,0,1,1,0-2.136h1.068v-2.136h-2.136a1.068,1.068,0,0,1,0-2.136h3.2a1.068,1.068,0,0,1,1.068,1.068v4.273A1.069,1.069,0,0,1,354.14,194.144Zm0,0" transform="translate(-306.07 -164.233)"/>
      <path id="Trazado_1049968" data-name="Trazado 1049968" d="M354.14,228.276h-3.2a1.068,1.068,0,0,1,0-2.136h2.136V224H352a1.068,1.068,0,1,1,0-2.136h2.136a1.069,1.069,0,0,1,1.068,1.068v4.273a1.068,1.068,0,0,1-1.068,1.068Zm0,0" transform="translate(-306.07 -194.093)"/>
      <path id="Trazado_1049969" data-name="Trazado 1049969" d="M74.308,42.729H19.645a2.582,2.582,0,0,1-2.579-2.578V4.716A4.721,4.721,0,0,1,21.782,0h50.39a4.721,4.721,0,0,1,4.715,4.715V40.151a2.582,2.582,0,0,1-2.579,2.578ZM21.782,2.137A2.583,2.583,0,0,0,19.2,4.716V40.151a.443.443,0,0,0,.443.442H74.308a.443.443,0,0,0,.443-.442V4.716a2.583,2.583,0,0,0-2.579-2.579Zm0,0" transform="translate(-14.93)"/>
      <path id="Trazado_1049970" data-name="Trazado 1049970" d="M99.9,72.589H53.778A2.582,2.582,0,0,1,51.2,70.01V37.779a3.651,3.651,0,0,1,3.647-3.647h45.692a2.1,2.1,0,0,1,1.936,2.136V70.01A2.582,2.582,0,0,1,99.9,72.589ZM54.846,36.269a1.513,1.513,0,0,0-1.511,1.511V70.01a.443.443,0,0,0,.443.442H99.9a.443.443,0,0,0,.443-.442V36.269Zm0,0" transform="translate(-44.79 -29.859)"/>
      <path id="Trazado_1049971" data-name="Trazado 1049971" d="M58.753,336.016H5.341A5.347,5.347,0,0,1,0,330.675V326.4a2.136,2.136,0,0,1,2.136-2.136H61.957a2.136,2.136,0,0,1,2.136,2.136v4.273a5.347,5.347,0,0,1-5.341,5.341ZM2.136,326.4v4.273a3.2,3.2,0,0,0,3.2,3.2H58.752a3.2,3.2,0,0,0,3.2-3.2V326.4Zm0,0" transform="translate(0 -283.673)"/>
      <path id="Trazado_1049972" data-name="Trazado 1049972" d="M181.105,330.675H166.654a3.187,3.187,0,0,1-2.866-1.771l-1.547-3.093a1.068,1.068,0,0,1,.956-1.546h21.364a1.068,1.068,0,0,1,.961,1.546l-1.547,3.093a3.186,3.186,0,0,1-2.871,1.771ZM164.926,326.4l.774,1.546a1.061,1.061,0,0,0,.955.591h14.451a1.061,1.061,0,0,0,.955-.591l.774-1.546Zm0,0" transform="translate(-141.833 -283.673)"/>
      <path id="Trazado_1049973" data-name="Trazado 1049973" d="M13.888,360.535H1.069a1.068,1.068,0,1,1,0-2.136H13.888a1.068,1.068,0,0,1,0,2.136Zm0,0" transform="translate(-0.001 -313.533)"/>
      <path id="Trazado_1049974" data-name="Trazado 1049974" d="M138.672,360.535H137.6a1.068,1.068,0,0,1,0-2.136h1.068a1.068,1.068,0,0,1,0,2.136Zm0,0" transform="translate(-119.444 -313.533)"/>
      <path id="Trazado_1049975" data-name="Trazado 1049975" d="M406.422,360.535H393.6a1.068,1.068,0,0,1,0-2.136h12.818a1.068,1.068,0,1,1,0,2.136Zm0,0" transform="translate(-343.397 -313.533)"/>
      <path id="Trazado_1049976" data-name="Trazado 1049976" d="M352,360.535h-1.068a1.068,1.068,0,0,1,0-2.136H352a1.068,1.068,0,0,1,0,2.136Zm0,0" transform="translate(-306.07 -313.533)"/>
    </g>
  </g>
</svg>
