<svg xmlns="http://www.w3.org/2000/svg" xmlns:xlink="http://www.w3.org/1999/xlink" width="108" height="108" viewBox="0 0 108 108">
  <defs>
    <filter id="Trazado_904820" x="0" y="0" width="108" height="108" filterUnits="userSpaceOnUse">
      <feOffset dy="3" input="SourceAlpha"/>
      <feGaussianBlur stdDeviation="3" result="blur"/>
      <feFlood flood-opacity="0.161"/>
      <feComposite operator="in" in2="blur"/>
      <feComposite in="SourceGraphic"/>
    </filter>
  </defs>
  <g id="Grupo_1179326" data-name="Grupo 1179326" transform="translate(9 6)">
    <g id="Grupo_1179220" data-name="Grupo 1179220" transform="translate(0 0)">
      <g id="Grupo_1173585" data-name="Grupo 1173585" transform="translate(0 0)">
        <g id="Grupo_1173428" data-name="Grupo 1173428">
          <g id="Grupo_1171958" data-name="Grupo 1171958">
            <g id="Grupo_1167341" data-name="Grupo 1167341">
              <g id="Grupo_1166792" data-name="Grupo 1166792">
                <g transform="matrix(1, 0, 0, 1, -9, -6)" filter="url(#Trazado_904820)">
                  <g id="Trazado_904820-2" data-name="Trazado 904820" transform="translate(9 6)" fill="#fefcea">
                    <path d="M 44.99999618530273 88.50004577636719 C 39.12687301635742 88.50004577636719 33.43022155761719 87.35012054443359 28.06829643249512 85.08220672607422 C 22.88852119445801 82.891357421875 18.23629570007324 79.75463104248047 14.24084663391113 75.75917816162109 C 10.24540901184082 71.76373291015625 7.108683586120605 67.11150360107422 4.917821407318115 61.93173217773438 C 2.649921178817749 56.56980514526367 1.499996185302734 50.87315368652344 1.499996185302734 45.00003051757812 C 1.499996185302734 39.12690734863281 2.649921178817749 33.43025588989258 4.917821407318115 28.06831741333008 C 7.108683586120605 22.88854217529297 10.24540901184082 18.23633003234863 14.24084663391113 14.24088096618652 C 18.23629570007324 10.2454309463501 22.88852119445801 7.108705520629883 28.06829643249512 4.917842864990234 C 33.43022155761719 2.649943113327026 39.12687301635742 1.500018000602722 44.99999618530273 1.500018000602722 C 50.87311935424805 1.500018000602722 56.56977081298828 2.649943113327026 61.93169784545898 4.917842864990234 C 67.11147308349609 7.108705520629883 71.76369476318359 10.2454309463501 75.75914764404297 14.24088096618652 C 79.75458526611328 18.23633003234863 82.89131164550781 22.88854217529297 85.08216857910156 28.06831741333008 C 87.35007476806641 33.43025588989258 88.5 39.12690734863281 88.5 45.00003051757812 C 88.5 50.87315368652344 87.35007476806641 56.56980514526367 85.08216857910156 61.93173217773438 C 82.89131164550781 67.11150360107422 79.75458526611328 71.76373291015625 75.75914764404297 75.75917816162109 C 71.76369476318359 79.75463104248047 67.11147308349609 82.891357421875 61.93169784545898 85.08220672607422 C 56.56977081298828 87.35012054443359 50.87311935424805 88.50004577636719 44.99999618530273 88.50004577636719 Z" stroke="none"/>
                    <path d="M 44.99999618530273 3.000015258789062 C 39.32870864868164 3.000015258789062 33.82865142822266 4.110076904296875 28.65262603759766 6.299362182617188 C 23.65165710449219 8.414588928222656 19.15968322753906 11.443359375 15.301513671875 15.30152893066406 C 11.44333648681641 19.15969848632812 8.414566040039062 23.65167236328125 6.299339294433594 28.65264511108398 C 4.110054016113281 33.82868576049805 2.999992370605469 39.32874298095703 2.999992370605469 45.00003051757812 C 2.999992370605469 50.67131805419922 4.110054016113281 56.1713752746582 6.299339294433594 61.34740447998047 C 8.414566040039062 66.348388671875 11.44333648681641 70.84034729003906 15.301513671875 74.69851684570312 C 19.15968322753906 78.55670166015625 23.65165710449219 81.58547210693359 28.65262603759766 83.70069885253906 C 33.82865142822266 85.88998413085938 39.32870864868164 87.00004577636719 44.99999618530273 87.00004577636719 C 50.67128372192383 87.00004577636719 56.17134094238281 85.88998413085938 61.34736633300781 83.70069885253906 C 66.34834289550781 81.58547210693359 70.84030914306641 78.55670166015625 74.69847869873047 74.69851684570312 C 78.55665588378906 70.84034729003906 81.58542633056641 66.348388671875 83.70065307617188 61.34740447998047 C 85.88993835449219 56.1713752746582 87 50.67131805419922 87 45.00003051757812 C 87 39.32874298095703 85.88993835449219 33.82868576049805 83.70065307617188 28.65264511108398 C 81.58542633056641 23.65167236328125 78.55665588378906 19.15969848632812 74.69847869873047 15.30152893066406 C 70.84030914306641 11.443359375 66.34834289550781 8.414588928222656 61.34736633300781 6.299362182617188 C 56.17134094238281 4.110076904296875 50.67128372192383 3.000015258789062 44.99999618530273 3.000015258789062 M 44.99999618530273 1.52587890625e-05 C 69.85281372070312 1.52587890625e-05 90 20.14720153808594 90 45.00003051757812 C 90 69.85284423828125 69.85281372070312 90.00004577636719 44.99999618530273 90.00004577636719 C 20.14717864990234 90.00004577636719 -7.62939453125e-06 69.85284423828125 -7.62939453125e-06 45.00003051757812 C -7.62939453125e-06 20.14720153808594 20.14717864990234 1.52587890625e-05 44.99999618530273 1.52587890625e-05 Z" stroke="none" fill="#958919"/>
                  </g>
                </g>
              </g>
            </g>
          </g>
        </g>
      </g>
    </g>
    <g id="programmer_644617" transform="translate(15.908 15.945)">
      <path id="Trazado_1050018" data-name="Trazado 1050018" d="M130.145,223.847v6.589l7.257.228v0l.008-.005v-6.84A8.7,8.7,0,0,1,130.145,223.847Z" transform="translate(-115.337 -198.415)" fill="#eab883"/>
      <path id="Trazado_1050019" data-name="Trazado 1050019" d="M133.551,224.861a8.4,8.4,0,0,1-3.406-.779v6.59l4.167.131-.527-1.458C133.408,228.3,133.607,227.733,133.551,224.861Z" transform="translate(-115.337 -198.65)" fill="#dda36f"/>
      <path id="Trazado_1050020" data-name="Trazado 1050020" d="M141.148,268.774a5.194,5.194,0,0,1-6.094-.036l-.047-.034v7.268h6.239V268.7Z" transform="translate(-119.647 -238.208)" fill="#efefef"/>
      <path id="Trazado_1050021" data-name="Trazado 1050021" d="M140.141,274.559l-1.745-4.822a5.411,5.411,0,0,1-3.389-1.032v7.268h3.427C139.03,275.538,140.141,274.559,140.141,274.559Z" transform="translate(-119.648 -238.208)" fill="#ddd"/>
      <path id="Trazado_1050022" data-name="Trazado 1050022" d="M42.587,287.714l-2.994-18.607a4.089,4.089,0,0,0-3.123-3.174h0l-3.344-.925-.408-.241-6.7,6.01,0,0a1,1,0,0,1-1.872,0l0,0-6.7-6.01-.408.241-3.344.925h0a4.089,4.089,0,0,0-3.123,3.174L7.575,287.714a3.61,3.61,0,0,0,3.54,4.261H39.047A3.61,3.61,0,0,0,42.587,287.714Z" transform="translate(-6.632 -234.717)" fill="#70b5e8"/>
      <g id="Grupo_1181704" data-name="Grupo 1181704" transform="translate(0.892 27.691)">
        <path id="Trazado_1050023" data-name="Trazado 1050023" d="M10.973,294.169l2.994-20.2a3.924,3.924,0,0,1,.951-1.925l-1.227.339h0a4.089,4.089,0,0,0-3.123,3.174L7.575,294.169a3.61,3.61,0,0,0,3.54,4.261h3.4A3.61,3.61,0,0,1,10.973,294.169Z" transform="translate(-7.524 -268.863)" fill="#52a5d8"/>
        <path id="Trazado_1050024" data-name="Trazado 1050024" d="M98.438,252.353l-7.112-5.769,4.406-2.6v1.38Z" transform="translate(-81.815 -243.985)" fill="#52a5d8"/>
        <path id="Trazado_1050025" data-name="Trazado 1050025" d="M170.455,252.353l7.112-5.769-4.421-2.6v1.38Z" transform="translate(-151.963 -243.985)" fill="#52a5d8"/>
      </g>
      <path id="Trazado_1050026" data-name="Trazado 1050026" d="M109.209,415.539v4.143H118v-4.143a2.453,2.453,0,0,1,1.858-2.375,4.98,4.98,0,0,1-2.369-3.522,1.023,1.023,0,0,0-1-.818h-5.832a1.024,1.024,0,0,0-1,.819,4.991,4.991,0,0,1-2.347,3.51A2.453,2.453,0,0,1,109.209,415.539Z" transform="translate(-95.091 -362.424)" fill="#a4d9f4"/>
      <path id="Trazado_1050027" data-name="Trazado 1050027" d="M112.146,419.682v-4.046a2.617,2.617,0,0,0-.5-1.535,2.14,2.14,0,0,1,.02-2.45,6.693,6.693,0,0,0,.955-2.355,1.111,1.111,0,0,1,.224-.472h-2.194a1.024,1.024,0,0,0-1,.819,4.991,4.991,0,0,1-2.347,3.51,2.453,2.453,0,0,1,1.9,2.386v4.143Z" transform="translate(-95.092 -362.424)" fill="#84c7ef"/>
      <g id="Grupo_1181705" data-name="Grupo 1181705" transform="translate(13.494 52.513)">
        <path id="Trazado_1050028" data-name="Trazado 1050028" d="M167.19,462.688h-.223a4.76,4.76,0,0,0-4.746,4.746h4.969v-4.746Z" transform="translate(-157.266 -462.688)" fill="#eab883"/>
        <path id="Trazado_1050029" data-name="Trazado 1050029" d="M118.563,462.688v4.746h4.955a4.759,4.759,0,0,0-4.746-4.746Z" transform="translate(-118.563 -462.688)" fill="#eab883"/>
      </g>
      <g id="Grupo_1181706" data-name="Grupo 1181706" transform="translate(13.494 54.885)">
        <path id="Trazado_1050030" data-name="Trazado 1050030" d="M162.222,485.967h4.969v-2.373h-4.327A4.7,4.7,0,0,0,162.222,485.967Z" transform="translate(-157.267 -483.594)" fill="#dda36f"/>
        <path id="Trazado_1050031" data-name="Trazado 1050031" d="M118.563,483.594v2.373h4.955a4.705,4.705,0,0,0-.642-2.373Z" transform="translate(-118.563 -483.594)" fill="#dda36f"/>
      </g>
      <path id="Trazado_1050032" data-name="Trazado 1050032" d="M83.687,10.616a1.327,1.327,0,0,1-.754-.461c-2.953-3.68-10.8-3.375-14.888.708-3.762,3.762-1.681,9.765-1.681,9.765h20.8C88.985,13,85.082,10.922,83.687,10.616Z" transform="translate(-58.285 -6.725)" fill="#93482b"/>
      <path id="Trazado_1050033" data-name="Trazado 1050033" d="M73.205,10.864a11.544,11.544,0,0,1,5.778-3,12.281,12.281,0,0,0-10.938,3c-3.762,3.762-1.681,9.765-1.681,9.765h5.161S69.443,14.626,73.205,10.864Z" transform="translate(-58.285 -6.726)" fill="#843d26"/>
      <g id="Grupo_1181707" data-name="Grupo 1181707" transform="translate(7.076 12.877)">
        <path id="Trazado_1050034" data-name="Trazado 1050034" d="M63.034,113.96l0,0a2.055,2.055,0,0,0,0,3.542l0,0a3.039,3.039,0,0,0,1.693.5v-4.532h0A3.039,3.039,0,0,0,63.034,113.96Z" transform="translate(-62.018 -113.462)" fill="#eab883"/>
        <path id="Trazado_1050035" data-name="Trazado 1050035" d="M240.767,113.962l0,0a2.22,2.22,0,0,1,.981,1.425l0,.009c.006.034.011.067.015.1,0,.009,0,.019,0,.028,0,.029.006.058.008.088s0,.052,0,.078,0,.026,0,.039v.005c0,.013,0,.026,0,.039s0,.052,0,.078,0,.058-.008.088c0,.009,0,.019,0,.028,0,.034-.01.068-.015.1l0,.009a2.22,2.22,0,0,1-.981,1.425l0,0a3.04,3.04,0,0,1-1.693.5v-4.532A3.069,3.069,0,0,1,240.767,113.962Z" transform="translate(-218.979 -113.464)" fill="#eab883"/>
      </g>
      <g id="Grupo_1181708" data-name="Grupo 1181708" transform="translate(7.076 14.124)">
        <path id="Trazado_1050036" data-name="Trazado 1050036" d="M63.026,125.2a2.4,2.4,0,0,1-.722-.752,2.036,2.036,0,0,0,.722,2.791l0,0a3.039,3.039,0,0,0,1.693.5v-2.039a3.038,3.038,0,0,1-1.693-.5Z" transform="translate(-62.013 -124.446)" fill="#dda36f"/>
        <path id="Trazado_1050037" data-name="Trazado 1050037" d="M241.782,125.423c0-.026,0-.052,0-.078s0-.058-.008-.088c0-.009,0-.019,0-.028,0-.034-.009-.068-.015-.1l0-.009a2,2,0,0,0-.259-.673,2.4,2.4,0,0,1-.722.752l0,0a3.04,3.04,0,0,1-1.693.5v2.039a3.039,3.039,0,0,0,1.693-.5l0,0a2.219,2.219,0,0,0,.981-1.425l0-.009c.006-.034.011-.067.015-.1,0-.009,0-.019,0-.028,0-.029.006-.058.008-.088s0-.052,0-.078,0-.026,0-.039v-.005C241.783,125.449,241.782,125.436,241.782,125.423Z" transform="translate(-218.978 -124.445)" fill="#dda36f"/>
      </g>
      <path id="Trazado_1050038" data-name="Trazado 1050038" d="M103.084,103.483v-2.919a3.746,3.746,0,0,1-3.458-1.349.772.772,0,0,0-1.062-.158c-2.058,1.491-7.856,3.8-12.891,1.507v1.667h-.01a35.6,35.6,0,0,0,.244,5.655,8.706,8.706,0,0,0,17.175-2.014c0-.985,0-1.766,0-2.39h0Z" transform="translate(-75.898 -87.687)" fill="#f7cf9c"/>
      <path id="Trazado_1050039" data-name="Trazado 1050039" d="M89.282,120.785a35.6,35.6,0,0,1-.244-5.655h.01v-.766a10.806,10.806,0,0,1-3.375-.9v1.667h-.01a35.614,35.614,0,0,0,.244,5.655,8.64,8.64,0,0,0,10.068,6.529A8.747,8.747,0,0,1,89.282,120.785Z" transform="translate(-75.898 -100.586)" fill="#eab883"/>
      <path id="Trazado_1050040" data-name="Trazado 1050040" d="M259.479,229.264c-30.68,0-28.636-.059-29.056.169a1.4,1.4,0,0,0-.732,1.23v22.351a1.4,1.4,0,0,0,1.4,1.4h28.39a1.4,1.4,0,0,0,1.4-1.4V230.663A1.585,1.585,0,0,0,259.479,229.264Z" transform="translate(-203.585 -203.238)" fill="#efefef"/>
      <path id="Trazado_1050041" data-name="Trazado 1050041" d="M234.557,253.024V230.673a1.4,1.4,0,0,1,1.4-1.4c-4.929.057-4.986-.128-5.532.169a1.4,1.4,0,0,0-.732,1.23v22.351a1.4,1.4,0,0,0,1.4,1.4h4.866A1.4,1.4,0,0,1,234.557,253.024Z" transform="translate(-203.585 -203.248)" fill="#ddd"/>
      <path id="Trazado_1050042" data-name="Trazado 1050042" d="M319.12,79.936H300.94a1.366,1.366,0,0,0-1.362,1.362v9.191a1.366,1.366,0,0,0,1.362,1.362h16a1.5,1.5,0,0,1,1.006.389l1.327,1.205a.722.722,0,0,0,1.207-.534V81.3A1.366,1.366,0,0,0,319.12,79.936Z" transform="translate(-265.54 -70.864)" fill="#ffb70d"/>
      <path id="Trazado_1050043" data-name="Trazado 1050043" d="M303.362,90.489V81.3a1.366,1.366,0,0,1,1.362-1.362h-3.783a1.366,1.366,0,0,0-1.362,1.362v9.191a1.366,1.366,0,0,0,1.362,1.362h3.783A1.366,1.366,0,0,1,303.362,90.489Z" transform="translate(-265.541 -70.864)" fill="#f4a403"/>
      <circle id="Elipse_12515" data-name="Elipse 12515" cx="1.846" cy="1.846" r="1.846" transform="translate(39.833 30.593)" fill="#ccc"/>
      <path id="Trazado_1050044" data-name="Trazado 1050044" d="M352.463,269.56a1.845,1.845,0,1,0,1.6,2.766A1.844,1.844,0,0,1,352.463,269.56Z" transform="translate(-310.783 -238.966)" fill="#bcbbb8"/>
      <path id="Trazado_1050045" data-name="Trazado 1050045" d="M346.221,355.731V338.425a0,0,0,0,0,0,0h-6.385a0,0,0,0,0,0,0v17.306Z" transform="translate(-301.224 -300.013)" fill="#ddd"/>
      <path id="Trazado_1050046" data-name="Trazado 1050046" d="M343.026,338.425a0,0,0,0,1,0,0h-3.2a0,0,0,0,0,0,0v17.306h3.2Z" transform="translate(-301.224 -300.013)" fill="#ccc"/>
      <path id="Trazado_1050047" data-name="Trazado 1050047" d="M326.08,478.9h0a1.54,1.54,0,0,0-1.54-1.54h-8.96a1.54,1.54,0,0,0-1.54,1.54h0a1.54,1.54,0,0,0,1.54,1.54h8.96A1.541,1.541,0,0,0,326.08,478.9Z" transform="translate(-278.361 -423.18)" fill="#efefef"/>
      <path id="Trazado_1050048" data-name="Trazado 1050048" d="M318.621,478.9h0a1.54,1.54,0,0,1,1.54-1.54h-4.58a1.54,1.54,0,0,0-1.54,1.54h0a1.54,1.54,0,0,0,1.54,1.54h4.58A1.54,1.54,0,0,1,318.621,478.9Z" transform="translate(-278.361 -423.18)" fill="#ddd"/>
      <path id="Trazado_1050049" data-name="Trazado 1050049" d="M343.117,264.745a2.7,2.7,0,1,0,2.7-2.7A2.7,2.7,0,0,0,343.117,264.745Zm3.692,0a1,1,0,1,1-1-1A1,1,0,0,1,346.809,264.745Z" transform="translate(-304.137 -232.307)"/>
      <path id="Trazado_1050050" data-name="Trazado 1050050" d="M254.352,410.5a.851.851,0,1,0,0,1.7h2.62a.851.851,0,1,0,0-1.7Z" transform="translate(-224.692 -363.913)"/>
      <path id="Trazado_1050051" data-name="Trazado 1050051" d="M303.407,410.754a.859.859,0,0,0-.768-.233.846.846,0,0,0-.159.049.872.872,0,0,0-.148.078.83.83,0,0,0-.235.235.877.877,0,0,0-.127.306.848.848,0,0,0,.51.952.849.849,0,0,0,1.111-1.111A1.136,1.136,0,0,0,303.407,410.754Z" transform="translate(-267.647 -363.915)"/>
      <path id="Trazado_1050052" data-name="Trazado 1050052" d="M336.447,105.019a.851.851,0,0,0-1.2,0l-2.1,2.1a.851.851,0,0,0,0,1.2l2.1,2.1a.851.851,0,1,0,1.2-1.2l-1.5-1.5,1.5-1.5A.851.851,0,0,0,336.447,105.019Z" transform="translate(-295.074 -92.879)"/>
      <path id="Trazado_1050053" data-name="Trazado 1050053" d="M414.085,110.672c.609,0,.659-.417,2.7-2.35a.851.851,0,0,0,0-1.2l-2.1-2.1a.851.851,0,0,0-1.2,1.2l1.5,1.5-1.5,1.5A.852.852,0,0,0,414.085,110.672Z" transform="translate(-366.295 -92.879)"/>
      <path id="Trazado_1050054" data-name="Trazado 1050054" d="M373.526,96.933l-2.359,6.482a.851.851,0,1,0,1.6.582l2.359-6.482a.851.851,0,1,0-1.6-.582Z" transform="translate(-328.958 -85.435)"/>
      <path id="Trazado_1050055" data-name="Trazado 1050055" d="M55.892,25.175c-29.585.1-28.525-.238-29.463.272a2.249,2.249,0,0,0-1.177,1.978v1.2l-2.329-1.416v-.6a9.375,9.375,0,0,0,5.094-8.429v-.013a3.773,3.773,0,0,0,1.234-.5.844.844,0,0,0,.087-.052,3,3,0,0,0,1.387-2.4,2.865,2.865,0,0,0-.918-2.173c.675-3.176.448-5.7-.68-7.492A5.6,5.6,0,0,0,25.565,3.06a.478.478,0,0,1-.272-.163C22.894-.091,17.57-.881,12.907,1.06a.851.851,0,0,0,.654,1.572C17.485,1,22.055,1.583,23.965,3.963a2.186,2.186,0,0,0,1.236.76,3.9,3.9,0,0,1,2.485,1.736c.829,1.32,1.016,3.239.561,5.713a3.612,3.612,0,0,0-1.3-.123A2.87,2.87,0,0,1,24.378,11a1.622,1.622,0,0,0-2.23-.32c-1.893,1.372-7.275,3.513-11.926,1.469a.842.842,0,0,0-.454-.124.556.556,0,0,0-.072,0,4.012,4.012,0,0,0-1.091.165,7.731,7.731,0,0,1,1.868-7.579h0A.851.851,0,1,0,9.3,3.385c-2.666,2.556-3.2,6.231-2.22,9.7-1.759,1.759-.752,4.557,1.861,5.093A13.658,13.658,0,0,0,9.163,20.4a9.448,9.448,0,0,0,2.047,4.013,9.738,9.738,0,0,0,2.746,2.227V27.2L10.066,29.5l-3.3.914A4.864,4.864,0,0,0,3.1,34.223c0,.01,0,.021-.006.031L.1,52.862a4.529,4.529,0,0,0,4.471,5.248H32.414a4.43,4.43,0,0,0,2.841-1.029,2.39,2.39,0,0,0,1.963,1.029h8.96a2.391,2.391,0,0,0,0-4.783h-.331v-1.3H49.26a.851.851,0,0,0,0-1.7H45.846V39.146a.851.851,0,0,0-.42-1.591H38.073a.852.852,0,0,0-.319,1.64V50.324c-11.316,0-10.428.05-10.638-.161-.232-.232-.16,1.139-.16-22.738a.547.547,0,0,1,.547-.547c30.245.023,28.421-.059,28.65.066a.548.548,0,0,1,.287.482V49.776a.547.547,0,0,1-.287.482c-.212.115-.146.044-2.921.066a.851.851,0,0,0,0,1.7c2.532-.07,3.323.269,4.251-.659a2.235,2.235,0,0,0,.659-1.591V27.425A2.25,2.25,0,0,0,55.892,25.175Zm-33.064,26.5A5.6,5.6,0,0,0,18.447,54.3a5.6,5.6,0,0,0-4.367-2.621,2.465,2.465,0,0,0-.62-.783,6.332,6.332,0,0,0,1.931-3.643H21.5A6.326,6.326,0,0,0,23.441,50.9,2.464,2.464,0,0,0,22.829,51.675ZM18.3,35.743l-1.377-3.556a6,6,0,0,0,3.091,0l-1.4,3.559a.153.153,0,0,1-.156.106C18.346,35.854,18.331,35.813,18.3,35.743Zm2.918-8.428V29.13l-.322.817a4.333,4.333,0,0,1-4.84,0l-.4-1.038V27.347A9.517,9.517,0,0,0,21.221,27.315Zm3.815,3.175-3.672,2.924c1.6-4.07,1.58-3.912,1.559-4.209ZM28.018,16.4V13.889A1.285,1.285,0,0,1,28.018,16.4ZM8.905,13.889c-.012.665-.022,1.567-.013,2.5A1.283,1.283,0,0,1,8.905,13.889Zm3.6,9.41c-2.339-2.724-1.83-5.23-1.893-9.183a15.365,15.365,0,0,0,12.475-2.009,4.446,4.446,0,0,0,3.234,1.648c0,.415-.005,1.965,0,4.431A7.866,7.866,0,0,1,12.5,23.3Zm1.462,5.878c.03.238.119.316,1.6,4.2L11.889,30.4ZM6.778,30.412q-.036.012-.07.028A.607.607,0,0,1,6.778,30.412Zm-5,22.72,2.991-18.59c.529-2.6,2.962-2.484,5.433-3.314l2.9,2.353v5.467a.851.851,0,0,0,1.7,0V34.961l2.021,1.64a1.87,1.87,0,0,0,3.261,0l2.023-1.611v4.054a.851.851,0,1,0,1.7,0V33.638l1.437-1.144c.008,18.445-.017,17.264.019,17.561a3.221,3.221,0,0,1-1.595-1.6,6.046,6.046,0,0,1-.582-2.1.851.851,0,0,0-.85-.808H14.65a.853.853,0,0,0-.85.805,6.047,6.047,0,0,1-.582,2.1c-1.258,2.5-3.541,1.727-4.437,1.871l1.627-11a.851.851,0,1,0-1.684-.249L7.061,50.324H6.183a.851.851,0,1,0,0,1.7h5.71a.749.749,0,0,1,.748.746v3.635H4.572A2.827,2.827,0,0,1,1.782,53.132Zm12.562,3.275v-2.99a3.906,3.906,0,0,1,3.159,2.99Zm8.221-2.993v2.993H19.392A3.906,3.906,0,0,1,22.565,53.414Zm24.3,2.3a.69.69,0,0,1-.689.689h-8.96a.689.689,0,1,1,0-1.378h8.96A.69.69,0,0,1,46.866,55.718Zm-7.411-2.391V39.26h4.688V53.327Zm-1.7,0a5.53,5.53,0,0,0-.914.033c-.025-.358-.06-.46-.2-1.333h1.11Zm-2.834-1.3.195,1.211a2.736,2.736,0,0,1-2.7,3.17H24.268V52.772a.749.749,0,0,1,.748-.746Z" transform="translate(0 0)"/>
      <path id="Trazado_1050056" data-name="Trazado 1050056" d="M294.272,86.054h16c.422,0,.508.3,1.76,1.373a1.573,1.573,0,0,0,2.631-1.164V81.345a.851.851,0,0,0-1.7,0v4.626c-.823-.633-1.365-1.619-2.688-1.619h-16a.518.518,0,0,1-.511-.511V74.65a.518.518,0,0,1,.511-.511h18.18a.518.518,0,0,1,.511.511v2.723a.851.851,0,0,0,1.7,0V74.65a2.215,2.215,0,0,0-2.213-2.213h-18.18a2.215,2.215,0,0,0-2.213,2.213v9.191A2.215,2.215,0,0,0,294.272,86.054Z" transform="translate(-258.874 -64.216)"/>
    </g>
  </g>
</svg>
