<svg xmlns="http://www.w3.org/2000/svg" xmlns:xlink="http://www.w3.org/1999/xlink" width="108.914" height="108.914" viewBox="0 0 108.914 108.914">
  <defs>
    <filter id="Trazado_874925" x="0" y="0" width="108.914" height="108.914" filterUnits="userSpaceOnUse">
      <feOffset dy="3" input="SourceAlpha"/>
      <feGaussianBlur stdDeviation="3" result="blur"/>
      <feFlood flood-opacity="0.161"/>
      <feComposite operator="in" in2="blur"/>
      <feComposite in="SourceGraphic"/>
    </filter>
  </defs>
  <g id="Grupo_1179959" data-name="Grupo 1179959" transform="translate(-690.66 -8928.725)">
    <g id="Grupo_1179381" data-name="Grupo 1179381" transform="translate(699.66 8934.726)">
      <g id="Grupo_1179015" data-name="Grupo 1179015" transform="translate(0 0)">
        <g id="Grupo_1111527" data-name="Grupo 1111527" transform="translate(0 0)">
          <g id="Grupo_1111316" data-name="Grupo 1111316">
            <g id="Grupo_1109835" data-name="Grupo 1109835" transform="translate(0 0)">
              <g id="Grupo_1107913" data-name="Grupo 1107913" transform="translate(0 0)">
                <g transform="matrix(1, 0, 0, 1, -9, -6)" filter="url(#Trazado_874925)">
                  <g id="Trazado_874925-2" data-name="Trazado 874925" transform="translate(9 6)" fill="#fdf9d4" opacity="0.859">
                    <path d="M 45.45676803588867 89.41407012939453 C 39.52198028564453 89.41407012939453 33.76551818847656 88.25206756591797 28.34726715087891 85.96034240722656 C 23.11310577392578 83.74648284912109 18.41203117370605 80.57682800292969 14.37464332580566 76.5394287109375 C 10.33724308013916 72.50202941894531 7.167593002319336 67.80095672607422 4.953730583190918 62.56679534912109 C 2.662005424499512 57.14855575561523 1.500005483627319 51.39208221435547 1.500005483627319 45.45729446411133 C 1.500005483627319 39.52198028564453 2.662005424499512 33.76550674438477 4.953730583190918 28.34726905822754 C 7.167593002319336 23.11310577392578 10.33724308013916 18.41203117370605 14.37464332580566 14.37464332580566 C 18.41203117370605 10.33724403381348 23.11310577392578 7.167593955993652 28.34726715087891 4.953731060028076 C 33.76550674438477 2.662006139755249 39.52198028564453 1.500006198883057 45.45676803588867 1.500006198883057 C 51.39155578613281 1.500006198883057 57.14802932739258 2.662006139755249 62.56626892089844 4.953731060028076 C 67.80043029785156 7.167593955993652 72.50150299072266 10.33724403381348 76.53890228271484 14.37464332580566 C 80.57630920410156 18.41203117370605 83.74595642089844 23.11310577392578 85.95981597900391 28.34726905822754 C 88.25154113769531 33.76551818847656 89.41354370117188 39.52198028564453 89.41354370117188 45.45676803588867 C 89.41354370117188 51.39208221435547 88.25154113769531 57.14855575561523 85.95981597900391 62.56679534912109 C 83.74595642089844 67.80095672607422 80.57630920410156 72.50202941894531 76.53890228271484 76.5394287109375 C 72.50150299072266 80.57682800292969 67.80043029785156 83.74648284912109 62.56626892089844 85.96034240722656 C 57.14802932739258 88.25206756591797 51.39155578613281 89.41407012939453 45.45676803588867 89.41407012939453 Z" stroke="none"/>
                    <path d="M 45.45676803588867 3 C 39.72381210327148 3 34.1639404296875 4.12213134765625 28.93159484863281 6.335227966308594 C 23.87622833251953 8.473472595214844 19.33542633056641 11.53517150878906 15.43529510498047 15.435302734375 C 11.53517150878906 19.33543395996094 8.473464965820312 23.87622833251953 6.335227966308594 28.93160247802734 C 4.122123718261719 34.16394424438477 3 39.72381591796875 3 45.4572868347168 C 3 51.19024658203125 4.122123718261719 56.75011825561523 6.335227966308594 61.98246002197266 C 8.473464965820312 67.03782653808594 11.53517150878906 71.57862854003906 15.43529510498047 75.478759765625 C 19.33542633056641 79.37889099121094 23.87622833251953 82.44058990478516 28.93159484863281 84.57883453369141 C 34.1639404296875 86.79193115234375 39.72381210327148 87.9140625 45.45676803588867 87.9140625 C 51.18972396850586 87.9140625 56.74959564208984 86.79193115234375 61.98194122314453 84.57883453369141 C 67.03730773925781 82.44058990478516 71.57810974121094 79.37889099121094 75.47824096679688 75.478759765625 C 79.37837219238281 71.57862854003906 82.44007110595703 67.03782653808594 84.57830810546875 61.98246002197266 C 86.79141235351562 56.75011825561523 87.91353607177734 51.19024658203125 87.91353607177734 45.4567756652832 C 87.91353607177734 39.72381591796875 86.79141235351562 34.16394424438477 84.57830810546875 28.93160247802734 C 82.44007110595703 23.87622833251953 79.37837219238281 19.33543395996094 75.47824096679688 15.435302734375 C 71.57810974121094 11.53517150878906 67.03730773925781 8.473472595214844 61.98194122314453 6.335227966308594 C 56.74959564208984 4.12213134765625 51.18972396850586 3 45.45676803588867 3 M 45.45676803588867 0 C 70.56185150146484 0 90.91353607177734 20.35169219970703 90.91353607177734 45.4567756652832 L 90.91353607177734 45.4572868347168 C 90.91353607177734 70.5623779296875 70.56185150146484 90.9140625 45.45676803588867 90.9140625 C 20.3516845703125 90.9140625 0 70.5623779296875 0 45.4572868347168 L 0 45.4567756652832 C 0 20.35169219970703 20.3516845703125 0 45.45676803588867 0 Z" stroke="none" fill="#c7b622"/>
                  </g>
                </g>
                <g id="Trazado_874923" data-name="Trazado 874923" transform="translate(0)" fill="none">
                  <path d="M45.457,0A45.457,45.457,0,0,1,90.914,45.457h0A45.457,45.457,0,0,1,0,45.457H0A45.457,45.457,0,0,1,45.457,0Z" stroke="none"/>
                  <path d="M 45.45676803588867 3 C 39.72381210327148 3 34.1639404296875 4.12213134765625 28.93159484863281 6.335227966308594 C 23.87622833251953 8.473472595214844 19.33542633056641 11.53517150878906 15.43529510498047 15.435302734375 C 11.53517150878906 19.33543395996094 8.473464965820312 23.87622833251953 6.335227966308594 28.93160247802734 C 4.122123718261719 34.16394424438477 3 39.72381591796875 3 45.4572868347168 C 3 51.19024658203125 4.122123718261719 56.75011825561523 6.335227966308594 61.98246002197266 C 8.473464965820312 67.03782653808594 11.53517150878906 71.57862854003906 15.43529510498047 75.478759765625 C 19.33542633056641 79.37889099121094 23.87622833251953 82.44058990478516 28.93159484863281 84.57883453369141 C 34.1639404296875 86.79193115234375 39.72381210327148 87.9140625 45.45676803588867 87.9140625 C 51.18972396850586 87.9140625 56.74959564208984 86.79193115234375 61.98194122314453 84.57883453369141 C 67.03730773925781 82.44058990478516 71.57810974121094 79.37889099121094 75.47824096679688 75.478759765625 C 79.37837219238281 71.57862854003906 82.44007110595703 67.03782653808594 84.57830810546875 61.98246002197266 C 86.79141235351562 56.75011825561523 87.91353607177734 51.19024658203125 87.91353607177734 45.4567756652832 C 87.91353607177734 39.72381591796875 86.79141235351562 34.16394424438477 84.57830810546875 28.93160247802734 C 82.44007110595703 23.87622833251953 79.37837219238281 19.33543395996094 75.47824096679688 15.435302734375 C 71.57810974121094 11.53517150878906 67.03730773925781 8.473472595214844 61.98194122314453 6.335227966308594 C 56.74959564208984 4.12213134765625 51.18972396850586 3 45.45676803588867 3 M 45.45676803588867 0 C 70.56185150146484 0 90.91353607177734 20.35169219970703 90.91353607177734 45.4567756652832 L 90.91353607177734 45.4572868347168 C 90.91353607177734 70.5623779296875 70.56185150146484 90.9140625 45.45676803588867 90.9140625 C 20.3516845703125 90.9140625 0 70.5623779296875 0 45.4572868347168 L 0 45.4567756652832 C 0 20.35169219970703 20.3516845703125 0 45.45676803588867 0 Z" stroke="none" fill="#c7b622"/>
                </g>
              </g>
            </g>
          </g>
        </g>
      </g>
    </g>
    <g id="coding_3327191" transform="translate(712.42 8949.733)">
      <path id="Trazado_1049661" data-name="Trazado 1049661" d="M58.993,40.5H2V13.9A1.9,1.9,0,0,1,3.9,12H57.093a1.9,1.9,0,0,1,1.9,1.9Z" transform="translate(-0.05 -0.551)" fill="#e7e4dd"/>
      <path id="Trazado_1049662" data-name="Trazado 1049662" d="M28,50h7.6v5.7H28Z" transform="translate(-1.353 -2.455)" fill="#a59f97"/>
      <path id="Trazado_1049663" data-name="Trazado 1049663" d="M58.993,42v5.7a1.9,1.9,0,0,1-1.9,1.9H3.9A1.9,1.9,0,0,1,2,47.7V42Z" transform="translate(-0.05 -2.054)" fill="#cbc3b6"/>
      <path id="Trazado_1049664" data-name="Trazado 1049664" d="M22.9,56H40a1.9,1.9,0,0,1,1.9,1.9v2.85a.95.95,0,0,1-.95.95h-19a.95.95,0,0,1-.95-.95V57.9A1.9,1.9,0,0,1,22.9,56Z" transform="translate(-1.002 -2.756)" fill="#cbc3b6"/>
      <path id="Trazado_1049665" data-name="Trazado 1049665" d="M31.9,47.8a1.9,1.9,0,1,1,1.9-1.9A1.9,1.9,0,0,1,31.9,47.8Z" transform="translate(-1.453 -2.155)" fill="#606060"/>
      <path id="Trazado_1049666" data-name="Trazado 1049666" d="M47.874,7.7a3.325,3.325,0,0,0-3.325,3.325v7.124H47.4L41.7,24.8,36,18.148h2.85V11.024a9.024,9.024,0,1,1,18.048,0V25.747H51.2V11.024A3.325,3.325,0,0,0,47.874,7.7Z" transform="translate(-1.754 -0.05)" fill="#78b75b"/>
      <g id="Grupo_1179958" data-name="Grupo 1179958" transform="translate(4.798 21.224)">
        <path id="Trazado_1049667" data-name="Trazado 1049667" d="M12.876,38.833l-7.6-7.6a.95.95,0,0,1,0-1.344l7.6-7.6,1.344,1.344L7.293,30.564,14.22,37.49Z" transform="translate(-4.999 -22.291)" fill="#e47c6e"/>
        <path id="Trazado_1049668" data-name="Trazado 1049668" d="M32.636,38.834,31.292,37.49l6.928-6.927-6.928-6.928,1.344-1.344,7.6,7.6a.95.95,0,0,1,0,1.344Z" transform="translate(-6.316 -22.291)" fill="#e47c6e"/>
        <path id="Trazado_1049669" data-name="Trazado 1049669" d="M0,0H19V1.9H0Z" transform="matrix(0.6, -0.8, 0.8, 0.6, 10.639, 15.299)" fill="#e47c6e"/>
        <path id="Trazado_1049670" data-name="Trazado 1049670" d="M10,30h3.8v1.9H10Z" transform="translate(-5.249 -22.677)" fill="#e47c6e"/>
        <path id="Trazado_1049671" data-name="Trazado 1049671" d="M16,30h3.8v1.9H16Z" transform="translate(-5.55 -22.677)" fill="#e47c6e"/>
        <path id="Trazado_1049672" data-name="Trazado 1049672" d="M26,30h3.8v1.9H26Z" transform="translate(-6.051 -22.677)" fill="#e47c6e"/>
        <path id="Trazado_1049673" data-name="Trazado 1049673" d="M32,30h3.8v1.9H32Z" transform="translate(-6.352 -22.677)" fill="#e47c6e"/>
      </g>
      <path id="Trazado_1049674" data-name="Trazado 1049674" d="M57.043,10.5h-.975a9.961,9.961,0,0,0-19.9,0H3.85A2.85,2.85,0,0,0,1,13.349v32.3a2.85,2.85,0,0,0,2.85,2.85H25.7v3.8H21.9a2.85,2.85,0,0,0-2.85,2.85v2.85a1.9,1.9,0,0,0,1.9,1.9h19a1.9,1.9,0,0,0,1.9-1.9v-2.85A2.85,2.85,0,0,0,39,52.294H35.2v-3.8H57.043a2.85,2.85,0,0,0,2.85-2.85v-32.3a2.85,2.85,0,0,0-2.85-2.85Zm-19,7.6V10.974a8.074,8.074,0,1,1,16.148,0V24.747h-3.8V10.974a4.274,4.274,0,1,0-8.549,0V18.1a.95.95,0,0,0,.95.95h.784l-3.633,4.238L36.31,19.048H37.1A.95.95,0,0,0,38.046,18.1Zm10.4-7.6H43.791a2.375,2.375,0,0,1,4.654,0ZM3.85,12.4h32.3v4.749h-1.9a.95.95,0,0,0-.722,1.568l5.7,6.649a.978.978,0,0,0,1.442,0l5.7-6.649a.95.95,0,0,0-.72-1.568h-1.9V12.4h4.749V25.7a.95.95,0,0,0,.95.95h5.7a.95.95,0,0,0,.95-.95V12.4h.95a.95.95,0,0,1,.95.95V39H2.9V13.349a.95.95,0,0,1,.95-.95Zm36.1,42.745v2.85h-19v-2.85a.95.95,0,0,1,.95-.95H39A.95.95,0,0,1,39.945,55.144ZM33.3,52.294H27.6v-3.8h5.7Zm23.747-5.7H3.85a.95.95,0,0,1-.95-.95V40.9H57.993v4.749A.95.95,0,0,1,57.043,46.595Z"/>
      <path id="Trazado_1049675" data-name="Trazado 1049675" d="M31.9,44a1.9,1.9,0,1,0,1.9,1.9A1.9,1.9,0,0,0,31.9,44Z" transform="translate(-1.453 -2.155)"/>
      <path id="Trazado_1049676" data-name="Trazado 1049676" d="M12.876,38.833l1.344-1.344L7.293,30.564l6.928-6.928-1.344-1.344-7.6,7.6a.95.95,0,0,0,0,1.344Z" transform="translate(-0.2 -1.067)"/>
      <path id="Trazado_1049677" data-name="Trazado 1049677" d="M32.636,38.834l7.6-7.6a.95.95,0,0,0,0-1.344l-7.6-7.6-1.344,1.344,6.928,6.928-6.928,6.928Z" transform="translate(-1.518 -1.067)"/>
      <path id="Trazado_1049678" data-name="Trazado 1049678" d="M0,0H19V1.9H0Z" transform="matrix(0.6, -0.8, 0.8, 0.6, 15.437, 36.525)"/>
      <path id="Trazado_1049679" data-name="Trazado 1049679" d="M10,30h3.8v1.9H10Z" transform="translate(-0.451 -1.453)"/>
      <path id="Trazado_1049680" data-name="Trazado 1049680" d="M16,30h3.8v1.9H16Z" transform="translate(-0.752 -1.453)"/>
      <path id="Trazado_1049681" data-name="Trazado 1049681" d="M26,30h3.8v1.9H26Z" transform="translate(-1.253 -1.453)"/>
      <path id="Trazado_1049682" data-name="Trazado 1049682" d="M32,30h3.8v1.9H32Z" transform="translate(-1.554 -1.453)"/>
    </g>
  </g>
</svg>
