<svg xmlns="http://www.w3.org/2000/svg" xmlns:xlink="http://www.w3.org/1999/xlink" width="108" height="108" viewBox="0 0 108 108">
  <defs>
    <filter id="Trazado_904820" x="0" y="0" width="108" height="108" filterUnits="userSpaceOnUse">
      <feOffset dy="3" input="SourceAlpha"/>
      <feGaussianBlur stdDeviation="3" result="blur"/>
      <feFlood flood-opacity="0.161"/>
      <feComposite operator="in" in2="blur"/>
      <feComposite in="SourceGraphic"/>
    </filter>
  </defs>
  <g id="Grupo_1179796" data-name="Grupo 1179796" transform="translate(9 6)">
    <g id="Grupo_1179220" data-name="Grupo 1179220" transform="translate(0 0)">
      <g id="Grupo_1173585" data-name="Grupo 1173585">
        <g id="Grupo_1173428" data-name="Grupo 1173428">
          <g id="Grupo_1171958" data-name="Grupo 1171958">
            <g id="Grupo_1167341" data-name="Grupo 1167341">
              <g id="Grupo_1166792" data-name="Grupo 1166792">
                <g transform="matrix(1, 0, 0, 1, -9, -6)" filter="url(#Trazado_904820)">
                  <g id="Trazado_904820-2" data-name="Trazado 904820" transform="translate(9 6)" fill="#fefcea">
                    <path d="M 44.99999618530273 88.50004577636719 C 39.12687301635742 88.50004577636719 33.43022155761719 87.35012054443359 28.06829643249512 85.08220672607422 C 22.88852119445801 82.891357421875 18.23629570007324 79.75463104248047 14.24084663391113 75.75917816162109 C 10.24540901184082 71.76373291015625 7.108683586120605 67.11150360107422 4.917821407318115 61.93173217773438 C 2.649921178817749 56.56980514526367 1.499996185302734 50.87315368652344 1.499996185302734 45.00003051757812 C 1.499996185302734 39.12690734863281 2.649921178817749 33.43025588989258 4.917821407318115 28.06831741333008 C 7.108683586120605 22.88854217529297 10.24540901184082 18.23633003234863 14.24084663391113 14.24088096618652 C 18.23629570007324 10.2454309463501 22.88852119445801 7.108705520629883 28.06829643249512 4.917842864990234 C 33.43022155761719 2.649943113327026 39.12687301635742 1.500018000602722 44.99999618530273 1.500018000602722 C 50.87311935424805 1.500018000602722 56.56977081298828 2.649943113327026 61.93169784545898 4.917842864990234 C 67.11147308349609 7.108705520629883 71.76369476318359 10.2454309463501 75.75914764404297 14.24088096618652 C 79.75458526611328 18.23633003234863 82.89131164550781 22.88854217529297 85.08216857910156 28.06831741333008 C 87.35007476806641 33.43025588989258 88.5 39.12690734863281 88.5 45.00003051757812 C 88.5 50.87315368652344 87.35007476806641 56.56980514526367 85.08216857910156 61.93173217773438 C 82.89131164550781 67.11150360107422 79.75458526611328 71.76373291015625 75.75914764404297 75.75917816162109 C 71.76369476318359 79.75463104248047 67.11147308349609 82.891357421875 61.93169784545898 85.08220672607422 C 56.56977081298828 87.35012054443359 50.87311935424805 88.50004577636719 44.99999618530273 88.50004577636719 Z" stroke="none"/>
                    <path d="M 44.99999618530273 3.000015258789062 C 39.32870864868164 3.000015258789062 33.82865142822266 4.110076904296875 28.65262603759766 6.299362182617188 C 23.65165710449219 8.414588928222656 19.15968322753906 11.443359375 15.301513671875 15.30152893066406 C 11.44333648681641 19.15969848632812 8.414566040039062 23.65167236328125 6.299339294433594 28.65264511108398 C 4.110054016113281 33.82868576049805 2.999992370605469 39.32874298095703 2.999992370605469 45.00003051757812 C 2.999992370605469 50.67131805419922 4.110054016113281 56.1713752746582 6.299339294433594 61.34740447998047 C 8.414566040039062 66.348388671875 11.44333648681641 70.84034729003906 15.301513671875 74.69851684570312 C 19.15968322753906 78.55670166015625 23.65165710449219 81.58547210693359 28.65262603759766 83.70069885253906 C 33.82865142822266 85.88998413085938 39.32870864868164 87.00004577636719 44.99999618530273 87.00004577636719 C 50.67128372192383 87.00004577636719 56.17134094238281 85.88998413085938 61.34736633300781 83.70069885253906 C 66.34834289550781 81.58547210693359 70.84030914306641 78.55670166015625 74.69847869873047 74.69851684570312 C 78.55665588378906 70.84034729003906 81.58542633056641 66.348388671875 83.70065307617188 61.34740447998047 C 85.88993835449219 56.1713752746582 87 50.67131805419922 87 45.00003051757812 C 87 39.32874298095703 85.88993835449219 33.82868576049805 83.70065307617188 28.65264511108398 C 81.58542633056641 23.65167236328125 78.55665588378906 19.15969848632812 74.69847869873047 15.30152893066406 C 70.84030914306641 11.443359375 66.34834289550781 8.414588928222656 61.34736633300781 6.299362182617188 C 56.17134094238281 4.110076904296875 50.67128372192383 3.000015258789062 44.99999618530273 3.000015258789062 M 44.99999618530273 1.52587890625e-05 C 69.85281372070312 1.52587890625e-05 90 20.14720153808594 90 45.00003051757812 C 90 69.85284423828125 69.85281372070312 90.00004577636719 44.99999618530273 90.00004577636719 C 20.14717864990234 90.00004577636719 -7.62939453125e-06 69.85284423828125 -7.62939453125e-06 45.00003051757812 C -7.62939453125e-06 20.14720153808594 20.14717864990234 1.52587890625e-05 44.99999618530273 1.52587890625e-05 Z" stroke="none" fill="#958919"/>
                  </g>
                </g>
              </g>
            </g>
          </g>
        </g>
      </g>
    </g>
    <g id="Layer_4" transform="translate(2.272 13.25)">
      <g id="Grupo_1181673" data-name="Grupo 1181673" transform="translate(17.042 0.001)">
        <g id="Grupo_1181526" data-name="Grupo 1181526" transform="translate(10.414 12.853)">
          <g id="Grupo_1181525" data-name="Grupo 1181525">
            <path id="Trazado_1043651" data-name="Trazado 1043651" d="M77.914,55.794a1.585,1.585,0,0,0-2.13-.142,8.687,8.687,0,0,1-10.568-.006,1.584,1.584,0,0,0-2.126.144l0,0a4.472,4.472,0,0,0-1.236,3.086v7.259a8.649,8.649,0,0,0,17.3,0V58.88a4.472,4.472,0,0,0-1.236-3.086Z" transform="translate(-61.851 -55.304)" fill="#f9d0b4"/>
          </g>
        </g>
        <g id="Grupo_1181528" data-name="Grupo 1181528" transform="translate(27.691 17.097)">
          <g id="Grupo_1181527" data-name="Grupo 1181527">
            <path id="Trazado_1043652" data-name="Trazado 1043652" d="M136.764,73.561a3.64,3.64,0,0,0-.555.044v6.548c0,.195-.009.388-.022.58a3.609,3.609,0,1,0,.577-7.172Z" transform="translate(-136.187 -73.561)" fill="#f9d0b4"/>
          </g>
        </g>
        <g id="Grupo_1181530" data-name="Grupo 1181530" transform="translate(6.248 17.097)">
          <g id="Grupo_1181529" data-name="Grupo 1181529">
            <path id="Trazado_1043653" data-name="Trazado 1043653" d="M48.091,80.153V73.6a3.613,3.613,0,1,0,.022,7.128h0C48.1,80.541,48.091,80.348,48.091,80.153Z" transform="translate(-43.925 -73.561)" fill="#f9d0b4"/>
          </g>
        </g>
        <g id="Grupo_1181532" data-name="Grupo 1181532" transform="translate(8.041 4.093)">
          <g id="Grupo_1181531" data-name="Grupo 1181531">
            <path id="Trazado_1043654" data-name="Trazado 1043654" d="M71.281,23.237a.535.535,0,0,1-.545-.513C70.67,17.9,65.166,17,59.685,17.945a9.691,9.691,0,0,0-8.044,9.548v3.616a3.574,3.574,0,0,1,2.373-.451v-.711a4.473,4.473,0,0,1,1.236-3.086l0,0a1.584,1.584,0,0,1,2.126-.144,8.687,8.687,0,0,0,10.568.006,1.585,1.585,0,0,1,2.13.142,4.472,4.472,0,0,1,1.236,3.086v.711a3.573,3.573,0,0,1,2.392.462v-2.97c0-4.316-1.558-4.915-2.424-4.915Z" transform="translate(-51.641 -17.611)" fill="#5b5d60"/>
          </g>
        </g>
        <g id="Grupo_1181534" data-name="Grupo 1181534" transform="translate(0.788 31.356)">
          <g id="Grupo_1181533" data-name="Grupo 1181533">
            <path id="Trazado_1043655" data-name="Trazado 1043655" d="M47.111,161.137V140.268l-.376-.095-.631-.311-3.637,3.879a.824.824,0,0,1-1.164.037L40,142.552a.823.823,0,0,1-.037-1.164l3.222-3.436a2.984,2.984,0,0,1-.485-1.63v-1.408a8.58,8.58,0,0,1-7.97,0v1.408a2.984,2.984,0,0,1-.485,1.63l3.222,3.436a.823.823,0,0,1-.037,1.164l-1.307,1.226a.824.824,0,0,1-1.164-.037l-3.637-3.879-.631.311-6.717,1.691a3.413,3.413,0,0,0-2.575,3.12l-.956,16.49a.949.949,0,0,0,.947,1H48.45a1.339,1.339,0,0,1-1.339-1.339Z" transform="translate(-20.435 -134.915)" fill="#c7d7e5"/>
          </g>
        </g>
        <g id="Grupo_1181536" data-name="Grupo 1181536" transform="translate(0.788 52.178)">
          <g id="Grupo_1181535" data-name="Grupo 1181535">
            <path id="Trazado_1043656" data-name="Trazado 1043656" d="M20.768,224.5l-.333,5.738a.949.949,0,0,0,.947,1h5.347V224.5Z" transform="translate(-20.434 -224.5)" fill="#f9d0b4"/>
          </g>
        </g>
        <g id="Grupo_1181538" data-name="Grupo 1181538" transform="translate(11.669 34.394)">
          <g id="Grupo_1181537" data-name="Grupo 1181537">
            <path id="Trazado_1043657" data-name="Trazado 1043657" d="M73.4,151.42l-3.222-3.436a2.986,2.986,0,0,1-1.181,1.05l-1.743.859,3.637,3.879a.823.823,0,0,0,1.164.037l1.307-1.226A.823.823,0,0,0,73.4,151.42Z" transform="translate(-67.249 -147.984)" fill="#edf4fc"/>
          </g>
        </g>
        <g id="Grupo_1181540" data-name="Grupo 1181540" transform="translate(20.09 34.394)">
          <g id="Grupo_1181539" data-name="Grupo 1181539">
            <path id="Trazado_1043658" data-name="Trazado 1043658" d="M108.1,149.034a2.984,2.984,0,0,1-1.181-1.05L103.7,151.42a.824.824,0,0,0,.037,1.164l1.307,1.226a.824.824,0,0,0,1.164-.037l3.637-3.879Z" transform="translate(-103.479 -147.984)" fill="#edf4fc"/>
          </g>
        </g>
        <g id="Grupo_1181542" data-name="Grupo 1181542" transform="translate(14.594 31.356)">
          <g id="Grupo_1181541" data-name="Grupo 1181541">
            <path id="Trazado_1043659" data-name="Trazado 1043659" d="M88.288,136.323v-1.408a8.58,8.58,0,0,1-7.97,0v1.408a2.984,2.984,0,0,1-.485,1.63l3.222,3.436a.818.818,0,0,1,.2.4h2.087a.817.817,0,0,1,.2-.4l3.222-3.436A2.986,2.986,0,0,1,88.288,136.323Z" transform="translate(-79.833 -134.915)" fill="#f9d0b4"/>
          </g>
        </g>
        <g id="Grupo_1181544" data-name="Grupo 1181544" transform="translate(17.88 38.232)">
          <g id="Grupo_1181543" data-name="Grupo 1181543">
            <path id="Trazado_1043660" data-name="Trazado 1043660" d="M96.2,164.5H94.111a.822.822,0,0,1-.14.645v20.041h2.368V165.143A.822.822,0,0,1,96.2,164.5Z" transform="translate(-93.971 -164.498)" fill="#edf4fc"/>
          </g>
        </g>
        <g id="Grupo_1181546" data-name="Grupo 1181546" transform="translate(27.465 25.341)">
          <g id="Grupo_1181545" data-name="Grupo 1181545">
            <path id="Trazado_1043661" data-name="Trazado 1043661" d="M157.2,109.031H136.553a1.339,1.339,0,0,0-1.339,1.339v30.9a1.339,1.339,0,0,0,1.339,1.339H157.2a1.339,1.339,0,0,0,1.339-1.339v-30.9A1.339,1.339,0,0,0,157.2,109.031Z" transform="translate(-135.214 -109.031)" fill="#fcdd86"/>
          </g>
        </g>
        <g id="Grupo_1181548" data-name="Grupo 1181548" transform="translate(27.465 28.255)">
          <g id="Grupo_1181547" data-name="Grupo 1181547">
            <path id="Trazado_1043662" data-name="Trazado 1043662" d="M135.213,121.57v29.324a1.339,1.339,0,0,0,1.339,1.339h4.654V121.57Z" transform="translate(-135.213 -121.57)" fill="#f5c84c"/>
          </g>
        </g>
        <g id="Grupo_1181550" data-name="Grupo 1181550" transform="translate(27.465 25.341)">
          <g id="Grupo_1181549" data-name="Grupo 1181549">
            <path id="Trazado_1043663" data-name="Trazado 1043663" d="M157.2,109.031H136.553a1.339,1.339,0,0,0-1.339,1.339v1.575h23.324V110.37A1.339,1.339,0,0,0,157.2,109.031Z" transform="translate(-135.214 -109.031)" fill="#3a70bf"/>
          </g>
        </g>
        <g id="Grupo_1181552" data-name="Grupo 1181552" transform="translate(27.465 25.341)">
          <g id="Grupo_1181551" data-name="Grupo 1181551">
            <path id="Trazado_1043664" data-name="Trazado 1043664" d="M136.552,109.031a1.339,1.339,0,0,0-1.339,1.339v1.575h2.82v-2.914Z" transform="translate(-135.213 -109.031)" fill="#5290db"/>
          </g>
        </g>
        <g id="Grupo_1181554" data-name="Grupo 1181554" transform="translate(6.503 44.949)">
          <g id="Grupo_1181553" data-name="Grupo 1181553">
            <path id="Trazado_1043665" data-name="Trazado 1043665" d="M45.6,193.4a.581.581,0,0,0-.581.581v13.165a.581.581,0,0,0,1.162,0V193.977A.581.581,0,0,0,45.6,193.4Z" transform="translate(-45.021 -193.396)"/>
          </g>
        </g>
        <g id="Grupo_1181557" data-name="Grupo 1181557" transform="translate(9.833 12.271)">
          <g id="Grupo_1181556" data-name="Grupo 1181556">
            <g id="Grupo_1181555" data-name="Grupo 1181555">
              <path id="Trazado_1043666" data-name="Trazado 1043666" d="M76.415,53.469a2.161,2.161,0,0,0-2.909-.2,8.106,8.106,0,0,1-9.851-.007,2.161,2.161,0,0,0-2.908.2,5.033,5.033,0,0,0-1.4,3.487v7.259a9.231,9.231,0,0,0,18.461,0V56.956A5.032,5.032,0,0,0,76.415,53.469Zm.234,10.746a8.069,8.069,0,0,1-16.137,0V56.956a3.877,3.877,0,0,1,1.078-2.688.987.987,0,0,1,.718-.307,1.021,1.021,0,0,1,.63.219,9.268,9.268,0,0,0,11.285.006,1,1,0,0,1,1.351.086,3.875,3.875,0,0,1,1.075,2.685Z" transform="translate(-59.35 -52.798)"/>
            </g>
          </g>
        </g>
        <g id="Grupo_1181559" data-name="Grupo 1181559" transform="translate(27.257 16.516)">
          <g id="Grupo_1181558" data-name="Grupo 1181558">
            <path id="Trazado_1043667" data-name="Trazado 1043667" d="M135.328,71.061c-.134,0-.27.007-.406.02a.581.581,0,0,0,.116,1.156c.1-.01.2-.015.291-.015a3.03,3.03,0,0,1,0,6.061,2.76,2.76,0,0,1-.356-.024.581.581,0,0,0-.149,1.153,3.934,3.934,0,0,0,.5.034,4.192,4.192,0,0,0,0-8.385Z" transform="translate(-134.316 -71.061)"/>
          </g>
        </g>
        <g id="Grupo_1181561" data-name="Grupo 1181561" transform="translate(5.668 16.515)">
          <g id="Grupo_1181560" data-name="Grupo 1181560">
            <path id="Trazado_1043668" data-name="Trazado 1043668" d="M46.667,78.75a.579.579,0,0,0-.655-.5,2.868,2.868,0,0,1-.392.029,3.03,3.03,0,0,1,0-6.061,2.925,2.925,0,0,1,.323.018.581.581,0,0,0,.128-1.155,4.1,4.1,0,0,0-.45-.025,4.192,4.192,0,0,0,0,8.385,4.038,4.038,0,0,0,.551-.04A.581.581,0,0,0,46.667,78.75Z" transform="translate(-41.428 -71.06)"/>
          </g>
        </g>
        <g id="Grupo_1181563" data-name="Grupo 1181563" transform="translate(16.265 25.392)">
          <g id="Grupo_1181562" data-name="Grupo 1181562">
            <path id="Trazado_1043669" data-name="Trazado 1043669" d="M92.667,109.388a.581.581,0,0,0-.819.072,2.66,2.66,0,0,1-3.8,0,.581.581,0,0,0-.891.747,3.815,3.815,0,0,0,5.578,0A.582.582,0,0,0,92.667,109.388Z" transform="translate(-87.025 -109.252)"/>
          </g>
        </g>
        <g id="Grupo_1181565" data-name="Grupo 1181565" transform="translate(21.93 19.945)">
          <g id="Grupo_1181564" data-name="Grupo 1181564">
            <circle id="Elipse_12501" data-name="Elipse 12501" cx="1.162" cy="1.162" r="1.162"/>
          </g>
        </g>
        <g id="Grupo_1181567" data-name="Grupo 1181567" transform="translate(14.125 19.945)">
          <g id="Grupo_1181566" data-name="Grupo 1181566">
            <circle id="Elipse_12502" data-name="Elipse 12502" cx="1.162" cy="1.162" r="1.162"/>
          </g>
        </g>
        <g id="Grupo_1181569" data-name="Grupo 1181569" transform="translate(7.46 3.514)">
          <g id="Grupo_1181568" data-name="Grupo 1181568">
            <path id="Trazado_1043670" data-name="Trazado 1043670" d="M69.4,20.744a4.978,4.978,0,0,0-1.8-3.9c-1.964-1.631-5.585-2.136-9.934-1.385a10.25,10.25,0,0,0-8.526,10.121v3.466a.581.581,0,1,0,1.162,0V25.581a9.091,9.091,0,0,1,7.561-8.976c4.013-.693,7.291-.28,8.994,1.134a3.878,3.878,0,0,1,1.378,3.08,1.119,1.119,0,0,0,1.126,1.086c1.171,0,1.843,1.58,1.843,4.334V29a.581.581,0,1,0,1.162,0V26.24c0-4.732-1.844-5.481-2.97-5.5Z" transform="translate(-49.141 -15.12)"/>
          </g>
        </g>
        <g id="Grupo_1181571" data-name="Grupo 1181571" transform="translate(14.013 30.89)">
          <g id="Grupo_1181570" data-name="Grupo 1181570">
            <path id="Trazado_1043671" data-name="Trazado 1043671" d="M78.4,132.906a.581.581,0,0,0-.581.581v1.294a2.4,2.4,0,0,1-.391,1.312.581.581,0,1,0,.974.634,3.56,3.56,0,0,0,.579-1.947v-1.294A.581.581,0,0,0,78.4,132.906Z" transform="translate(-77.332 -132.906)"/>
          </g>
        </g>
        <g id="Grupo_1181573" data-name="Grupo 1181573" transform="translate(22.468 30.868)">
          <g id="Grupo_1181572" data-name="Grupo 1181572">
            <path id="Trazado_1043672" data-name="Trazado 1043672" d="M115.264,136.022a2.4,2.4,0,0,1-.391-1.312v-1.315a.581.581,0,0,0-1.162,0v1.315a3.56,3.56,0,0,0,.579,1.947.581.581,0,1,0,.974-.634Z" transform="translate(-113.711 -132.813)"/>
          </g>
        </g>
        <g id="Grupo_1181575" data-name="Grupo 1181575" transform="translate(25.877 35.723)">
          <g id="Grupo_1181574" data-name="Grupo 1181574">
            <path id="Trazado_1043673" data-name="Trazado 1043673" d="M130.047,154.109l-.252-.063-.575-.284a.581.581,0,1,0-.514,1.042l.631.311a.578.578,0,0,0,.115.042l.312.078a.581.581,0,1,0,.284-1.127Z" transform="translate(-128.382 -153.701)"/>
          </g>
        </g>
        <g id="Grupo_1181577" data-name="Grupo 1181577" transform="translate(0.207 35.723)">
          <g id="Grupo_1181576" data-name="Grupo 1181576">
            <path id="Trazado_1043674" data-name="Trazado 1043674" d="M46.53,176.315H19.463a.368.368,0,0,1-.367-.387l.956-16.492a2.82,2.82,0,0,1,2.137-2.589l6.717-1.691a.579.579,0,0,0,.115-.042l.631-.311a.581.581,0,1,0-.514-1.042l-.576.284L21.9,155.721a3.977,3.977,0,0,0-3.013,3.65l-.956,16.492a1.53,1.53,0,0,0,1.527,1.615H46.53a.581.581,0,0,0,0-1.162Z" transform="translate(-17.933 -153.701)"/>
          </g>
        </g>
        <g id="Grupo_1181579" data-name="Grupo 1181579" transform="translate(43.96 31.669)">
          <g id="Grupo_1181578" data-name="Grupo 1181578">
            <path id="Trazado_1043675" data-name="Trazado 1043675" d="M210.352,136.258h-3.587a.581.581,0,1,0,0,1.162h3.587a.581.581,0,0,0,0-1.162Z" transform="translate(-206.184 -136.258)"/>
          </g>
        </g>
        <g id="Grupo_1181581" data-name="Grupo 1181581" transform="translate(40.256 31.669)">
          <g id="Grupo_1181580" data-name="Grupo 1181580">
            <path id="Trazado_1043676" data-name="Trazado 1043676" d="M192.733,136.258h-1.9a.581.581,0,1,0,0,1.162h1.9a.581.581,0,0,0,0-1.162Z" transform="translate(-190.249 -136.258)"/>
          </g>
        </g>
        <g id="Grupo_1181583" data-name="Grupo 1181583" transform="translate(37.903 31.669)">
          <g id="Grupo_1181582" data-name="Grupo 1181582">
            <path id="Trazado_1043677" data-name="Trazado 1043677" d="M181.213,136.258h-.51a.581.581,0,1,0,0,1.162h.51a.581.581,0,1,0,0-1.162Z" transform="translate(-180.122 -136.258)"/>
          </g>
        </g>
        <g id="Grupo_1181585" data-name="Grupo 1181585" transform="translate(42.94 34.873)">
          <g id="Grupo_1181584" data-name="Grupo 1181584">
            <path id="Trazado_1043678" data-name="Trazado 1043678" d="M206.982,150.045h-4.608a.581.581,0,0,0,0,1.162h4.608a.581.581,0,0,0,0-1.162Z" transform="translate(-201.793 -150.045)"/>
          </g>
        </g>
        <g id="Grupo_1181587" data-name="Grupo 1181587" transform="translate(40.256 34.873)">
          <g id="Grupo_1181586" data-name="Grupo 1181586">
            <path id="Trazado_1043679" data-name="Trazado 1043679" d="M191.781,150.045h-.952a.581.581,0,0,0,0,1.162h.952a.581.581,0,0,0,0-1.162Z" transform="translate(-190.248 -150.045)"/>
          </g>
        </g>
        <g id="Grupo_1181589" data-name="Grupo 1181589" transform="translate(37.903 34.873)">
          <g id="Grupo_1181588" data-name="Grupo 1181588">
            <path id="Trazado_1043680" data-name="Trazado 1043680" d="M181.213,150.045h-.51a.581.581,0,1,0,0,1.162h.51a.581.581,0,0,0,0-1.162Z" transform="translate(-180.122 -150.045)"/>
          </g>
        </g>
        <g id="Grupo_1181591" data-name="Grupo 1181591" transform="translate(46.48 38.077)">
          <g id="Grupo_1181590" data-name="Grupo 1181590">
            <path id="Trazado_1043681" data-name="Trazado 1043681" d="M218.674,163.832h-1.068a.581.581,0,0,0,0,1.162h1.068a.581.581,0,1,0,0-1.162Z" transform="translate(-217.025 -163.832)"/>
          </g>
        </g>
        <g id="Grupo_1181593" data-name="Grupo 1181593" transform="translate(40.256 38.077)">
          <g id="Grupo_1181592" data-name="Grupo 1181592">
            <path id="Trazado_1043682" data-name="Trazado 1043682" d="M195.316,163.832h-4.487a.581.581,0,0,0,0,1.162h4.487a.581.581,0,1,0,0-1.162Z" transform="translate(-190.248 -163.832)"/>
          </g>
        </g>
        <g id="Grupo_1181595" data-name="Grupo 1181595" transform="translate(37.903 38.077)">
          <g id="Grupo_1181594" data-name="Grupo 1181594">
            <path id="Trazado_1043683" data-name="Trazado 1043683" d="M181.213,163.832h-.51a.581.581,0,1,0,0,1.162h.51a.581.581,0,0,0,0-1.162Z" transform="translate(-180.122 -163.832)"/>
          </g>
        </g>
        <g id="Grupo_1181597" data-name="Grupo 1181597" transform="translate(35.374 31.669)">
          <g id="Grupo_1181596" data-name="Grupo 1181596">
            <path id="Trazado_1043684" data-name="Trazado 1043684" d="M170.334,136.258h-.51a.581.581,0,1,0,0,1.162h.51a.581.581,0,1,0,0-1.162Z" transform="translate(-169.243 -136.258)"/>
          </g>
        </g>
        <g id="Grupo_1181599" data-name="Grupo 1181599" transform="translate(35.374 34.873)">
          <g id="Grupo_1181598" data-name="Grupo 1181598">
            <path id="Trazado_1043685" data-name="Trazado 1043685" d="M170.334,150.045h-.51a.581.581,0,1,0,0,1.162h.51a.581.581,0,1,0,0-1.162Z" transform="translate(-169.243 -150.045)"/>
          </g>
        </g>
        <g id="Grupo_1181601" data-name="Grupo 1181601" transform="translate(35.374 38.077)">
          <g id="Grupo_1181600" data-name="Grupo 1181600">
            <path id="Trazado_1043686" data-name="Trazado 1043686" d="M170.334,163.832h-.51a.581.581,0,1,0,0,1.162h.51a.581.581,0,1,0,0-1.162Z" transform="translate(-169.243 -163.832)"/>
          </g>
        </g>
        <g id="Grupo_1181603" data-name="Grupo 1181603" transform="translate(40.256 41.282)">
          <g id="Grupo_1181602" data-name="Grupo 1181602">
            <path id="Trazado_1043687" data-name="Trazado 1043687" d="M194.3,177.619h-3.472a.581.581,0,0,0,0,1.162H194.3a.581.581,0,0,0,0-1.162Z" transform="translate(-190.248 -177.619)"/>
          </g>
        </g>
        <g id="Grupo_1181605" data-name="Grupo 1181605" transform="translate(40.256 44.486)">
          <g id="Grupo_1181604" data-name="Grupo 1181604">
            <path id="Trazado_1043688" data-name="Trazado 1043688" d="M193.28,191.406h-2.451a.581.581,0,0,0,0,1.162h2.451a.581.581,0,1,0,0-1.162Z" transform="translate(-190.248 -191.406)"/>
          </g>
        </g>
        <g id="Grupo_1181607" data-name="Grupo 1181607" transform="translate(46.48 47.69)">
          <g id="Grupo_1181606" data-name="Grupo 1181606">
            <path id="Trazado_1043689" data-name="Trazado 1043689" d="M218.674,205.193h-1.068a.581.581,0,0,0,0,1.162h1.068a.581.581,0,1,0,0-1.162Z" transform="translate(-217.025 -205.193)"/>
          </g>
        </g>
        <g id="Grupo_1181609" data-name="Grupo 1181609" transform="translate(40.256 47.69)">
          <g id="Grupo_1181608" data-name="Grupo 1181608">
            <path id="Trazado_1043690" data-name="Trazado 1043690" d="M195.316,205.193h-4.487a.581.581,0,0,0,0,1.162h4.487a.581.581,0,1,0,0-1.162Z" transform="translate(-190.248 -205.193)"/>
          </g>
        </g>
        <g id="Grupo_1181611" data-name="Grupo 1181611" transform="translate(37.903 47.69)">
          <g id="Grupo_1181610" data-name="Grupo 1181610">
            <path id="Trazado_1043691" data-name="Trazado 1043691" d="M181.213,205.193h-.51a.581.581,0,1,0,0,1.162h.51a.581.581,0,0,0,0-1.162Z" transform="translate(-180.122 -205.193)"/>
          </g>
        </g>
        <g id="Grupo_1181613" data-name="Grupo 1181613" transform="translate(35.374 41.282)">
          <g id="Grupo_1181612" data-name="Grupo 1181612">
            <path id="Trazado_1043692" data-name="Trazado 1043692" d="M170.334,177.619h-.51a.581.581,0,1,0,0,1.162h.51a.581.581,0,1,0,0-1.162Z" transform="translate(-169.243 -177.619)"/>
          </g>
        </g>
        <g id="Grupo_1181615" data-name="Grupo 1181615" transform="translate(29.25 31.669)">
          <g id="Grupo_1181614" data-name="Grupo 1181614">
            <path id="Trazado_1043693" data-name="Trazado 1043693" d="M144.7,136.258h-1.228a.581.581,0,1,0,0,1.162H144.7a.581.581,0,1,0,0-1.162Z" transform="translate(-142.893 -136.258)"/>
          </g>
        </g>
        <g id="Grupo_1181617" data-name="Grupo 1181617" transform="translate(29.25 34.873)">
          <g id="Grupo_1181616" data-name="Grupo 1181616">
            <path id="Trazado_1043694" data-name="Trazado 1043694" d="M144.7,150.045h-1.228a.581.581,0,1,0,0,1.162H144.7a.581.581,0,1,0,0-1.162Z" transform="translate(-142.893 -150.045)"/>
          </g>
        </g>
        <g id="Grupo_1181619" data-name="Grupo 1181619" transform="translate(29.25 38.077)">
          <g id="Grupo_1181618" data-name="Grupo 1181618">
            <path id="Trazado_1043695" data-name="Trazado 1043695" d="M144.7,163.832h-1.228a.581.581,0,1,0,0,1.162H144.7a.581.581,0,1,0,0-1.162Z" transform="translate(-142.893 -163.832)"/>
          </g>
        </g>
        <g id="Grupo_1181621" data-name="Grupo 1181621" transform="translate(29.25 41.282)">
          <g id="Grupo_1181620" data-name="Grupo 1181620">
            <path id="Trazado_1043696" data-name="Trazado 1043696" d="M144.7,177.619h-1.228a.581.581,0,1,0,0,1.162H144.7a.581.581,0,1,0,0-1.162Z" transform="translate(-142.893 -177.619)"/>
          </g>
        </g>
        <g id="Grupo_1181623" data-name="Grupo 1181623" transform="translate(35.374 44.486)">
          <g id="Grupo_1181622" data-name="Grupo 1181622">
            <path id="Trazado_1043697" data-name="Trazado 1043697" d="M170.334,191.406h-.51a.581.581,0,1,0,0,1.162h.51a.581.581,0,1,0,0-1.162Z" transform="translate(-169.243 -191.406)"/>
          </g>
        </g>
        <g id="Grupo_1181625" data-name="Grupo 1181625" transform="translate(35.374 47.69)">
          <g id="Grupo_1181624" data-name="Grupo 1181624">
            <path id="Trazado_1043698" data-name="Trazado 1043698" d="M170.334,205.193h-.51a.581.581,0,1,0,0,1.162h.51a.581.581,0,1,0,0-1.162Z" transform="translate(-169.243 -205.193)"/>
          </g>
        </g>
        <g id="Grupo_1181627" data-name="Grupo 1181627" transform="translate(40.256 50.895)">
          <g id="Grupo_1181626" data-name="Grupo 1181626">
            <path id="Trazado_1043699" data-name="Trazado 1043699" d="M192.733,218.979h-1.9a.581.581,0,0,0,0,1.162h1.9a.581.581,0,0,0,0-1.162Z" transform="translate(-190.249 -218.979)"/>
          </g>
        </g>
        <g id="Grupo_1181629" data-name="Grupo 1181629" transform="translate(37.903 50.895)">
          <g id="Grupo_1181628" data-name="Grupo 1181628">
            <path id="Trazado_1043700" data-name="Trazado 1043700" d="M181.213,218.979h-.51a.581.581,0,1,0,0,1.162h.51a.581.581,0,0,0,0-1.162Z" transform="translate(-180.122 -218.979)"/>
          </g>
        </g>
        <g id="Grupo_1181631" data-name="Grupo 1181631" transform="translate(35.374 50.895)">
          <g id="Grupo_1181630" data-name="Grupo 1181630">
            <path id="Trazado_1043701" data-name="Trazado 1043701" d="M170.334,218.979h-.51a.581.581,0,1,0,0,1.162h.51a.581.581,0,1,0,0-1.162Z" transform="translate(-169.243 -218.979)"/>
          </g>
        </g>
        <g id="Grupo_1181633" data-name="Grupo 1181633" transform="translate(40.256 54.099)">
          <g id="Grupo_1181632" data-name="Grupo 1181632">
            <path id="Trazado_1043702" data-name="Trazado 1043702" d="M192.733,232.767h-1.9a.581.581,0,0,0,0,1.162h1.9a.581.581,0,0,0,0-1.162Z" transform="translate(-190.249 -232.767)"/>
          </g>
        </g>
        <g id="Grupo_1181635" data-name="Grupo 1181635" transform="translate(37.903 54.099)">
          <g id="Grupo_1181634" data-name="Grupo 1181634">
            <path id="Trazado_1043703" data-name="Trazado 1043703" d="M181.213,232.767h-.51a.581.581,0,1,0,0,1.162h.51a.581.581,0,0,0,0-1.162Z" transform="translate(-180.122 -232.767)"/>
          </g>
        </g>
        <g id="Grupo_1181637" data-name="Grupo 1181637" transform="translate(35.374 54.099)">
          <g id="Grupo_1181636" data-name="Grupo 1181636">
            <path id="Trazado_1043704" data-name="Trazado 1043704" d="M170.334,232.767h-.51a.581.581,0,1,0,0,1.162h.51a.581.581,0,1,0,0-1.162Z" transform="translate(-169.243 -232.767)"/>
          </g>
        </g>
        <g id="Grupo_1181639" data-name="Grupo 1181639" transform="translate(32.877 27.906)">
          <g id="Grupo_1181638" data-name="Grupo 1181638">
            <path id="Trazado_1043705" data-name="Trazado 1043705" d="M159.081,120.07a.581.581,0,0,0-.581.581v30.2a.581.581,0,0,0,1.162,0v-30.2a.581.581,0,0,0-.581-.581Z" transform="translate(-158.5 -120.07)"/>
          </g>
        </g>
        <g id="Grupo_1181641" data-name="Grupo 1181641" transform="translate(10.304 0)">
          <g id="Grupo_1181640" data-name="Grupo 1181640">
            <path id="Trazado_1043706" data-name="Trazado 1043706" d="M64.369,1.444A1.81,1.81,0,0,1,62.917.025c0-.033-.065-.033-.065,0A1.81,1.81,0,0,1,61.4,1.444c-.033,0-.033.049,0,.065a1.81,1.81,0,0,1,1.451,1.419c0,.033.065.033.065,0a1.81,1.81,0,0,1,1.451-1.419C64.4,1.493,64.4,1.444,64.369,1.444Z" transform="translate(-61.376 -0.001)" fill="#87d147"/>
          </g>
        </g>
        <g id="Grupo_1181643" data-name="Grupo 1181643" transform="translate(2.231 27.797)">
          <g id="Grupo_1181642" data-name="Grupo 1181642">
            <path id="Trazado_1043707" data-name="Trazado 1043707" d="M29.942,120.878h-.535v-.535a.749.749,0,0,0-.744-.744.734.734,0,0,0-.744.744v.535h-.535a.749.749,0,0,0-.744.744.734.734,0,0,0,.744.744h.535v.535a.749.749,0,0,0,.744.744.734.734,0,0,0,.744-.744v-.535h.535a.749.749,0,0,0,.744-.744A.734.734,0,0,0,29.942,120.878Z" transform="translate(-26.642 -119.6)" fill="#70d6f9"/>
          </g>
        </g>
        <g id="Grupo_1181645" data-name="Grupo 1181645" transform="translate(37.652 21.15)">
          <g id="Grupo_1181644" data-name="Grupo 1181644">
            <path id="Trazado_1043708" data-name="Trazado 1043708" d="M179.832,91a.79.79,0,1,0,.79.79A.79.79,0,0,0,179.832,91Z" transform="translate(-179.042 -91)" fill="#fc657e"/>
          </g>
        </g>
        <g id="Grupo_1181647" data-name="Grupo 1181647" transform="translate(0 34.863)">
          <g id="Grupo_1181646" data-name="Grupo 1181646">
            <path id="Trazado_1043709" data-name="Trazado 1043709" d="M17.832,150a.79.79,0,1,0,.79.79A.79.79,0,0,0,17.832,150Z" transform="translate(-17.042 -150)" fill="#f5c84c"/>
          </g>
        </g>
        <g id="Grupo_1181649" data-name="Grupo 1181649" transform="translate(33.712 13.84)">
          <g id="Grupo_1181648" data-name="Grupo 1181648">
            <path id="Trazado_1043710" data-name="Trazado 1043710" d="M166.357,61.6a2.579,2.579,0,0,1-2.069-2.022c0-.046-.093-.046-.093,0a2.579,2.579,0,0,1-2.069,2.022c-.046,0-.046.07,0,.093a2.579,2.579,0,0,1,2.069,2.022c0,.046.093.046.093,0a2.579,2.579,0,0,1,2.069-2.022C166.4,61.674,166.4,61.6,166.357,61.6Z" transform="translate(-162.092 -59.547)" fill="#f5c84c"/>
          </g>
        </g>
        <g id="Grupo_1181651" data-name="Grupo 1181651" transform="translate(0.695 51.597)">
          <g id="Grupo_1181650" data-name="Grupo 1181650">
            <path id="Trazado_1043711" data-name="Trazado 1043711" d="M26.27,222H20.612a.581.581,0,1,0,0,1.162H26.27a.581.581,0,1,0,0-1.162Z" transform="translate(-20.031 -222)"/>
          </g>
        </g>
        <g id="Grupo_1181654" data-name="Grupo 1181654" transform="translate(11.088 33.813)">
          <g id="Grupo_1181653" data-name="Grupo 1181653">
            <g id="Grupo_1181652" data-name="Grupo 1181652">
              <path id="Trazado_1043712" data-name="Trazado 1043712" d="M71.9,149.1l-3.222-3.436a.581.581,0,0,0-.911.08,2.411,2.411,0,0,1-.952.846l-1.743.859a.581.581,0,0,0-.167.919l3.637,3.879a1.4,1.4,0,0,0,.979.443h.046a1.4,1.4,0,0,0,.96-.38l1.308-1.226A1.406,1.406,0,0,0,71.9,149.1Zm-.859,1.138-1.308,1.226a.243.243,0,0,1-.343-.011l-3.1-3.307,1.04-.513a3.562,3.562,0,0,0,.955-.689l2.767,2.951a.243.243,0,0,1-.011.343Z" transform="translate(-64.75 -145.485)"/>
            </g>
          </g>
        </g>
        <g id="Grupo_1181657" data-name="Grupo 1181657" transform="translate(19.509 33.813)">
          <g id="Grupo_1181656" data-name="Grupo 1181656">
            <g id="Grupo_1181655" data-name="Grupo 1181655">
              <path id="Trazado_1043713" data-name="Trazado 1043713" d="M108.5,147.872a.582.582,0,0,0-.315-.417l-1.743-.859a2.411,2.411,0,0,1-.952-.846.581.581,0,0,0-.911-.08l-3.222,3.436a1.406,1.406,0,0,0,.064,1.986l1.307,1.226a1.4,1.4,0,0,0,.96.38h.046a1.4,1.4,0,0,0,.98-.443l3.637-3.879a.581.581,0,0,0,.148-.5Zm-4.633,3.585a.242.242,0,0,1-.169.076.228.228,0,0,1-.174-.066l-1.307-1.226a.243.243,0,0,1-.011-.343l2.767-2.951a3.557,3.557,0,0,0,.955.689l1.04.513Z" transform="translate(-100.982 -145.485)"/>
            </g>
          </g>
        </g>
        <g id="Grupo_1181660" data-name="Grupo 1181660" transform="translate(14.013 30.776)">
          <g id="Grupo_1181659" data-name="Grupo 1181659">
            <g id="Grupo_1181658" data-name="Grupo 1181658">
              <path id="Trazado_1043714" data-name="Trazado 1043714" d="M87.341,135.717a2.4,2.4,0,0,1-.391-1.312V133a.581.581,0,0,0-.85-.515,8,8,0,0,1-7.431,0,.581.581,0,0,0-.85.515V134.4a2.4,2.4,0,0,1-.391,1.312.581.581,0,0,0,.063.714l3.221,3.435a.238.238,0,0,1,.059.119.581.581,0,0,0,.57.469h2.087a.581.581,0,0,0,.57-.469.235.235,0,0,1,.058-.118l3.222-3.436A.581.581,0,0,0,87.341,135.717Zm-4.132,3.355a1.392,1.392,0,0,0-.168.219H81.727a1.379,1.379,0,0,0-.168-.219l-2.931-3.126a3.554,3.554,0,0,0,.352-1.542v-.5a9.276,9.276,0,0,0,6.808,0v.5a3.554,3.554,0,0,0,.352,1.542Z" transform="translate(-77.333 -132.416)"/>
            </g>
          </g>
        </g>
        <g id="Grupo_1181665" data-name="Grupo 1181665" transform="translate(17.299 38.32)">
          <g id="Grupo_1181662" data-name="Grupo 1181662" transform="translate(2.368 0.017)">
            <g id="Grupo_1181661" data-name="Grupo 1181661">
              <path id="Trazado_1043715" data-name="Trazado 1043715" d="M102.241,164.947a.581.581,0,0,0-.581.581v19.884a.581.581,0,1,0,1.162,0V165.528A.581.581,0,0,0,102.241,164.947Z" transform="translate(-101.66 -164.947)"/>
            </g>
          </g>
          <g id="Grupo_1181664" data-name="Grupo 1181664">
            <g id="Grupo_1181663" data-name="Grupo 1181663">
              <path id="Trazado_1043716" data-name="Trazado 1043716" d="M92.053,164.875a.581.581,0,0,0-.581.581v19.9a.581.581,0,1,0,1.162,0v-19.9A.581.581,0,0,0,92.053,164.875Z" transform="translate(-91.472 -164.875)"/>
            </g>
          </g>
        </g>
        <g id="Grupo_1181668" data-name="Grupo 1181668" transform="translate(26.884 24.76)">
          <g id="Grupo_1181667" data-name="Grupo 1181667">
            <g id="Grupo_1181666" data-name="Grupo 1181666">
              <path id="Trazado_1043717" data-name="Trazado 1043717" d="M155.279,106.531H134.633a1.923,1.923,0,0,0-1.92,1.92v30.9a1.923,1.923,0,0,0,1.92,1.92h20.645a1.922,1.922,0,0,0,1.92-1.92v-30.9a1.923,1.923,0,0,0-1.92-1.92Zm.758,32.819a.759.759,0,0,1-.758.758H134.633a.759.759,0,0,1-.758-.758v-30.9a.759.759,0,0,1,.758-.758h20.645a.759.759,0,0,1,.758.758Z" transform="translate(-132.713 -106.531)"/>
            </g>
          </g>
        </g>
        <g id="Grupo_1181670" data-name="Grupo 1181670" transform="translate(27.052 27.674)">
          <g id="Grupo_1181669" data-name="Grupo 1181669">
            <path id="Trazado_1043718" data-name="Trazado 1043718" d="M157.013,119.07H134.018a.581.581,0,0,0,0,1.162h22.995a.581.581,0,1,0,0-1.162Z" transform="translate(-133.437 -119.07)"/>
          </g>
        </g>
        <g id="Grupo_1181672" data-name="Grupo 1181672" transform="translate(29.704 24.985)">
          <g id="Grupo_1181671" data-name="Grupo 1181671">
            <path id="Trazado_1043719" data-name="Trazado 1043719" d="M145.427,107.5a.581.581,0,0,0-.581.581v2.489a.581.581,0,0,0,1.162,0v-2.489A.581.581,0,0,0,145.427,107.5Z" transform="translate(-144.846 -107.5)"/>
          </g>
        </g>
      </g>
    </g>
  </g>
</svg>
