<svg xmlns="http://www.w3.org/2000/svg" xmlns:xlink="http://www.w3.org/1999/xlink" width="108.914" height="108.914" viewBox="0 0 108.914 108.914">
  <defs>
    <filter id="Trazado_874925" x="0" y="0" width="108.914" height="108.914" filterUnits="userSpaceOnUse">
      <feOffset dy="3" input="SourceAlpha"/>
      <feGaussianBlur stdDeviation="3" result="blur"/>
      <feFlood flood-opacity="0.161"/>
      <feComposite operator="in" in2="blur"/>
      <feComposite in="SourceGraphic"/>
    </filter>
  </defs>
  <g id="Grupo_1179957" data-name="Grupo 1179957" transform="translate(-375.284 -8928.725)">
    <g id="Grupo_1179377" data-name="Grupo 1179377" transform="translate(384.283 8934.726)">
      <g id="Grupo_1179014" data-name="Grupo 1179014" transform="translate(0 0)">
        <g id="Grupo_1111527" data-name="Grupo 1111527" transform="translate(0 0)">
          <g id="Grupo_1111316" data-name="Grupo 1111316">
            <g id="Grupo_1109835" data-name="Grupo 1109835" transform="translate(0 0)">
              <g id="Grupo_1107913" data-name="Grupo 1107913" transform="translate(0 0)">
                <g transform="matrix(1, 0, 0, 1, -9, -6)" filter="url(#Trazado_874925)">
                  <g id="Trazado_874925-2" data-name="Trazado 874925" transform="translate(9 6)" fill="#fdf9d4" opacity="0.859">
                    <path d="M 45.45676803588867 89.41407012939453 C 39.52198028564453 89.41407012939453 33.76551818847656 88.25206756591797 28.34726715087891 85.96034240722656 C 23.11310577392578 83.74648284912109 18.41203117370605 80.57682800292969 14.37464332580566 76.5394287109375 C 10.33724308013916 72.50202941894531 7.167593002319336 67.80095672607422 4.953730583190918 62.56679534912109 C 2.662005424499512 57.14855575561523 1.500005483627319 51.39208221435547 1.500005483627319 45.45729446411133 C 1.500005483627319 39.52198028564453 2.662005424499512 33.76550674438477 4.953730583190918 28.34726905822754 C 7.167593002319336 23.11310577392578 10.33724308013916 18.41203117370605 14.37464332580566 14.37464332580566 C 18.41203117370605 10.33724403381348 23.11310577392578 7.167593955993652 28.34726715087891 4.953731060028076 C 33.76550674438477 2.662006139755249 39.52198028564453 1.500006198883057 45.45676803588867 1.500006198883057 C 51.39155578613281 1.500006198883057 57.14802932739258 2.662006139755249 62.56626892089844 4.953731060028076 C 67.80043029785156 7.167593955993652 72.50150299072266 10.33724403381348 76.53890228271484 14.37464332580566 C 80.57630920410156 18.41203117370605 83.74595642089844 23.11310577392578 85.95981597900391 28.34726905822754 C 88.25154113769531 33.76551818847656 89.41354370117188 39.52198028564453 89.41354370117188 45.45676803588867 C 89.41354370117188 51.39208221435547 88.25154113769531 57.14855575561523 85.95981597900391 62.56679534912109 C 83.74595642089844 67.80095672607422 80.57630920410156 72.50202941894531 76.53890228271484 76.5394287109375 C 72.50150299072266 80.57682800292969 67.80043029785156 83.74648284912109 62.56626892089844 85.96034240722656 C 57.14802932739258 88.25206756591797 51.39155578613281 89.41407012939453 45.45676803588867 89.41407012939453 Z" stroke="none"/>
                    <path d="M 45.45676803588867 3 C 39.72381210327148 3 34.1639404296875 4.12213134765625 28.93159484863281 6.335227966308594 C 23.87622833251953 8.473472595214844 19.33542633056641 11.53517150878906 15.43529510498047 15.435302734375 C 11.53517150878906 19.33543395996094 8.473464965820312 23.87622833251953 6.335227966308594 28.93160247802734 C 4.122123718261719 34.16394424438477 3 39.72381591796875 3 45.4572868347168 C 3 51.19024658203125 4.122123718261719 56.75011825561523 6.335227966308594 61.98246002197266 C 8.473464965820312 67.03782653808594 11.53517150878906 71.57862854003906 15.43529510498047 75.478759765625 C 19.33542633056641 79.37889099121094 23.87622833251953 82.44058990478516 28.93159484863281 84.57883453369141 C 34.1639404296875 86.79193115234375 39.72381210327148 87.9140625 45.45676803588867 87.9140625 C 51.18972396850586 87.9140625 56.74959564208984 86.79193115234375 61.98194122314453 84.57883453369141 C 67.03730773925781 82.44058990478516 71.57810974121094 79.37889099121094 75.47824096679688 75.478759765625 C 79.37837219238281 71.57862854003906 82.44007110595703 67.03782653808594 84.57830810546875 61.98246002197266 C 86.79141235351562 56.75011825561523 87.91353607177734 51.19024658203125 87.91353607177734 45.4567756652832 C 87.91353607177734 39.72381591796875 86.79141235351562 34.16394424438477 84.57830810546875 28.93160247802734 C 82.44007110595703 23.87622833251953 79.37837219238281 19.33543395996094 75.47824096679688 15.435302734375 C 71.57810974121094 11.53517150878906 67.03730773925781 8.473472595214844 61.98194122314453 6.335227966308594 C 56.74959564208984 4.12213134765625 51.18972396850586 3 45.45676803588867 3 M 45.45676803588867 0 C 70.56185150146484 0 90.91353607177734 20.35169219970703 90.91353607177734 45.4567756652832 L 90.91353607177734 45.4572868347168 C 90.91353607177734 70.5623779296875 70.56185150146484 90.9140625 45.45676803588867 90.9140625 C 20.3516845703125 90.9140625 0 70.5623779296875 0 45.4572868347168 L 0 45.4567756652832 C 0 20.35169219970703 20.3516845703125 0 45.45676803588867 0 Z" stroke="none" fill="#c7b622"/>
                  </g>
                </g>
                <g id="Trazado_874923" data-name="Trazado 874923" transform="translate(0)" fill="none">
                  <path d="M45.457,0A45.457,45.457,0,0,1,90.914,45.457h0A45.457,45.457,0,0,1,0,45.457H0A45.457,45.457,0,0,1,45.457,0Z" stroke="none"/>
                  <path d="M 45.45676803588867 3 C 39.72381210327148 3 34.1639404296875 4.12213134765625 28.93159484863281 6.335227966308594 C 23.87622833251953 8.473472595214844 19.33542633056641 11.53517150878906 15.43529510498047 15.435302734375 C 11.53517150878906 19.33543395996094 8.473464965820312 23.87622833251953 6.335227966308594 28.93160247802734 C 4.122123718261719 34.16394424438477 3 39.72381591796875 3 45.4572868347168 C 3 51.19024658203125 4.122123718261719 56.75011825561523 6.335227966308594 61.98246002197266 C 8.473464965820312 67.03782653808594 11.53517150878906 71.57862854003906 15.43529510498047 75.478759765625 C 19.33542633056641 79.37889099121094 23.87622833251953 82.44058990478516 28.93159484863281 84.57883453369141 C 34.1639404296875 86.79193115234375 39.72381210327148 87.9140625 45.45676803588867 87.9140625 C 51.18972396850586 87.9140625 56.74959564208984 86.79193115234375 61.98194122314453 84.57883453369141 C 67.03730773925781 82.44058990478516 71.57810974121094 79.37889099121094 75.47824096679688 75.478759765625 C 79.37837219238281 71.57862854003906 82.44007110595703 67.03782653808594 84.57830810546875 61.98246002197266 C 86.79141235351562 56.75011825561523 87.91353607177734 51.19024658203125 87.91353607177734 45.4567756652832 C 87.91353607177734 39.72381591796875 86.79141235351562 34.16394424438477 84.57830810546875 28.93160247802734 C 82.44007110595703 23.87622833251953 79.37837219238281 19.33543395996094 75.47824096679688 15.435302734375 C 71.57810974121094 11.53517150878906 67.03730773925781 8.473472595214844 61.98194122314453 6.335227966308594 C 56.74959564208984 4.12213134765625 51.18972396850586 3 45.45676803588867 3 M 45.45676803588867 0 C 70.56185150146484 0 90.91353607177734 20.35169219970703 90.91353607177734 45.4567756652832 L 90.91353607177734 45.4572868347168 C 90.91353607177734 70.5623779296875 70.56185150146484 90.9140625 45.45676803588867 90.9140625 C 20.3516845703125 90.9140625 0 70.5623779296875 0 45.4572868347168 L 0 45.4567756652832 C 0 20.35169219970703 20.3516845703125 0 45.45676803588867 0 Z" stroke="none" fill="#c7b622"/>
                </g>
              </g>
            </g>
          </g>
        </g>
      </g>
    </g>
    <g id="surface1" transform="translate(402.803 8953.811)">
      <path id="Trazado_1049596" data-name="Trazado 1049596" d="M245.584,354.4l-2.307-6.153h-8.791l-2.308,6.153h-2.967v1.758h19.34V354.4Zm0,0" transform="translate(-208.633 -317.482)" fill="#dadddf"/>
      <path id="Trazado_1049597" data-name="Trazado 1049597" d="M288.484,350.887l-.989-2.637H278.7l-.989,2.637Zm0,0" transform="translate(-252.851 -317.482)" fill="#c1c7c9"/>
      <path id="Trazado_1049598" data-name="Trazado 1049598" d="M92.547,9.949a2.637,2.637,0,0,0-2.637,2.637V34.564h43.954V12.587a2.637,2.637,0,0,0-2.637-2.637Zm0,0" transform="translate(-81.639 -9.07)" fill="#4398d1"/>
      <path id="Trazado_1049599" data-name="Trazado 1049599" d="M89.91,288.551v2.637a2.637,2.637,0,0,0,2.637,2.637h38.68a2.637,2.637,0,0,0,2.637-2.637v-2.637Zm0,0" transform="translate(-81.639 -263.058)" fill="#dadddf"/>
      <path id="Trazado_1049600" data-name="Trazado 1049600" d="M30.528,224.214H10.309V189.051H36.681V218.06Zm0,0" transform="translate(-9.07 -172.348)" fill="#87ced9"/>
      <path id="Trazado_1049601" data-name="Trazado 1049601" d="M10.309,295.02v1.758H30.528l6.153-6.154V268.648Zm0,0" transform="translate(-9.07 -244.913)" fill="#71c4d1"/>
      <path id="Trazado_1049602" data-name="Trazado 1049602" d="M245.313,517.4l-6.153,6.154V517.4Zm0,0" transform="translate(-217.703 -471.686)" fill="#4398d1"/>
      <path id="Trazado_1049603" data-name="Trazado 1049603" d="M40.16,218.9h3.516v1.758H40.16Zm0,0" transform="translate(-36.284 -199.558)" fill="#5eb3d1"/>
      <path id="Trazado_1049604" data-name="Trazado 1049604" d="M40.16,258.7h3.516v1.758H40.16Zm0,0" transform="translate(-36.284 -235.843)" fill="#5eb3d1"/>
      <path id="Trazado_1049605" data-name="Trazado 1049605" d="M149.609,288.551h1.758v19.34h-1.758Zm0,0" transform="translate(-136.063 -263.058)" fill="#5eb3d1"/>
      <path id="Trazado_1049606" data-name="Trazado 1049606" d="M348.609,467.648h21.1V478.2h-21.1Zm0,0" transform="translate(-317.482 -426.332)" fill="#dadddf"/>
      <path id="Trazado_1049607" data-name="Trazado 1049607" d="M378.457,537.3h1.758v1.758h-1.758Zm0,0" transform="translate(-344.693 -489.831)" fill="#c1c7c9"/>
      <path id="Trazado_1049608" data-name="Trazado 1049608" d="M537.66,537.3h1.758v1.758H537.66Zm0,0" transform="translate(-489.83 -489.831)" fill="#c1c7c9"/>
      <path id="Trazado_1049609" data-name="Trazado 1049609" d="M378.457,497.5h1.758v1.758h-1.758Zm0,0" transform="translate(-344.693 -453.546)" fill="#c1c7c9"/>
      <path id="Trazado_1049610" data-name="Trazado 1049610" d="M418.258,497.5h1.758v1.758h-1.758Zm0,0" transform="translate(-380.977 -453.546)" fill="#c1c7c9"/>
      <path id="Trazado_1049611" data-name="Trazado 1049611" d="M458.059,497.5h1.758v1.758h-1.758Zm0,0" transform="translate(-417.262 -453.546)" fill="#c1c7c9"/>
      <path id="Trazado_1049612" data-name="Trazado 1049612" d="M497.859,497.5h1.758v1.758h-1.758Zm0,0" transform="translate(-453.546 -453.546)" fill="#c1c7c9"/>
      <path id="Trazado_1049613" data-name="Trazado 1049613" d="M537.66,497.5h1.758v1.758H537.66Zm0,0" transform="translate(-489.83 -453.546)" fill="#c1c7c9"/>
      <path id="Trazado_1049614" data-name="Trazado 1049614" d="M418.258,537.3h8.791v1.758h-8.791Zm0,0" transform="translate(-380.977 -489.831)" fill="#c1c7c9"/>
      <path id="Trazado_1049615" data-name="Trazado 1049615" d="M298.859,129.352h14.065v1.758H298.859Zm0,0" transform="translate(-272.127 -117.924)" fill="#2a7fbf"/>
      <path id="Trazado_1049616" data-name="Trazado 1049616" d="M338.66,179.1h7.032v1.758H338.66Zm0,0" transform="translate(-308.412 -163.275)" fill="#2a7fbf"/>
      <path id="Trazado_1049617" data-name="Trazado 1049617" d="M378.457,79.6h14.065v1.758H378.457Zm0,0" transform="translate(-344.693 -72.565)" fill="#2a7fbf"/>
      <path id="Trazado_1049618" data-name="Trazado 1049618" d="M438.16,179.1h8.791v1.758H438.16Zm0,0" transform="translate(-399.121 -163.275)" fill="#2a7fbf"/>
      <path id="Trazado_1049619" data-name="Trazado 1049619" d="M338.66,228.852h10.549v1.758H338.66Zm0,0" transform="translate(-308.412 -208.633)" fill="#2a7fbf"/>
      <path id="Trazado_1049620" data-name="Trazado 1049620" d="M477.957,228.852h5.275v1.758h-5.275Zm0,0" transform="translate(-435.402 -208.633)" fill="#2a7fbf"/>
      <path id="Trazado_1049621" data-name="Trazado 1049621" d="M477.957,129.352h5.275v1.758h-5.275Zm0,0" transform="translate(-435.402 -117.924)" fill="#2a7fbf"/>
      <path id="Trazado_1049622" data-name="Trazado 1049622" d="M298.859,79.6h5.274v1.758h-5.274Zm0,0" transform="translate(-272.127 -72.565)" fill="#2a7fbf"/>
      <path id="Trazado_1049623" data-name="Trazado 1049623" d="M119.758,39.8h1.758v1.758h-1.758Zm0,0" transform="translate(-108.85 -36.284)" fill="#2a7fbf"/>
      <path id="Trazado_1049624" data-name="Trazado 1049624" d="M159.559,39.8h1.758v1.758h-1.758Zm0,0" transform="translate(-145.134 -36.284)" fill="#2a7fbf"/>
      <path id="Trazado_1049625" data-name="Trazado 1049625" d="M199.359,39.8h1.758v1.758h-1.758Zm0,0" transform="translate(-181.418 -36.284)" fill="#2a7fbf"/>
      <path id="Trazado_1049626" data-name="Trazado 1049626" d="M122.657,89.033,120.02,86.4a.88.88,0,0,1,0-1.243l2.637-2.637,1.243,1.243-2.016,2.016L123.9,87.79Zm0,0" transform="translate(-108.854 -75.225)" fill="#e34b87"/>
      <path id="Trazado_1049627" data-name="Trazado 1049627" d="M233.368,89.033l-1.243-1.243,2.016-2.016-2.016-2.016,1.243-1.243,2.637,2.637a.879.879,0,0,1,0,1.243Zm0,0" transform="translate(-211.289 -75.225)" fill="#e34b87"/>
      <path id="Trazado_1049628" data-name="Trazado 1049628" d="M179.758,84.208l1.76-7.032,1.7.427-1.76,7.032Zm0,0" transform="translate(-163.549 -70.357)" fill="#e34b87"/>
      <path id="Trazado_1049629" data-name="Trazado 1049629" d="M109.809,321.035l4.4-2.637,4.4,2.637-4.4,2.637Zm0,0" transform="translate(-99.78 -290.268)" fill="#e34b87"/>
      <path id="Trazado_1049630" data-name="Trazado 1049630" d="M109.809,407.949H118.6v4.4h-8.791Zm0,0" transform="translate(-99.78 -371.907)" fill="#e34b87"/>
      <path id="Trazado_1049631" data-name="Trazado 1049631" d="M121.956,497.5h2.637a2.2,2.2,0,0,1,0,4.4h-2.637a2.2,2.2,0,1,1,0-4.4Zm0,0" transform="translate(-108.85 -453.546)" fill="#e34b87"/>
      <path id="Trazado_1049632" data-name="Trazado 1049632" d="M121.956,238.8h2.637a2.2,2.2,0,0,1,0,4.4h-2.637a2.2,2.2,0,1,1,0-4.4Zm0,0" transform="translate(-108.85 -217.703)" fill="#e34b87"/>
      <path id="Trazado_1049633" data-name="Trazado 1049633" d="M81.715,3.516a1.758,1.758,0,0,1,1.758-1.758h38.679a1.758,1.758,0,0,1,1.758,1.758v21.1h-21.1v1.758h21.1v1.758a1.757,1.757,0,0,1-1.758,1.758h-19.34v1.758H106.6l1.978,5.274h-5.764v1.758h9.67V36.921h-2.028l-1.978-5.274h13.676a3.517,3.517,0,0,0,3.516-3.516V3.516A3.516,3.516,0,0,0,122.153,0H83.473a3.516,3.516,0,0,0-3.516,3.516V14.065h1.758Zm0,0" transform="translate(-72.565)"/>
      <path id="Trazado_1049634" data-name="Trazado 1049634" d="M1.238,216.023H21.457a.886.886,0,0,0,.621-.257l6.154-6.154a.866.866,0,0,0,.176-.257c.012-.027.019-.054.029-.082a.891.891,0,0,0,.046-.228c0-.019.01-.035.01-.054V179.981a.879.879,0,0,0-.879-.879H1.238a.879.879,0,0,0-.879.879v35.163A.879.879,0,0,0,1.238,216.023Zm21.1-3v-3.153h3.152ZM2.117,180.86H26.732v27.251H21.457a.879.879,0,0,0-.879.879v5.274H2.117Zm0,0" transform="translate(0 -163.278)"/>
      <path id="Trazado_1049635" data-name="Trazado 1049635" d="M40.16,218.9h3.516v1.758H40.16Zm0,0" transform="translate(-36.284 -199.558)"/>
      <path id="Trazado_1049636" data-name="Trazado 1049636" d="M40.16,258.7h3.516v1.758H40.16Zm0,0" transform="translate(-36.284 -235.843)"/>
      <path id="Trazado_1049637" data-name="Trazado 1049637" d="M298.859,129.352h14.065v1.758H298.859Zm0,0" transform="translate(-272.127 -117.924)"/>
      <path id="Trazado_1049638" data-name="Trazado 1049638" d="M338.66,179.1h7.032v1.758H338.66Zm0,0" transform="translate(-308.412 -163.275)"/>
      <path id="Trazado_1049639" data-name="Trazado 1049639" d="M378.457,79.6h14.065v1.758H378.457Zm0,0" transform="translate(-344.693 -72.565)"/>
      <path id="Trazado_1049640" data-name="Trazado 1049640" d="M438.16,179.1h8.791v1.758H438.16Zm0,0" transform="translate(-399.121 -163.275)"/>
      <path id="Trazado_1049641" data-name="Trazado 1049641" d="M338.66,228.852h10.549v1.758H338.66Zm0,0" transform="translate(-308.412 -208.633)"/>
      <path id="Trazado_1049642" data-name="Trazado 1049642" d="M477.957,228.852h5.275v1.758h-5.275Zm0,0" transform="translate(-435.402 -208.633)"/>
      <path id="Trazado_1049643" data-name="Trazado 1049643" d="M477.957,129.352h5.275v1.758h-5.275Zm0,0" transform="translate(-435.402 -117.924)"/>
      <path id="Trazado_1049644" data-name="Trazado 1049644" d="M298.859,79.6h5.274v1.758h-5.274Zm0,0" transform="translate(-272.127 -72.565)"/>
      <path id="Trazado_1049645" data-name="Trazado 1049645" d="M109.982,240.15a.879.879,0,0,0,0-1.507l-3.969-2.381V235h.44a3.077,3.077,0,0,0,0-6.154h-2.637a3.077,3.077,0,0,0,0,6.154h.44v1.261l-3.969,2.381a.88.88,0,0,0-.3,1.206.89.89,0,0,0,.3.3l3.969,2.381v1.261h-3.516a.879.879,0,0,0-.879.879v4.4a.879.879,0,0,0,.879.879h3.516V251.7h-.44a3.077,3.077,0,1,0,0,6.153h2.637a3.077,3.077,0,1,0,0-6.153h-.44v-1.758h3.516a.879.879,0,0,0,.879-.879v-4.4a.879.879,0,0,0-.879-.879h-3.516v-1.261Zm-6.167-6.907a1.319,1.319,0,0,1,0-2.637h2.637a1.319,1.319,0,1,1,0,2.637Zm2.637,20.219a1.319,1.319,0,0,1,0,2.637h-2.637a1.319,1.319,0,0,1,0-2.637Zm2.2-7.912v2.637h-7.033V245.55Zm-3.516-4.541-2.687-1.612,2.687-1.612,2.687,1.612Zm0,0" transform="translate(-90.709 -208.629)"/>
      <path id="Trazado_1049646" data-name="Trazado 1049646" d="M119.758,39.8h1.758v1.758h-1.758Zm0,0" transform="translate(-108.85 -36.284)"/>
      <path id="Trazado_1049647" data-name="Trazado 1049647" d="M159.559,39.8h1.758v1.758h-1.758Zm0,0" transform="translate(-145.134 -36.284)"/>
      <path id="Trazado_1049648" data-name="Trazado 1049648" d="M199.359,39.8h1.758v1.758h-1.758Zm0,0" transform="translate(-181.418 -36.284)"/>
      <path id="Trazado_1049649" data-name="Trazado 1049649" d="M339.539,470.006h21.1a.879.879,0,0,0,.879-.879V458.578a.88.88,0,0,0-.879-.879h-21.1a.88.88,0,0,0-.879.879v10.549A.879.879,0,0,0,339.539,470.006Zm.879-10.549h19.34v8.791h-19.34Zm0,0" transform="translate(-308.412 -417.262)"/>
      <path id="Trazado_1049650" data-name="Trazado 1049650" d="M378.457,537.3h1.758v1.758h-1.758Zm0,0" transform="translate(-344.693 -489.831)"/>
      <path id="Trazado_1049651" data-name="Trazado 1049651" d="M537.66,537.3h1.758v1.758H537.66Zm0,0" transform="translate(-489.83 -489.831)"/>
      <path id="Trazado_1049652" data-name="Trazado 1049652" d="M378.457,497.5h1.758v1.758h-1.758Zm0,0" transform="translate(-344.693 -453.546)"/>
      <path id="Trazado_1049653" data-name="Trazado 1049653" d="M418.258,497.5h1.758v1.758h-1.758Zm0,0" transform="translate(-380.977 -453.546)"/>
      <path id="Trazado_1049654" data-name="Trazado 1049654" d="M458.059,497.5h1.758v1.758h-1.758Zm0,0" transform="translate(-417.262 -453.546)"/>
      <path id="Trazado_1049655" data-name="Trazado 1049655" d="M497.859,497.5h1.758v1.758h-1.758Zm0,0" transform="translate(-453.546 -453.546)"/>
      <path id="Trazado_1049656" data-name="Trazado 1049656" d="M537.66,497.5h1.758v1.758H537.66Zm0,0" transform="translate(-489.83 -453.546)"/>
      <path id="Trazado_1049657" data-name="Trazado 1049657" d="M418.258,537.3h8.791v1.758h-8.791Zm0,0" transform="translate(-380.977 -489.831)"/>
      <path id="Trazado_1049658" data-name="Trazado 1049658" d="M122.657,82.516l-2.637,2.637a.88.88,0,0,0,0,1.243l2.637,2.637L123.9,87.79l-2.016-2.016,2.016-2.016Zm0,0" transform="translate(-108.854 -75.225)"/>
      <path id="Trazado_1049659" data-name="Trazado 1049659" d="M233.368,89.033l2.637-2.637a.879.879,0,0,0,0-1.243l-2.637-2.637-1.243,1.243,2.016,2.016-2.016,2.016Zm0,0" transform="translate(-211.289 -75.225)"/>
      <path id="Trazado_1049660" data-name="Trazado 1049660" d="M179.738,84.243l1.758-7.032,1.7.426-1.758,7.032Zm0,0" transform="translate(-163.531 -70.389)"/>
    </g>
  </g>
</svg>
