<svg xmlns="http://www.w3.org/2000/svg" xmlns:xlink="http://www.w3.org/1999/xlink" width="108.914" height="108.914" viewBox="0 0 108.914 108.914">
  <defs>
    <filter id="Trazado_874925" x="0" y="0" width="108.914" height="108.914" filterUnits="userSpaceOnUse">
      <feOffset dy="3" input="SourceAlpha"/>
      <feGaussianBlur stdDeviation="3" result="blur"/>
      <feFlood flood-opacity="0.161"/>
      <feComposite operator="in" in2="blur"/>
      <feComposite in="SourceGraphic"/>
    </filter>
  </defs>
  <g id="Grupo_1181687" data-name="Grupo 1181687" transform="translate(-1113.428 -7348.669)">
    <g id="Grupo_1179827" data-name="Grupo 1179827" transform="translate(1122.428 7354.669)">
      <g id="Grupo_1179015" data-name="Grupo 1179015" transform="translate(0 0)">
        <g id="Grupo_1111527" data-name="Grupo 1111527">
          <g id="Grupo_1111316" data-name="Grupo 1111316">
            <g id="Grupo_1109835" data-name="Grupo 1109835">
              <g id="Grupo_1107913" data-name="Grupo 1107913">
                <g transform="matrix(1, 0, 0, 1, -9, -6)" filter="url(#Trazado_874925)">
                  <g id="Trazado_874925-2" data-name="Trazado 874925" transform="translate(9 6)" fill="#fdf9d4" opacity="0.859">
                    <path d="M 45.45676803588867 89.41407012939453 C 39.52198028564453 89.41407012939453 33.76551818847656 88.25206756591797 28.34726715087891 85.96034240722656 C 23.11310577392578 83.74648284912109 18.41203117370605 80.57682800292969 14.37464332580566 76.5394287109375 C 10.33724308013916 72.50202941894531 7.167593002319336 67.80095672607422 4.953730583190918 62.56679534912109 C 2.662005424499512 57.14855575561523 1.500005483627319 51.39208221435547 1.500005483627319 45.45729446411133 C 1.500005483627319 39.52198028564453 2.662005424499512 33.76550674438477 4.953730583190918 28.34726905822754 C 7.167593002319336 23.11310577392578 10.33724308013916 18.41203117370605 14.37464332580566 14.37464332580566 C 18.41203117370605 10.33724403381348 23.11310577392578 7.167593955993652 28.34726715087891 4.953731060028076 C 33.76550674438477 2.662006139755249 39.52198028564453 1.500006198883057 45.45676803588867 1.500006198883057 C 51.39155578613281 1.500006198883057 57.14802932739258 2.662006139755249 62.56626892089844 4.953731060028076 C 67.80043029785156 7.167593955993652 72.50150299072266 10.33724403381348 76.53890228271484 14.37464332580566 C 80.57630920410156 18.41203117370605 83.74595642089844 23.11310577392578 85.95981597900391 28.34726905822754 C 88.25154113769531 33.76551818847656 89.41354370117188 39.52198028564453 89.41354370117188 45.45676803588867 C 89.41354370117188 51.39208221435547 88.25154113769531 57.14855575561523 85.95981597900391 62.56679534912109 C 83.74595642089844 67.80095672607422 80.57630920410156 72.50202941894531 76.53890228271484 76.5394287109375 C 72.50150299072266 80.57682800292969 67.80043029785156 83.74648284912109 62.56626892089844 85.96034240722656 C 57.14802932739258 88.25206756591797 51.39155578613281 89.41407012939453 45.45676803588867 89.41407012939453 Z" stroke="none"/>
                    <path d="M 45.45676803588867 3 C 39.72381210327148 3 34.1639404296875 4.12213134765625 28.93159484863281 6.335227966308594 C 23.87622833251953 8.473472595214844 19.33542633056641 11.53517150878906 15.43529510498047 15.435302734375 C 11.53517150878906 19.33543395996094 8.473464965820312 23.87622833251953 6.335227966308594 28.93160247802734 C 4.122123718261719 34.16394424438477 3 39.72381591796875 3 45.4572868347168 C 3 51.19024658203125 4.122123718261719 56.75011825561523 6.335227966308594 61.98246002197266 C 8.473464965820312 67.03782653808594 11.53517150878906 71.57862854003906 15.43529510498047 75.478759765625 C 19.33542633056641 79.37889099121094 23.87622833251953 82.44058990478516 28.93159484863281 84.57883453369141 C 34.1639404296875 86.79193115234375 39.72381210327148 87.9140625 45.45676803588867 87.9140625 C 51.18972396850586 87.9140625 56.74959564208984 86.79193115234375 61.98194122314453 84.57883453369141 C 67.03730773925781 82.44058990478516 71.57810974121094 79.37889099121094 75.47824096679688 75.478759765625 C 79.37837219238281 71.57862854003906 82.44007110595703 67.03782653808594 84.57830810546875 61.98246002197266 C 86.79141235351562 56.75011825561523 87.91353607177734 51.19024658203125 87.91353607177734 45.4567756652832 C 87.91353607177734 39.72381591796875 86.79141235351562 34.16394424438477 84.57830810546875 28.93160247802734 C 82.44007110595703 23.87622833251953 79.37837219238281 19.33543395996094 75.47824096679688 15.435302734375 C 71.57810974121094 11.53517150878906 67.03730773925781 8.473472595214844 61.98194122314453 6.335227966308594 C 56.74959564208984 4.12213134765625 51.18972396850586 3 45.45676803588867 3 M 45.45676803588867 0 C 70.56185150146484 0 90.91353607177734 20.35169219970703 90.91353607177734 45.4567756652832 L 90.91353607177734 45.4572868347168 C 90.91353607177734 70.5623779296875 70.56185150146484 90.9140625 45.45676803588867 90.9140625 C 20.3516845703125 90.9140625 0 70.5623779296875 0 45.4572868347168 L 0 45.4567756652832 C 0 20.35169219970703 20.3516845703125 0 45.45676803588867 0 Z" stroke="none" fill="#c7b622"/>
                  </g>
                </g>
                <g id="Trazado_874923" data-name="Trazado 874923" transform="translate(0)" fill="none">
                  <path d="M45.457,0A45.457,45.457,0,0,1,90.914,45.457h0A45.457,45.457,0,0,1,0,45.457H0A45.457,45.457,0,0,1,45.457,0Z" stroke="none"/>
                  <path d="M 45.45676803588867 3 C 39.72381210327148 3 34.1639404296875 4.12213134765625 28.93159484863281 6.335227966308594 C 23.87622833251953 8.473472595214844 19.33542633056641 11.53517150878906 15.43529510498047 15.435302734375 C 11.53517150878906 19.33543395996094 8.473464965820312 23.87622833251953 6.335227966308594 28.93160247802734 C 4.122123718261719 34.16394424438477 3 39.72381591796875 3 45.4572868347168 C 3 51.19024658203125 4.122123718261719 56.75011825561523 6.335227966308594 61.98246002197266 C 8.473464965820312 67.03782653808594 11.53517150878906 71.57862854003906 15.43529510498047 75.478759765625 C 19.33542633056641 79.37889099121094 23.87622833251953 82.44058990478516 28.93159484863281 84.57883453369141 C 34.1639404296875 86.79193115234375 39.72381210327148 87.9140625 45.45676803588867 87.9140625 C 51.18972396850586 87.9140625 56.74959564208984 86.79193115234375 61.98194122314453 84.57883453369141 C 67.03730773925781 82.44058990478516 71.57810974121094 79.37889099121094 75.47824096679688 75.478759765625 C 79.37837219238281 71.57862854003906 82.44007110595703 67.03782653808594 84.57830810546875 61.98246002197266 C 86.79141235351562 56.75011825561523 87.91353607177734 51.19024658203125 87.91353607177734 45.4567756652832 C 87.91353607177734 39.72381591796875 86.79141235351562 34.16394424438477 84.57830810546875 28.93160247802734 C 82.44007110595703 23.87622833251953 79.37837219238281 19.33543395996094 75.47824096679688 15.435302734375 C 71.57810974121094 11.53517150878906 67.03730773925781 8.473472595214844 61.98194122314453 6.335227966308594 C 56.74959564208984 4.12213134765625 51.18972396850586 3 45.45676803588867 3 M 45.45676803588867 0 C 70.56185150146484 0 90.91353607177734 20.35169219970703 90.91353607177734 45.4567756652832 L 90.91353607177734 45.4572868347168 C 90.91353607177734 70.5623779296875 70.56185150146484 90.9140625 45.45676803588867 90.9140625 C 20.3516845703125 90.9140625 0 70.5623779296875 0 45.4572868347168 L 0 45.4567756652832 C 0 20.35169219970703 20.3516845703125 0 45.45676803588867 0 Z" stroke="none" fill="#c7b622"/>
                </g>
              </g>
            </g>
          </g>
        </g>
      </g>
    </g>
    <g id="Layer_x0020_1" transform="translate(1139.91 7372.151)">
      <path id="Trazado_1049931" data-name="Trazado 1049931" d="M27.959,27.3a13.617,13.617,0,0,1-12.127-7.44,15.4,15.4,0,0,1-1.409-4.458,12.62,12.62,0,0,1,.328-5.113H1.9v27.7H54.049v-27.7H41.2A13.656,13.656,0,0,1,27.959,27.3ZM15.372,8.391a13.635,13.635,0,0,1,25.173,0H55a.951.951,0,0,1,.951.951v34.94a.951.951,0,0,1-.951.951H35.858v3.442h7.113a.951.951,0,0,1,.951.951V55a.951.951,0,0,1-.951.951H12.98A.951.951,0,0,1,12.029,55V49.624a.951.951,0,0,1,.951-.951h7.113V45.232H.951A.951.951,0,0,1,0,44.282V9.341a.951.951,0,0,1,.951-.951Zm1.672,9.571A11.759,11.759,0,0,0,38.152,19.5a11.55,11.55,0,0,0,1.573-5.834,11.753,11.753,0,1,0-23.5.295,11.274,11.274,0,0,0,.295,2.327ZM13.93,54.049H42.02V50.575H13.93Zm8.063-5.375H33.957V45.232H21.993ZM1.9,43.331H54.049V39.89H1.9Zm11.734-6.883H9.44a.951.951,0,0,1-.951-.951V29.991a.951.951,0,0,1,.951-.951h4.2a.951.951,0,0,1,.951.951V35.5A.951.951,0,0,1,13.635,36.448Zm-3.245-1.9h2.294V30.941H10.39Zm8.686,1.9a.951.951,0,0,1-.951-.951V31.564c-.459.229-1.344.787-1.8-.131a.958.958,0,0,1,.393-1.278l1.934-1.016a.945.945,0,0,1,1.377.852V35.5A.951.951,0,0,1,19.076,36.448Zm8.26,0h-4.2a.951.951,0,0,1-.951-.951V29.991a.951.951,0,0,1,.951-.951h4.2a.951.951,0,0,1,.951.951V35.5A.951.951,0,0,1,27.336,36.448Zm-3.245-1.9h2.294V30.941H24.091Zm8.719,1.9a.951.951,0,0,1-.951-.951V31.564c-.492.229-1.344.787-1.836-.131a.958.958,0,0,1,.393-1.278l1.934-1.016a.97.97,0,0,1,1.409.852V35.5A.951.951,0,0,1,32.81,36.448Zm8.26,0H36.841a.951.951,0,0,1-.951-.951V29.991a.951.951,0,0,1,.951-.951h4.228a.951.951,0,0,1,.951.951V35.5A.951.951,0,0,1,41.069,36.448Zm-3.278-1.9h2.327V30.941H37.792Zm8.719,1.9a.951.951,0,0,1-.951-.951V31.564c-.459.229-1.344.787-1.836-.131a.942.942,0,0,1,.426-1.278l1.9-1.016a.963.963,0,0,1,1.409.852V35.5A.951.951,0,0,1,46.51,36.448ZM24.747,22.878a.936.936,0,0,1-.492-1.737l8.1-4.917a.95.95,0,0,1,1.016,1.606l-8.129,4.917A.925.925,0,0,1,24.747,22.878Zm-1.7-12.357a.957.957,0,0,1-.492-1.77l6.916-4.2a.942.942,0,0,1,.983,1.606l-6.916,4.2A.975.975,0,0,1,23.042,10.521Zm-.1,8.981a1.077,1.077,0,0,1-.557-.131l-3.7-2.524a.922.922,0,0,1-.426-.787V11.6a.948.948,0,0,1,1.475-.787l3.212,2.163,9.473-5.736a.893.893,0,0,1,.983,0l3.835,2.425a.935.935,0,0,1,.459.819v4.458a.966.966,0,0,1-1.475.819l-3.343-2.13-9.44,5.736A.925.925,0,0,1,22.944,19.5Zm-2.786-3.933,2.786,1.868L32.416,11.7a.963.963,0,0,1,.983.033l2.393,1.475v-2.2L32.875,9.178l-9.44,5.736a1.007,1.007,0,0,1-1.049-.033l-2.229-1.508Z" fill-rule="evenodd"/>
      <g id="Grupo_1181686" data-name="Grupo 1181686" transform="translate(1.901 10.292)">
        <path id="Trazado_1049932" data-name="Trazado 1049932" d="M97.1,321.408a13.635,13.635,0,0,1-25.173,2.163,15.4,15.4,0,0,1-1.409-4.458A12.62,12.62,0,0,1,70.849,314H58v27.7h52.148V314H97.3A13.55,13.55,0,0,1,97.1,321.408ZM84.385,333.7v5.507a.951.951,0,0,1-.951.951h-4.2a.951.951,0,0,1-.951-.951V333.7a.951.951,0,0,1,.951-.951h4.2A.951.951,0,0,1,84.385,333.7Zm-8.26,0v5.507a.951.951,0,0,1-1.9,0v-3.933c-.459.229-1.344.787-1.8-.131a.958.958,0,0,1,.393-1.278l1.934-1.016A.945.945,0,0,1,76.126,333.7Zm-5.441,0v5.507a.951.951,0,0,1-.951.951h-4.2a.951.951,0,0,1-.951-.951V333.7a.951.951,0,0,1,.951-.951h4.2A.951.951,0,0,1,70.685,333.7Zm22.256-.951h4.228a.951.951,0,0,1,.951.951v5.507a.951.951,0,0,1-.951.951H92.94a.951.951,0,0,1-.951-.951V333.7A.951.951,0,0,1,92.94,332.748Zm-3.081.951v5.507a.951.951,0,1,1-1.9,0v-3.933c-.492.229-1.344.787-1.836-.131a.958.958,0,0,1,.393-1.278l1.934-1.016A.97.97,0,0,1,89.859,333.7Zm12.75,6.457a.951.951,0,0,1-.951-.951v-3.933c-.459.229-1.344.787-1.836-.131a.942.942,0,0,1,.426-1.278l1.9-1.016a.963.963,0,0,1,1.409.852v5.507A.951.951,0,0,1,102.609,340.156Z" transform="translate(-58 -314)" fill="#9ff" fill-rule="evenodd"/>
        <path id="Trazado_1049933" data-name="Trazado 1049933" d="M1155.327,944H1153v3.605h2.327Z" transform="translate(-1117.109 -923.351)" fill="#9ff" fill-rule="evenodd"/>
        <path id="Trazado_1049934" data-name="Trazado 1049934" d="M737.294,947.605V944H735v3.605Z" transform="translate(-712.81 -923.351)" fill="#9ff" fill-rule="evenodd"/>
        <path id="Trazado_1049935" data-name="Trazado 1049935" d="M319.294,947.605V944H317v3.605Z" transform="translate(-308.511 -923.351)" fill="#9ff" fill-rule="evenodd"/>
      </g>
      <path id="Trazado_1049936" data-name="Trazado 1049936" d="M617.786,288.26l9.472-5.736a.963.963,0,0,1,.983.033l2.393,1.475v-2.2L627.717,280l-9.44,5.736a1.007,1.007,0,0,1-1.049-.033L615,284.2v2.2Z" transform="translate(-594.842 -270.822)" fill="#ffa721" fill-rule="evenodd"/>
      <path id="Trazado_1049937" data-name="Trazado 1049937" d="M512.1,73.93l-8.129,4.917a.925.925,0,0,1-.492.131.936.936,0,0,1-.492-1.737l8.1-4.917A.95.95,0,0,1,512.1,73.93Zm-.492-4.2-9.44,5.736a.925.925,0,0,1-.492.131,1.077,1.077,0,0,1-.557-.131l-3.7-2.524a.922.922,0,0,1-.426-.787V67.7a.948.948,0,0,1,1.475-.787l3.212,2.163,9.473-5.736a.893.893,0,0,1,.983,0l3.835,2.425a.934.934,0,0,1,.459.819v4.458a.966.966,0,0,1-1.475.819Zm-15.831,4.327A11.759,11.759,0,0,0,516.888,75.6a11.55,11.55,0,0,0,1.573-5.834,11.753,11.753,0,1,0-23.5.295,11.274,11.274,0,0,0,.295,2.327Zm6-7.44a.957.957,0,0,1-.492-1.77l6.916-4.2a.942.942,0,0,1,.983,1.606l-6.916,4.2A.976.976,0,0,1,501.778,66.62Z" transform="translate(-478.736 -56.099)" fill="#1aa1ff" fill-rule="evenodd"/>
      <path id="Trazado_1049938" data-name="Trazado 1049938" d="M110.148,1217H58v3.442h52.148Z" transform="translate(-56.099 -1177.111)" fill="#333" fill-rule="evenodd"/>
      <path id="Trazado_1049939" data-name="Trazado 1049939" d="M682.964,1380H671v3.442h11.964Z" transform="translate(-649.007 -1334.768)" fill="#333" fill-rule="evenodd"/>
      <path id="Trazado_1049940" data-name="Trazado 1049940" d="M453.09,1543H425v3.474h28.09Z" transform="translate(-411.07 -1492.425)" fill="#333" fill-rule="evenodd"/>
    </g>
  </g>
</svg>
