<svg xmlns="http://www.w3.org/2000/svg" xmlns:xlink="http://www.w3.org/1999/xlink" width="108.914" height="108.914" viewBox="0 0 108.914 108.914">
  <defs>
    <filter id="Trazado_874925" x="0" y="0" width="108.914" height="108.914" filterUnits="userSpaceOnUse">
      <feOffset dy="3" input="SourceAlpha"/>
      <feGaussianBlur stdDeviation="3" result="blur"/>
      <feFlood flood-opacity="0.161"/>
      <feComposite operator="in" in2="blur"/>
      <feComposite in="SourceGraphic"/>
    </filter>
  </defs>
  <g id="Grupo_1179961" data-name="Grupo 1179961" transform="translate(6500.391 2679.274)">
    <g id="Grupo_1179632" data-name="Grupo 1179632" transform="translate(-6491.391 -2673.274)">
      <g id="Grupo_1179015" data-name="Grupo 1179015" transform="translate(0 0)">
        <g id="Grupo_1111527" data-name="Grupo 1111527" transform="translate(0 0)">
          <g id="Grupo_1111316" data-name="Grupo 1111316">
            <g id="Grupo_1109835" data-name="Grupo 1109835" transform="translate(0 0)">
              <g id="Grupo_1107913" data-name="Grupo 1107913" transform="translate(0 0)">
                <g transform="matrix(1, 0, 0, 1, -9, -6)" filter="url(#Trazado_874925)">
                  <g id="Trazado_874925-2" data-name="Trazado 874925" transform="translate(9 6)" fill="#fdf9d4" opacity="0.859">
                    <path d="M 45.45676803588867 89.41407012939453 C 39.52198028564453 89.41407012939453 33.76551818847656 88.25206756591797 28.34726715087891 85.96034240722656 C 23.11310577392578 83.74648284912109 18.41203117370605 80.57682800292969 14.37464332580566 76.5394287109375 C 10.33724308013916 72.50202941894531 7.167593002319336 67.80095672607422 4.953730583190918 62.56679534912109 C 2.662005424499512 57.14855575561523 1.500005483627319 51.39208221435547 1.500005483627319 45.45729446411133 C 1.500005483627319 39.52198028564453 2.662005424499512 33.76550674438477 4.953730583190918 28.34726905822754 C 7.167593002319336 23.11310577392578 10.33724308013916 18.41203117370605 14.37464332580566 14.37464332580566 C 18.41203117370605 10.33724403381348 23.11310577392578 7.167593955993652 28.34726715087891 4.953731060028076 C 33.76550674438477 2.662006139755249 39.52198028564453 1.500006198883057 45.45676803588867 1.500006198883057 C 51.39155578613281 1.500006198883057 57.14802932739258 2.662006139755249 62.56626892089844 4.953731060028076 C 67.80043029785156 7.167593955993652 72.50150299072266 10.33724403381348 76.53890228271484 14.37464332580566 C 80.57630920410156 18.41203117370605 83.74595642089844 23.11310577392578 85.95981597900391 28.34726905822754 C 88.25154113769531 33.76551818847656 89.41354370117188 39.52198028564453 89.41354370117188 45.45676803588867 C 89.41354370117188 51.39208221435547 88.25154113769531 57.14855575561523 85.95981597900391 62.56679534912109 C 83.74595642089844 67.80095672607422 80.57630920410156 72.50202941894531 76.53890228271484 76.5394287109375 C 72.50150299072266 80.57682800292969 67.80043029785156 83.74648284912109 62.56626892089844 85.96034240722656 C 57.14802932739258 88.25206756591797 51.39155578613281 89.41407012939453 45.45676803588867 89.41407012939453 Z" stroke="none"/>
                    <path d="M 45.45676803588867 3 C 39.72381210327148 3 34.1639404296875 4.12213134765625 28.93159484863281 6.335227966308594 C 23.87622833251953 8.473472595214844 19.33542633056641 11.53517150878906 15.43529510498047 15.435302734375 C 11.53517150878906 19.33543395996094 8.473464965820312 23.87622833251953 6.335227966308594 28.93160247802734 C 4.122123718261719 34.16394424438477 3 39.72381591796875 3 45.4572868347168 C 3 51.19024658203125 4.122123718261719 56.75011825561523 6.335227966308594 61.98246002197266 C 8.473464965820312 67.03782653808594 11.53517150878906 71.57862854003906 15.43529510498047 75.478759765625 C 19.33542633056641 79.37889099121094 23.87622833251953 82.44058990478516 28.93159484863281 84.57883453369141 C 34.1639404296875 86.79193115234375 39.72381210327148 87.9140625 45.45676803588867 87.9140625 C 51.18972396850586 87.9140625 56.74959564208984 86.79193115234375 61.98194122314453 84.57883453369141 C 67.03730773925781 82.44058990478516 71.57810974121094 79.37889099121094 75.47824096679688 75.478759765625 C 79.37837219238281 71.57862854003906 82.44007110595703 67.03782653808594 84.57830810546875 61.98246002197266 C 86.79141235351562 56.75011825561523 87.91353607177734 51.19024658203125 87.91353607177734 45.4567756652832 C 87.91353607177734 39.72381591796875 86.79141235351562 34.16394424438477 84.57830810546875 28.93160247802734 C 82.44007110595703 23.87622833251953 79.37837219238281 19.33543395996094 75.47824096679688 15.435302734375 C 71.57810974121094 11.53517150878906 67.03730773925781 8.473472595214844 61.98194122314453 6.335227966308594 C 56.74959564208984 4.12213134765625 51.18972396850586 3 45.45676803588867 3 M 45.45676803588867 0 C 70.56185150146484 0 90.91353607177734 20.35169219970703 90.91353607177734 45.4567756652832 L 90.91353607177734 45.4572868347168 C 90.91353607177734 70.5623779296875 70.56185150146484 90.9140625 45.45676803588867 90.9140625 C 20.3516845703125 90.9140625 0 70.5623779296875 0 45.4572868347168 L 0 45.4567756652832 C 0 20.35169219970703 20.3516845703125 0 45.45676803588867 0 Z" stroke="none" fill="#c7b622"/>
                  </g>
                </g>
                <g id="Trazado_874923" data-name="Trazado 874923" transform="translate(0)" fill="none">
                  <path d="M45.457,0A45.457,45.457,0,0,1,90.914,45.457h0A45.457,45.457,0,0,1,0,45.457H0A45.457,45.457,0,0,1,45.457,0Z" stroke="none"/>
                  <path d="M 45.45676803588867 3 C 39.72381210327148 3 34.1639404296875 4.12213134765625 28.93159484863281 6.335227966308594 C 23.87622833251953 8.473472595214844 19.33542633056641 11.53517150878906 15.43529510498047 15.435302734375 C 11.53517150878906 19.33543395996094 8.473464965820312 23.87622833251953 6.335227966308594 28.93160247802734 C 4.122123718261719 34.16394424438477 3 39.72381591796875 3 45.4572868347168 C 3 51.19024658203125 4.122123718261719 56.75011825561523 6.335227966308594 61.98246002197266 C 8.473464965820312 67.03782653808594 11.53517150878906 71.57862854003906 15.43529510498047 75.478759765625 C 19.33542633056641 79.37889099121094 23.87622833251953 82.44058990478516 28.93159484863281 84.57883453369141 C 34.1639404296875 86.79193115234375 39.72381210327148 87.9140625 45.45676803588867 87.9140625 C 51.18972396850586 87.9140625 56.74959564208984 86.79193115234375 61.98194122314453 84.57883453369141 C 67.03730773925781 82.44058990478516 71.57810974121094 79.37889099121094 75.47824096679688 75.478759765625 C 79.37837219238281 71.57862854003906 82.44007110595703 67.03782653808594 84.57830810546875 61.98246002197266 C 86.79141235351562 56.75011825561523 87.91353607177734 51.19024658203125 87.91353607177734 45.4567756652832 C 87.91353607177734 39.72381591796875 86.79141235351562 34.16394424438477 84.57830810546875 28.93160247802734 C 82.44007110595703 23.87622833251953 79.37837219238281 19.33543395996094 75.47824096679688 15.435302734375 C 71.57810974121094 11.53517150878906 67.03730773925781 8.473472595214844 61.98194122314453 6.335227966308594 C 56.74959564208984 4.12213134765625 51.18972396850586 3 45.45676803588867 3 M 45.45676803588867 0 C 70.56185150146484 0 90.91353607177734 20.35169219970703 90.91353607177734 45.4567756652832 L 90.91353607177734 45.4572868347168 C 90.91353607177734 70.5623779296875 70.56185150146484 90.9140625 45.45676803588867 90.9140625 C 20.3516845703125 90.9140625 0 70.5623779296875 0 45.4572868347168 L 0 45.4567756652832 C 0 20.35169219970703 20.3516845703125 0 45.45676803588867 0 Z" stroke="none" fill="#c7b622"/>
                </g>
              </g>
            </g>
          </g>
        </g>
      </g>
    </g>
    <g id="Layer_x0020_1" transform="translate(-6482.542 -2661.827)">
      <path id="Trazado_1049711" data-name="Trazado 1049711" d="M46.692,225.657a.552.552,0,0,1-.552-.552V194.913a.552.552,0,0,1,.552-.553H94.774a.553.553,0,0,1,.553.553v30.192a.552.552,0,0,1-.553.552Z" transform="translate(-34.377 -171.574)" fill="#3f4549" fill-rule="evenodd"/>
      <path id="Trazado_1049712" data-name="Trazado 1049712" d="M116.426,251.212H74.973a.552.552,0,0,1-.553-.552V223.782a.552.552,0,0,1,.553-.552h41.453a.552.552,0,0,1,.553.552V250.66A.552.552,0,0,1,116.426,251.212Z" transform="translate(-59.342 -197.061)" fill="#a7a7ff" fill-rule="evenodd"/>
      <path id="Trazado_1049713" data-name="Trazado 1049713" d="M65.5,464.077H14.414a3.138,3.138,0,0,1-3.134-3.134V458.37a.56.56,0,0,1,.56-.56H68.078a.56.56,0,0,1,.56.56v2.573a3.138,3.138,0,0,1-3.134,3.134Z" transform="translate(-3.602 -404.15)" fill="#33383b" fill-rule="evenodd"/>
      <path id="Trazado_1049714" data-name="Trazado 1049714" d="M216.35,459.96h9.293v3.031a.482.482,0,0,1-.483.483h-8.328a.482.482,0,0,1-.483-.483Z" transform="translate(-184.64 -406.048)" fill="#595e61" fill-rule="evenodd"/>
      <path id="Trazado_1049715" data-name="Trazado 1049715" d="M169.076,114.016H154.2a.463.463,0,0,1-.464-.463c0-5.033-1.252-6.884-2.462-8.673a10.338,10.338,0,0,1-2.162-6.812,12.527,12.527,0,1,1,25.054,0A10.335,10.335,0,0,1,172,104.88c-1.211,1.79-2.462,3.64-2.462,8.673A.463.463,0,0,1,169.076,114.016Z" transform="translate(-125.279 -75.507)" fill="#ffc850" fill-rule="evenodd"/>
      <path id="Trazado_1049716" data-name="Trazado 1049716" d="M215.312,197.229H210.9l.021-12.214-3.368-3.368a.481.481,0,0,1,0-.682l1.7-1.7a.482.482,0,0,1,.682,0l3.169,3.169,3.169-3.169a.482.482,0,0,1,.682,0l1.7,1.7a.481.481,0,0,1,0,.681l-3.346,3.369Z" transform="translate(-176.747 -158.122)" fill="#ff8335" fill-rule="evenodd"/>
      <path id="Trazado_1049717" data-name="Trazado 1049717" d="M200.271,348.472H187.677a1.936,1.936,0,1,1,0-3.872h12.593a1.936,1.936,0,1,1,0,3.872Z" transform="translate(-157.617 -304.207)" fill="#5b5e6e" fill-rule="evenodd"/>
      <path id="Trazado_1049718" data-name="Trazado 1049718" d="M219.634,392.482h-6.668a1.936,1.936,0,1,1,0-3.872h6.668a1.936,1.936,0,1,1,0,3.872Z" transform="translate(-179.943 -343.06)" fill="#707487" fill-rule="evenodd"/>
      <path id="Trazado_1049719" data-name="Trazado 1049719" d="M228.909,115.167a3.7,3.7,0,1,1,3.7-3.7A3.7,3.7,0,0,1,228.909,115.167Z" transform="translate(-192.461 -95.132)" fill="#ff8335" fill-rule="evenodd"/>
      <path id="Trazado_1049720" data-name="Trazado 1049720" d="M146.067,93.5A13.068,13.068,0,0,1,158.4,80.47c-.24-.014-.48-.02-.724-.02A13.067,13.067,0,0,0,144.62,93.5a10.766,10.766,0,0,0,2.254,7.1c1.261,1.866,2.566,3.793,2.566,9.038a.483.483,0,0,0,.482.483h1.448a.483.483,0,0,1-.483-.483c0-5.244-1.3-7.172-2.566-9.038A10.766,10.766,0,0,1,146.067,93.5Z" transform="translate(-121.316 -71.013)" fill="#ffb448" fill-rule="evenodd"/>
      <path id="Trazado_1049721" data-name="Trazado 1049721" d="M11.588,54.78H8.372v2.029A2.032,2.032,0,0,0,10.4,58.837H62.314a2.032,2.032,0,0,0,2.029-2.029V54.78H41.852V57.2a.585.585,0,0,1-.586.586H31.448a.585.585,0,0,1-.586-.586V54.78H11.588ZM36.447,20.3a3.812,3.812,0,1,1,3.812-3.811A3.816,3.816,0,0,1,36.447,20.3Zm0-6.451a2.64,2.64,0,1,0,2.64,2.64A2.643,2.643,0,0,0,36.447,13.85ZM34.041,38.259l.022-11.138-3.348-3.348a.587.587,0,0,1,0-.829l1.706-1.707a.588.588,0,0,1,.83,0l3.106,3.107,3.107-3.107a.586.586,0,0,1,.829,0L42,22.944a.586.586,0,0,1,0,.827l-3.326,3.349V38.259H43.55c.1-5.156,1.506-7.235,2.753-9.078a11.707,11.707,0,0,0,1.543-2.823.54.54,0,0,1,.029-.087,10.689,10.689,0,0,0,.5-3.184v-.02c0-.132,0-.267,0-.407a12.023,12.023,0,0,0-24.045,0c0,.139,0,.274,0,.407v.02a10.684,10.684,0,0,0,.5,3.185.7.7,0,0,1,.029.083,11.683,11.683,0,0,0,1.543,2.825c1.247,1.842,2.653,3.921,2.752,9.078Zm3.461,0V26.879a.588.588,0,0,1,.17-.414l3.084-3.106-.879-.88-3.106,3.107a.588.588,0,0,1-.83,0L32.837,22.48l-.878.879,3.106,3.106a.589.589,0,0,1,.172.416l-.023,11.378Zm2.2,11.52H33.012a2.044,2.044,0,0,1,0-4.089H39.7a2.044,2.044,0,0,1,0,4.089Zm-6.689-2.917a.872.872,0,0,0,0,1.745H39.7a.872.872,0,0,0,0-1.745Zm9.66-2.257H30.04a2.044,2.044,0,1,1,0-4.088H42.672a2.044,2.044,0,1,1,0,4.088ZM30.04,41.689a.872.872,0,1,0,0,1.744H42.672a.872.872,0,0,0,0-1.744ZM20.1,15.649a.59.59,0,0,1-.292-.079l-4.4-2.541a.586.586,0,0,1,.586-1.015l4.4,2.541a.586.586,0,0,1-.294,1.093Zm6.872-6.871a.586.586,0,0,1-.507-.293l-2.541-4.4A.586.586,0,1,1,24.938,3.5l2.541,4.4a.586.586,0,0,1-.507.879Zm25.644,6.871a.586.586,0,0,1-.294-1.093l4.4-2.541a.586.586,0,0,1,.586,1.015l-4.4,2.541A.59.59,0,0,1,52.615,15.649ZM45.742,8.778a.586.586,0,0,1-.506-.879l2.541-4.4a.586.586,0,1,1,1.015.586l-2.541,4.4A.588.588,0,0,1,45.742,8.778ZM36.357,6.263a.586.586,0,0,1-.586-.586V.6a.586.586,0,0,1,1.172,0V5.677A.586.586,0,0,1,36.357,6.263Zm7.774,33.167H28.583A.586.586,0,0,1,28,38.845c0-5.228-1.3-7.15-2.556-9.007a13.455,13.455,0,0,1-1.547-2.749H15.589v26.52H57.126V27.088H48.82a13.455,13.455,0,0,1-1.547,2.749c-1.256,1.857-2.556,3.779-2.556,9.007A.586.586,0,0,1,44.132,39.431ZM23.521,25.916a12.324,12.324,0,0,1-.329-2.243H12.174V53.608h2.243V26.5A.586.586,0,0,1,15,25.916ZM23.165,22.5a13.193,13.193,0,0,1,26.384,0H61.127a.585.585,0,0,1,.585.586V53.608h3.216a.585.585,0,0,1,.586.586v2.615a3.2,3.2,0,0,1-3.2,3.2H10.4a3.2,3.2,0,0,1-3.2-3.2V54.194a.585.585,0,0,1,.586-.586H11V23.087a.586.586,0,0,1,.586-.586Zm26.357,1.172a12.222,12.222,0,0,1-.329,2.243h8.519a.586.586,0,0,1,.586.586V53.608h2.243V23.673ZM22.138,57.783H12.463a.586.586,0,0,1,0-1.172h9.675a.586.586,0,1,1,0,1.172Zm18.542-3H32.034v1.831H40.68Z" transform="translate(0 0)" fill-rule="evenodd"/>
    </g>
  </g>
</svg>
