<svg xmlns="http://www.w3.org/2000/svg" xmlns:xlink="http://www.w3.org/1999/xlink" width="108" height="108" viewBox="0 0 108 108">
  <defs>
    <filter id="Trazado_904820" x="0" y="0" width="108" height="108" filterUnits="userSpaceOnUse">
      <feOffset dy="3" input="SourceAlpha"/>
      <feGaussianBlur stdDeviation="3" result="blur"/>
      <feFlood flood-opacity="0.161"/>
      <feComposite operator="in" in2="blur"/>
      <feComposite in="SourceGraphic"/>
    </filter>
  </defs>
  <g id="Grupo_1179946" data-name="Grupo 1179946" transform="translate(-200.051 -625)">
    <g id="Grupo_1179220" data-name="Grupo 1179220" transform="translate(209.051 631)">
      <g id="Grupo_1173585" data-name="Grupo 1173585" transform="translate(0 0)">
        <g id="Grupo_1173428" data-name="Grupo 1173428">
          <g id="Grupo_1171958" data-name="Grupo 1171958">
            <g id="Grupo_1167341" data-name="Grupo 1167341">
              <g id="Grupo_1166792" data-name="Grupo 1166792">
                <g transform="matrix(1, 0, 0, 1, -9, -6)" filter="url(#Trazado_904820)">
                  <g id="Trazado_904820-2" data-name="Trazado 904820" transform="translate(9 6)" fill="#e9fdfe">
                    <path d="M 44.99999618530273 88.50004577636719 C 39.12687301635742 88.50004577636719 33.43022155761719 87.35012054443359 28.06829643249512 85.08220672607422 C 22.88852119445801 82.89134216308594 18.23629570007324 79.75463104248047 14.24084663391113 75.75917816162109 C 10.24540901184082 71.76371765136719 7.108683586120605 67.11149597167969 4.917821407318115 61.93173217773438 C 2.649921178817749 56.56979370117188 1.499996185302734 50.87314224243164 1.499996185302734 45.00001907348633 C 1.499996185302734 39.12689590454102 2.649921178817749 33.43024444580078 4.917821407318115 28.06830596923828 C 7.108683586120605 22.88853073120117 10.24540901184082 18.23631858825684 14.24084663391113 14.24086952209473 C 18.23629570007324 10.2454195022583 22.88852119445801 7.108694076538086 28.06829643249512 4.917831420898438 C 33.43022155761719 2.649931669235229 39.12687301635742 1.500006556510925 44.99999618530273 1.500006556510925 C 50.87311935424805 1.500006556510925 56.56977081298828 2.649931669235229 61.93169784545898 4.917831420898438 C 67.11147308349609 7.108694076538086 71.76369476318359 10.2454195022583 75.75914764404297 14.24086952209473 C 79.75458526611328 18.23631858825684 82.89131164550781 22.88853073120117 85.08216857910156 28.06830596923828 C 87.35007476806641 33.43024444580078 88.5 39.12689590454102 88.5 45.00001907348633 C 88.5 50.87314224243164 87.35007476806641 56.56979370117188 85.08216857910156 61.93173217773438 C 82.89131164550781 67.11149597167969 79.75458526611328 71.76371765136719 75.75914764404297 75.75917816162109 C 71.76369476318359 79.75463104248047 67.11147308349609 82.89134216308594 61.93169784545898 85.08220672607422 C 56.56977081298828 87.35012054443359 50.87311935424805 88.50004577636719 44.99999618530273 88.50004577636719 Z" stroke="none"/>
                    <path d="M 44.99999618530273 3.000007629394531 C 39.32870864868164 3.000007629394531 33.82865142822266 4.110061645507812 28.65262603759766 6.299346923828125 C 23.65165710449219 8.414573669433594 19.15968322753906 11.44334411621094 15.301513671875 15.30152130126953 C 11.44333648681641 19.15969085693359 8.414566040039062 23.65166473388672 6.299339294433594 28.65263366699219 C 4.110054016113281 33.82867431640625 2.999992370605469 39.32873153686523 2.999992370605469 45.00001907348633 C 2.999992370605469 50.67130661010742 4.110054016113281 56.17136383056641 6.299339294433594 61.34738922119141 C 8.414566040039062 66.34837341308594 11.44333648681641 70.84033203125 15.301513671875 74.69850158691406 C 19.15968322753906 78.55668640136719 23.65165710449219 81.58546447753906 28.65262603759766 83.70069122314453 C 33.82865142822266 85.88997650146484 39.32870864868164 87.00003051757812 44.99999618530273 87.00003051757812 C 50.67128372192383 87.00003051757812 56.17134094238281 85.88997650146484 61.34736633300781 83.70069122314453 C 66.34834289550781 81.58546447753906 70.84030914306641 78.55668640136719 74.69847869873047 74.69850158691406 C 78.55665588378906 70.84033203125 81.58542633056641 66.34837341308594 83.70065307617188 61.34738922119141 C 85.88993835449219 56.17136383056641 87 50.67130661010742 87 45.00001907348633 C 87 39.32873153686523 85.88993835449219 33.82867431640625 83.70065307617188 28.65263366699219 C 81.58542633056641 23.65166473388672 78.55665588378906 19.15969085693359 74.69847869873047 15.30152130126953 C 70.84030914306641 11.44334411621094 66.34834289550781 8.414573669433594 61.34736633300781 6.299346923828125 C 56.17134094238281 4.110061645507812 50.67128372192383 3.000007629394531 44.99999618530273 3.000007629394531 M 44.99999618530273 7.62939453125e-06 C 69.85281372070312 7.62939453125e-06 90 20.14719390869141 90 45.00001907348633 C 90 69.85282897949219 69.85281372070312 90.00003051757812 44.99999618530273 90.00003051757812 C 20.14717864990234 90.00003051757812 -7.62939453125e-06 69.85282897949219 -7.62939453125e-06 45.00001907348633 C -7.62939453125e-06 20.14719390869141 20.14717864990234 7.62939453125e-06 44.99999618530273 7.62939453125e-06 Z" stroke="none" fill="#16bcc4"/>
                  </g>
                </g>
              </g>
            </g>
          </g>
        </g>
      </g>
    </g>
    <g id="expert_6601289" transform="translate(220.936 638.131)">
      <path id="Trazado_1046380" data-name="Trazado 1046380" d="M5,59.51V21.18A5.18,5.18,0,0,1,10.18,16H55.762a5.18,5.18,0,0,1,5.18,5.18V59.51Z" transform="translate(0.144 0.467)" fill="#a5badb"/>
      <path id="Trazado_1046381" data-name="Trazado 1046381" d="M55.69,16H12.18A5.18,5.18,0,0,0,7,21.18V59.51H60.87V21.18A5.18,5.18,0,0,0,55.69,16Z" transform="translate(0.216 0.467)" fill="#c1cfe8"/>
      <path id="Trazado_1046382" data-name="Trazado 1046382" d="M39.295,54v2.072H26.863V54H2a6.216,6.216,0,0,0,6.216,6.216H57.942A6.216,6.216,0,0,0,64.158,54Z" transform="translate(0.036 1.833)" fill="#0059be"/>
      <path id="Trazado_1046383" data-name="Trazado 1046383" d="M9,58.33V20H56.654V58.33" transform="translate(0.288 0.611)" fill="#66c3e9"/>
      <path id="Trazado_1046384" data-name="Trazado 1046384" d="M39.21,56.072H26.779V54H4.349A6.216,6.216,0,0,0,10.2,58.144H59.929a6.183,6.183,0,0,0,3.231-.913A6.183,6.183,0,0,0,64.073,54H39.21Z" transform="translate(0.12 1.833)" fill="#006bdb"/>
      <path id="Trazado_1046385" data-name="Trazado 1046385" d="M11,20V46.442a6.71,6.71,0,0,0,6.708,6.709H56.582V20Z" transform="translate(0.36 0.611)" fill="#8adef9"/>
      <path id="Trazado_1046386" data-name="Trazado 1046386" d="M50.295,14H15.072A2.072,2.072,0,0,0,13,16.072V49.223a2.072,2.072,0,0,0,2.072,2.072H50.295a2.072,2.072,0,0,0,2.072-2.072V16.072A2.072,2.072,0,0,0,50.295,14Z" transform="translate(0.432 0.395)" fill="#0059be"/>
      <path id="Trazado_1046387" data-name="Trazado 1046387" d="M50.187,14H16V46.115a2.072,2.072,0,0,0,2.072,2.072H52.259V16.072A2.072,2.072,0,0,0,50.187,14Z" transform="translate(0.539 0.395)" fill="#006bdb"/>
      <path id="Trazado_1046388" data-name="Trazado 1046388" d="M13,20V49.007a2.072,2.072,0,0,0,2.072,2.072H50.295a2.072,2.072,0,0,0,2.072-2.072V20Z" transform="translate(0.432 0.611)" fill="#f79b31"/>
      <path id="Trazado_1046389" data-name="Trazado 1046389" d="M16,45.9a2.072,2.072,0,0,0,2.072,2.072H52.259V20H16Z" transform="translate(0.539 0.611)" fill="#fcb732"/>
      <g id="Grupo_1179469" data-name="Grupo 1179469" transform="translate(17.575 29.815)">
        <path id="Trazado_1046390" data-name="Trazado 1046390" d="M17,28.885h2.072v8.288H17Z" transform="translate(-17 -28.885)" fill="#fff"/>
        <path id="Trazado_1046391" data-name="Trazado 1046391" d="M26.18,37.173H22.036A1.036,1.036,0,0,1,21,36.137V29.921a1.036,1.036,0,0,1,1.036-1.036H26.18a1.036,1.036,0,0,1,1.036,1.036v6.216A1.036,1.036,0,0,1,26.18,37.173ZM23.072,35.1h2.072V30.957H23.072Z" transform="translate(-16.856 -28.885)" fill="#fff"/>
        <path id="Trazado_1046392" data-name="Trazado 1046392" d="M29,28.885h2.072v8.288H29Z" transform="translate(-16.568 -28.885)" fill="#fff"/>
        <path id="Trazado_1046393" data-name="Trazado 1046393" d="M33,28.885h2.072v8.288H33Z" transform="translate(-16.425 -28.885)" fill="#fff"/>
        <path id="Trazado_1046394" data-name="Trazado 1046394" d="M42.18,37.173H38.036A1.036,1.036,0,0,1,37,36.137V29.921a1.036,1.036,0,0,1,1.036-1.036H42.18a1.036,1.036,0,0,1,1.036,1.036v6.216A1.036,1.036,0,0,1,42.18,37.173ZM39.072,35.1h2.072V30.957H39.072Z" transform="translate(-16.281 -28.885)" fill="#fff"/>
        <path id="Trazado_1046395" data-name="Trazado 1046395" d="M45,28.885h2.072v8.288H45Z" transform="translate(-15.993 -28.885)" fill="#fff"/>
        <path id="Trazado_1046396" data-name="Trazado 1046396" d="M17,38.885h2.072v8.288H17Z" transform="translate(-17 -28.525)" fill="#fff"/>
        <path id="Trazado_1046397" data-name="Trazado 1046397" d="M42.18,47.173H38.036A1.036,1.036,0,0,1,37,46.137V39.921a1.036,1.036,0,0,1,1.036-1.036H42.18a1.036,1.036,0,0,1,1.036,1.036v6.216A1.036,1.036,0,0,1,42.18,47.173ZM39.072,45.1h2.072V40.957H39.072Z" transform="translate(-16.281 -28.525)" fill="#fff"/>
        <path id="Trazado_1046398" data-name="Trazado 1046398" d="M45,38.885h2.072v8.288H45Z" transform="translate(-15.993 -28.525)" fill="#fff"/>
        <path id="Trazado_1046399" data-name="Trazado 1046399" d="M34.18,47.173H30.036A1.036,1.036,0,0,1,29,46.137V39.921a1.036,1.036,0,0,1,1.036-1.036H34.18a1.036,1.036,0,0,1,1.036,1.036v6.216A1.036,1.036,0,0,1,34.18,47.173ZM31.072,45.1h2.072V40.957H31.072Z" transform="translate(-16.568 -28.525)" fill="#fff"/>
        <path id="Trazado_1046400" data-name="Trazado 1046400" d="M21,38.885h2.072v8.288H21Z" transform="translate(-16.856 -28.525)" fill="#fff"/>
        <path id="Trazado_1046401" data-name="Trazado 1046401" d="M25,38.885h2.072v8.288H25Z" transform="translate(-16.712 -28.525)" fill="#fff"/>
      </g>
      <circle id="Elipse_11913" data-name="Elipse 11913" cx="11.396" cy="11.396" r="11.396" transform="translate(21.719 4.036)" fill="#66c3e9"/>
      <path id="Trazado_1046402" data-name="Trazado 1046402" d="M32.324,4a11.333,11.333,0,0,0-6.947,2.376A11.382,11.382,0,0,0,41.343,22.343,11.382,11.382,0,0,0,32.324,4Z" transform="translate(0.791 0.036)" fill="#8adef9"/>
      <path id="Trazado_1046403" data-name="Trazado 1046403" d="M27.411,18.974,24.3,15.866a1.036,1.036,0,0,1,0-1.465l3.108-3.108,1.465,1.465L26.5,15.133l2.375,2.375Z" transform="translate(0.827 0.298)" fill="#fff"/>
      <path id="Trazado_1046404" data-name="Trazado 1046404" d="M0,0H9.266V2.072H0Z" transform="translate(30.104 19.12) rotate(-63.435)" fill="#fff"/>
      <path id="Trazado_1046405" data-name="Trazado 1046405" d="M36.758,18.974l-1.465-1.465,2.375-2.375-2.375-2.375,1.465-1.465L39.866,14.4a1.036,1.036,0,0,1,0,1.465Z" transform="translate(1.233 0.298)" fill="#fff"/>
      <path id="Trazado_1046406" data-name="Trazado 1046406" d="M8.252,62.967H57.978a7.261,7.261,0,0,0,7.252-7.252,1.036,1.036,0,0,0-1.036-1.036H62.122V21.529a6.222,6.222,0,0,0-6.216-6.216H53.643a3.108,3.108,0,0,0-2.918-2.072H45.339a12.419,12.419,0,0,0-24.449,0H15.5a3.108,3.108,0,0,0-2.917,2.072H10.324a6.222,6.222,0,0,0-6.216,6.216V54.679H2.036A1.036,1.036,0,0,0,1,55.715a7.261,7.261,0,0,0,7.252,7.252Zm51.8-41.438V54.679H57.978V20.493a1.036,1.036,0,0,0-1.036-1.036H53.834V17.385h2.072A4.144,4.144,0,0,1,60.05,21.529ZM26.9,54.679H10.324V21.529H12.4V49.5A3.108,3.108,0,0,0,15.5,52.607H50.726A3.113,3.113,0,0,0,53.834,49.5V21.529h2.072V54.679H39.33a1.036,1.036,0,0,0-1.036,1.036v1.036H27.935V55.715A1.036,1.036,0,0,0,26.9,54.679Zm6.216-26.817a12.432,12.432,0,0,0,10.822-6.334h7.826V49.5a1.036,1.036,0,0,1-1.036,1.036H15.5A1.036,1.036,0,0,1,14.467,49.5V21.529h7.827A12.432,12.432,0,0,0,33.115,27.863ZM50.726,15.312a1.036,1.036,0,0,1,1.036,1.036v3.108h-6.9a12.373,12.373,0,0,0,.682-4.025c0-.04-.005-.079-.006-.119ZM33.115,5.071a10.36,10.36,0,1,1-10.36,10.36,10.36,10.36,0,0,1,10.36-10.36ZM15.5,15.312h5.186c0,.04-.006.079-.006.119a12.372,12.372,0,0,0,.682,4.026h-6.9V16.349A1.036,1.036,0,0,1,15.5,15.312ZM6.18,21.528a4.144,4.144,0,0,1,4.144-4.144H12.4v2.072H9.288a1.036,1.036,0,0,0-1.036,1.036V54.678H6.18ZM25.863,56.75v1.036A1.036,1.036,0,0,0,26.9,58.822H39.33a1.036,1.036,0,0,0,1.036-1.036V56.75H63.054a5.188,5.188,0,0,1-5.076,4.144H8.252A5.188,5.188,0,0,1,3.176,56.75Z" transform="translate(0)"/>
      <path id="Trazado_1046407" data-name="Trazado 1046407" d="M17,28.885h2.072v8.288H17Z" transform="translate(0.575 0.93)"/>
      <path id="Trazado_1046408" data-name="Trazado 1046408" d="M22.036,37.173H26.18a1.036,1.036,0,0,0,1.036-1.036V29.921a1.036,1.036,0,0,0-1.036-1.036H22.036A1.036,1.036,0,0,0,21,29.921v6.216A1.036,1.036,0,0,0,22.036,37.173Zm1.036-6.216h2.072V35.1H23.072Z" transform="translate(0.719 0.93)"/>
      <path id="Trazado_1046409" data-name="Trazado 1046409" d="M29,28.885h2.072v8.288H29Z" transform="translate(1.007 0.93)"/>
      <path id="Trazado_1046410" data-name="Trazado 1046410" d="M33,28.885h2.072v8.288H33Z" transform="translate(1.151 0.93)"/>
      <path id="Trazado_1046411" data-name="Trazado 1046411" d="M38.036,37.173H42.18a1.036,1.036,0,0,0,1.036-1.036V29.921a1.036,1.036,0,0,0-1.036-1.036H38.036A1.036,1.036,0,0,0,37,29.921v6.216A1.036,1.036,0,0,0,38.036,37.173Zm1.036-6.216h2.072V35.1H39.072Z" transform="translate(1.295 0.93)"/>
      <path id="Trazado_1046412" data-name="Trazado 1046412" d="M45,28.885h2.072v8.288H45Z" transform="translate(1.582 0.93)"/>
      <path id="Trazado_1046413" data-name="Trazado 1046413" d="M17,38.885h2.072v8.288H17Z" transform="translate(0.575 1.29)"/>
      <path id="Trazado_1046414" data-name="Trazado 1046414" d="M38.036,47.173H42.18a1.036,1.036,0,0,0,1.036-1.036V39.921a1.036,1.036,0,0,0-1.036-1.036H38.036A1.036,1.036,0,0,0,37,39.921v6.216A1.036,1.036,0,0,0,38.036,47.173Zm1.036-6.216h2.072V45.1H39.072Z" transform="translate(1.295 1.29)"/>
      <path id="Trazado_1046415" data-name="Trazado 1046415" d="M45,38.885h2.072v8.288H45Z" transform="translate(1.582 1.29)"/>
      <path id="Trazado_1046416" data-name="Trazado 1046416" d="M30.036,47.173H34.18a1.036,1.036,0,0,0,1.036-1.036V39.921a1.036,1.036,0,0,0-1.036-1.036H30.036A1.036,1.036,0,0,0,29,39.921v6.216A1.036,1.036,0,0,0,30.036,47.173Zm1.036-6.216h2.072V45.1H31.072Z" transform="translate(1.007 1.29)"/>
      <path id="Trazado_1046417" data-name="Trazado 1046417" d="M21,38.885h2.072v8.288H21Z" transform="translate(0.719 1.29)"/>
      <path id="Trazado_1046418" data-name="Trazado 1046418" d="M25,38.885h2.072v8.288H25Z" transform="translate(0.863 1.29)"/>
      <path id="Trazado_1046419" data-name="Trazado 1046419" d="M28.876,17.509,26.5,15.133l2.375-2.375-1.465-1.465L24.3,14.4a1.036,1.036,0,0,0,0,1.465l3.108,3.108Z" transform="translate(0.827 0.298)"/>
      <path id="Trazado_1046420" data-name="Trazado 1046420" d="M0,0H9.266V2.072H0Z" transform="translate(30.104 19.12) rotate(-63.435)"/>
      <path id="Trazado_1046421" data-name="Trazado 1046421" d="M36.758,18.974l3.108-3.108a1.036,1.036,0,0,0,0-1.465l-3.108-3.108-1.465,1.465,2.375,2.375-2.375,2.375Z" transform="translate(1.233 0.298)"/>
    </g>
  </g>
</svg>
