<svg xmlns="http://www.w3.org/2000/svg" xmlns:xlink="http://www.w3.org/1999/xlink" width="108.914" height="108.914" viewBox="0 0 108.914 108.914">
  <defs>
    <filter id="Trazado_874925" x="0" y="0" width="108.914" height="108.914" filterUnits="userSpaceOnUse">
      <feOffset dy="3" input="SourceAlpha"/>
      <feGaussianBlur stdDeviation="3" result="blur"/>
      <feFlood flood-opacity="0.161"/>
      <feComposite operator="in" in2="blur"/>
      <feComposite in="SourceGraphic"/>
    </filter>
  </defs>
  <g id="Grupo_1179960" data-name="Grupo 1179960" transform="translate(6854.767 2679.274)">
    <g id="Grupo_1179631" data-name="Grupo 1179631" transform="translate(-6845.767 -2673.274)">
      <g id="Grupo_1179014" data-name="Grupo 1179014" transform="translate(0 0)">
        <g id="Grupo_1111527" data-name="Grupo 1111527" transform="translate(0 0)">
          <g id="Grupo_1111316" data-name="Grupo 1111316">
            <g id="Grupo_1109835" data-name="Grupo 1109835" transform="translate(0 0)">
              <g id="Grupo_1107913" data-name="Grupo 1107913" transform="translate(0 0)">
                <g transform="matrix(1, 0, 0, 1, -9, -6)" filter="url(#Trazado_874925)">
                  <g id="Trazado_874925-2" data-name="Trazado 874925" transform="translate(9 6)" fill="#fdf9d4" opacity="0.859">
                    <path d="M 45.45676803588867 89.41407012939453 C 39.52198028564453 89.41407012939453 33.76551818847656 88.25206756591797 28.34726715087891 85.96034240722656 C 23.11310577392578 83.74648284912109 18.41203117370605 80.57682800292969 14.37464332580566 76.5394287109375 C 10.33724308013916 72.50202941894531 7.167593002319336 67.80095672607422 4.953730583190918 62.56679534912109 C 2.662005424499512 57.14855575561523 1.500005483627319 51.39208221435547 1.500005483627319 45.45729446411133 C 1.500005483627319 39.52198028564453 2.662005424499512 33.76550674438477 4.953730583190918 28.34726905822754 C 7.167593002319336 23.11310577392578 10.33724308013916 18.41203117370605 14.37464332580566 14.37464332580566 C 18.41203117370605 10.33724403381348 23.11310577392578 7.167593955993652 28.34726715087891 4.953731060028076 C 33.76550674438477 2.662006139755249 39.52198028564453 1.500006198883057 45.45676803588867 1.500006198883057 C 51.39155578613281 1.500006198883057 57.14802932739258 2.662006139755249 62.56626892089844 4.953731060028076 C 67.80043029785156 7.167593955993652 72.50150299072266 10.33724403381348 76.53890228271484 14.37464332580566 C 80.57630920410156 18.41203117370605 83.74595642089844 23.11310577392578 85.95981597900391 28.34726905822754 C 88.25154113769531 33.76551818847656 89.41354370117188 39.52198028564453 89.41354370117188 45.45676803588867 C 89.41354370117188 51.39208221435547 88.25154113769531 57.14855575561523 85.95981597900391 62.56679534912109 C 83.74595642089844 67.80095672607422 80.57630920410156 72.50202941894531 76.53890228271484 76.5394287109375 C 72.50150299072266 80.57682800292969 67.80043029785156 83.74648284912109 62.56626892089844 85.96034240722656 C 57.14802932739258 88.25206756591797 51.39155578613281 89.41407012939453 45.45676803588867 89.41407012939453 Z" stroke="none"/>
                    <path d="M 45.45676803588867 3 C 39.72381210327148 3 34.1639404296875 4.12213134765625 28.93159484863281 6.335227966308594 C 23.87622833251953 8.473472595214844 19.33542633056641 11.53517150878906 15.43529510498047 15.435302734375 C 11.53517150878906 19.33543395996094 8.473464965820312 23.87622833251953 6.335227966308594 28.93160247802734 C 4.122123718261719 34.16394424438477 3 39.72381591796875 3 45.4572868347168 C 3 51.19024658203125 4.122123718261719 56.75011825561523 6.335227966308594 61.98246002197266 C 8.473464965820312 67.03782653808594 11.53517150878906 71.57862854003906 15.43529510498047 75.478759765625 C 19.33542633056641 79.37889099121094 23.87622833251953 82.44058990478516 28.93159484863281 84.57883453369141 C 34.1639404296875 86.79193115234375 39.72381210327148 87.9140625 45.45676803588867 87.9140625 C 51.18972396850586 87.9140625 56.74959564208984 86.79193115234375 61.98194122314453 84.57883453369141 C 67.03730773925781 82.44058990478516 71.57810974121094 79.37889099121094 75.47824096679688 75.478759765625 C 79.37837219238281 71.57862854003906 82.44007110595703 67.03782653808594 84.57830810546875 61.98246002197266 C 86.79141235351562 56.75011825561523 87.91353607177734 51.19024658203125 87.91353607177734 45.4567756652832 C 87.91353607177734 39.72381591796875 86.79141235351562 34.16394424438477 84.57830810546875 28.93160247802734 C 82.44007110595703 23.87622833251953 79.37837219238281 19.33543395996094 75.47824096679688 15.435302734375 C 71.57810974121094 11.53517150878906 67.03730773925781 8.473472595214844 61.98194122314453 6.335227966308594 C 56.74959564208984 4.12213134765625 51.18972396850586 3 45.45676803588867 3 M 45.45676803588867 0 C 70.56185150146484 0 90.91353607177734 20.35169219970703 90.91353607177734 45.4567756652832 L 90.91353607177734 45.4572868347168 C 90.91353607177734 70.5623779296875 70.56185150146484 90.9140625 45.45676803588867 90.9140625 C 20.3516845703125 90.9140625 0 70.5623779296875 0 45.4572868347168 L 0 45.4567756652832 C 0 20.35169219970703 20.3516845703125 0 45.45676803588867 0 Z" stroke="none" fill="#c7b622"/>
                  </g>
                </g>
                <g id="Trazado_874923" data-name="Trazado 874923" transform="translate(0)" fill="none">
                  <path d="M45.457,0A45.457,45.457,0,0,1,90.914,45.457h0A45.457,45.457,0,0,1,0,45.457H0A45.457,45.457,0,0,1,45.457,0Z" stroke="none"/>
                  <path d="M 45.45676803588867 3 C 39.72381210327148 3 34.1639404296875 4.12213134765625 28.93159484863281 6.335227966308594 C 23.87622833251953 8.473472595214844 19.33542633056641 11.53517150878906 15.43529510498047 15.435302734375 C 11.53517150878906 19.33543395996094 8.473464965820312 23.87622833251953 6.335227966308594 28.93160247802734 C 4.122123718261719 34.16394424438477 3 39.72381591796875 3 45.4572868347168 C 3 51.19024658203125 4.122123718261719 56.75011825561523 6.335227966308594 61.98246002197266 C 8.473464965820312 67.03782653808594 11.53517150878906 71.57862854003906 15.43529510498047 75.478759765625 C 19.33542633056641 79.37889099121094 23.87622833251953 82.44058990478516 28.93159484863281 84.57883453369141 C 34.1639404296875 86.79193115234375 39.72381210327148 87.9140625 45.45676803588867 87.9140625 C 51.18972396850586 87.9140625 56.74959564208984 86.79193115234375 61.98194122314453 84.57883453369141 C 67.03730773925781 82.44058990478516 71.57810974121094 79.37889099121094 75.47824096679688 75.478759765625 C 79.37837219238281 71.57862854003906 82.44007110595703 67.03782653808594 84.57830810546875 61.98246002197266 C 86.79141235351562 56.75011825561523 87.91353607177734 51.19024658203125 87.91353607177734 45.4567756652832 C 87.91353607177734 39.72381591796875 86.79141235351562 34.16394424438477 84.57830810546875 28.93160247802734 C 82.44007110595703 23.87622833251953 79.37837219238281 19.33543395996094 75.47824096679688 15.435302734375 C 71.57810974121094 11.53517150878906 67.03730773925781 8.473472595214844 61.98194122314453 6.335227966308594 C 56.74959564208984 4.12213134765625 51.18972396850586 3 45.45676803588867 3 M 45.45676803588867 0 C 70.56185150146484 0 90.91353607177734 20.35169219970703 90.91353607177734 45.4567756652832 L 90.91353607177734 45.4572868347168 C 90.91353607177734 70.5623779296875 70.56185150146484 90.9140625 45.45676803588867 90.9140625 C 20.3516845703125 90.9140625 0 70.5623779296875 0 45.4572868347168 L 0 45.4567756652832 C 0 20.35169219970703 20.3516845703125 0 45.45676803588867 0 Z" stroke="none" fill="#c7b622"/>
                </g>
              </g>
            </g>
          </g>
        </g>
      </g>
    </g>
    <g id="_3d-printer_2181534" data-name="3d-printer_2181534" transform="translate(-6832 -2660)">
      <path id="Trazado_1049683" data-name="Trazado 1049683" d="M21,16.01V44.96a16.9,16.9,0,0,0,10.54,4.03,4.5,4.5,0,1,1,.92,0,16.9,16.9,0,0,0,10.53-4.03V16.01Z" fill="#545c66"/>
      <path id="Trazado_1049684" data-name="Trazado 1049684" d="M21,21.01V44.95a16.841,16.841,0,0,1-3-3.311V16a3.009,3.009,0,0,1,3-3H42.99a3,3,0,0,1,2.76,1.83A2.879,2.879,0,0,1,45.99,16V41.64H46a17.261,17.261,0,0,1-3.01,3.32V16.01H21Z" fill="#656d78"/>
      <path id="Trazado_1049685" data-name="Trazado 1049685" d="M35,21.01h7.99v3H35Z" fill="#aab2bd"/>
      <path id="Trazado_1049686" data-name="Trazado 1049686" d="M21,21.01h8v3H21Z" fill="#aab2bd"/>
      <path id="Trazado_1049687" data-name="Trazado 1049687" d="M35,24.01v2H29v-7h6v5Z" fill="#e6e9ed"/>
      <path id="Trazado_1049688" data-name="Trazado 1049688" d="M32,40.01a4.5,4.5,0,0,1,.46,8.98c-.15.01-.31.01-.46.01s-.31,0-.46-.01A4.5,4.5,0,0,1,32,40.01Z" fill="#5d9cec"/>
      <path id="Trazado_1049689" data-name="Trazado 1049689" d="M42.99,13H21a3.009,3.009,0,0,0-3,3v6.35a16.978,16.978,0,0,0,3,22.6v.01a16.9,16.9,0,0,0,10.54,4.03c.15.01.3.02.46.02s.31-.01.46-.02a16.9,16.9,0,0,0,10.53-4.03A17.324,17.324,0,0,0,46,41.641a16.981,16.981,0,0,0-.01-19.29V16a2.879,2.879,0,0,0-.24-1.17A3,3,0,0,0,42.99,13ZM63,26V38H58.32a26.766,26.766,0,0,1-3.471,8.37l3.311,3.31-8.49,8.48-3.3-3.311A26.766,26.766,0,0,1,38,58.32V63H26V58.32a26.668,26.668,0,0,1-8.37-3.471L14.32,58.16,5.83,49.68l3.31-3.31A27,27,0,0,1,5.67,38H1V26H5.67a27,27,0,0,1,3.47-8.37L5.83,14.32l8.49-8.48,3.31,3.311A26.645,26.645,0,0,1,26,5.68V1H38V5.68a26.767,26.767,0,0,1,8.37,3.471l3.3-3.311,8.49,8.48-3.311,3.31A26.766,26.766,0,0,1,58.32,26Z" fill="#ccd1d9"/>
      <path id="Trazado_1049690" data-name="Trazado 1049690" d="M38,64H26a1,1,0,0,1-1-1V59.109a27.762,27.762,0,0,1-7.218-2.991L15.029,58.87a1.029,1.029,0,0,1-1.414,0L5.13,50.385a1,1,0,0,1,0-1.414l2.752-2.753A27.762,27.762,0,0,1,4.891,39H1a1,1,0,0,1-1-1V26a1,1,0,0,1,1-1H4.891a27.762,27.762,0,0,1,2.991-7.218L5.13,15.029a1,1,0,0,1,0-1.414L13.615,5.13a1.029,1.029,0,0,1,1.414,0l2.753,2.752A27.762,27.762,0,0,1,25,4.891V1a1,1,0,0,1,1-1H38a1,1,0,0,1,1,1V4.891a27.762,27.762,0,0,1,7.218,2.991L48.971,5.13a1.029,1.029,0,0,1,1.414,0l8.485,8.485a1,1,0,0,1,0,1.414l-2.752,2.753A27.762,27.762,0,0,1,59.109,25H63a1,1,0,0,1,1,1V38a1,1,0,0,1-1,1H59.109a27.762,27.762,0,0,1-2.991,7.218l2.752,2.753a1,1,0,0,1,0,1.414L50.385,58.87a1.029,1.029,0,0,1-1.414,0l-2.753-2.752A27.762,27.762,0,0,1,39,59.109V63A1,1,0,0,1,38,64ZM27,62H37V58.322a1,1,0,0,1,.778-.976,25.772,25.772,0,0,0,8.058-3.339,1,1,0,0,1,1.24.14l2.6,2.6,7.071-7.071-2.6-2.6a1,1,0,0,1-.14-1.24,25.8,25.8,0,0,0,3.339-8.058A1,1,0,0,1,58.322,37H62V27H58.322a1,1,0,0,1-.976-.778,25.772,25.772,0,0,0-3.339-8.058,1,1,0,0,1,.14-1.24l2.6-2.6L49.678,7.251l-2.6,2.6a1,1,0,0,1-1.24.14,25.8,25.8,0,0,0-8.058-3.339A1,1,0,0,1,37,5.678V2H27V5.678a1,1,0,0,1-.778.976,25.772,25.772,0,0,0-8.058,3.339,1,1,0,0,1-1.24-.14l-2.6-2.6L7.251,14.322l2.6,2.6a1,1,0,0,1,.14,1.24,25.8,25.8,0,0,0-3.339,8.058A1,1,0,0,1,5.678,27H2V37H5.678a1,1,0,0,1,.976.778,25.772,25.772,0,0,0,3.339,8.058,1,1,0,0,1-.14,1.24l-2.6,2.6,7.071,7.071,2.6-2.6a1,1,0,0,1,1.24-.14,25.8,25.8,0,0,0,8.058,3.339,1,1,0,0,1,.778.976Z"/>
      <path id="Trazado_1049691" data-name="Trazado 1049691" d="M32,55A23.025,23.025,0,0,1,9,32a1,1,0,0,1,2,0A21.024,21.024,0,0,0,32,53a1,1,0,0,1,0,2Z"/>
      <path id="Trazado_1049692" data-name="Trazado 1049692" d="M54,33a1,1,0,0,1-1-1,20.915,20.915,0,0,0-7.87-16.388,1,1,0,0,1,1.252-1.56A22.908,22.908,0,0,1,55,32,1,1,0,0,1,54,33Z"/>
      <path id="Trazado_1049693" data-name="Trazado 1049693" d="M43.023,13.959a.993.993,0,0,1-.5-.135A20.982,20.982,0,0,0,32,11a1,1,0,0,1,0-2,22.984,22.984,0,0,1,11.526,3.094,1,1,0,0,1-.5,1.865Z"/>
      <path id="Trazado_1049694" data-name="Trazado 1049694" d="M46,42.645a1,1,0,0,1-1-1V16a2,2,0,0,0-2-2H21a2,2,0,0,0-2,2V41.645a1,1,0,0,1-2,0V16a4,4,0,0,1,4-4H43a4,4,0,0,1,4,4V41.645A1,1,0,0,1,46,42.645Z"/>
      <path id="Trazado_1049695" data-name="Trazado 1049695" d="M43,45.959a1,1,0,0,1-1-1V17.008H22V44.959a1,1,0,0,1-2,0V16.008a1,1,0,0,1,1-1H43a1,1,0,0,1,1,1V44.959A1,1,0,0,1,43,45.959Z"/>
      <path id="Trazado_1049696" data-name="Trazado 1049696" d="M35,27.008H29a1,1,0,0,1-1-1v-7a1,1,0,0,1,1-1h6a1,1,0,0,1,1,1v7A1,1,0,0,1,35,27.008Zm-5-2h4v-5H30Z"/>
      <path id="Trazado_1049697" data-name="Trazado 1049697" d="M32,28.008a1,1,0,0,1-1-1v-1a1,1,0,1,1,2,0v1A1,1,0,0,1,32,28.008Z"/>
      <path id="Trazado_1049698" data-name="Trazado 1049698" d="M43,25.009H35a1,1,0,0,1,0-2h8a1,1,0,0,1,0,2Z"/>
      <path id="Trazado_1049699" data-name="Trazado 1049699" d="M43,22.006H35a1,1,0,0,1,0-2h8a1,1,0,0,1,0,2Z"/>
      <path id="Trazado_1049700" data-name="Trazado 1049700" d="M29,25.009H21a1,1,0,0,1,0-2h8a1,1,0,0,1,0,2Z"/>
      <path id="Trazado_1049701" data-name="Trazado 1049701" d="M29,22.006H21a1,1,0,0,1,0-2h8a1,1,0,0,1,0,2Z"/>
      <path id="Trazado_1049702" data-name="Trazado 1049702" d="M32,50.014a5.5,5.5,0,1,1,5.5-5.5A5.507,5.507,0,0,1,32,50.014Zm0-9a3.5,3.5,0,1,0,3.5,3.5A3.5,3.5,0,0,0,32,41.014Z"/>
      <path id="Trazado_1049703" data-name="Trazado 1049703" d="M32,50A18,18,0,0,1,17.179,21.786a1,1,0,0,1,1.647,1.137,16,16,0,1,0,26.346-.005,1,1,0,0,1,1.645-1.137A18,18,0,0,1,32,50Z"/>
      <path id="Trazado_1049704" data-name="Trazado 1049704" d="M32,41.01a1,1,0,0,1-1-1,3.005,3.005,0,0,1,3-3,1,1,0,0,1,0,2,1,1,0,0,0-1,1A1,1,0,0,1,32,41.01Z"/>
      <path id="Trazado_1049705" data-name="Trazado 1049705" d="M30,33.009a1,1,0,0,1,0-2,1,1,0,0,0,1-1,1,1,0,0,1,2,0,3,3,0,0,1-3,3Z"/>
      <path id="Trazado_1049706" data-name="Trazado 1049706" d="M37.492,39.009a1,1,0,0,1,0-2,.5.5,0,1,0,0-1,1,1,0,0,1,0-2,2.5,2.5,0,1,1,0,5Z"/>
      <path id="Trazado_1049707" data-name="Trazado 1049707" d="M26.506,36.009a2.5,2.5,0,1,1,0-5,1,1,0,0,1,0,2,.5.5,0,1,0,0,1,1,1,0,0,1,0,2Z"/>
      <path id="Trazado_1049708" data-name="Trazado 1049708" d="M37.492,39.011H34a1,1,0,0,1,0-2h3.492a1,1,0,1,1,0,2Z"/>
      <path id="Trazado_1049709" data-name="Trazado 1049709" d="M37.492,36.009H26.506a1,1,0,1,1,0-2H37.492a1,1,0,1,1,0,2Z"/>
      <path id="Trazado_1049710" data-name="Trazado 1049710" d="M30,33.009H26.506a1,1,0,1,1,0-2H30a1,1,0,0,1,0,2Z"/>
    </g>
  </g>
</svg>
