<svg xmlns="http://www.w3.org/2000/svg" xmlns:xlink="http://www.w3.org/1999/xlink" width="118" height="118" viewBox="0 0 118 118">
  <defs>
    <filter id="Trazado_896985" x="0" y="0" width="118" height="118" filterUnits="userSpaceOnUse">
      <feOffset dy="3" input="SourceAlpha"/>
      <feGaussianBlur stdDeviation="3" result="blur"/>
      <feFlood flood-opacity="0.161"/>
      <feComposite operator="in" in2="blur"/>
      <feComposite in="SourceGraphic"/>
    </filter>
  </defs>
  <g id="Grupo_1179745" data-name="Grupo 1179745" transform="translate(9 6)">
    <g id="Grupo_1179021" data-name="Grupo 1179021">
      <g id="Grupo_1111320" data-name="Grupo 1111320" transform="translate(0 0)">
        <g id="Grupo_1109828" data-name="Grupo 1109828">
          <g id="Grupo_1098742" data-name="Grupo 1098742">
            <g transform="matrix(1, 0, 0, 1, -9, -6)" filter="url(#Trazado_896985)">
              <g id="Trazado_896985-2" data-name="Trazado 896985" transform="translate(9 6)" fill="#1bebf5" opacity="0.859">
                <path d="M 49.99993896484375 98.5 C 43.45182418823242 98.5 37.10037994384766 97.21788787841797 31.12203979492188 94.68925476074219 C 25.34688186645508 92.24657440185547 20.15993881225586 88.74932861328125 15.70529651641846 84.29470062255859 C 11.25066757202148 79.84007263183594 7.753438949584961 74.65312957763672 5.310753345489502 68.87796783447266 C 2.782124757766724 62.89962768554688 1.499996066093445 56.54818725585938 1.499996066093445 50.00007247924805 C 1.499996066093445 43.45181274414062 2.782124757766724 37.10037231445312 5.310753345489502 31.12202835083008 C 7.753438949584961 25.34687232971191 11.25066757202148 20.1599292755127 15.70529651641846 15.70530033111572 C 20.15993881225586 11.25067138671875 25.34688186645508 7.75342845916748 31.12203979492188 5.310742855072021 C 37.10037994384766 2.782114267349243 43.45182418823242 1.5 49.99993896484375 1.5 C 56.54805374145508 1.5 62.89949798583984 2.782114267349243 68.87785339355469 5.310742855072021 C 74.65300750732422 7.75342845916748 79.83995056152344 11.25067138671875 84.29457855224609 15.70530033111572 C 88.74921417236328 20.1599292755127 92.24645233154297 25.34687232971191 94.68914031982422 31.12202835083008 C 97.21776580810547 37.10037231445312 98.49988555908203 43.45181274414062 98.49988555908203 49.99992752075195 C 98.49988555908203 56.54818725585938 97.21776580810547 62.89962768554688 94.68914031982422 68.87796783447266 C 92.24645233154297 74.65312957763672 88.74921417236328 79.84007263183594 84.29457855224609 84.29470062255859 C 79.83995056152344 88.74932861328125 74.65300750732422 92.24657440185547 68.87785339355469 94.68925476074219 C 62.89949798583984 97.21788787841797 56.54805374145508 98.5 49.99993896484375 98.5 Z" stroke="none"/>
                <path d="M 49.99993896484375 3 C 43.65366363525391 3 37.49881744384766 4.242263793945312 31.70636749267578 6.6922607421875 C 26.11000061035156 9.059326171875 21.08332061767578 12.44860076904297 16.76596832275391 16.76595306396484 C 12.44860076904297 21.08332061767578 9.059326171875 26.11000061035156 6.6922607421875 31.70635223388672 C 4.242263793945312 37.49881362915039 3 43.65365982055664 3 50.00006103515625 C 3 56.34634017944336 4.242263793945312 62.50118637084961 6.6922607421875 68.29363250732422 C 9.059326171875 73.88999938964844 12.44860076904297 78.91667938232422 16.76596832275391 83.23403167724609 C 21.08332061767578 87.55139923095703 26.11000061035156 90.940673828125 31.70636749267578 93.3077392578125 C 37.49881744384766 95.75773620605469 43.65366363525391 97 49.99993896484375 97 C 56.34621429443359 97 62.50106048583984 95.75773620605469 68.29352569580078 93.3077392578125 C 73.88987731933594 90.940673828125 78.91654968261719 87.55139923095703 83.23392486572266 83.23403167724609 C 87.55127716064453 78.91667938232422 90.9405517578125 73.88999938964844 93.3076171875 68.29363250732422 C 95.75761413574219 62.50118637084961 96.9998779296875 56.34634017944336 96.9998779296875 49.99993896484375 C 96.9998779296875 43.65365982055664 95.75761413574219 37.49881362915039 93.3076171875 31.70635223388672 C 90.94056701660156 26.11000061035156 87.55127716064453 21.08332061767578 83.23392486572266 16.76595306396484 C 78.91654968261719 12.44860076904297 73.88987731933594 9.059310913085938 68.29352569580078 6.6922607421875 C 62.50106048583984 4.242263793945312 56.34621429443359 3 49.99993896484375 3 M 49.99993896484375 0 C 77.61415100097656 0 99.9998779296875 22.38571929931641 99.9998779296875 49.99993896484375 L 99.9998779296875 50.00006103515625 C 99.9998779296875 77.6142578125 77.61415100097656 100 49.99993896484375 100 C 22.3857421875 100 0 77.6142578125 0 50.00006103515625 L 0 49.99993896484375 C 0 22.38571929931641 22.3857421875 0 49.99993896484375 0 Z" stroke="none" fill="#fff"/>
              </g>
            </g>
            <g id="Rectángulo_400907" data-name="Rectángulo 400907" transform="translate(0)" fill="none" stroke="#fff" stroke-width="3">
              <rect width="100" height="100" rx="50" stroke="none"/>
              <rect x="1.5" y="1.5" width="97" height="97" rx="48.5" fill="none"/>
            </g>
          </g>
        </g>
      </g>
    </g>
    <g id="Artboard491" transform="translate(5.832 10.415)">
      <g id="Grupo_1181529" data-name="Grupo 1181529" transform="translate(12.886 6.999)">
        <g id="Grupo_1181528" data-name="Grupo 1181528" transform="translate(1.085 5.042)">
          <g id="Grupo_1181525" data-name="Grupo 1181525" transform="translate(0 8.648)">
            <path id="Trazado_1049722" data-name="Trazado 1049722" d="M168.245,389.27h18.294v10.419H168.245Z" transform="translate(-148.291 -351.19)" fill="#a79ba7" fill-rule="evenodd"/>
            <path id="Trazado_1049723" data-name="Trazado 1049723" d="M292.847,389.27h1.42v10.419h-1.42Z" transform="translate(-256.018 -351.19)" fill="#837683" fill-rule="evenodd"/>
            <path id="Trazado_1049724" data-name="Trazado 1049724" d="M89.788,460.068h39.547v-3.049c0-1.674-1.719-3.049-3.815-3.049H93.6c-2.1,0-3.816,1.375-3.816,3.049Z" transform="translate(-80.459 -407.128)" fill="#eceff1" fill-rule="evenodd"/>
            <path id="Trazado_1049725" data-name="Trazado 1049725" d="M89.788,463.952h39.547V460.9a2.908,2.908,0,0,0-1.54-2.441,2.514,2.514,0,0,1,.327,1.231v3.049H89.788Z" transform="translate(-80.459 -411.012)" fill="#d1d1d6" fill-rule="evenodd"/>
            <path id="Trazado_1049726" data-name="Trazado 1049726" d="M25.372,108.084H74.63a4.489,4.489,0,0,1,4.476,4.476v30.782a4.489,4.489,0,0,1-4.476,4.476H25.372a4.486,4.486,0,0,1-4.472-4.476V112.56A4.486,4.486,0,0,1,25.372,108.084Z" transform="translate(-20.9 -108.084)" fill="#eceff1" fill-rule="evenodd"/>
            <path id="Trazado_1049727" data-name="Trazado 1049727" d="M82,113.744a4.479,4.479,0,0,1,1.98,3.709v30.782a4.489,4.489,0,0,1-4.476,4.476H30.244a4.489,4.489,0,0,1-3.709-1.977,4.457,4.457,0,0,0,2.5.763H78.289a4.486,4.486,0,0,0,4.476-4.472V116.24a4.434,4.434,0,0,0-.767-2.5Z" transform="translate(-25.772 -112.977)" fill="#d1d1d6" fill-rule="evenodd"/>
            <path id="Trazado_1049728" data-name="Trazado 1049728" d="M49.138,135.725H98.62a.621.621,0,0,1,.619.619v27.867H48.516V136.344A.621.621,0,0,1,49.138,135.725Z" transform="translate(-44.776 -131.982)" fill="#d8ecfe" fill-rule="evenodd"/>
            <path id="Trazado_1049729" data-name="Trazado 1049729" d="M400.57,135.725H403a.621.621,0,0,1,.619.619v27.867h-2.423V136.344A.623.623,0,0,0,400.57,135.725Z" transform="translate(-349.153 -131.982)" fill="#c4e2ff" fill-rule="evenodd"/>
          </g>
          <g id="Grupo_1181526" data-name="Grupo 1181526" transform="translate(18.055)">
            <path id="Trazado_1049730" data-name="Trazado 1049730" d="M167.638,51.343l1.093,3.26a45.188,45.188,0,0,1,6.219,7.922c4.157,7.3-1.757,14.716-9.68,14.582-7.92.134-13.837-7.282-9.678-14.582a45.1,45.1,0,0,1,6.219-7.922l1.1-3.256-2.666-2.668a1.673,1.673,0,0,1,2.089-2.59.861.861,0,0,0,1.3-.542,1.674,1.674,0,0,1,3.272,0,.861.861,0,0,0,1.3.542,1.673,1.673,0,0,1,2.089,2.59Z" transform="translate(-154.224 -44.228)" fill="#ffc338" fill-rule="evenodd"/>
            <path id="Trazado_1049731" data-name="Trazado 1049731" d="M210.668,51.343l1.093,3.26a45.187,45.187,0,0,1,6.219,7.922c4.157,7.3-1.757,14.716-9.68,14.582-.155,0-.309,0-.462,0,7.687-.155,13.293-7.423,9.215-14.58a45.092,45.092,0,0,0-6.219-7.922l-1.091-3.26,2.662-2.664a1.671,1.671,0,0,0-.72-2.79,1.673,1.673,0,0,1,1.647,2.79Zm-6.674-5.454a1.683,1.683,0,0,1,1.367.2l0,0a.855.855,0,0,1-.134.068.833.833,0,0,1-.794-.07A1.693,1.693,0,0,0,203.994,45.888Zm3.845-1.594a1.662,1.662,0,0,1,.462-.066,1.684,1.684,0,0,1,1.637,1.319.83.83,0,0,0,.377.544.861.861,0,0,1-1.3-.544A1.686,1.686,0,0,0,207.839,44.294Z" transform="translate(-197.254 -44.228)" fill="#f5b829" fill-rule="evenodd"/>
            <path id="Trazado_1049732" data-name="Trazado 1049732" d="M198.569,100.047h7.266a1.628,1.628,0,1,0,0-3.256h-7.266a1.628,1.628,0,1,0,0,3.256Z" transform="translate(-191.155 -89.673)" fill="#837683" fill-rule="evenodd"/>
            <path id="Trazado_1049733" data-name="Trazado 1049733" d="M255.8,100.047h.924a1.628,1.628,0,1,0,0-3.256H255.8a1.628,1.628,0,1,1,0,3.256Z" transform="translate(-242.042 -89.673)" fill="#685e68" fill-rule="evenodd"/>
          </g>
          <g id="Grupo_1181527" data-name="Grupo 1181527" transform="translate(41.914 33.69)">
            <path id="Trazado_1049734" data-name="Trazado 1049734" d="M343.285,294.779a9.159,9.159,0,0,1,2.686,1.113l1.745-.774,2.056,2.056L349,298.919a9.164,9.164,0,0,1,1.113,2.686l1.781.685V305.2l-1.781.685A9.17,9.17,0,0,1,349,308.569l.774,1.745-2.056,2.057-1.745-.776a9.162,9.162,0,0,1-2.686,1.114l-.685,1.78h-2.909l-.685-1.781a9.172,9.172,0,0,1-2.684-1.113l-1.745.776-2.057-2.057.776-1.744a9.191,9.191,0,0,1-1.114-2.686L330.4,305.2V302.29l1.779-.685a9.163,9.163,0,0,1,1.114-2.686l-.776-1.745,2.057-2.056,1.744.774a9.188,9.188,0,0,1,2.686-1.113l.685-1.781H342.6Z" transform="translate(-330.4 -292.998)" fill="#ffe177" fill-rule="evenodd"/>
            <path id="Trazado_1049735" data-name="Trazado 1049735" d="M372.127,295.378l.586-.26,2.056,2.056L374,298.919a9.163,9.163,0,0,1,1.113,2.686l1.781.685V305.2l-1.781.685A9.169,9.169,0,0,1,374,308.569l.774,1.745-2.056,2.057-.586-.26,1.8-1.8-.775-1.745a9.166,9.166,0,0,0,1.113-2.684l1.781-.685V302.29l-1.781-.685a9.16,9.16,0,0,0-1.113-2.686l.775-1.745Zm-12.814,0,.26-.26,1.744.774c-.123.069-.245.14-.364.215Zm8.97-.6a9.159,9.159,0,0,1,2.686,1.113l-.481.214a11.983,11.983,0,0,0-3.051-1.328L366.751,293h.847ZM361.318,311.6l-1.745.776-.26-.26,1.64-.728Q361.132,311.493,361.318,311.6Zm9.65,0a9.163,9.163,0,0,1-2.686,1.114l-.685,1.78h-.847l.685-1.78a12.01,12.01,0,0,0,3.053-1.328Z" transform="translate(-355.397 -292.998)" fill="#ffd064" fill-rule="evenodd"/>
            <path id="Trazado_1049736" data-name="Trazado 1049736" d="M377.361,334.886a5.073,5.073,0,1,1-5.073,5.074A5.074,5.074,0,0,1,377.361,334.886Z" transform="translate(-366.615 -329.213)" fill="#eceff1" fill-rule="evenodd"/>
            <path id="Trazado_1049737" data-name="Trazado 1049737" d="M377.361,334.886c.115,0,.23,0,.344.012a5.073,5.073,0,0,0,0,10.123c-.114.007-.229.011-.344.011a5.073,5.073,0,0,1,0-10.146Z" transform="translate(-366.615 -329.213)" fill="#d1d1d6" fill-rule="evenodd"/>
          </g>
        </g>
        <path id="Trazado_1049738" data-name="Trazado 1049738" d="M48.427,22.339q.383.425.746.838a38.465,38.465,0,0,1,4.519,6.08c4.6,8.079-1.855,16.338-10.615,16.2-8.764.137-15.222-8.122-10.623-16.2h0a38.687,38.687,0,0,1,4.52-6.08q.362-.414.746-.839a2.708,2.708,0,0,1,.614-4.565L37.28,16.719A2.756,2.756,0,0,1,40.459,12.3a2.756,2.756,0,0,1,5.229,0,2.766,2.766,0,0,1,3.18.516h0a2.769,2.769,0,0,1,0,3.9l-1.055,1.055a2.708,2.708,0,0,1,.613,4.566Zm-8.341.62Q39.3,23.806,38.6,24.6a36.553,36.553,0,0,0-4.268,5.725c-3.708,6.516,1.649,13.082,8.72,12.963h.036c7.07.119,12.428-6.447,8.717-12.963A36.326,36.326,0,0,0,47.543,24.6q-.7-.8-1.484-1.646Zm1.074-5.424h3.828l2.349-2.349a.59.59,0,0,0-.737-.914h0a1.942,1.942,0,0,1-2.949-1.224.59.59,0,0,0-1.152,0,1.942,1.942,0,0,1-2.946,1.227.6.6,0,0,0-.74.076.591.591,0,0,0,0,.834v0ZM46.707,19.7H39.441a.545.545,0,0,0,0,1.091h7.266a.545.545,0,0,0,0-1.091Zm-3.7,16.67h.124a2.753,2.753,0,0,0,1.117-.254.782.782,0,0,0,.532-.8,1.058,1.058,0,0,0-.714-.829,4.788,4.788,0,0,0-1.19-.325c-1.635-.267-3.354-1.117-3.448-3.057h0A3.13,3.13,0,0,1,41.547,28a3.961,3.961,0,0,1,.412-.136v-.311a1.083,1.083,0,1,1,2.167,0v.3a3.678,3.678,0,0,1,2.51,2.182,1.083,1.083,0,0,1-2,.838,1.624,1.624,0,0,0-1.524-.992l-.071,0h-.05a2,2,0,0,0-.652.135,1.031,1.031,0,0,0-.749.989.84.84,0,0,0,.56.714,3.923,3.923,0,0,0,1.074.309h0c1.665.273,3.464,1.057,3.7,3.032v0c.226,1.885-1.219,3.016-2.8,3.364V38.7a1.083,1.083,0,1,1-2.167,0v-.293a3.647,3.647,0,0,1-2.794-2.649,1.083,1.083,0,1,1,2.1-.524,1.682,1.682,0,0,0,1.739,1.137ZM32.844,60.964h-14.4A5.577,5.577,0,0,1,12.886,55.4V24.622a5.577,5.577,0,0,1,5.559-5.559h5.267a21.407,21.407,0,0,1,8.8-9.614,1.083,1.083,0,0,1,.653-2l3.46.277a1.089,1.089,0,0,1,.683.3,1.076,1.076,0,0,1,.228.316c.018.037.051.126.052.132a1.084,1.084,0,0,1-.139.948l-1.981,2.873a1.084,1.084,0,0,1-1.927-.936,19.154,19.154,0,0,0-9.22,20.367,1.083,1.083,0,0,1-2.124.427,21.485,21.485,0,0,1-.212-7.175H18.794V51.259H57.451q.055-.108.113-.215L57.012,49.8a1.083,1.083,0,0,1,.224-1.206l2.056-2.056a1.084,1.084,0,0,1,1.206-.224l1.242.552a10.227,10.227,0,0,1,1.937-.8l.49-1.27a1.083,1.083,0,0,1,1.011-.693h2.175V24.975H64.164a21.437,21.437,0,0,1,.205,2.965q0,.1,0,.2A1.084,1.084,0,0,1,65.783,29.7l-2,2.839a1.106,1.106,0,0,1-.081.1,1.084,1.084,0,0,1-.913.367c-.039,0-.129-.019-.134-.021a1.084,1.084,0,0,1-.752-.6l-1.468-3.166A1.084,1.084,0,0,1,62.2,28.019c0-.026,0-.053,0-.079A19.146,19.146,0,0,0,46.663,9.147a1.083,1.083,0,0,1,.4-2.129A21.348,21.348,0,0,1,62.433,19.063H67.7a5.577,5.577,0,0,1,5.559,5.559v21.6a1.083,1.083,0,0,1,.709.316L76.025,48.6a1.084,1.084,0,0,1,.225,1.2l-.55,1.242a10.2,10.2,0,0,1,.8,1.94l1.266.487a1.083,1.083,0,0,1,.694,1.011V57.39a1.083,1.083,0,0,1-.694,1.011l-1.267.488a10.32,10.32,0,0,1-.8,1.936l.551,1.243a1.083,1.083,0,0,1-.225,1.2l-2.056,2.056a1.083,1.083,0,0,1-1.2.225L71.522,65a10.2,10.2,0,0,1-1.938.8L69.1,67.073a1.083,1.083,0,0,1-1.011.694H65.177a1.083,1.083,0,0,1-1.011-.694l-.487-1.266A10.284,10.284,0,0,1,61.74,65l-1.243.551a1.084,1.084,0,0,1-1.2-.225l-2.056-2.056a1.083,1.083,0,0,1-.224-1.206l.491-1.1h-4.2v4.944h5.727c2.753,0,4.9,1.931,4.9,4.129v3.05a1.083,1.083,0,0,1-1.083,1.083H23.3a1.083,1.083,0,0,1-1.083-1.083v-3.05c0-2.2,2.147-4.129,4.9-4.129h5.727ZM22.858,21.229H18.445a3.4,3.4,0,0,0-3.393,3.393V55.4A3.4,3.4,0,0,0,18.445,58.8H56.52l-1.028-.4A1.083,1.083,0,0,1,54.8,57.39V54.482a1.083,1.083,0,0,1,.694-1.011l.116-.045h-37.9a1.083,1.083,0,0,1-1.083-1.083V24.511a1.705,1.705,0,0,1,1.708-1.7H22.4q.2-.8.457-1.578ZM51.139,60.964H35.011v4.944H51.139Zm18.38-15.069.066.172a10.215,10.215,0,0,1,1.508.584V24.622A3.4,3.4,0,0,0,67.7,21.229H63.288q.258.776.457,1.578h4.07a1.706,1.706,0,0,1,1.7,1.7ZM67.76,47.358l-.418-1.089H65.921l-.421,1.09a1.083,1.083,0,0,1-.76.664A8.066,8.066,0,0,0,62.372,49a1.084,1.084,0,0,1-1.009.068L60.3,48.6l-1,1,.474,1.066a1.083,1.083,0,0,1-.068,1.009,8.133,8.133,0,0,0-.985,2.373,1.083,1.083,0,0,1-.664.758l-1.087.418v1.421l1.087.418a1.084,1.084,0,0,1,.664.758,8.116,8.116,0,0,0,.984,2.37,1.083,1.083,0,0,1,.069,1.01l-.474,1.066,1,1,1.066-.472a1.083,1.083,0,0,1,1,.067,8.123,8.123,0,0,0,2.373.983,1.084,1.084,0,0,1,.761.665l.418,1.087h1.421l.418-1.087a1.083,1.083,0,0,1,.761-.665,8.03,8.03,0,0,0,2.366-.98A1.083,1.083,0,0,1,71.9,62.8l1.066.472,1.005-1.005L73.495,61.2a1.083,1.083,0,0,1,.067-1,8.141,8.141,0,0,0,.983-2.37,1.083,1.083,0,0,1,.665-.761l1.087-.418V55.226l-1.087-.418a1.083,1.083,0,0,1-.665-.761,8.049,8.049,0,0,0-.981-2.37,1.083,1.083,0,0,1-.068-1.007l.472-1.066-1-1-1.066.474A1.084,1.084,0,0,1,70.889,49a8.066,8.066,0,0,0-2.368-.981,1.083,1.083,0,0,1-.761-.665Zm-1.13,2.42a6.158,6.158,0,1,1-6.156,6.156,6.157,6.157,0,0,1,6.156-6.156Zm0,2.167a3.991,3.991,0,1,0,3.992,3.99,3.988,3.988,0,0,0-3.992-3.99ZM24.384,72H61.766V70.037c0-1.154-1.287-1.962-2.733-1.962H27.117c-1.445,0-2.733.808-2.733,1.962ZM25.891,39.54a1.078,1.078,0,0,1,.233-.316,1.093,1.093,0,0,1,.094-.079l.014-.01a1.084,1.084,0,0,1,.946-.159l3.341,1.006a1.084,1.084,0,0,1-.3,2.121,19.119,19.119,0,0,0,28.191-2.738,1.083,1.083,0,1,1,1.736,1.3,21.286,21.286,0,0,1-31.43,3,1.083,1.083,0,0,1-2.108-.007l-.795-3.379a1.1,1.1,0,0,1-.025-.134A1.085,1.085,0,0,1,25.891,39.54Z" transform="translate(-12.886 -6.999)" fill-rule="evenodd"/>
      </g>
    </g>
  </g>
</svg>
