<svg id="Grupo_1181770" data-name="Grupo 1181770" xmlns="http://www.w3.org/2000/svg" width="884" height="376" viewBox="0 0 884 376">
  <g id="Grupo_1099019" data-name="Grupo 1099019">
    <path id="Rectángulo_389225" data-name="Rectángulo 389225" d="M9,0H875a9,9,0,0,1,9,9V40a0,0,0,0,1,0,0H0a0,0,0,0,1,0,0V9A9,9,0,0,1,9,0Z" transform="translate(0)" fill="#3a1d71"/>
    <path id="Rectángulo_389226" data-name="Rectángulo 389226" d="M0,0H884a0,0,0,0,1,0,0V327a9,9,0,0,1-9,9H9a9,9,0,0,1-9-9V0A0,0,0,0,1,0,0Z" transform="translate(0 40)" fill="#110628"/>
    <g id="Grupo_1181759" data-name="Grupo 1181759" transform="translate(32 12)">
      <circle id="Elipse_11380" data-name="Elipse 11380" cx="8" cy="8" r="8" fill="#fb130d"/>
      <circle id="Elipse_11381" data-name="Elipse 11381" cx="8" cy="8" r="8" transform="translate(27)" fill="#fecd02"/>
      <circle id="Elipse_11382" data-name="Elipse 11382" cx="8" cy="8" r="8" transform="translate(53)" fill="#43dfaa"/>
    </g>
  </g>
  <text id="Inicio_Escribir_Cantidad_de_guacharaca:_Leer_cg_Escribir_Precio_por_guacharaca:_Leer_pg_Escribir_Cantidad_de_acordeón:_Leer_ca_Escribir_Precio_por_acordeón:_Leer_pa_total_cg_pg_ca_pa_cg_pg_ca_pa_0.19_-_" data-name="Inicio
    Escribir &quot;Cantidad de guacharaca:&quot;
    Leer cg
    Escribir &quot;Precio por guacharaca:&quot;
    Leer pg
    Escribir &quot;Cantidad de acordeón:&quot;
    Leer ca
    Escribir &quot;Precio por acordeón:&quot;
    Leer pa
    total = (cg*pg+ca*pa) + (cg*pg+ca*pa) * 0.19 - " transform="translate(34 57)" fill="#fff" font-size="16" font-family="SegoeUI, Segoe UI"><tspan x="0" y="17">Inicio</tspan><tspan x="0" y="40" xml:space="preserve">    Escribir &quot;Cantidad de guacharaca:&quot;</tspan><tspan x="0" y="63" xml:space="preserve">    Leer cg</tspan><tspan x="0" y="86" xml:space="preserve">    Escribir &quot;Precio por guacharaca:&quot;</tspan><tspan x="0" y="109" xml:space="preserve">    Leer pg</tspan><tspan x="0" y="132" xml:space="preserve">    Escribir &quot;Cantidad de acordeón:&quot;</tspan><tspan x="0" y="155" xml:space="preserve">    Leer ca</tspan><tspan x="0" y="178" xml:space="preserve">    Escribir &quot;Precio por acordeón:&quot;</tspan><tspan x="0" y="201" xml:space="preserve">    Leer pa</tspan><tspan x="0" y="224" xml:space="preserve">    total = (cg*pg+ca*pa) + (cg*pg</tspan><tspan x="0" y="247">+ca*pa) * 0.19 - (cg*pg+ca*pa) * 0.10</tspan><tspan x="0" y="270" xml:space="preserve">    Escribir &quot;Total a pagar:&quot;, total</tspan><tspan x="0" y="293">Fin</tspan></text>
</svg>
