<svg xmlns="http://www.w3.org/2000/svg" width="295" height="127.225" viewBox="0 0 295 127.225">
  <g id="Grupo_1179679" data-name="Grupo 1179679" transform="translate(-915.102 -7441.219)">
    <g id="Grupo_1179636" data-name="Grupo 1179636" transform="translate(915.102 7451.444)">
      <rect id="Rectángulo_406419" data-name="Rectángulo 406419" width="295" height="87.445" rx="5" transform="translate(0 13.999)" fill="#272b2d"/>
      <rect id="Rectángulo_406418" data-name="Rectángulo 406418" width="223" height="116.999" rx="5" transform="translate(36 0)" fill="#1bebf5"/>
    </g>
    <g id="_06-Programmer" data-name="06-Programmer" transform="translate(982.99 7425.219)">
      <g id="Grupo_1181524" data-name="Grupo 1181524" transform="translate(16 22.361)">
        <path id="Trazado_1043623" data-name="Trazado 1043623" d="M32,200H44.722v78.455H32Z" transform="translate(-27.759 -157.592)" fill="#ffdb43"/>
        <path id="Trazado_1043624" data-name="Trazado 1043624" d="M336,224h19.084a8.482,8.482,0,0,1,8.482,8.482v2.12H350.891l-.048,4.241H336Z" transform="translate(-251.184 -175.231)" fill="#ffdb43"/>
        <path id="Trazado_1043625" data-name="Trazado 1043625" d="M195.565,224H176.482A8.482,8.482,0,0,0,168,232.482v2.12h12.675l.048,4.241h14.843Z" transform="translate(-127.712 -175.231)" fill="#ffdb43"/>
        <path id="Trazado_1043626" data-name="Trazado 1043626" d="M179.371,272l25.744,7.151A16.963,16.963,0,0,1,217.539,295.5v33.754H120V295.5a16.964,16.964,0,0,1,12.424-16.346L158.167,272Z" transform="translate(-92.435 -210.508)" fill="#ffdb43"/>
        <path id="Trazado_1043627" data-name="Trazado 1043627" d="M16,40H49.926a4.241,4.241,0,0,1,4.241,4.241V73.927a4.241,4.241,0,0,1-4.241,4.241H16Z" transform="translate(-16 -40)" fill="#ffdb43"/>
      </g>
      <path id="Trazado_1043628" data-name="Trazado 1043628" d="M54.167,44.241v2.12H16V40H49.926A4.241,4.241,0,0,1,54.167,44.241Z" transform="translate(0 -17.639)" fill="#40c6f3"/>
      <circle id="Elipse_12499" data-name="Elipse 12499" cx="3.696" cy="3.696" r="3.696" transform="translate(104.974 126.092)" fill="#8b5e3c"/>
      <path id="Trazado_1043629" data-name="Trazado 1043629" d="M280,280h12.722v55.131H280Z" transform="translate(-194.027 -194.027)" fill="#40c6f3"/>
      <path id="Trazado_1043630" data-name="Trazado 1043630" d="M288.963,231.98v10.607a8.482,8.482,0,0,1-16.963,0V231.98Z" transform="translate(-188.147 -158.734)" fill="#febf91"/>
      <path id="Trazado_1043631" data-name="Trazado 1043631" d="M376,112h2.12a6.361,6.361,0,1,1,0,12.722H376Z" transform="translate(-264.582 -70.555)" fill="#febf91"/>
      <path id="Trazado_1043632" data-name="Trazado 1043632" d="M208.482,124.722h-2.12a6.361,6.361,0,0,1,0-12.722h2.12Z" transform="translate(-135.231 -70.555)" fill="#febf91"/>
      <rect id="Rectángulo_417987" data-name="Rectángulo 417987" width="40.123" height="51.738" rx="20.062" transform="translate(72.241 25.783)" fill="#fecca8"/>
      <path id="Trazado_1043633" data-name="Trazado 1043633" d="M333.2,45.2A21.2,21.2,0,0,1,312,24h4.241A16.963,16.963,0,0,1,333.2,40.963Z" transform="translate(-217.545 -5.88)" fill="#6e3515"/>
      <path id="Trazado_1043634" data-name="Trazado 1043634" d="M220.722,43.084A19.084,19.084,0,0,0,239.806,24H224.963A16.963,16.963,0,0,0,208,40.963v2.12Z" transform="translate(-141.111 -5.88)" fill="#6e3515"/>
      <path id="Trazado_1043635" data-name="Trazado 1043635" d="M344.963,224a4.241,4.241,0,0,1,4.241,4.241v2.12a4.241,4.241,0,0,1-4.241,4.241A16.963,16.963,0,0,0,328,251.565v10.6a19.084,19.084,0,0,1,19.084-19.084h2.12a8.482,8.482,0,0,0,8.482-8.482v-2.12A8.482,8.482,0,0,0,349.2,224Z" transform="translate(-229.304 -152.869)" fill="#ffdb43"/>
      <circle id="Elipse_12500" data-name="Elipse 12500" cx="3.696" cy="3.696" r="3.696" transform="translate(72.241 126.092)" fill="#8b5e3c"/>
      <path id="Trazado_1043636" data-name="Trazado 1043636" d="M180.722,224a4.241,4.241,0,0,0-4.241,4.241v2.12a4.241,4.241,0,0,0,4.241,4.241,16.963,16.963,0,0,1,16.963,16.963v10.6A19.084,19.084,0,0,0,178.6,243.084h-2.12A8.482,8.482,0,0,1,168,234.6v-2.12A8.482,8.482,0,0,1,176.482,224Z" transform="translate(-111.713 -152.869)" fill="#ffdb43"/>
      <path id="Trazado_1043637" data-name="Trazado 1043637" d="M49.926,32H16v4.241H49.926a2.123,2.123,0,0,1,2.12,2.12v2.12H16v4.241H52.047V68.047a2.123,2.123,0,0,1-2.12,2.12H16v4.241H49.926a6.368,6.368,0,0,0,6.361-6.361V38.361A6.368,6.368,0,0,0,49.926,32Z" transform="translate(0 -11.759)"/>
      <path id="Trazado_1043638" data-name="Trazado 1043638" d="M109.342,114.064,115.7,107.7a2.12,2.12,0,0,0,0-3l-6.361-6.361-3,3,4.862,4.862-4.862,4.862Z" transform="translate(-66.398 -60.518)"/>
      <path id="Trazado_1043639" data-name="Trazado 1043639" d="M22.982,98.343,16.621,104.7a2.12,2.12,0,0,0,0,3l6.361,6.361,3-3L21.119,106.2l4.862-4.862Z" transform="translate(0 -60.518)"/>
      <path id="Trazado_1043640" data-name="Trazado 1043640" d="M0,0H18.965V4.241H0Z" transform="translate(26.81 53.217) rotate(-63.435)"/>
      <path id="Trazado_1043641" data-name="Trazado 1043641" d="M24.482,214.361a2.123,2.123,0,0,1,2.12-2.12V208a6.368,6.368,0,0,0-6.361,6.361v2.12a2.123,2.123,0,0,1-2.12,2.12,2.12,2.12,0,0,0,0,4.241,2.123,2.123,0,0,1,2.12,2.12v2.12a6.368,6.368,0,0,0,6.361,6.361V229.2a2.123,2.123,0,0,1-2.12-2.12v-2.12a6.335,6.335,0,0,0-1.624-4.241,6.335,6.335,0,0,0,1.624-4.241Z" transform="translate(0 -141.11)"/>
      <path id="Trazado_1043642" data-name="Trazado 1043642" d="M64.482,394.6a2.123,2.123,0,0,1-2.12-2.12v-2.12A6.368,6.368,0,0,0,56,384v4.241a2.123,2.123,0,0,1,2.12,2.12v2.12a6.335,6.335,0,0,0,1.624,4.241,6.335,6.335,0,0,0-1.624,4.241v2.121A2.123,2.123,0,0,1,56,405.2v4.241a6.368,6.368,0,0,0,6.361-6.361v-2.121a2.123,2.123,0,0,1,2.12-2.12,2.12,2.12,0,0,0,0-4.241Z" transform="translate(-29.398 -270.461)"/>
      <path id="Trazado_1043643" data-name="Trazado 1043643" d="M16,320H37.2v4.241H16Z" transform="translate(0 -223.425)"/>
      <path id="Trazado_1043644" data-name="Trazado 1043644" d="M48,352H60.722v4.241H48Z" transform="translate(-23.519 -246.943)"/>
      <path id="Trazado_1043645" data-name="Trazado 1043645" d="M16,352h4.241v4.241H16Z" transform="translate(0 -246.943)"/>
      <path id="Trazado_1043646" data-name="Trazado 1043646" d="M96,248h8.482v4.241H96Z" transform="translate(-58.796 -170.508)"/>
      <path id="Trazado_1043647" data-name="Trazado 1043647" d="M64,248h4.241v4.241H64Z" transform="translate(-35.278 -170.508)"/>
      <path id="Trazado_1043648" data-name="Trazado 1043648" d="M16,424h8.482v4.241H16Z" transform="translate(0 -299.859)"/>
      <path id="Trazado_1043649" data-name="Trazado 1043649" d="M199.8,88.961l-1.285-.357a10.554,10.554,0,0,0,2.538-6.871v-2.12a10.614,10.614,0,0,0-10.6-10.6H182.1a19.152,19.152,0,0,0,1.99-8.482V56.288a8.48,8.48,0,0,0,3.99-15.963,2.11,2.11,0,0,0,.251-1V35.084A19.105,19.105,0,0,0,169.251,16H154.408a19.105,19.105,0,0,0-19.084,19.084V37.2a2.12,2.12,0,0,0,2.12,2.12h4.241a8.482,8.482,0,1,0,0,16.963v4.241a19.153,19.153,0,0,0,1.99,8.482h-8.351a10.614,10.614,0,0,0-10.6,10.6v2.12A10.553,10.553,0,0,0,127.26,88.6l-1.284.357A19.14,19.14,0,0,0,112,107.35V141.1a2.12,2.12,0,0,0,2.12,2.12h97.539a2.12,2.12,0,0,0,2.12-2.12V107.35A19.14,19.14,0,0,0,199.8,88.961Zm-7.228-11.469v-2.12a6.349,6.349,0,0,0-.273-1.847,6.373,6.373,0,0,1,4.514,6.088v2.12a6.368,6.368,0,0,1-6.361,6.361h-2.12a21.181,21.181,0,0,0-16.779,8.252,14.866,14.866,0,0,1,14.658-12.493,6.368,6.368,0,0,0,6.361-6.361Zm-25.7-46.341a23.552,23.552,0,0,0,12.651,9.318,14.855,14.855,0,0,1,.325,3.1h-10.6a4.241,4.241,0,0,0-3.667,2.12H160.2a4.241,4.241,0,0,0-3.667-2.12h-10.6a14.78,14.78,0,0,1,.615-4.241h3.626a21.172,21.172,0,0,0,16.708-8.171Zm8.735,20.9V47.8h4.241v4.243a2.123,2.123,0,0,1-2.12,2.12h-6.361a2.123,2.123,0,0,1-2.12-2.12V47.806h2.12v4.241Zm-29.686-4.241h4.241v4.241h4.241V47.8h2.12v4.243a2.123,2.123,0,0,1-2.12,2.12h-6.361a2.123,2.123,0,0,1-2.12-2.12Zm0,10.237a6.332,6.332,0,0,0,2.12.365h6.361a6.368,6.368,0,0,0,6.361-6.361v-2.12h4.241v2.12a6.368,6.368,0,0,0,6.361,6.361h6.361a6.332,6.332,0,0,0,2.12-.365v2.485a14.676,14.676,0,0,1-3.252,9.277,14.909,14.909,0,0,1-6.027,4.488,14.71,14.71,0,0,1-5.563,1.078h-4.241a14.716,14.716,0,0,1-5.566-1.081,14.908,14.908,0,0,1-6.024-4.485,14.677,14.677,0,0,1-3.252-9.277Zm40.288,15.208a2.123,2.123,0,0,1,2.12,2.12v2.12a2.123,2.123,0,0,1-2.12,2.12,18.969,18.969,0,0,0-9.955,2.81l-2.2-.611a2.12,2.12,0,0,0-.568-.078V77.624a19.168,19.168,0,0,0,5.741-4.373Zm-31.827,35.22v5.067h.021V116.9l-5.483-5.483,5.2-5.2a16.912,16.912,0,0,1,.264,2.251Zm3.732-20.411a6.352,6.352,0,0,1-1.59-4.208V79.135a19.084,19.084,0,0,0,4.241.477h4.241a19.092,19.092,0,0,0,4.24-.477v4.718a6.361,6.361,0,0,1-11.132,4.208Zm13.253,25.478h.021v-5.067a16.92,16.92,0,0,1,.265-2.251l5.2,5.2-5.483,5.483Zm12.722-61.492V43.565a4.241,4.241,0,1,1,0,8.482Zm0-16.963v2a18.974,18.974,0,0,1-2.326-.406,19.228,19.228,0,0,1-12.4-9.586,21.027,21.027,0,0,0,1.877-6.716A14.862,14.862,0,0,1,184.094,35.084Zm-44.529,0a14.86,14.86,0,0,1,14.843-14.843H167a16.99,16.99,0,0,1-16.831,14.843Zm-2.12,12.722a4.246,4.246,0,0,1,4.241-4.241v8.482A4.246,4.246,0,0,1,137.445,47.806Zm0,27.565a2.123,2.123,0,0,1,2.12-2.12h6.981a19.17,19.17,0,0,0,5.741,4.373v4.108a2.121,2.121,0,0,0-.568.077l-2.2.611a18.968,18.968,0,0,0-9.955-2.809,2.123,2.123,0,0,1-2.12-2.12Zm-8.482,4.241a6.373,6.373,0,0,1,4.514-6.088,6.348,6.348,0,0,0-.273,1.847v2.12a6.368,6.368,0,0,0,6.361,6.361,14.866,14.866,0,0,1,14.657,12.492,21.18,21.18,0,0,0-16.778-8.251h-2.12a6.368,6.368,0,0,1-6.361-6.361ZM116.241,107.35a14.886,14.886,0,0,1,10.87-14.3l4.71-1.31a10.551,10.551,0,0,0,3.5.6h2.12a16.979,16.979,0,0,1,15.174,9.393l-8.19,8.192a2.115,2.115,0,0,0-.622,1.5v10.965a6.361,6.361,0,1,0,4.241,0v-5.848l6.361,6.361v16.085H133.2V119.9h-4.241v19.084H116.241Zm31.806,21.032a2.12,2.12,0,1,1-2.12-2.12A2.12,2.12,0,0,1,148.047,128.382Zm10.6-6.361V93.566a10.557,10.557,0,0,0,8.482,0v45.418h-8.482Zm50.89,16.963H196.816V119.9h-4.241v19.084h-21.2V122.9l6.361-6.361v5.848a6.361,6.361,0,1,0,4.241,0V111.42a2.115,2.115,0,0,0-.621-1.5l-8.19-8.192a16.979,16.979,0,0,1,15.172-9.393h2.12a10.551,10.551,0,0,0,3.5-.6l4.711,1.31a14.886,14.886,0,0,1,10.87,14.3Zm-27.565-10.6a2.12,2.12,0,1,1-2.12-2.12A2.12,2.12,0,0,1,181.973,128.382Z" transform="translate(-70.555 0)"/>
      <path id="Trazado_1043650" data-name="Trazado 1043650" d="M297.981,199.462l2.12-2.12-3-3-1.5,1.5H288v4.241h8.482a2.121,2.121,0,0,0,1.5-.621Z" transform="translate(-199.906 -131.073)"/>
    </g>
  </g>
</svg>
