<svg xmlns="http://www.w3.org/2000/svg" xmlns:xlink="http://www.w3.org/1999/xlink" width="108.914" height="108.914" viewBox="0 0 108.914 108.914">
  <defs>
    <filter id="Trazado_874925" x="0" y="0" width="108.914" height="108.914" filterUnits="userSpaceOnUse">
      <feOffset dy="3" input="SourceAlpha"/>
      <feGaussianBlur stdDeviation="3" result="blur"/>
      <feFlood flood-opacity="0.161"/>
      <feComposite operator="in" in2="blur"/>
      <feComposite in="SourceGraphic"/>
    </filter>
  </defs>
  <g id="Grupo_1179633" data-name="Grupo 1179633" transform="translate(9 6)">
    <g id="Grupo_1179015" data-name="Grupo 1179015" transform="translate(0 0)">
      <g id="Grupo_1111527" data-name="Grupo 1111527" transform="translate(0 0)">
        <g id="Grupo_1111316" data-name="Grupo 1111316">
          <g id="Grupo_1109835" data-name="Grupo 1109835" transform="translate(0 0)">
            <g id="Grupo_1107913" data-name="Grupo 1107913" transform="translate(0 0)">
              <g transform="matrix(1, 0, 0, 1, -9, -6)" filter="url(#Trazado_874925)">
                <g id="Trazado_874925-2" data-name="Trazado 874925" transform="translate(9 6)" fill="#fdf9d4" opacity="0.859">
                  <path d="M 45.45676803588867 89.41407012939453 C 39.52198028564453 89.41407012939453 33.76551818847656 88.25206756591797 28.34726715087891 85.96034240722656 C 23.11310577392578 83.74648284912109 18.41203117370605 80.57682800292969 14.37464332580566 76.5394287109375 C 10.33724308013916 72.50202941894531 7.167593002319336 67.80095672607422 4.953730583190918 62.56679534912109 C 2.662005424499512 57.14855575561523 1.500005483627319 51.39208221435547 1.500005483627319 45.45729446411133 C 1.500005483627319 39.52198028564453 2.662005424499512 33.76550674438477 4.953730583190918 28.34726905822754 C 7.167593002319336 23.11310577392578 10.33724308013916 18.41203117370605 14.37464332580566 14.37464332580566 C 18.41203117370605 10.33724403381348 23.11310577392578 7.167593955993652 28.34726715087891 4.953731060028076 C 33.76550674438477 2.662006139755249 39.52198028564453 1.500006198883057 45.45676803588867 1.500006198883057 C 51.39155578613281 1.500006198883057 57.14802932739258 2.662006139755249 62.56626892089844 4.953731060028076 C 67.80043029785156 7.167593955993652 72.50150299072266 10.33724403381348 76.53890228271484 14.37464332580566 C 80.57630920410156 18.41203117370605 83.74595642089844 23.11310577392578 85.95981597900391 28.34726905822754 C 88.25154113769531 33.76551818847656 89.41354370117188 39.52198028564453 89.41354370117188 45.45676803588867 C 89.41354370117188 51.39208221435547 88.25154113769531 57.14855575561523 85.95981597900391 62.56679534912109 C 83.74595642089844 67.80095672607422 80.57630920410156 72.50202941894531 76.53890228271484 76.5394287109375 C 72.50150299072266 80.57682800292969 67.80043029785156 83.74648284912109 62.56626892089844 85.96034240722656 C 57.14802932739258 88.25206756591797 51.39155578613281 89.41407012939453 45.45676803588867 89.41407012939453 Z" stroke="none"/>
                  <path d="M 45.45676803588867 3 C 39.72381210327148 3 34.1639404296875 4.12213134765625 28.93159484863281 6.335227966308594 C 23.87622833251953 8.473472595214844 19.33542633056641 11.53517150878906 15.43529510498047 15.435302734375 C 11.53517150878906 19.33543395996094 8.473464965820312 23.87622833251953 6.335227966308594 28.93160247802734 C 4.122123718261719 34.16394424438477 3 39.72381591796875 3 45.4572868347168 C 3 51.19024658203125 4.122123718261719 56.75011825561523 6.335227966308594 61.98246002197266 C 8.473464965820312 67.03782653808594 11.53517150878906 71.57862854003906 15.43529510498047 75.478759765625 C 19.33542633056641 79.37889099121094 23.87622833251953 82.44058990478516 28.93159484863281 84.57883453369141 C 34.1639404296875 86.79193115234375 39.72381210327148 87.9140625 45.45676803588867 87.9140625 C 51.18972396850586 87.9140625 56.74959564208984 86.79193115234375 61.98194122314453 84.57883453369141 C 67.03730773925781 82.44058990478516 71.57810974121094 79.37889099121094 75.47824096679688 75.478759765625 C 79.37837219238281 71.57862854003906 82.44007110595703 67.03782653808594 84.57830810546875 61.98246002197266 C 86.79141235351562 56.75011825561523 87.91353607177734 51.19024658203125 87.91353607177734 45.4567756652832 C 87.91353607177734 39.72381591796875 86.79141235351562 34.16394424438477 84.57830810546875 28.93160247802734 C 82.44007110595703 23.87622833251953 79.37837219238281 19.33543395996094 75.47824096679688 15.435302734375 C 71.57810974121094 11.53517150878906 67.03730773925781 8.473472595214844 61.98194122314453 6.335227966308594 C 56.74959564208984 4.12213134765625 51.18972396850586 3 45.45676803588867 3 M 45.45676803588867 0 C 70.56185150146484 0 90.91353607177734 20.35169219970703 90.91353607177734 45.4567756652832 L 90.91353607177734 45.4572868347168 C 90.91353607177734 70.5623779296875 70.56185150146484 90.9140625 45.45676803588867 90.9140625 C 20.3516845703125 90.9140625 0 70.5623779296875 0 45.4572868347168 L 0 45.4567756652832 C 0 20.35169219970703 20.3516845703125 0 45.45676803588867 0 Z" stroke="none" fill="#c7b622"/>
                </g>
              </g>
              <g id="Trazado_874923" data-name="Trazado 874923" transform="translate(0)" fill="none">
                <path d="M45.457,0A45.457,45.457,0,0,1,90.914,45.457h0A45.457,45.457,0,0,1,0,45.457H0A45.457,45.457,0,0,1,45.457,0Z" stroke="none"/>
                <path d="M 45.45676803588867 3 C 39.72381210327148 3 34.1639404296875 4.12213134765625 28.93159484863281 6.335227966308594 C 23.87622833251953 8.473472595214844 19.33542633056641 11.53517150878906 15.43529510498047 15.435302734375 C 11.53517150878906 19.33543395996094 8.473464965820312 23.87622833251953 6.335227966308594 28.93160247802734 C 4.122123718261719 34.16394424438477 3 39.72381591796875 3 45.4572868347168 C 3 51.19024658203125 4.122123718261719 56.75011825561523 6.335227966308594 61.98246002197266 C 8.473464965820312 67.03782653808594 11.53517150878906 71.57862854003906 15.43529510498047 75.478759765625 C 19.33542633056641 79.37889099121094 23.87622833251953 82.44058990478516 28.93159484863281 84.57883453369141 C 34.1639404296875 86.79193115234375 39.72381210327148 87.9140625 45.45676803588867 87.9140625 C 51.18972396850586 87.9140625 56.74959564208984 86.79193115234375 61.98194122314453 84.57883453369141 C 67.03730773925781 82.44058990478516 71.57810974121094 79.37889099121094 75.47824096679688 75.478759765625 C 79.37837219238281 71.57862854003906 82.44007110595703 67.03782653808594 84.57830810546875 61.98246002197266 C 86.79141235351562 56.75011825561523 87.91353607177734 51.19024658203125 87.91353607177734 45.4567756652832 C 87.91353607177734 39.72381591796875 86.79141235351562 34.16394424438477 84.57830810546875 28.93160247802734 C 82.44007110595703 23.87622833251953 79.37837219238281 19.33543395996094 75.47824096679688 15.435302734375 C 71.57810974121094 11.53517150878906 67.03730773925781 8.473472595214844 61.98194122314453 6.335227966308594 C 56.74959564208984 4.12213134765625 51.18972396850586 3 45.45676803588867 3 M 45.45676803588867 0 C 70.56185150146484 0 90.91353607177734 20.35169219970703 90.91353607177734 45.4567756652832 L 90.91353607177734 45.4572868347168 C 90.91353607177734 70.5623779296875 70.56185150146484 90.9140625 45.45676803588867 90.9140625 C 20.3516845703125 90.9140625 0 70.5623779296875 0 45.4572868347168 L 0 45.4567756652832 C 0 20.35169219970703 20.3516845703125 0 45.45676803588867 0 Z" stroke="none" fill="#c7b622"/>
              </g>
            </g>
          </g>
        </g>
      </g>
    </g>
    <g id="_21-AI_robot" data-name="21-AI robot" transform="translate(16.95 16.955)">
      <path id="Trazado_1046704" data-name="Trazado 1046704" d="M21,57.017,44.161,49v6.236L21,61.472Z" transform="translate(-2.293 -5.35)" fill="#ffbb4e"/>
      <path id="Trazado_1046705" data-name="Trazado 1046705" d="M58.415,62.236H21l10.69-2.877,9.8-2.637L44.161,56l4.454,1.951Z" transform="translate(-2.293 -6.115)" fill="#72b0a5"/>
      <path id="Trazado_1046706" data-name="Trazado 1046706" d="M61.8,62.475H52V58.19Z" transform="translate(-5.677 -6.354)" fill="#ffbb4e"/>
      <path id="Trazado_1046707" data-name="Trazado 1046707" d="M42.2,40.767A18.668,18.668,0,0,0,53.72,16.484c-.066-.172-.1-.267-.1-.267s-5.267-14.628-23.36-15.2C12.958.466,6.763,14.475,7.512,20.979A3.526,3.526,0,0,1,7.2,22.914a19.369,19.369,0,0,1-4.973,6.478C-.93,32,3,33.382,4.628,33.82a1.463,1.463,0,0,1,1.1,1.194c.094.761-.481,1.232-.789,2.279-.42,1.44,5.865,1.122,5.865,1.122s-6.371,1.761-4.587,2.95a2.465,2.465,0,0,1,.934,3.058c-1.239,4.262.779,5.732,2.672,6.217a6.74,6.74,0,0,0,3.82-.207Z" transform="translate(-0.113 -0.11)" fill="#e5e6ea"/>
      <path id="Trazado_1046708" data-name="Trazado 1046708" d="M54.767,16.485c-.066-.172-.1-.267-.1-.267S49.4,1.589,31.3,1.016c-.955-.03-1.871-.01-2.762.045C45.983,2.04,51.1,16.222,51.1,16.222s.038.089.1.267A18.668,18.668,0,0,1,39.688,40.767L11.13,50.434c-.165.056-.334.089-.5.135.081.025.163.05.245.071a6.74,6.74,0,0,0,3.82-.207l28.558-9.666A18.668,18.668,0,0,0,54.767,16.485Z" transform="translate(-1.16 -0.11)" fill="#acabaf"/>
      <path id="Trazado_1046709" data-name="Trazado 1046709" d="M52.368,29.995l2.182-2.179a2.754,2.754,0,0,1-.487-3.351,13.319,13.319,0,0,0,1.293-3.153,2.782,2.782,0,0,1,2.672-2.049.042.042,0,0,0,.042-.044l-.025-2.973A.042.042,0,0,0,58,16.2,2.781,2.781,0,0,1,55.294,14.2a13.3,13.3,0,0,0-1.345-3.13,2.754,2.754,0,0,1,.432-3.358L52.163,5.566a2.876,2.876,0,0,1-3.41.479,13.759,13.759,0,0,0-3.207-1.27A2.751,2.751,0,0,1,43.46,2.146a.042.042,0,0,0-.043-.041l-3.029.024a.043.043,0,0,0-.042.043A2.748,2.748,0,0,1,38.3,4.833a13.819,13.819,0,0,0-3.186,1.323A2.876,2.876,0,0,1,31.7,5.732L29.522,7.91a2.754,2.754,0,0,1,.488,3.351,13.294,13.294,0,0,0-1.3,3.184,2.737,2.737,0,0,1-2.634,2.019H26l.025,3.056a2.842,2.842,0,0,1,2.762,2.049,13.308,13.308,0,0,0,1.336,3.09,2.754,2.754,0,0,1-.432,3.359l2.215,2.142a2.876,2.876,0,0,1,3.41-.48,13.817,13.817,0,0,0,3.207,1.271A2.749,2.749,0,0,1,40.61,33.58a.041.041,0,0,0,.043.041l3.029-.024a.042.042,0,0,0,.043-.042,2.748,2.748,0,0,1,2.043-2.662,13.829,13.829,0,0,0,3.186-1.323A2.876,2.876,0,0,1,52.37,30Z" transform="translate(-2.839 -0.231)" fill="#5292d2"/>
      <path id="Trazado_1046710" data-name="Trazado 1046710" d="M30.454,18.388A15.127,15.127,0,0,1,38.108,5.237,13.817,13.817,0,0,0,35.121,6.5a2.876,2.876,0,0,1-3.42-.424L29.522,8.252A2.754,2.754,0,0,1,30.01,11.6a13.294,13.294,0,0,0-1.3,3.184,2.737,2.737,0,0,1-2.634,2.019H26l.025,3.056a2.842,2.842,0,0,1,2.762,2.049A13.308,13.308,0,0,0,30.123,25a2.754,2.754,0,0,1-.432,3.359L31.906,30.5a2.876,2.876,0,0,1,3.41-.48,13.706,13.706,0,0,0,1.563.736,15.114,15.114,0,0,1-6.425-12.371Z" transform="translate(-2.839 -0.573)" fill="#3883c1"/>
      <ellipse id="Elipse_11939" data-name="Elipse 11939" cx="8.158" cy="8.017" rx="8.158" ry="8.017" transform="translate(31.041 9.353)" fill="#f06441"/>
      <path id="Trazado_1046711" data-name="Trazado 1046711" d="M36.644,18.517a8.069,8.069,0,0,1,7.265-7.968,8.409,8.409,0,0,0-.891-.05,8.017,8.017,0,0,0,0,16.035,8.408,8.408,0,0,0,.891-.05A8.069,8.069,0,0,1,36.644,18.517Z" transform="translate(-3.821 -1.147)" fill="#b44b31"/>
      <path id="Trazado_1046712" data-name="Trazado 1046712" d="M42.454,15H38.891a.891.891,0,0,0-.891.891v6.236h1.782V20.345h1.782v1.782h1.782V15.891A.891.891,0,0,0,42.454,15Zm-2.672,3.563V16.782h1.782v1.782Z" transform="translate(-4.149 -1.638)"/>
      <path id="Trazado_1046713" data-name="Trazado 1046713" d="M49.563,16.782V15H46v1.782h.891v3.563H46v1.782h3.563V20.345h-.891V16.782Z" transform="translate(-5.022 -1.638)"/>
      <path id="Trazado_1046714" data-name="Trazado 1046714" d="M40.544,34.4a.967.967,0,0,1-.934-.916A1.871,1.871,0,0,0,38.192,31.7a14.726,14.726,0,0,1-3.414-1.352,1.993,1.993,0,0,0-2.353.329.891.891,0,0,1-1.247.01l-2.217-2.143a.891.891,0,0,1-.01-1.271A1.871,1.871,0,0,0,29.247,25a14.221,14.221,0,0,1-1.425-3.3,1.96,1.96,0,0,0-1.882-1.4h-.024a.891.891,0,0,1-.891-.884L25,16.362a.891.891,0,0,1,.88-.9,1.876,1.876,0,0,0,1.858-1.359,14.215,14.215,0,0,1,1.389-3.4,1.871,1.871,0,0,0-.333-2.271.891.891,0,0,1-.01-1.271l2.184-2.177a.891.891,0,0,1,1.247-.01,1.987,1.987,0,0,0,2.356.29,14.724,14.724,0,0,1,3.39-1.41,1.865,1.865,0,0,0,1.389-1.8.965.965,0,0,1,.9-.94L43.3,1.1a.943.943,0,0,1,.656.28.961.961,0,0,1,.285.653A1.863,1.863,0,0,0,45.66,3.8a14.8,14.8,0,0,1,3.414,1.355,1.987,1.987,0,0,0,2.352-.328.891.891,0,0,1,1.247-.01l2.216,2.143A.891.891,0,0,1,54.9,8.227a1.871,1.871,0,0,0-.295,2.275,14.225,14.225,0,0,1,1.435,3.34,1.9,1.9,0,0,0,1.83,1.364h.022a.963.963,0,0,1,.934.931l.023,2.966a.962.962,0,0,1-.933.94,1.894,1.894,0,0,0-1.814,1.39,14.253,14.253,0,0,1-1.38,3.364,1.871,1.871,0,0,0,.332,2.27.891.891,0,0,1,.011,1.27l-2.181,2.179a.891.891,0,0,1-1.247.011,1.992,1.992,0,0,0-2.357-.291,14.723,14.723,0,0,1-3.391,1.408,1.864,1.864,0,0,0-1.39,1.8.932.932,0,0,1-.934.941l-3.017.024Zm-6.717-6.074a3.749,3.749,0,0,1,1.809.463,12.93,12.93,0,0,0,3,1.187,3.671,3.671,0,0,1,2.646,2.636l1.534-.012a3.663,3.663,0,0,1,2.6-2.678A12.953,12.953,0,0,0,48.4,28.687a3.789,3.789,0,0,1,3.772.029l1.075-1.074a3.652,3.652,0,0,1-.071-3.722,12.425,12.425,0,0,0,1.207-2.94,3.675,3.675,0,0,1,2.68-2.607l-.012-1.47a3.678,3.678,0,0,1-2.723-2.563,12.436,12.436,0,0,0-1.255-2.922,3.652,3.652,0,0,1,.009-3.724L51.992,6.631a3.782,3.782,0,0,1-3.774.084,12.985,12.985,0,0,0-3-1.187A3.669,3.669,0,0,1,42.57,2.891L41.035,2.9a3.663,3.663,0,0,1-2.6,2.678,12.962,12.962,0,0,0-2.981,1.237A3.79,3.79,0,0,1,31.681,6.8L30.605,7.87a3.652,3.652,0,0,1,.07,3.723,12.392,12.392,0,0,0-1.214,2.971,3.626,3.626,0,0,1-2.672,2.583l.012,1.474a3.741,3.741,0,0,1,2.734,2.591A12.478,12.478,0,0,0,30.782,24.1a3.644,3.644,0,0,1-.009,3.723l1.086,1.056a3.789,3.789,0,0,1,1.968-.547Z" transform="translate(-2.729 -0.121)"/>
      <path id="Trazado_1046715" data-name="Trazado 1046715" d="M42.925,27.317a8.908,8.908,0,1,1,9.049-8.908A8.908,8.908,0,0,1,42.925,27.317Zm0-16.035a7.127,7.127,0,1,0,7.267,7.127A7.207,7.207,0,0,0,42.925,11.282Z" transform="translate(-3.729 -1.038)"/>
      <path id="Trazado_1046716" data-name="Trazado 1046716" d="M58.223,37.1l-1.447-1.04a17.841,17.841,0,0,0,3.346-11.027l1.782-.066A19.638,19.638,0,0,1,58.223,37.1Z" transform="translate(-6.199 -2.726)"/>
      <path id="Trazado_1046717" data-name="Trazado 1046717" d="M11.228,52.769a6.948,6.948,0,0,1-1.735-.216,4.81,4.81,0,0,1-3.118-2.2,6.547,6.547,0,0,1-.2-5.132.98.98,0,0,1,.045-.12,1.541,1.541,0,0,0-.609-1.947,1.392,1.392,0,0,1-.695-1.408c.085-.534.551-1.049,1.391-1.55a3.474,3.474,0,0,1-2.1-.9,1.309,1.309,0,0,1-.233-1.209,6.529,6.529,0,0,1,.509-1.205c.2-.388.267-.55.251-.713a.581.581,0,0,0-.445-.445C2.565,35.261.435,34.37.082,32.751c-.219-1.006.278-2.016,1.465-3A18.509,18.509,0,0,0,6.282,23.58a2.66,2.66,0,0,0,.236-1.447,17.963,17.963,0,0,1,3.44-11.511l1.47,1.006a16.353,16.353,0,0,0-3.14,10.3,4.44,4.44,0,0,1-.4,2.416,20.325,20.325,0,0,1-5.21,6.783c-.6.5-.92.963-.859,1.247C1.917,32.8,2.875,33.5,4.753,34a2.363,2.363,0,0,1,1.753,1.946,2.862,2.862,0,0,1-.434,1.745c-.089.178-.189.368-.273.575a17.035,17.035,0,0,0,4.849.3.878.878,0,0,1,.924.748.891.891,0,0,1-.641,1,17.07,17.07,0,0,0-4.017,1.584,3.326,3.326,0,0,1,.967,3.868,4.858,4.858,0,0,0,.046,3.7,3.041,3.041,0,0,0,2.01,1.355,5.822,5.822,0,0,0,3.313-.187l23.882-8.083.572,1.687L13.822,52.328A8.082,8.082,0,0,1,11.228,52.769Z" transform="translate(-0.003 -1.16)"/>
      <path id="Trazado_1046718" data-name="Trazado 1046718" d="M24.238,2.891,23.695,1.2A26.782,26.782,0,0,1,32.758.016a32.069,32.069,0,0,1,4.73.493L37.17,2.261A30.475,30.475,0,0,0,32.7,1.8a25.135,25.135,0,0,0-8.463,1.095Z" transform="translate(-2.587)"/>
      <path id="Trazado_1046719" data-name="Trazado 1046719" d="M15.118,28.563A3.118,3.118,0,0,1,12,25.445V25h1.782v.445a1.336,1.336,0,0,0,2.672,0V25h1.782v.445a3.118,3.118,0,0,1-3.118,3.118Z" transform="translate(-1.31 -2.73)"/>
      <path id="Trazado_1046720" data-name="Trazado 1046720" d="M0,8H1.782V9.782H0Z" transform="translate(0 -0.874)"/>
      <path id="Trazado_1046721" data-name="Trazado 1046721" d="M4,8H24.489V9.782H4Z" transform="translate(-0.437 -0.874)"/>
      <path id="Trazado_1046722" data-name="Trazado 1046722" d="M4,4H5.782V5.782H4Z" transform="translate(-0.437 -0.438)"/>
      <path id="Trazado_1046723" data-name="Trazado 1046723" d="M8,4H22.253V5.782H8Z" transform="translate(-0.873 -0.438)"/>
      <path id="Trazado_1046724" data-name="Trazado 1046724" d="M59.127,42.236H52.891A.891.891,0,0,1,52,41.345V36h1.782v4.454h5.345Z" transform="translate(-5.677 -3.931)"/>
      <path id="Trazado_1046725" data-name="Trazado 1046725" d="M62,41h1.782v1.782H62Z" transform="translate(-6.769 -4.477)"/>
      <path id="Trazado_1046726" data-name="Trazado 1046726" d="M58.69,46.127h-9.8A.891.891,0,0,1,48,45.236V39h1.782v5.345H58.69Z" transform="translate(-5.241 -4.259)"/>
      <path id="Trazado_1046727" data-name="Trazado 1046727" d="M62,45h1.782v1.782H62Z" transform="translate(-6.769 -4.914)"/>
      <path id="Trazado_1046728" data-name="Trazado 1046728" d="M58.253,50.017H44.891A.891.891,0,0,1,44,49.127V42h1.782v6.236H58.253Z" transform="translate(-4.804 -4.586)"/>
      <path id="Trazado_1046729" data-name="Trazado 1046729" d="M62,49h1.782v1.782H62Z" transform="translate(-6.769 -5.35)"/>
      <path id="Trazado_1046730" data-name="Trazado 1046730" d="M58.662,60.817l-13.719-6V51.834H43.161v2.88l-21.38,5.761V57.813l16.326-5.651-.583-1.684L20.6,56.337a.891.891,0,0,0-.6.842v4.454h.013a.846.846,0,0,0-.005.117.891.891,0,0,0,.883.774H58.305a.891.891,0,0,0,.356-1.707ZM43.981,56.339l3.635,1.589v2.814H27.626Zm5.416,4.4V58.707l4.649,2.035Z" transform="translate(-2.184 -5.512)"/>
    </g>
  </g>
</svg>
