<svg xmlns="http://www.w3.org/2000/svg" xmlns:xlink="http://www.w3.org/1999/xlink" width="118" height="118" viewBox="0 0 118 118">
  <defs>
    <filter id="Trazado_896985" x="0" y="0" width="118" height="118" filterUnits="userSpaceOnUse">
      <feOffset dy="3" input="SourceAlpha"/>
      <feGaussianBlur stdDeviation="3" result="blur"/>
      <feFlood flood-opacity="0.161"/>
      <feComposite operator="in" in2="blur"/>
      <feComposite in="SourceGraphic"/>
    </filter>
  </defs>
  <g id="Grupo_1179741" data-name="Grupo 1179741" transform="translate(9 6)">
    <g id="Grupo_1179021" data-name="Grupo 1179021">
      <g id="Grupo_1111320" data-name="Grupo 1111320" transform="translate(0 0)">
        <g id="Grupo_1109828" data-name="Grupo 1109828">
          <g id="Grupo_1098742" data-name="Grupo 1098742">
            <g transform="matrix(1, 0, 0, 1, -9, -6)" filter="url(#Trazado_896985)">
              <g id="Trazado_896985-2" data-name="Trazado 896985" transform="translate(9 6)" fill="#1bebf5" opacity="0.859">
                <path d="M 49.99993896484375 98.5 C 43.45182418823242 98.5 37.10037994384766 97.21788787841797 31.12203979492188 94.68925476074219 C 25.34688186645508 92.24657440185547 20.15993881225586 88.74932861328125 15.70529651641846 84.29470062255859 C 11.25066757202148 79.84007263183594 7.753438949584961 74.65312957763672 5.310753345489502 68.87796783447266 C 2.782124757766724 62.89962768554688 1.499996066093445 56.54818725585938 1.499996066093445 50.00007247924805 C 1.499996066093445 43.45181274414062 2.782124757766724 37.10037231445312 5.310753345489502 31.12202835083008 C 7.753438949584961 25.34687232971191 11.25066757202148 20.1599292755127 15.70529651641846 15.70530033111572 C 20.15993881225586 11.25067138671875 25.34688186645508 7.75342845916748 31.12203979492188 5.310742855072021 C 37.10037994384766 2.782114267349243 43.45182418823242 1.5 49.99993896484375 1.5 C 56.54805374145508 1.5 62.89949798583984 2.782114267349243 68.87785339355469 5.310742855072021 C 74.65300750732422 7.75342845916748 79.83995056152344 11.25067138671875 84.29457855224609 15.70530033111572 C 88.74921417236328 20.1599292755127 92.24645233154297 25.34687232971191 94.68914031982422 31.12202835083008 C 97.21776580810547 37.10037231445312 98.49988555908203 43.45181274414062 98.49988555908203 49.99992752075195 C 98.49988555908203 56.54818725585938 97.21776580810547 62.89962768554688 94.68914031982422 68.87796783447266 C 92.24645233154297 74.65312957763672 88.74921417236328 79.84007263183594 84.29457855224609 84.29470062255859 C 79.83995056152344 88.74932861328125 74.65300750732422 92.24657440185547 68.87785339355469 94.68925476074219 C 62.89949798583984 97.21788787841797 56.54805374145508 98.5 49.99993896484375 98.5 Z" stroke="none"/>
                <path d="M 49.99993896484375 3 C 43.65366363525391 3 37.49881744384766 4.242263793945312 31.70636749267578 6.6922607421875 C 26.11000061035156 9.059326171875 21.08332061767578 12.44860076904297 16.76596832275391 16.76595306396484 C 12.44860076904297 21.08332061767578 9.059326171875 26.11000061035156 6.6922607421875 31.70635223388672 C 4.242263793945312 37.49881362915039 3 43.65365982055664 3 50.00006103515625 C 3 56.34634017944336 4.242263793945312 62.50118637084961 6.6922607421875 68.29363250732422 C 9.059326171875 73.88999938964844 12.44860076904297 78.91667938232422 16.76596832275391 83.23403167724609 C 21.08332061767578 87.55139923095703 26.11000061035156 90.940673828125 31.70636749267578 93.3077392578125 C 37.49881744384766 95.75773620605469 43.65366363525391 97 49.99993896484375 97 C 56.34621429443359 97 62.50106048583984 95.75773620605469 68.29352569580078 93.3077392578125 C 73.88987731933594 90.940673828125 78.91654968261719 87.55139923095703 83.23392486572266 83.23403167724609 C 87.55127716064453 78.91667938232422 90.9405517578125 73.88999938964844 93.3076171875 68.29363250732422 C 95.75761413574219 62.50118637084961 96.9998779296875 56.34634017944336 96.9998779296875 49.99993896484375 C 96.9998779296875 43.65365982055664 95.75761413574219 37.49881362915039 93.3076171875 31.70635223388672 C 90.94056701660156 26.11000061035156 87.55127716064453 21.08332061767578 83.23392486572266 16.76595306396484 C 78.91654968261719 12.44860076904297 73.88987731933594 9.059310913085938 68.29352569580078 6.6922607421875 C 62.50106048583984 4.242263793945312 56.34621429443359 3 49.99993896484375 3 M 49.99993896484375 0 C 77.61415100097656 0 99.9998779296875 22.38571929931641 99.9998779296875 49.99993896484375 L 99.9998779296875 50.00006103515625 C 99.9998779296875 77.6142578125 77.61415100097656 100 49.99993896484375 100 C 22.3857421875 100 0 77.6142578125 0 50.00006103515625 L 0 49.99993896484375 C 0 22.38571929931641 22.3857421875 0 49.99993896484375 0 Z" stroke="none" fill="#fff"/>
              </g>
            </g>
            <g id="Rectángulo_400907" data-name="Rectángulo 400907" transform="translate(0)" fill="none" stroke="#fff" stroke-width="3">
              <rect width="100" height="100" rx="50" stroke="none"/>
              <rect x="1.5" y="1.5" width="97" height="97" rx="48.5" fill="none"/>
            </g>
          </g>
        </g>
      </g>
    </g>
    <g id="expert_6601289" transform="translate(16.886 15.01)">
      <path id="Trazado_1046380" data-name="Trazado 1046380" d="M5,59.51V21.18A5.18,5.18,0,0,1,10.18,16H55.762a5.18,5.18,0,0,1,5.18,5.18V59.51Z" transform="translate(0.144 0.467)" fill="#a5badb"/>
      <path id="Trazado_1046381" data-name="Trazado 1046381" d="M55.69,16H12.18A5.18,5.18,0,0,0,7,21.18V59.51H60.87V21.18A5.18,5.18,0,0,0,55.69,16Z" transform="translate(0.216 0.467)" fill="#c1cfe8"/>
      <path id="Trazado_1046382" data-name="Trazado 1046382" d="M39.295,54v2.072H26.863V54H2a6.216,6.216,0,0,0,6.216,6.216H57.942A6.216,6.216,0,0,0,64.158,54Z" transform="translate(0.036 1.833)" fill="#0059be"/>
      <path id="Trazado_1046383" data-name="Trazado 1046383" d="M9,58.33V20H56.654V58.33" transform="translate(0.288 0.611)" fill="#66c3e9"/>
      <path id="Trazado_1046384" data-name="Trazado 1046384" d="M39.21,56.072H26.779V54H4.349A6.216,6.216,0,0,0,10.2,58.144H59.929a6.183,6.183,0,0,0,3.231-.913A6.183,6.183,0,0,0,64.073,54H39.21Z" transform="translate(0.12 1.833)" fill="#006bdb"/>
      <path id="Trazado_1046385" data-name="Trazado 1046385" d="M11,20V46.442a6.71,6.71,0,0,0,6.708,6.709H56.582V20Z" transform="translate(0.36 0.611)" fill="#8adef9"/>
      <path id="Trazado_1046386" data-name="Trazado 1046386" d="M50.295,14H15.072A2.072,2.072,0,0,0,13,16.072V49.223a2.072,2.072,0,0,0,2.072,2.072H50.295a2.072,2.072,0,0,0,2.072-2.072V16.072A2.072,2.072,0,0,0,50.295,14Z" transform="translate(0.432 0.395)" fill="#0059be"/>
      <path id="Trazado_1046387" data-name="Trazado 1046387" d="M50.187,14H16V46.115a2.072,2.072,0,0,0,2.072,2.072H52.259V16.072A2.072,2.072,0,0,0,50.187,14Z" transform="translate(0.539 0.395)" fill="#006bdb"/>
      <path id="Trazado_1046388" data-name="Trazado 1046388" d="M13,20V49.007a2.072,2.072,0,0,0,2.072,2.072H50.295a2.072,2.072,0,0,0,2.072-2.072V20Z" transform="translate(0.432 0.611)" fill="#f79b31"/>
      <path id="Trazado_1046389" data-name="Trazado 1046389" d="M16,45.9a2.072,2.072,0,0,0,2.072,2.072H52.259V20H16Z" transform="translate(0.539 0.611)" fill="#fcb732"/>
      <g id="Grupo_1179469" data-name="Grupo 1179469" transform="translate(17.575 29.815)">
        <path id="Trazado_1046390" data-name="Trazado 1046390" d="M17,28.885h2.072v8.288H17Z" transform="translate(-17 -28.885)" fill="#fff"/>
        <path id="Trazado_1046391" data-name="Trazado 1046391" d="M26.18,37.173H22.036A1.036,1.036,0,0,1,21,36.137V29.921a1.036,1.036,0,0,1,1.036-1.036H26.18a1.036,1.036,0,0,1,1.036,1.036v6.216A1.036,1.036,0,0,1,26.18,37.173ZM23.072,35.1h2.072V30.957H23.072Z" transform="translate(-16.856 -28.885)" fill="#fff"/>
        <path id="Trazado_1046392" data-name="Trazado 1046392" d="M29,28.885h2.072v8.288H29Z" transform="translate(-16.568 -28.885)" fill="#fff"/>
        <path id="Trazado_1046393" data-name="Trazado 1046393" d="M33,28.885h2.072v8.288H33Z" transform="translate(-16.425 -28.885)" fill="#fff"/>
        <path id="Trazado_1046394" data-name="Trazado 1046394" d="M42.18,37.173H38.036A1.036,1.036,0,0,1,37,36.137V29.921a1.036,1.036,0,0,1,1.036-1.036H42.18a1.036,1.036,0,0,1,1.036,1.036v6.216A1.036,1.036,0,0,1,42.18,37.173ZM39.072,35.1h2.072V30.957H39.072Z" transform="translate(-16.281 -28.885)" fill="#fff"/>
        <path id="Trazado_1046395" data-name="Trazado 1046395" d="M45,28.885h2.072v8.288H45Z" transform="translate(-15.993 -28.885)" fill="#fff"/>
        <path id="Trazado_1046396" data-name="Trazado 1046396" d="M17,38.885h2.072v8.288H17Z" transform="translate(-17 -28.525)" fill="#fff"/>
        <path id="Trazado_1046397" data-name="Trazado 1046397" d="M42.18,47.173H38.036A1.036,1.036,0,0,1,37,46.137V39.921a1.036,1.036,0,0,1,1.036-1.036H42.18a1.036,1.036,0,0,1,1.036,1.036v6.216A1.036,1.036,0,0,1,42.18,47.173ZM39.072,45.1h2.072V40.957H39.072Z" transform="translate(-16.281 -28.525)" fill="#fff"/>
        <path id="Trazado_1046398" data-name="Trazado 1046398" d="M45,38.885h2.072v8.288H45Z" transform="translate(-15.993 -28.525)" fill="#fff"/>
        <path id="Trazado_1046399" data-name="Trazado 1046399" d="M34.18,47.173H30.036A1.036,1.036,0,0,1,29,46.137V39.921a1.036,1.036,0,0,1,1.036-1.036H34.18a1.036,1.036,0,0,1,1.036,1.036v6.216A1.036,1.036,0,0,1,34.18,47.173ZM31.072,45.1h2.072V40.957H31.072Z" transform="translate(-16.568 -28.525)" fill="#fff"/>
        <path id="Trazado_1046400" data-name="Trazado 1046400" d="M21,38.885h2.072v8.288H21Z" transform="translate(-16.856 -28.525)" fill="#fff"/>
        <path id="Trazado_1046401" data-name="Trazado 1046401" d="M25,38.885h2.072v8.288H25Z" transform="translate(-16.712 -28.525)" fill="#fff"/>
      </g>
      <circle id="Elipse_11913" data-name="Elipse 11913" cx="11.396" cy="11.396" r="11.396" transform="translate(21.719 4.036)" fill="#66c3e9"/>
      <path id="Trazado_1046402" data-name="Trazado 1046402" d="M32.324,4a11.333,11.333,0,0,0-6.947,2.376A11.382,11.382,0,0,0,41.343,22.343,11.382,11.382,0,0,0,32.324,4Z" transform="translate(0.791 0.036)" fill="#8adef9"/>
      <path id="Trazado_1046403" data-name="Trazado 1046403" d="M27.411,18.974,24.3,15.866a1.036,1.036,0,0,1,0-1.465l3.108-3.108,1.465,1.465L26.5,15.133l2.375,2.375Z" transform="translate(0.827 0.298)" fill="#fff"/>
      <path id="Trazado_1046404" data-name="Trazado 1046404" d="M0,0H9.266V2.072H0Z" transform="translate(30.104 19.12) rotate(-63.435)" fill="#fff"/>
      <path id="Trazado_1046405" data-name="Trazado 1046405" d="M36.758,18.974l-1.465-1.465,2.375-2.375-2.375-2.375,1.465-1.465L39.866,14.4a1.036,1.036,0,0,1,0,1.465Z" transform="translate(1.233 0.298)" fill="#fff"/>
      <path id="Trazado_1046406" data-name="Trazado 1046406" d="M8.252,62.967H57.978a7.261,7.261,0,0,0,7.252-7.252,1.036,1.036,0,0,0-1.036-1.036H62.122V21.529a6.222,6.222,0,0,0-6.216-6.216H53.643a3.108,3.108,0,0,0-2.918-2.072H45.339a12.419,12.419,0,0,0-24.449,0H15.5a3.108,3.108,0,0,0-2.917,2.072H10.324a6.222,6.222,0,0,0-6.216,6.216V54.679H2.036A1.036,1.036,0,0,0,1,55.715a7.261,7.261,0,0,0,7.252,7.252Zm51.8-41.438V54.679H57.978V20.493a1.036,1.036,0,0,0-1.036-1.036H53.834V17.385h2.072A4.144,4.144,0,0,1,60.05,21.529ZM26.9,54.679H10.324V21.529H12.4V49.5A3.108,3.108,0,0,0,15.5,52.607H50.726A3.113,3.113,0,0,0,53.834,49.5V21.529h2.072V54.679H39.33a1.036,1.036,0,0,0-1.036,1.036v1.036H27.935V55.715A1.036,1.036,0,0,0,26.9,54.679Zm6.216-26.817a12.432,12.432,0,0,0,10.822-6.334h7.826V49.5a1.036,1.036,0,0,1-1.036,1.036H15.5A1.036,1.036,0,0,1,14.467,49.5V21.529h7.827A12.432,12.432,0,0,0,33.115,27.863ZM50.726,15.312a1.036,1.036,0,0,1,1.036,1.036v3.108h-6.9a12.373,12.373,0,0,0,.682-4.025c0-.04-.005-.079-.006-.119ZM33.115,5.071a10.36,10.36,0,1,1-10.36,10.36,10.36,10.36,0,0,1,10.36-10.36ZM15.5,15.312h5.186c0,.04-.006.079-.006.119a12.372,12.372,0,0,0,.682,4.026h-6.9V16.349A1.036,1.036,0,0,1,15.5,15.312ZM6.18,21.528a4.144,4.144,0,0,1,4.144-4.144H12.4v2.072H9.288a1.036,1.036,0,0,0-1.036,1.036V54.678H6.18ZM25.863,56.75v1.036A1.036,1.036,0,0,0,26.9,58.822H39.33a1.036,1.036,0,0,0,1.036-1.036V56.75H63.054a5.188,5.188,0,0,1-5.076,4.144H8.252A5.188,5.188,0,0,1,3.176,56.75Z" transform="translate(0)"/>
      <path id="Trazado_1046407" data-name="Trazado 1046407" d="M17,28.885h2.072v8.288H17Z" transform="translate(0.575 0.93)"/>
      <path id="Trazado_1046408" data-name="Trazado 1046408" d="M22.036,37.173H26.18a1.036,1.036,0,0,0,1.036-1.036V29.921a1.036,1.036,0,0,0-1.036-1.036H22.036A1.036,1.036,0,0,0,21,29.921v6.216A1.036,1.036,0,0,0,22.036,37.173Zm1.036-6.216h2.072V35.1H23.072Z" transform="translate(0.719 0.93)"/>
      <path id="Trazado_1046409" data-name="Trazado 1046409" d="M29,28.885h2.072v8.288H29Z" transform="translate(1.007 0.93)"/>
      <path id="Trazado_1046410" data-name="Trazado 1046410" d="M33,28.885h2.072v8.288H33Z" transform="translate(1.151 0.93)"/>
      <path id="Trazado_1046411" data-name="Trazado 1046411" d="M38.036,37.173H42.18a1.036,1.036,0,0,0,1.036-1.036V29.921a1.036,1.036,0,0,0-1.036-1.036H38.036A1.036,1.036,0,0,0,37,29.921v6.216A1.036,1.036,0,0,0,38.036,37.173Zm1.036-6.216h2.072V35.1H39.072Z" transform="translate(1.295 0.93)"/>
      <path id="Trazado_1046412" data-name="Trazado 1046412" d="M45,28.885h2.072v8.288H45Z" transform="translate(1.582 0.93)"/>
      <path id="Trazado_1046413" data-name="Trazado 1046413" d="M17,38.885h2.072v8.288H17Z" transform="translate(0.575 1.29)"/>
      <path id="Trazado_1046414" data-name="Trazado 1046414" d="M38.036,47.173H42.18a1.036,1.036,0,0,0,1.036-1.036V39.921a1.036,1.036,0,0,0-1.036-1.036H38.036A1.036,1.036,0,0,0,37,39.921v6.216A1.036,1.036,0,0,0,38.036,47.173Zm1.036-6.216h2.072V45.1H39.072Z" transform="translate(1.295 1.29)"/>
      <path id="Trazado_1046415" data-name="Trazado 1046415" d="M45,38.885h2.072v8.288H45Z" transform="translate(1.582 1.29)"/>
      <path id="Trazado_1046416" data-name="Trazado 1046416" d="M30.036,47.173H34.18a1.036,1.036,0,0,0,1.036-1.036V39.921a1.036,1.036,0,0,0-1.036-1.036H30.036A1.036,1.036,0,0,0,29,39.921v6.216A1.036,1.036,0,0,0,30.036,47.173Zm1.036-6.216h2.072V45.1H31.072Z" transform="translate(1.007 1.29)"/>
      <path id="Trazado_1046417" data-name="Trazado 1046417" d="M21,38.885h2.072v8.288H21Z" transform="translate(0.719 1.29)"/>
      <path id="Trazado_1046418" data-name="Trazado 1046418" d="M25,38.885h2.072v8.288H25Z" transform="translate(0.863 1.29)"/>
      <path id="Trazado_1046419" data-name="Trazado 1046419" d="M28.876,17.509,26.5,15.133l2.375-2.375-1.465-1.465L24.3,14.4a1.036,1.036,0,0,0,0,1.465l3.108,3.108Z" transform="translate(0.827 0.298)"/>
      <path id="Trazado_1046420" data-name="Trazado 1046420" d="M0,0H9.266V2.072H0Z" transform="translate(30.104 19.12) rotate(-63.435)"/>
      <path id="Trazado_1046421" data-name="Trazado 1046421" d="M36.758,18.974l3.108-3.108a1.036,1.036,0,0,0,0-1.465l-3.108-3.108-1.465,1.465,2.375,2.375-2.375,2.375Z" transform="translate(1.233 0.298)"/>
    </g>
  </g>
</svg>
