<svg id="Grupo_1181772" data-name="Grupo 1181772" xmlns="http://www.w3.org/2000/svg" width="884" height="269" viewBox="0 0 884 269">
  <g id="Grupo_1099019" data-name="Grupo 1099019" transform="translate(0)">
    <path id="Rect치ngulo_389225" data-name="Rect치ngulo 389225" d="M9,0H875a9,9,0,0,1,9,9V40a0,0,0,0,1,0,0H0a0,0,0,0,1,0,0V9A9,9,0,0,1,9,0Z" fill="#3a1d71"/>
    <path id="Rect치ngulo_389226" data-name="Rect치ngulo 389226" d="M0,0H884a0,0,0,0,1,0,0V220a9,9,0,0,1-9,9H9a9,9,0,0,1-9-9V0A0,0,0,0,1,0,0Z" transform="translate(0 40)" fill="#110628"/>
    <g id="Grupo_1181759" data-name="Grupo 1181759" transform="translate(32 12)">
      <circle id="Elipse_11380" data-name="Elipse 11380" cx="8" cy="8" r="8" fill="#fb130d"/>
      <circle id="Elipse_11381" data-name="Elipse 11381" cx="8" cy="8" r="8" transform="translate(27)" fill="#fecd02"/>
      <circle id="Elipse_11382" data-name="Elipse 11382" cx="8" cy="8" r="8" transform="translate(53)" fill="#43dfaa"/>
    </g>
  </g>
  <text id="Inicio_Definir_edad_como_entero_edad_20_Si_edad_18_Entonces_Mostrar_Eres_mayor_de_edad_Fin_Si_Fin" data-name="Inicio
Definir edad como entero
edad = 20

Si edad &gt;= 18 Entonces
        Mostrar &quot;Eres mayor de edad&quot;
Fin Si
Fin" transform="translate(34 57)" fill="#fff" font-size="16" font-family="SegoeUI, Segoe UI"><tspan x="0" y="17">Inicio</tspan><tspan x="0" y="40">Definir edad como entero</tspan><tspan x="0" y="63">edad = 20</tspan><tspan x="0" y="86"></tspan><tspan x="0" y="109">Si edad &gt;= 18 Entonces</tspan><tspan x="0" y="132" xml:space="preserve">        Mostrar &quot;Eres mayor de edad&quot;</tspan><tspan x="0" y="155">Fin Si</tspan><tspan x="0" y="178">Fin</tspan></text>
</svg>
