<svg xmlns="http://www.w3.org/2000/svg" xmlns:xlink="http://www.w3.org/1999/xlink" width="676" height="362" viewBox="0 0 676 362">
  <defs>
    <filter id="Rectángulo_406533" x="0" y="0" width="676" height="362" filterUnits="userSpaceOnUse">
      <feOffset dy="3" input="SourceAlpha"/>
      <feGaussianBlur stdDeviation="3" result="blur"/>
      <feFlood flood-opacity="0.161"/>
      <feComposite operator="in" in2="blur"/>
      <feComposite in="SourceGraphic"/>
    </filter>
    <clipPath id="clip-path">
      <rect id="Rectángulo_406527" data-name="Rectángulo 406527" width="161" height="44" transform="translate(637.599 8007.833)" fill="#1bebf5" stroke="#707070" stroke-width="1" opacity="0.56"/>
    </clipPath>
  </defs>
  <g id="Grupo_1182457" data-name="Grupo 1182457" transform="translate(-462.051 -8148)">
    <g transform="matrix(1, 0, 0, 1, 462.05, 8148)" filter="url(#Rectángulo_406533)">
      <g id="Rectángulo_406533-2" data-name="Rectángulo 406533" transform="translate(9 6)" fill="#fff" stroke="#d9ecfa" stroke-width="1">
        <rect width="658" height="344" rx="15" stroke="none"/>
        <rect x="0.5" y="0.5" width="657" height="343" rx="14.5" fill="none"/>
      </g>
    </g>
    <g id="Grupo_1179833" data-name="Grupo 1179833" transform="translate(-18 222)">
      <text id="Expresión" transform="translate(716.051 7991)" fill="#12263f" font-size="18" font-family="SegoeUIBlack, Segoe UI"><tspan x="0" y="0">Expresión</tspan></text>
      <text id="_a_5_b_-_2_" data-name="(a + 5) * (b - 2)" transform="translate(641.051 8083)" fill="#12263f" font-size="22" font-family="SegoeUI, Segoe UI" letter-spacing="0.028em"><tspan x="0" y="0">(a + 5) * (b - 2)</tspan></text>
      <g id="Enmascarar_grupo_1098947" data-name="Enmascarar grupo 1098947" transform="translate(-1.548 2.168)" clip-path="url(#clip-path)">
        <g id="Trazado_1049157" data-name="Trazado 1049157" transform="translate(649.39 8007.53)" fill="none">
          <path d="M70.392,0c38.877,0,70.392,24.7,70.392,55.158s-31.516,55.158-70.392,55.158S0,85.622,0,55.158,31.516,0,70.392,0Z" stroke="none"/>
          <path d="M 70.392333984375 0.9999923706054688 C 60.99651336669922 0.9999923706054688 51.88371276855469 2.4412841796875 43.30706024169922 5.283843994140625 C 39.18869781494141 6.648788452148438 35.21730041503906 8.337806701660156 31.503173828125 10.30399322509766 C 27.82804107666016 12.24951934814453 24.37307739257812 14.48310089111328 21.23422241210938 16.94264984130859 C 18.09980773925781 19.39873504638672 15.25514984130859 22.10013580322266 12.77928161621094 24.97180938720703 C 10.28404235839844 27.86592102050781 8.141693115234375 30.95838928222656 6.411773681640625 34.16328430175781 C 2.820785522460938 40.81595611572266 1 47.87973785400391 1 55.15842819213867 C 1 62.43711853027344 2.820785522460938 69.50090026855469 6.411773681640625 76.15357208251953 C 8.141693115234375 79.35846710205078 10.28404235839844 82.45092010498047 12.77928161621094 85.34504699707031 C 15.25514984130859 88.21672058105469 18.09980773925781 90.91812133789062 21.23422241210938 93.37419128417969 C 24.37307739257812 95.83375549316406 27.82804107666016 98.06732177734375 31.503173828125 100.0128631591797 C 35.21730041503906 101.9790267944336 39.18869781494141 103.6680679321289 43.30706024169922 105.0330123901367 C 51.88371276855469 107.8755569458008 60.99651336669922 109.3168487548828 70.392333984375 109.3168487548828 C 79.78813171386719 109.3168487548828 88.90093231201172 107.8755569458008 97.47760772705078 105.0330123901367 C 101.5959701538086 103.6680679321289 105.5673675537109 101.9790267944336 109.2814788818359 100.0128631591797 C 112.9566040039062 98.06732177734375 116.4115905761719 95.83375549316406 119.5504455566406 93.37419128417969 C 122.6848449707031 90.91812133789062 125.5294952392578 88.21672058105469 128.0053863525391 85.34504699707031 C 130.5006256103516 82.45092010498047 132.6429443359375 79.35846710205078 134.3728942871094 76.15357208251953 C 137.9638824462891 69.50090026855469 139.78466796875 62.43711853027344 139.78466796875 55.15842819213867 C 139.78466796875 47.87973785400391 137.9638824462891 40.81595611572266 134.3728942871094 34.16328430175781 C 132.6429443359375 30.95838928222656 130.5006256103516 27.86593627929688 128.0053863525391 24.97180938720703 C 125.5294952392578 22.10013580322266 122.6848449707031 19.39873504638672 119.5504455566406 16.94264984130859 C 116.4115905761719 14.48310089111328 112.9566040039062 12.24951934814453 109.2814788818359 10.30399322509766 C 105.5673675537109 8.337806701660156 101.5959701538086 6.648788452148438 97.47760772705078 5.283843994140625 C 88.90093231201172 2.4412841796875 79.78813171386719 0.9999923706054688 70.392333984375 0.9999923706054688 M 70.392333984375 -7.62939453125e-06 C 109.2689361572266 -7.62939453125e-06 140.78466796875 24.69526672363281 140.78466796875 55.15842819213867 C 140.78466796875 85.62158966064453 109.2689361572266 110.3168487548828 70.392333984375 110.3168487548828 C 31.51571655273438 110.3168487548828 0 85.62158966064453 0 55.15842819213867 C 0 24.69526672363281 31.51571655273438 -7.62939453125e-06 70.392333984375 -7.62939453125e-06 Z" stroke="none" fill="#559ad1"/>
        </g>
      </g>
      <path id="Trazado_1049158" data-name="Trazado 1049158" d="M-3856-3517.29v120.424" transform="translate(4574.551 11605.865)" fill="none" stroke="#559ad1" stroke-width="1"/>
      <g id="Rectángulo_406528" data-name="Rectángulo 406528" transform="translate(656.051 8209)" fill="#fff" stroke="#559ad1" stroke-width="1">
        <rect width="124" height="32" rx="5" stroke="none"/>
        <rect x="0.5" y="0.5" width="123" height="31" rx="4.5" fill="none"/>
      </g>
      <text id="Operador" transform="translate(685.051 8232)" fill="#12263f" font-size="16" font-family="SegoeUI, Segoe UI"><tspan x="0" y="0">Operador</tspan></text>
      <g id="Polígono_6" data-name="Polígono 6" transform="translate(657.051 8059) rotate(180)" fill="#fff">
        <path d="M 11.11690044403076 9.5 L 0.8830999732017517 9.5 L 6 0.971833348274231 L 11.11690044403076 9.5 Z" stroke="none"/>
        <path d="M 6 1.943650245666504 L 1.766189575195312 9 L 10.23381042480469 9 L 6 1.943650245666504 M 6 0 L 12 10 L 0 10 L 6 0 Z" stroke="none" fill="#559ad1"/>
      </g>
      <g id="Polígono_7" data-name="Polígono 7" transform="translate(791.051 8059) rotate(180)" fill="#fff">
        <path d="M 11.11690044403076 9.5 L 0.8830999732017517 9.5 L 6 0.971833348274231 L 11.11690044403076 9.5 Z" stroke="none"/>
        <path d="M 6 1.943650245666504 L 1.766189575195312 9 L 10.23381042480469 9 L 6 1.943650245666504 M 6 0 L 12 10 L 0 10 L 6 0 Z" stroke="none" fill="#559ad1"/>
      </g>
      <path id="Trazado_1049159" data-name="Trazado 1049159" d="M-3783-3567.573h75.973" transform="translate(4563.8 11608)" fill="none" stroke="#559ad1" stroke-width="1"/>
      <path id="Trazado_1049160" data-name="Trazado 1049160" d="M-3771-3519.424V-3503h79.037" transform="translate(4547.814 11608)" fill="none" stroke="#559ad1" stroke-width="1"/>
      <path id="Trazado_1049161" data-name="Trazado 1049161" d="M-3793.307-3519.424v54.924h96.277" transform="translate(4553.897 11608)" fill="none" stroke="#559ad1" stroke-width="1"/>
      <path id="Trazado_1049162" data-name="Trazado 1049162" d="M-3818.461-3519.424v95.118h110.59" transform="translate(4563.26 11608)" fill="none" stroke="#559ad1" stroke-width="1"/>
      <g id="Rectángulo_406529" data-name="Rectángulo 406529" transform="translate(856.051 8166)" fill="#d9ecfa" stroke="#559ad1" stroke-width="1">
        <rect width="145" height="32" rx="5" stroke="none"/>
        <rect x="0.5" y="0.5" width="144" height="31" rx="4.5" fill="none"/>
      </g>
      <g id="Rectángulo_406530" data-name="Rectángulo 406530" transform="translate(856.051 8127)" fill="#d9ecfa" stroke="#559ad1" stroke-width="1">
        <rect width="145" height="32" rx="5" stroke="none"/>
        <rect x="0.5" y="0.5" width="144" height="31" rx="4.5" fill="none"/>
      </g>
      <g id="Rectángulo_406531" data-name="Rectángulo 406531" transform="translate(856.051 8089)" fill="#d9ecfa" stroke="#559ad1" stroke-width="1">
        <rect width="145" height="32" rx="5" stroke="none"/>
        <rect x="0.5" y="0.5" width="144" height="31" rx="4.5" fill="none"/>
      </g>
      <text id="Variable" transform="translate(900.051 8189)" fill="#12263f" font-size="16" font-family="SegoeUI, Segoe UI"><tspan x="0" y="0">Variable</tspan></text>
      <text id="Valor" transform="translate(910.051 8112)" fill="#12263f" font-size="16" font-family="SegoeUI, Segoe UI"><tspan x="0" y="0">Valor</tspan></text>
      <text id="Operador-2" data-name="Operador" transform="translate(896.051 8150)" fill="#12263f" font-size="16" font-family="SegoeUI, Segoe UI"><tspan x="0" y="0">Operador</tspan></text>
      <g id="Rectángulo_406532" data-name="Rectángulo 406532" transform="translate(856.051 8020)" fill="#d9ecfb" stroke="#559ad1" stroke-width="1">
        <rect width="145" height="53" rx="5" stroke="none"/>
        <rect x="0.5" y="0.5" width="144" height="52" rx="4.5" fill="none"/>
      </g>
      <text id="Expresión_completa" data-name="Expresión 
completa" transform="translate(892.051 8043)" fill="#12263f" font-size="16" font-family="SegoeUI, Segoe UI"><tspan x="0" y="0">Expresión </tspan><tspan x="0" y="20">completa</tspan></text>
    </g>
  </g>
</svg>
