<svg xmlns="http://www.w3.org/2000/svg" width="295" height="124.143" viewBox="0 0 295 124.143">
  <g id="Grupo_1179637" data-name="Grupo 1179637" transform="translate(-915.051 -7444.302)">
    <g id="Grupo_1179636" data-name="Grupo 1179636" transform="translate(915.051 7450.991)">
      <rect id="Rectángulo_406419" data-name="Rectángulo 406419" width="295" height="87.446" rx="5" transform="translate(0 14.453)" fill="#272b2d"/>
      <rect id="Rectángulo_406418" data-name="Rectángulo 406418" width="223" height="117" rx="5" transform="translate(36 0.453)" fill="#1bebf5"/>
    </g>
    <g id="programmer_360487_3_" data-name="programmer_360487 (3)" transform="translate(1000.475 7444.284)">
      <g id="Grupo_1181509" data-name="Grupo 1181509" transform="translate(99.829 55.855)">
        <path id="Trazado_1043545" data-name="Trazado 1043545" d="M433.487,233.487v3.036H411.7v-3.036a3.2,3.2,0,0,1,3.2-3.2h15.387a3.2,3.2,0,0,1,3.2,3.2Z" transform="translate(-411.7 -230.286)" fill="#ecebed"/>
        <path id="Trazado_1043546" data-name="Trazado 1043546" d="M415.015,347.646h18.472v3.9a3.2,3.2,0,0,1-3.2,3.2H414.9a3.2,3.2,0,0,1-3.2-3.2v-3.9Z" transform="translate(-411.699 -319.188)" fill="#ecebed"/>
      </g>
      <g id="Grupo_1181510" data-name="Grupo 1181510" transform="translate(2.546 53.674)">
        <rect id="Rectángulo_417986" data-name="Rectángulo 417986" width="21.787" height="22.221" transform="translate(97.284 8.418)" fill="#27b5f7"/>
        <path id="Trazado_1043547" data-name="Trazado 1043547" d="M70.5,224.718v38.863h-60V224.718a3.351,3.351,0,0,1,3.27-3.426H67.226a3.351,3.351,0,0,1,3.271,3.426Z" transform="translate(-10.499 -221.292)" fill="#27b5f7"/>
      </g>
      <path id="Trazado_1043548" data-name="Trazado 1043548" d="M137.305,319.126v4.935a4.085,4.085,0,0,1-2.513,3.77l-16.3,6.793a10.005,10.005,0,0,0-5.688,9.068v19.663h69.435V343.693a10.005,10.005,0,0,0-5.688-9.068l-16.3-6.793a4.084,4.084,0,0,1-2.513-3.77v-4.935Z" transform="translate(-85.447 -241.729)" fill="#febba0"/>
      <path id="Trazado_1043549" data-name="Trazado 1043549" d="M176.544,351.549l-16.3-6.793a4.083,4.083,0,0,1-2.482-3.288v3.108a10.276,10.276,0,0,1-10.246,10.246h0a10.276,10.276,0,0,1-10.246-10.246V341.53a4.083,4.083,0,0,1-2.475,3.225l-16.3,6.793a10.005,10.005,0,0,0-5.688,9.068V380.28h69.435V360.617A10,10,0,0,0,176.544,351.549Z" transform="translate(-85.446 -258.653)" fill="#89cd37"/>
      <path id="Trazado_1043550" data-name="Trazado 1043550" d="M189.816,105.018V97.636a22.756,22.756,0,0,0-45.513,0h-.089v7.382a5.675,5.675,0,0,0,0,11.35V120.6a11.13,11.13,0,0,0,4.654,8.5l13.718,7.843a7.871,7.871,0,0,0,8.859,0l13.677-7.843a11.17,11.17,0,0,0,4.694-8.5v-4.237a5.675,5.675,0,1,0,0-11.35Z" transform="translate(-104.946 -56.709)" fill="#febba0"/>
      <path id="Trazado_1043551" data-name="Trazado 1043551" d="M192.648,40.1c-4.293-5.47-8.833-6.638-12.2-5-2.673-2.284-6.677-4.565-13.365-4.565-15.106,0-23.372,11.589-23.372,21.89,0,10.993,4.422,18,4.422,18s1.647-11.562,12.967-11.562c7.567,0,12.126-3,15.309-6.691,1.352,3.523,7.9,5,10.473,7.277,5.091,4.5,6.85,8.022,6.85,8.022S201.751,51.7,192.648,40.1Z" transform="translate(-108.861 -23.119)" fill="#703e41"/>
      <path id="Trazado_1043552" data-name="Trazado 1043552" d="M105.548,254.8h-.033a2.533,2.533,0,1,1,0-5.067h.033a2.533,2.533,0,1,1,0,5.067Z" transform="translate(-78.01 -189.167)"/>
      <path id="Trazado_1043553" data-name="Trazado 1043553" d="M49.13,254.8H41.9a2.533,2.533,0,1,1,0-5.067H49.13a2.533,2.533,0,0,1,0,5.067Z" transform="translate(-29.822 -189.167)"/>
      <path id="Trazado_1043554" data-name="Trazado 1043554" d="M62.367,315.751H41.9a2.533,2.533,0,1,1,0-5.067H62.367a2.533,2.533,0,1,1,0,5.067Z" transform="translate(-29.822 -235.334)"/>
      <path id="Trazado_1043555" data-name="Trazado 1043555" d="M105.548,285.277h-.033a2.533,2.533,0,0,1,0-5.067h.033a2.533,2.533,0,0,1,0,5.067Z" transform="translate(-78.01 -212.25)"/>
      <path id="Trazado_1043556" data-name="Trazado 1043556" d="M49.13,285.278H41.9a2.533,2.533,0,1,1,0-5.067H49.13a2.533,2.533,0,0,1,0,5.067Z" transform="translate(-29.822 -212.251)"/>
      <path id="Trazado_1043557" data-name="Trazado 1043557" d="M136.169,285.278h-.237a2.533,2.533,0,1,1,0-5.067h.237a2.533,2.533,0,1,1,0,5.067Z" transform="translate(-101.052 -212.251)"/>
      <path id="Trazado_1043558" data-name="Trazado 1043558" d="M2.567,496.152H2.533a2.533,2.533,0,1,1,0-5.067h.033a2.533,2.533,0,1,1,0,5.067Z" transform="translate(0 -371.992)"/>
      <path id="Trazado_1043559" data-name="Trazado 1043559" d="M493.483,496.152h-.033a2.533,2.533,0,0,1,0-5.067h.033a2.533,2.533,0,0,1,0,5.067Z" transform="translate(-371.878 -371.992)"/>
      <path id="Trazado_1043560" data-name="Trazado 1043560" d="M285.23,217.789a2.832,2.832,0,1,1,2.832-2.832A2.835,2.835,0,0,1,285.23,217.789Z" transform="translate(-213.922 -160.674)"/>
      <path id="Trazado_1043561" data-name="Trazado 1043561" d="M209.025,217.789a2.832,2.832,0,1,1,2.832-2.832A2.835,2.835,0,0,1,209.025,217.789Z" transform="translate(-156.195 -160.674)"/>
      <path id="Trazado_1043562" data-name="Trazado 1043562" d="M240.369,268.893a5.015,5.015,0,0,1-5.009-5.009,2.534,2.534,0,0,1,2.533-2.533h4.951a2.534,2.534,0,0,1,2.533,2.533A5.015,5.015,0,0,1,240.369,268.893Z" transform="translate(-178.289 -197.963)"/>
      <path id="Trazado_1043563" data-name="Trazado 1043563" d="M197.23,427.738a2.525,2.525,0,0,1-1.791-.742l-5.69-5.69a2.534,2.534,0,0,1,0-3.583l5.69-5.69a2.534,2.534,0,0,1,3.583,3.583l-3.9,3.9,3.9,3.9a2.533,2.533,0,0,1-1.792,4.325Z" transform="translate(-143.176 -311.546)"/>
      <path id="Trazado_1043564" data-name="Trazado 1043564" d="M280.815,427.737a2.534,2.534,0,0,1-1.791-4.325l3.9-3.9-3.9-3.9a2.534,2.534,0,0,1,3.583-3.583l5.69,5.69a2.534,2.534,0,0,1,0,3.583l-5.69,5.69A2.526,2.526,0,0,1,280.815,427.737Z" transform="translate(-210.804 -311.545)"/>
      <path id="Trazado_1043565" data-name="Trazado 1043565" d="M243.905,427.557a2.57,2.57,0,0,1-.461-.042,2.534,2.534,0,0,1-2.033-2.95l2.1-11.438a2.534,2.534,0,1,1,4.983.917l-2.1,11.438A2.535,2.535,0,0,1,243.905,427.557Z" transform="translate(-182.841 -311.365)"/>
      <path id="Trazado_1043566" data-name="Trazado 1043566" d="M57.829,84.7a7.651,7.651,0,0,1-7.643-7.643V72.075a7.643,7.643,0,1,1,15.285,0v4.982A7.651,7.651,0,0,1,57.829,84.7Zm0-15.2a2.579,2.579,0,0,0-2.576,2.576v4.983a2.576,2.576,0,1,0,5.151,0V72.075A2.579,2.579,0,0,0,57.829,69.5Z" transform="translate(-38.017 -48.794)"/>
      <path id="Trazado_1043567" data-name="Trazado 1043567" d="M7.731,84.7A2.534,2.534,0,0,1,5.2,82.166V73.082l-.823.823A2.534,2.534,0,0,1,.792,70.322L5.94,65.174a2.534,2.534,0,0,1,4.325,1.792v15.2A2.533,2.533,0,0,1,7.731,84.7Z" transform="translate(-0.038 -48.794)"/>
      <path id="Trazado_1043568" data-name="Trazado 1043568" d="M406.979,20.286a7.651,7.651,0,0,1-7.643-7.643V7.662a7.643,7.643,0,0,1,15.285,0v4.983A7.651,7.651,0,0,1,406.979,20.286Zm0-15.2A2.579,2.579,0,0,0,404.4,7.662v4.983a2.576,2.576,0,1,0,5.151,0V7.662A2.579,2.579,0,0,0,406.979,5.086Z" transform="translate(-302.504)"/>
      <path id="Trazado_1043569" data-name="Trazado 1043569" d="M477.555,20.286a2.534,2.534,0,0,1-2.534-2.533V8.669l-.823.823a2.534,2.534,0,0,1-3.583-3.583L475.764.761a2.534,2.534,0,0,1,4.325,1.792v15.2A2.533,2.533,0,0,1,477.555,20.286Z" transform="translate(-355.938 0)"/>
      <path id="Trazado_1043570" data-name="Trazado 1043570" d="M422.372,219.838H406.985a5.741,5.741,0,0,0-5.734,5.734v29.154a5.741,5.741,0,0,0,5.734,5.734h15.387a5.741,5.741,0,0,0,5.734-5.734V225.572A5.741,5.741,0,0,0,422.372,219.838Zm-16.054,11.3h16.721V248.3H406.318Zm0-5.569a.668.668,0,0,1,.667-.667h15.387a.668.668,0,0,1,.667.667v.5H406.318v-.5Zm16.721,29.154a.668.668,0,0,1-.667.667H406.985a.668.668,0,0,1-.667-.667v-1.364h16.72v1.364Z" transform="translate(-303.955 -166.517)"/>
      <path id="Trazado_1043571" data-name="Trazado 1043571" d="M113.414,134.3H99.359v-17.13a12.484,12.484,0,0,0-7.247-11.407l-16.3-6.793a1.546,1.546,0,0,1-.935-1.192c0-.012,0-.024,0-.036a1.525,1.525,0,0,1-.015-.2V93.591l6.622-3.8c.046-.026.091-.055.136-.084a13.681,13.681,0,0,0,5.824-10.417c.005-.064.007-.129.007-.193V77a8.209,8.209,0,0,0,0-15.617V60.123c1.446-3.145,7.447-17.945-1.624-29.5-4.191-5.341-9.218-7.611-13.746-6.312a22.392,22.392,0,0,0-13.815-4.22c-16.215,0-25.905,12.418-25.905,24.423A40.918,40.918,0,0,0,36.01,61.674a8.252,8.252,0,0,0-4.4,4.67H5.855a5.89,5.89,0,0,0-5.8,5.96v38.863A2.534,2.534,0,0,0,2.584,113.7H16.867v5.143H15a2.533,2.533,0,1,0,0,5.067h9.859V134.3H10.8a2.533,2.533,0,0,0,0,5.067H113.414a2.533,2.533,0,1,0,0-5.066ZM88.05,69.188a3.145,3.145,0,0,1-3.141,3.141,2.534,2.534,0,0,0-2.533,2.533V79a8.719,8.719,0,0,1-3.5,6.444l-13.6,7.8c-.046.027-.091.055-.136.084a5.36,5.36,0,0,1-6.066,0c-.045-.03-.091-.058-.139-.085l-13.642-7.8A8.587,8.587,0,0,1,41.84,79V74.863a2.534,2.534,0,0,0-2.533-2.533,3.139,3.139,0,0,1-.513-6.237L41.6,67.512A10.509,10.509,0,0,0,62.1,72.12a10.509,10.509,0,0,0,20.513-4.577l2.813-1.448A3.144,3.144,0,0,1,88.05,69.188ZM69.786,96.5v4.629a7.678,7.678,0,1,1-15.355,0V96.5l1.925,1.1a10.418,10.418,0,0,0,11.507,0ZM72.35,59.275A10.527,10.527,0,0,0,62.1,67.451,10.5,10.5,0,0,0,43.86,62.978l-1.867-.944c.586-2.319,2.85-8.551,10.28-8.551,6.068,0,11.025-1.76,15.066-5.366a24.179,24.179,0,0,0,5.533,3.331,18.5,18.5,0,0,1,3.5,1.986,31.669,31.669,0,0,1,6,6.8v1.733L80.369,63A10.488,10.488,0,0,0,72.35,59.275Zm5.444,10.51a5.443,5.443,0,1,1-5.443-5.443A5.45,5.45,0,0,1,77.794,69.785Zm-20.492,0a5.443,5.443,0,1,1-5.443-5.443A5.45,5.45,0,0,1,57.3,69.785Zm.955-44.628c6.353,0,9.731,2.259,11.718,3.958a2.534,2.534,0,0,0,2.755.352c2.6-1.266,6,.335,9.1,4.283h0c5.322,6.78,3.935,15.43,2.4,20.476a43,43,0,0,0-4.5-4.589,20.859,20.859,0,0,0-4.641-2.745c-2.074-1.01-4.656-2.268-5.145-3.541a2.533,2.533,0,0,0-4.283-.748c-3.423,3.966-7.678,5.813-13.391,5.813A14.512,14.512,0,0,0,39.4,55.377c-.089.141-.175.281-.258.421a37.168,37.168,0,0,1-1.727-11.284C37.419,35,45.213,25.157,58.257,25.157Zm-33.4,92.011v1.676H21.934V113.7h3.414A12.66,12.66,0,0,0,24.857,117.168Zm3.27-8.534H5.118V72.3a.837.837,0,0,1,.737-.893H31.411A8.24,8.24,0,0,0,36.773,77v2.1c0,.064,0,.129.007.193A13.666,13.666,0,0,0,42.564,89.71q.068.045.139.085l6.66,3.807v3.933a1.547,1.547,0,0,1-.954,1.432l-16.3,6.794A11.109,11.109,0,0,0,28.127,108.634ZM94.292,134.3H29.924v-17.13a7.51,7.51,0,0,1,4.129-6.73l15.589-6.5a12.776,12.776,0,0,0,24.925,0l15.6,6.5a7.51,7.51,0,0,1,4.129,6.73V134.3Z" transform="translate(-0.039 -15.204)"/>
    </g>
  </g>
</svg>
