<svg xmlns="http://www.w3.org/2000/svg" xmlns:xlink="http://www.w3.org/1999/xlink" width="108" height="108" viewBox="0 0 108 108">
  <defs>
    <filter id="Trazado_904820" x="0" y="0" width="108" height="108" filterUnits="userSpaceOnUse">
      <feOffset dy="3" input="SourceAlpha"/>
      <feGaussianBlur stdDeviation="3" result="blur"/>
      <feFlood flood-opacity="0.161"/>
      <feComposite operator="in" in2="blur"/>
      <feComposite in="SourceGraphic"/>
    </filter>
  </defs>
  <g id="Grupo_1179845" data-name="Grupo 1179845" transform="translate(9 6)">
    <g id="Grupo_1179220" data-name="Grupo 1179220" transform="translate(0 0)">
      <g id="Grupo_1173585" data-name="Grupo 1173585">
        <g id="Grupo_1173428" data-name="Grupo 1173428">
          <g id="Grupo_1171958" data-name="Grupo 1171958">
            <g id="Grupo_1167341" data-name="Grupo 1167341">
              <g id="Grupo_1166792" data-name="Grupo 1166792">
                <g transform="matrix(1, 0, 0, 1, -9, -6)" filter="url(#Trazado_904820)">
                  <g id="Trazado_904820-2" data-name="Trazado 904820" transform="translate(9 6)" fill="#e9fdfe">
                    <path d="M 44.99999618530273 88.50004577636719 C 39.12687301635742 88.50004577636719 33.43022155761719 87.35012054443359 28.06829643249512 85.08220672607422 C 22.88852119445801 82.891357421875 18.23629570007324 79.75463104248047 14.24084663391113 75.75917816162109 C 10.24540901184082 71.76373291015625 7.108683586120605 67.11150360107422 4.917821407318115 61.93173217773438 C 2.649921178817749 56.56980514526367 1.499996185302734 50.87315368652344 1.499996185302734 45.00003051757812 C 1.499996185302734 39.12690734863281 2.649921178817749 33.43025588989258 4.917821407318115 28.06831741333008 C 7.108683586120605 22.88854217529297 10.24540901184082 18.23633003234863 14.24084663391113 14.24088096618652 C 18.23629570007324 10.2454309463501 22.88852119445801 7.108705520629883 28.06829643249512 4.917842864990234 C 33.43022155761719 2.649943113327026 39.12687301635742 1.500018000602722 44.99999618530273 1.500018000602722 C 50.87311935424805 1.500018000602722 56.56977081298828 2.649943113327026 61.93169784545898 4.917842864990234 C 67.11147308349609 7.108705520629883 71.76369476318359 10.2454309463501 75.75914764404297 14.24088096618652 C 79.75458526611328 18.23633003234863 82.89131164550781 22.88854217529297 85.08216857910156 28.06831741333008 C 87.35007476806641 33.43025588989258 88.5 39.12690734863281 88.5 45.00003051757812 C 88.5 50.87315368652344 87.35007476806641 56.56980514526367 85.08216857910156 61.93173217773438 C 82.89131164550781 67.11150360107422 79.75458526611328 71.76373291015625 75.75914764404297 75.75917816162109 C 71.76369476318359 79.75463104248047 67.11147308349609 82.891357421875 61.93169784545898 85.08220672607422 C 56.56977081298828 87.35012054443359 50.87311935424805 88.50004577636719 44.99999618530273 88.50004577636719 Z" stroke="none"/>
                    <path d="M 44.99999618530273 3.000015258789062 C 39.32870864868164 3.000015258789062 33.82865142822266 4.110076904296875 28.65262603759766 6.299362182617188 C 23.65165710449219 8.414588928222656 19.15968322753906 11.443359375 15.301513671875 15.30152893066406 C 11.44333648681641 19.15969848632812 8.414566040039062 23.65167236328125 6.299339294433594 28.65264511108398 C 4.110054016113281 33.82868576049805 2.999992370605469 39.32874298095703 2.999992370605469 45.00003051757812 C 2.999992370605469 50.67131805419922 4.110054016113281 56.1713752746582 6.299339294433594 61.34740447998047 C 8.414566040039062 66.348388671875 11.44333648681641 70.84034729003906 15.301513671875 74.69851684570312 C 19.15968322753906 78.55670166015625 23.65165710449219 81.58547210693359 28.65262603759766 83.70069885253906 C 33.82865142822266 85.88998413085938 39.32870864868164 87.00004577636719 44.99999618530273 87.00004577636719 C 50.67128372192383 87.00004577636719 56.17134094238281 85.88998413085938 61.34736633300781 83.70069885253906 C 66.34834289550781 81.58547210693359 70.84030914306641 78.55670166015625 74.69847869873047 74.69851684570312 C 78.55665588378906 70.84034729003906 81.58542633056641 66.348388671875 83.70065307617188 61.34740447998047 C 85.88993835449219 56.1713752746582 87 50.67131805419922 87 45.00003051757812 C 87 39.32874298095703 85.88993835449219 33.82868576049805 83.70065307617188 28.65264511108398 C 81.58542633056641 23.65167236328125 78.55665588378906 19.15969848632812 74.69847869873047 15.30152893066406 C 70.84030914306641 11.443359375 66.34834289550781 8.414588928222656 61.34736633300781 6.299362182617188 C 56.17134094238281 4.110076904296875 50.67128372192383 3.000015258789062 44.99999618530273 3.000015258789062 M 44.99999618530273 1.52587890625e-05 C 69.85281372070312 1.52587890625e-05 90 20.14720153808594 90 45.00003051757812 C 90 69.85284423828125 69.85281372070312 90.00004577636719 44.99999618530273 90.00004577636719 C 20.14717864990234 90.00004577636719 -7.62939453125e-06 69.85284423828125 -7.62939453125e-06 45.00003051757812 C -7.62939453125e-06 20.14720153808594 20.14717864990234 1.52587890625e-05 44.99999618530273 1.52587890625e-05 Z" stroke="none" fill="#108d93"/>
                  </g>
                </g>
              </g>
            </g>
          </g>
        </g>
      </g>
    </g>
    <g id="diagram_1865728" transform="translate(15.122 15.493)">
      <path id="Trazado_1049885" data-name="Trazado 1049885" d="M17.13,249.184H9.39a1.777,1.777,0,0,1-1.777-1.777v-7.74A1.777,1.777,0,0,1,9.39,237.89h7.74a1.777,1.777,0,0,1,1.777,1.777v7.74A1.777,1.777,0,0,1,17.13,249.184Zm0,0" transform="translate(-6.725 -209.685)" fill="#ffec56"/>
      <path id="Trazado_1049886" data-name="Trazado 1049886" d="M62.261,237.891H58.707a1.777,1.777,0,0,1,1.777,1.777v7.74a1.777,1.777,0,0,1-1.777,1.777h3.554a1.777,1.777,0,0,0,1.777-1.777v-7.74A1.777,1.777,0,0,0,62.261,237.891Zm0,0" transform="translate(-51.856 -209.685)" fill="#f9cd45"/>
      <path id="Trazado_1049887" data-name="Trazado 1049887" d="M211.641,240.051a6.149,6.149,0,1,1-6.149-6.149A6.148,6.148,0,0,1,211.641,240.051Zm0,0" transform="translate(-176.079 -206.162)" fill="#ff318e"/>
      <path id="Trazado_1049888" data-name="Trazado 1049888" d="M238.581,233.9a6.146,6.146,0,0,0-1.777.262,6.149,6.149,0,0,1,0,11.774,6.149,6.149,0,1,0,1.777-12.036Zm0,0" transform="translate(-209.167 -206.162)" fill="#e21e89"/>
      <path id="Trazado_1049889" data-name="Trazado 1049889" d="M118.306,19.5H81.355a1.782,1.782,0,0,1-1.777-1.777V9.89a1.782,1.782,0,0,1,1.777-1.777h36.951a1.781,1.781,0,0,1,1.777,1.777v7.834A1.782,1.782,0,0,1,118.306,19.5Zm0,0" transform="translate(-70.291 -6.725)" fill="#5e8ee1"/>
      <path id="Trazado_1049890" data-name="Trazado 1049890" d="M397.223,233.188l-6.641,11.5h13.282l-6.641-11.5-6.641,11.5h13.282Zm0,0" transform="translate(-344.998 -205.531)" fill="#aceded"/>
      <path id="Trazado_1049891" data-name="Trazado 1049891" d="M434.038,233.188l-1.777,3.077,4.864,8.425h3.553Zm0,0" transform="translate(-381.813 -205.531)" fill="#66d6e6"/>
      <path id="Trazado_1049892" data-name="Trazado 1049892" d="M384.518,8.113h-3.554a1.782,1.782,0,0,1,1.777,1.777v7.834a1.782,1.782,0,0,1-1.777,1.777h3.554a1.782,1.782,0,0,0,1.777-1.777V9.89A1.782,1.782,0,0,0,384.518,8.113Zm0,0" transform="translate(-336.503 -6.724)" fill="#467bff"/>
      <path id="Trazado_1049893" data-name="Trazado 1049893" d="M139.414,417.447H108.89a1.782,1.782,0,0,1-1.777-1.777v-6.027a1.782,1.782,0,0,1,1.777-1.777h30.524a1.782,1.782,0,0,1,1.777,1.777v6.027A1.782,1.782,0,0,1,139.414,417.447Zm0,0" transform="translate(-94.612 -359.824)" fill="#30d8b8"/>
      <path id="Trazado_1049894" data-name="Trazado 1049894" d="M356.983,407.867H353.43a1.782,1.782,0,0,1,1.777,1.777v6.027a1.782,1.782,0,0,1-1.777,1.777h3.554a1.782,1.782,0,0,0,1.777-1.777v-6.027A1.782,1.782,0,0,0,356.983,407.867Zm0,0" transform="translate(-312.182 -359.823)" fill="#008b74"/>
      <path id="Trazado_1049895" data-name="Trazado 1049895" d="M59.635,38.715,53.07,27.344c0-.023,0-.046,0-.07V24.947a2.7,2.7,0,0,0-2.7-2.7h-20.1V13.665H48.015A2.668,2.668,0,0,0,50.68,11V3.166A2.668,2.668,0,0,0,48.015.5H11.064A2.668,2.668,0,0,0,8.4,3.166V11a2.668,2.668,0,0,0,2.665,2.665h2.655a.889.889,0,0,0,0-1.777H11.064A.889.889,0,0,1,10.176,11V3.166a.889.889,0,0,1,.888-.889H48.015a.889.889,0,0,1,.889.889V11a.889.889,0,0,1-.889.888H17.272a.889.889,0,0,0,0,1.777h11.22v8.582H8.259a2.7,2.7,0,0,0-2.7,2.7v2.371H2.665A2.668,2.668,0,0,0,0,29.983v7.74a2.668,2.668,0,0,0,2.665,2.665H5.559V51.33a2.7,2.7,0,0,0,2.7,2.7h3.353v1.817a2.668,2.668,0,0,0,2.665,2.665H44.8a2.668,2.668,0,0,0,2.665-2.665V54.03h2.907a2.7,2.7,0,0,0,2.7-2.7V40.048h5.792a.888.888,0,0,0,.77-1.333ZM1.776,37.723v-7.74a.889.889,0,0,1,.889-.888H10.4a.889.889,0,0,1,.888.888v7.74a.889.889,0,0,1-.888.889H2.665a.889.889,0,0,1-.889-.889ZM51.3,51.33a.924.924,0,0,1-.923.924H47.467V49.82A2.668,2.668,0,0,0,44.8,47.155H35.943a.888.888,0,1,0,0,1.777H44.8a.889.889,0,0,1,.888.889v6.027a.889.889,0,0,1-.888.889H14.278a.889.889,0,0,1-.889-.889V49.82a.889.889,0,0,1,.889-.889H32.389a.888.888,0,1,0,0-1.777H14.278a2.668,2.668,0,0,0-2.665,2.665v2.433H8.259a.924.924,0,0,1-.923-.924V40.388h3.069a2.668,2.668,0,0,0,2.665-2.665v-7.74a2.668,2.668,0,0,0-2.665-2.665H7.336V24.947a.925.925,0,0,1,.923-.924H28.492v2.891a7.038,7.038,0,1,0,1.777-.008V24.024h20.1a.924.924,0,0,1,.923.923v2.327a.918.918,0,0,0,.019.182l-6.5,11.26a.889.889,0,0,0,.77,1.333H51.3Zm-21.883-22.7a5.261,5.261,0,1,1-5.26,5.261,5.267,5.267,0,0,1,5.26-5.261Zm17.709,9.643,5.1-8.837,5.1,8.837Zm0,0"/>
      <path id="Trazado_1049896" data-name="Trazado 1049896" d="M156.255,51.738a.888.888,0,1,0,0-1.777H130.029a.888.888,0,1,0,0,1.777Zm0,0" transform="translate(-114.069 -43.688)"/>
      <path id="Trazado_1049897" data-name="Trazado 1049897" d="M220.978,441.293a.888.888,0,1,0,.889.889A.889.889,0,0,0,220.978,441.293Zm0,0" transform="translate(-194.404 -389.348)"/>
      <path id="Trazado_1049898" data-name="Trazado 1049898" d="M153.994,441.293a.888.888,0,1,0,.888.889A.889.889,0,0,0,153.994,441.293Zm0,0" transform="translate(-135.237 -389.348)"/>
      <path id="Trazado_1049899" data-name="Trazado 1049899" d="M187.486,441.293a.888.888,0,1,0,.889.889A.889.889,0,0,0,187.486,441.293Zm0,0" transform="translate(-164.82 -389.348)"/>
      <path id="Trazado_1049900" data-name="Trazado 1049900" d="M254.47,441.293a.888.888,0,1,0,.889.889A.889.889,0,0,0,254.47,441.293Zm0,0" transform="translate(-223.987 -389.348)"/>
      <path id="Trazado_1049901" data-name="Trazado 1049901" d="M287.967,441.293a.888.888,0,1,0,.889.889A.889.889,0,0,0,287.967,441.293Zm0,0" transform="translate(-253.574 -389.348)"/>
      <path id="Trazado_1049902" data-name="Trazado 1049902" d="M321.459,443.07a.888.888,0,1,0-.888-.888A.888.888,0,0,0,321.459,443.07Zm0,0" transform="translate(-283.158 -389.349)"/>
    </g>
  </g>
</svg>
