<svg id="Grupo_1182456" data-name="Grupo 1182456" xmlns="http://www.w3.org/2000/svg" width="884" height="356" viewBox="0 0 884 356">
  <g id="Grupo_1099019" data-name="Grupo 1099019" transform="translate(0)">
    <path id="Rect치ngulo_389225" data-name="Rect치ngulo 389225" d="M9,0H875a9,9,0,0,1,9,9V40a0,0,0,0,1,0,0H0a0,0,0,0,1,0,0V9A9,9,0,0,1,9,0Z" fill="#3a1d71"/>
    <path id="Rect치ngulo_389226" data-name="Rect치ngulo 389226" d="M0,0H884a0,0,0,0,1,0,0V307a9,9,0,0,1-9,9H9a9,9,0,0,1-9-9V0A0,0,0,0,1,0,0Z" transform="translate(0 40)" fill="#110628"/>
    <g id="Grupo_1181759" data-name="Grupo 1181759" transform="translate(32 12)">
      <circle id="Elipse_11380" data-name="Elipse 11380" cx="8" cy="8" r="8" fill="#fb130d"/>
      <circle id="Elipse_11381" data-name="Elipse 11381" cx="8" cy="8" r="8" transform="translate(27)" fill="#fecd02"/>
      <circle id="Elipse_11382" data-name="Elipse 11382" cx="8" cy="8" r="8" transform="translate(53)" fill="#43dfaa"/>
    </g>
  </g>
  <text id="Inicio_Definir_nota_como_decimal_nota_3.5_Si_nota_4.5_Entonces_Mostrar_Excelente_Sino_Si_nota_3.0_Entonces_Mostrar_Aprobado_Sino_Mostrar_Reprobado_Fin_Si_Fin" data-name="Inicio
Definir nota como decimal
nota = 3.5

Si nota &gt;= 4.5 Entonces
        Mostrar &quot;Excelente&quot;
   Sino Si nota &gt;= 3.0 Entonces
        Mostrar &quot;Aprobado&quot;
   Sino
        Mostrar &quot;Reprobado&quot;
Fin Si
Fin" transform="translate(34 57)" fill="#fff" font-size="16" font-family="SegoeUI, Segoe UI"><tspan x="0" y="17">Inicio</tspan><tspan x="0" y="40">Definir nota como decimal</tspan><tspan x="0" y="63">nota = 3.5</tspan><tspan x="0" y="86"></tspan><tspan x="0" y="109">Si nota &gt;= 4.5 Entonces</tspan><tspan x="0" y="132" xml:space="preserve">        Mostrar &quot;Excelente&quot;</tspan><tspan x="0" y="155" xml:space="preserve">   Sino Si nota &gt;= 3.0 Entonces</tspan><tspan x="0" y="178" xml:space="preserve">        Mostrar &quot;Aprobado&quot;</tspan><tspan x="0" y="201" xml:space="preserve">   Sino</tspan><tspan x="0" y="224" xml:space="preserve">        Mostrar &quot;Reprobado&quot;</tspan><tspan x="0" y="247">Fin Si</tspan><tspan x="0" y="270">Fin</tspan></text>
</svg>
