<svg xmlns="http://www.w3.org/2000/svg" xmlns:xlink="http://www.w3.org/1999/xlink" width="55.782" height="55.782" viewBox="0 0 55.782 55.782">
  <defs>
    <clipPath id="clip-path">
      <path id="path141" d="M0-682.665H55.782v55.782H0Z" transform="translate(0 682.665)"/>
    </clipPath>
  </defs>
  <g id="g135" transform="translate(0 682.665)">
    <g id="g137" transform="translate(0 -682.665)">
      <g id="g139" clip-path="url(#clip-path)">
        <g id="g145" transform="translate(31.437 19.048)">
          <path id="path147" d="M-46.228-5.648a4.46,4.46,0,0,0-4.114,0" transform="translate(50.341 6.151)" fill="none" stroke="#108d93" stroke-linecap="round" stroke-linejoin="round" stroke-miterlimit="10" stroke-width="1.5"/>
        </g>
        <g id="g149" transform="translate(21.397 0.817)">
          <path id="path151" d="M-261.059-68.824a16.477,16.477,0,0,1,.967,5.973v5.012c-.4-4.305-4.722-5.667-7.937-6.05-3.116-.367-3.734,1.4-8-.089-4.92-1.708-8.255,2.857-8.255,6.14v-5.012c0-7.381,3.236-12.1,11.609-12.1h.979c4.012,0,6.844,1.081,8.706,3.023" transform="translate(284.289 74.948)" fill="none" stroke="#108d93" stroke-linecap="round" stroke-linejoin="round" stroke-miterlimit="10" stroke-width="1.5"/>
        </g>
        <g id="g153" transform="translate(17.65 17.927)">
          <path id="path155" d="M-42.1,0h-1.828a1.918,1.918,0,0,0-1.918,1.912V2.977c0,2.054,2.041,3.166,4.144,3.187" transform="translate(45.844)" fill="none" stroke="#108d93" stroke-linecap="round" stroke-linejoin="round" stroke-miterlimit="10" stroke-width="1.5"/>
        </g>
        <g id="g157" transform="translate(45.192 17.927)">
          <path id="path159" d="M-4.512,0h1.825A1.919,1.919,0,0,1-.766,1.912V2.977c0,2.054-2.044,3.166-4.148,3.187" transform="translate(4.913)" fill="none" stroke="#108d93" stroke-linecap="round" stroke-linejoin="round" stroke-miterlimit="10" stroke-width="1.5"/>
        </g>
        <g id="g161" transform="translate(31.884 26.376)">
          <path id="path163" d="M0,0A2.272,2.272,0,0,0,3.221,0" fill="none" stroke="#108d93" stroke-linecap="round" stroke-linejoin="round" stroke-miterlimit="10" stroke-width="1.5"/>
        </g>
        <g id="g165" transform="translate(25.882 1.988)">
          <path id="path167" d="M-29.688-106.863c-2.894-2.069-3.372-6.853-1.621-9.509" transform="translate(32.33 116.372)" fill="none" stroke="#108d93" stroke-linecap="round" stroke-linejoin="round" stroke-miterlimit="10" stroke-width="1.5"/>
        </g>
        <g id="g169" transform="translate(13.5 39.596)">
          <path id="path171" d="M-384.725,0l.457.209a9.039,9.039,0,0,1,5.3,8.663v5.535a.967.967,0,0,1-.964.963h-6.084m-32.936-6.891c0,.131-.007.261-.007.393v5.535a.965.965,0,0,0,.963.963h6.082" transform="translate(418.959)" fill="none" stroke="#108d93" stroke-linecap="round" stroke-linejoin="round" stroke-miterlimit="10" stroke-width="1.5"/>
        </g>
        <g id="g173" transform="translate(35.55 16.796)">
          <path id="path175" d="M-49.178,0h-3.434a.948.948,0,0,0-.942.942v3.74a.948.948,0,0,0,.942.945h3.434a.949.949,0,0,0,.945-.945V.942A.948.948,0,0,0-49.178,0Z" transform="translate(53.555)" fill="none" stroke="#108d93" stroke-linecap="round" stroke-linejoin="round" stroke-miterlimit="10" stroke-width="1.5"/>
        </g>
        <g id="g177" transform="translate(26.118 16.796)">
          <path id="path179" d="M-10.586,0h3.434A.946.946,0,0,1-6.21.942v3.74a.946.946,0,0,1-.942.945h-3.434a.946.946,0,0,1-.942-.945V.942A.946.946,0,0,1-10.586,0Z" transform="translate(11.528)" fill="none" stroke="#108d93" stroke-linecap="round" stroke-linejoin="round" stroke-miterlimit="10" stroke-width="1.5"/>
        </g>
        <g id="g181" transform="translate(31.603 37.667)">
          <path id="path183" d="M-42.48-21.241a1.89,1.89,0,0,0-1.89-1.89,1.89,1.89,0,0,0-1.89,1.89,1.89,1.89,0,0,0,1.89,1.89A1.89,1.89,0,0,0-42.48-21.241Z" transform="translate(46.26 23.131)" fill="none" stroke="#108d93" stroke-linecap="round" stroke-linejoin="round" stroke-miterlimit="10" stroke-width="1.5"/>
        </g>
        <g id="g185" transform="translate(21.396 17.927)">
          <path id="path187" d="M-211.117-148.476c3.181-2.52,5.411-6.334,5.411-9.543v-3.669m-24.2,0v3.669c0,3.209,2.23,7.023,5.408,9.543" transform="translate(229.903 161.688)" fill="none" stroke="#108d93" stroke-linecap="round" stroke-linejoin="round" stroke-miterlimit="10" stroke-width="1.5"/>
        </g>
        <g id="g189" transform="translate(18.157 50.187)">
          <path id="path191" d="M-193.555,0h12.674a.778.778,0,0,1,.778.775V2.387a2.4,2.4,0,0,1-2.39,2.39h-25.9a2.4,2.4,0,0,1-2.387-2.39V.775A.778.778,0,0,1-210,0h12.677" transform="translate(210.778 0)" fill="none" stroke="#108d93" stroke-linecap="round" stroke-linejoin="round" stroke-miterlimit="10" stroke-width="1.5"/>
        </g>
        <g id="g193" transform="translate(19.62 45.428)">
          <path id="path195" d="M-3.343-53.493l-.3-4.76" transform="translate(3.64 58.253)" fill="none" stroke="#108d93" stroke-linecap="round" stroke-linejoin="round" stroke-miterlimit="10" stroke-width="1.5"/>
        </g>
        <g id="g197" transform="translate(20.659 31.139)">
          <path id="path199" d="M0,0H25.894A1.58,1.58,0,0,1,27.5,1.606l-.428,6.851-.661,10.592" fill="none" stroke="#108d93" stroke-linecap="round" stroke-linejoin="round" stroke-miterlimit="10" stroke-width="1.5"/>
        </g>
        <g id="g201" transform="translate(32.619 44.715)">
          <path id="path203" d="M-19.643,0h-1.748" transform="translate(21.391)" fill="none" stroke="#108d93" stroke-linecap="round" stroke-linejoin="round" stroke-miterlimit="10" stroke-width="1.5"/>
        </g>
        <g id="g205" transform="translate(11.934 33.745)">
          <path id="path207" d="M-16.347,0-17.8,7.99" transform="translate(17.801)" fill="none" stroke="#108d93" stroke-linecap="round" stroke-linejoin="round" stroke-miterlimit="10" stroke-width="1.5"/>
        </g>
        <g id="g209" transform="translate(16.267 35.119)">
          <path id="path211" d="M0-58.863l2.467-2.465a.218.218,0,0,0,0-.306L0-64.1" transform="translate(0 64.101)" fill="none" stroke="#108d93" stroke-linecap="round" stroke-linejoin="round" stroke-miterlimit="10" stroke-width="1.5"/>
        </g>
        <g id="g213" transform="translate(6.526 35.119)">
          <path id="path215" d="M-28.433-58.863-30.9-61.328a.218.218,0,0,1,0-.306l2.467-2.468" transform="translate(30.963 64.101)" fill="none" stroke="#108d93" stroke-linecap="round" stroke-linejoin="round" stroke-miterlimit="10" stroke-width="1.5"/>
        </g>
        <g id="g217" transform="translate(2.292 27.371)">
          <path id="path219" d="M-233.051-116.511a10.368,10.368,0,0,0-10.37-10.368,10.368,10.368,0,0,0-10.367,10.368,10.368,10.368,0,0,0,10.367,10.371A10.369,10.369,0,0,0-233.051-116.511Z" transform="translate(253.789 126.878)" fill="none" stroke="#108d93" stroke-linecap="round" stroke-linejoin="round" stroke-miterlimit="10" stroke-width="1.5"/>
        </g>
      </g>
    </g>
  </g>
</svg>
