<svg xmlns="http://www.w3.org/2000/svg" width="589" height="285.78" viewBox="0 0 589 285.78">
  <g id="Grupo_1181774" data-name="Grupo 1181774" transform="translate(-365.051 -4534)">
    <g id="Grupo_1099019" data-name="Grupo 1099019" transform="translate(365.051 4534)">
      <path id="Rect치ngulo_389225" data-name="Rect치ngulo 389225" d="M9,0H580a9,9,0,0,1,9,9V40a0,0,0,0,1,0,0H0a0,0,0,0,1,0,0V9A9,9,0,0,1,9,0Z" fill="#3a1d71"/>
      <path id="Rect치ngulo_389226" data-name="Rect치ngulo 389226" d="M0,0H589a0,0,0,0,1,0,0V236.78a9,9,0,0,1-9,9H9a9,9,0,0,1-9-9V0A0,0,0,0,1,0,0Z" transform="translate(0 40)" fill="#110628"/>
      <g id="Grupo_1181759" data-name="Grupo 1181759" transform="translate(32 12)">
        <circle id="Elipse_11380" data-name="Elipse 11380" cx="8" cy="8" r="8" fill="#fb130d"/>
        <circle id="Elipse_11381" data-name="Elipse 11381" cx="8" cy="8" r="8" transform="translate(27)" fill="#fecd02"/>
        <circle id="Elipse_11382" data-name="Elipse 11382" cx="8" cy="8" r="8" transform="translate(53)" fill="#43dfaa"/>
      </g>
    </g>
    <text id="Inicio_Definir_contador_como_entero_contador_1_Mientras_contador_5_Hacer_Mostrar_Contador_es:_contador_contador_contador_1_Fin_Mientras_Fin" data-name="Inicio
    Definir contador como entero
    contador = 1

    Mientras contador &lt;= 5 Hacer
        Mostrar &quot;Contador es:&quot;, contador
        contador = contador + 1
    Fin Mientras
Fin" transform="translate(399.051 4591)" fill="#fff" font-size="16" font-family="SegoeUI, Segoe UI"><tspan x="0" y="17">Inicio</tspan><tspan x="0" y="40" xml:space="preserve">    Definir contador como entero</tspan><tspan x="0" y="63" xml:space="preserve">    contador = 1</tspan><tspan x="0" y="86"></tspan><tspan x="0" y="109" xml:space="preserve">    Mientras contador &lt;= 5 Hacer</tspan><tspan x="0" y="132" xml:space="preserve">        Mostrar &quot;Contador es:&quot;, contador</tspan><tspan x="0" y="155" xml:space="preserve">        contador = contador + 1</tspan><tspan x="0" y="178" xml:space="preserve">    Fin Mientras</tspan><tspan x="0" y="201">Fin</tspan></text>
  </g>
</svg>
