<svg xmlns="http://www.w3.org/2000/svg" xmlns:xlink="http://www.w3.org/1999/xlink" width="118" height="118" viewBox="0 0 118 118">
  <defs>
    <filter id="Trazado_896985" x="0" y="0" width="118" height="118" filterUnits="userSpaceOnUse">
      <feOffset dy="3" input="SourceAlpha"/>
      <feGaussianBlur stdDeviation="3" result="blur"/>
      <feFlood flood-opacity="0.161"/>
      <feComposite operator="in" in2="blur"/>
      <feComposite in="SourceGraphic"/>
    </filter>
  </defs>
  <g id="Grupo_1181631" data-name="Grupo 1181631" transform="translate(-324.72 -1656.43)">
    <g id="Grupo_1179748" data-name="Grupo 1179748" transform="translate(333.72 1662.43)">
      <g id="Grupo_1179021" data-name="Grupo 1179021">
        <g id="Grupo_1111320" data-name="Grupo 1111320" transform="translate(0 0)">
          <g id="Grupo_1109828" data-name="Grupo 1109828">
            <g id="Grupo_1098742" data-name="Grupo 1098742">
              <g transform="matrix(1, 0, 0, 1, -9, -6)" filter="url(#Trazado_896985)">
                <g id="Trazado_896985-2" data-name="Trazado 896985" transform="translate(9 6)" fill="#1bebf5" opacity="0.859">
                  <path d="M 49.99993896484375 98.5 C 43.45182418823242 98.5 37.10037994384766 97.21788787841797 31.12203979492188 94.68925476074219 C 25.34688186645508 92.24657440185547 20.15993881225586 88.74932861328125 15.70529651641846 84.29470062255859 C 11.25066757202148 79.84007263183594 7.753438949584961 74.65312957763672 5.310753345489502 68.87796783447266 C 2.782124757766724 62.89962768554688 1.499996066093445 56.54818725585938 1.499996066093445 50.00007247924805 C 1.499996066093445 43.45181274414062 2.782124757766724 37.10037231445312 5.310753345489502 31.12202835083008 C 7.753438949584961 25.34687232971191 11.25066757202148 20.1599292755127 15.70529651641846 15.70530033111572 C 20.15993881225586 11.25067138671875 25.34688186645508 7.75342845916748 31.12203979492188 5.310742855072021 C 37.10037994384766 2.782114267349243 43.45182418823242 1.5 49.99993896484375 1.5 C 56.54805374145508 1.5 62.89949798583984 2.782114267349243 68.87785339355469 5.310742855072021 C 74.65300750732422 7.75342845916748 79.83995056152344 11.25067138671875 84.29457855224609 15.70530033111572 C 88.74921417236328 20.1599292755127 92.24645233154297 25.34687232971191 94.68914031982422 31.12202835083008 C 97.21776580810547 37.10037231445312 98.49988555908203 43.45181274414062 98.49988555908203 49.99992752075195 C 98.49988555908203 56.54818725585938 97.21776580810547 62.89962768554688 94.68914031982422 68.87796783447266 C 92.24645233154297 74.65312957763672 88.74921417236328 79.84007263183594 84.29457855224609 84.29470062255859 C 79.83995056152344 88.74932861328125 74.65300750732422 92.24657440185547 68.87785339355469 94.68925476074219 C 62.89949798583984 97.21788787841797 56.54805374145508 98.5 49.99993896484375 98.5 Z" stroke="none"/>
                  <path d="M 49.99993896484375 3 C 43.65366363525391 3 37.49881744384766 4.242263793945312 31.70636749267578 6.6922607421875 C 26.11000061035156 9.059326171875 21.08332061767578 12.44860076904297 16.76596832275391 16.76595306396484 C 12.44860076904297 21.08332061767578 9.059326171875 26.11000061035156 6.6922607421875 31.70635223388672 C 4.242263793945312 37.49881362915039 3 43.65365982055664 3 50.00006103515625 C 3 56.34634017944336 4.242263793945312 62.50118637084961 6.6922607421875 68.29363250732422 C 9.059326171875 73.88999938964844 12.44860076904297 78.91667938232422 16.76596832275391 83.23403167724609 C 21.08332061767578 87.55139923095703 26.11000061035156 90.940673828125 31.70636749267578 93.3077392578125 C 37.49881744384766 95.75773620605469 43.65366363525391 97 49.99993896484375 97 C 56.34621429443359 97 62.50106048583984 95.75773620605469 68.29352569580078 93.3077392578125 C 73.88987731933594 90.940673828125 78.91654968261719 87.55139923095703 83.23392486572266 83.23403167724609 C 87.55127716064453 78.91667938232422 90.9405517578125 73.88999938964844 93.3076171875 68.29363250732422 C 95.75761413574219 62.50118637084961 96.9998779296875 56.34634017944336 96.9998779296875 49.99993896484375 C 96.9998779296875 43.65365982055664 95.75761413574219 37.49881362915039 93.3076171875 31.70635223388672 C 90.94056701660156 26.11000061035156 87.55127716064453 21.08332061767578 83.23392486572266 16.76595306396484 C 78.91654968261719 12.44860076904297 73.88987731933594 9.059310913085938 68.29352569580078 6.6922607421875 C 62.50106048583984 4.242263793945312 56.34621429443359 3 49.99993896484375 3 M 49.99993896484375 0 C 77.61415100097656 0 99.9998779296875 22.38571929931641 99.9998779296875 49.99993896484375 L 99.9998779296875 50.00006103515625 C 99.9998779296875 77.6142578125 77.61415100097656 100 49.99993896484375 100 C 22.3857421875 100 0 77.6142578125 0 50.00006103515625 L 0 49.99993896484375 C 0 22.38571929931641 22.3857421875 0 49.99993896484375 0 Z" stroke="none" fill="#fff"/>
                </g>
              </g>
              <g id="Rectángulo_400907" data-name="Rectángulo 400907" transform="translate(0)" fill="none" stroke="#fff" stroke-width="3">
                <rect width="100" height="100" rx="50" stroke="none"/>
                <rect x="1.5" y="1.5" width="97" height="97" rx="48.5" fill="none"/>
              </g>
            </g>
          </g>
        </g>
      </g>
    </g>
    <g id="puzzle_989003" transform="translate(349.299 1680.729)">
      <path id="Trazado_1049812" data-name="Trazado 1049812" d="M388.428,286.38v3.976a5.209,5.209,0,0,1-5.209,5.209h0a5.2,5.2,0,0,1-1.551-.235v17.751h14.9v-26.7Z" transform="translate(-334.405 -250.917)" fill="#0084ff"/>
      <path id="Trazado_1049813" data-name="Trazado 1049813" d="M388.428,29.275v-.654a5.209,5.209,0,0,0-5.209-5.209h0a5.206,5.206,0,0,0-1.551.235V64.926a5.206,5.206,0,0,0,1.551.235h0a5.209,5.209,0,0,0,5.209-5.209V55.976h8.142v-26.7Z" transform="translate(-334.405 -20.513)" fill="#ffd41d"/>
      <path id="Trazado_1049814" data-name="Trazado 1049814" d="M88.518,67.632a5.209,5.209,0,0,0-5.209-5.2H80.994V54.293H72.852V51.978s0-.008,0-.012H72.84a5.209,5.209,0,0,0-5.209,5.209V59.49H59.49v8.142H57.175a5.209,5.209,0,0,0-5.209,5.209h0s0,.008,0,.012h2.327v8.142h26.7V72.852h2.315a5.209,5.209,0,0,0,5.209-5.209h0S88.518,67.636,88.518,67.632Z" transform="translate(-45.531 -45.531)" fill="#92e03f"/>
      <path id="Trazado_1049815" data-name="Trazado 1049815" d="M164.975,304.937a5.206,5.206,0,0,0,5.206-5.206h0a5.206,5.206,0,0,0-5.206-5.206h-.732V286.38H146.98v7.764h2.726a5.586,5.586,0,0,1,5.586,5.586h0a5.586,5.586,0,0,1-5.586,5.586H146.98v7.764h17.262v-8.144Z" transform="translate(-128.779 -250.917)" fill="#f2427f"/>
      <path id="Trazado_1049816" data-name="Trazado 1049816" d="M62.164,7.524H55.235a6.448,6.448,0,0,0-12.842,0H28.56V6.447a6.447,6.447,0,0,0-12.894,0V7.524h-6.9A1.238,1.238,0,0,0,7.524,8.762v6.9H6.447a6.447,6.447,0,1,0,0,12.894H7.524V43.227a1.238,1.238,0,0,0,1.238,1.238h2.726a4.348,4.348,0,1,1,0,8.7H8.762A1.238,1.238,0,0,0,7.524,54.4v7.764A1.238,1.238,0,0,0,8.762,63.4h53.4A1.238,1.238,0,0,0,63.4,62.164V8.762A1.238,1.238,0,0,0,62.164,7.524ZM43.6,10a1.238,1.238,0,0,0,1.238-1.238V8.108a3.97,3.97,0,1,1,7.941,0v.654A1.238,1.238,0,0,0,54.022,10h6.9v9.828H54.247a1.238,1.238,0,1,0,0,2.477h6.678v11.92h-6.9a1.238,1.238,0,0,0-1.238,1.238v3.976a3.971,3.971,0,0,1-7.941,0V35.463A1.238,1.238,0,0,0,43.6,34.225H36.7V28.56h1.077a6.447,6.447,0,0,0,0-12.894H36.7V10ZM6.447,26.083a3.97,3.97,0,1,1,0-7.941H8.762A1.238,1.238,0,0,0,10,16.9V10h6.9a1.238,1.238,0,0,0,1.238-1.238V6.447a3.97,3.97,0,0,1,7.941,0V8.762A1.238,1.238,0,0,0,27.322,10h6.9v6.9a1.238,1.238,0,0,0,1.238,1.238h2.315a3.97,3.97,0,0,1,0,7.941H35.463a1.238,1.238,0,0,0-1.238,1.238v6.9h-11.6V27.547a1.238,1.238,0,1,0-2.477,0v6.678H10v-6.9a1.238,1.238,0,0,0-1.238-1.238ZM10,55.638h1.487a6.825,6.825,0,1,0,0-13.649H10V36.7H34.225v6.906h0a1.238,1.238,0,0,0,1.238,1.238H36.2a3.968,3.968,0,1,1,0,7.936h-.732a1.238,1.238,0,0,0-1.238,1.238v6.906h-7.9V54.247a1.238,1.238,0,0,0-2.477,0v6.678H10Zm26.7,5.288V55.239a6.445,6.445,0,0,0,0-12.85V36.7h5.665v2.738a6.447,6.447,0,1,0,12.894,0V36.7h5.665V51.372H54.247a1.238,1.238,0,0,0,0,2.477h6.678v7.077Z"/>
      <circle id="Elipse_12501" data-name="Elipse 12501" cx="1.238" cy="1.238" r="1.238" transform="translate(23.844 48.353)"/>
      <circle id="Elipse_12502" data-name="Elipse 12502" cx="1.238" cy="1.238" r="1.238" transform="translate(48.353 51.372)"/>
      <circle id="Elipse_12503" data-name="Elipse 12503" cx="1.238" cy="1.238" r="1.238" transform="translate(48.353 19.828)"/>
      <circle id="Elipse_12504" data-name="Elipse 12504" cx="1.238" cy="1.238" r="1.238" transform="translate(20.15 21.652)"/>
    </g>
  </g>
</svg>
