<svg xmlns="http://www.w3.org/2000/svg" xmlns:xlink="http://www.w3.org/1999/xlink" width="118" height="118" viewBox="0 0 118 118">
  <defs>
    <filter id="Trazado_896985" x="0" y="0" width="118" height="118" filterUnits="userSpaceOnUse">
      <feOffset dy="3" input="SourceAlpha"/>
      <feGaussianBlur stdDeviation="3" result="blur"/>
      <feFlood flood-opacity="0.161"/>
      <feComposite operator="in" in2="blur"/>
      <feComposite in="SourceGraphic"/>
    </filter>
  </defs>
  <g id="Grupo_1179746" data-name="Grupo 1179746" transform="translate(9 6)">
    <g id="Grupo_1179021" data-name="Grupo 1179021">
      <g id="Grupo_1111320" data-name="Grupo 1111320" transform="translate(0 0)">
        <g id="Grupo_1109828" data-name="Grupo 1109828">
          <g id="Grupo_1098742" data-name="Grupo 1098742">
            <g transform="matrix(1, 0, 0, 1, -9, -6)" filter="url(#Trazado_896985)">
              <g id="Trazado_896985-2" data-name="Trazado 896985" transform="translate(9 6)" fill="#1bebf5" opacity="0.859">
                <path d="M 49.99993896484375 98.5 C 43.45182418823242 98.5 37.10037994384766 97.21788787841797 31.12203979492188 94.68925476074219 C 25.34688186645508 92.24657440185547 20.15993881225586 88.74932861328125 15.70529651641846 84.29470062255859 C 11.25066757202148 79.84007263183594 7.753438949584961 74.65312957763672 5.310753345489502 68.87796783447266 C 2.782124757766724 62.89962768554688 1.499996066093445 56.54818725585938 1.499996066093445 50.00007247924805 C 1.499996066093445 43.45181274414062 2.782124757766724 37.10037231445312 5.310753345489502 31.12202835083008 C 7.753438949584961 25.34687232971191 11.25066757202148 20.1599292755127 15.70529651641846 15.70530033111572 C 20.15993881225586 11.25067138671875 25.34688186645508 7.75342845916748 31.12203979492188 5.310742855072021 C 37.10037994384766 2.782114267349243 43.45182418823242 1.5 49.99993896484375 1.5 C 56.54805374145508 1.5 62.89949798583984 2.782114267349243 68.87785339355469 5.310742855072021 C 74.65300750732422 7.75342845916748 79.83995056152344 11.25067138671875 84.29457855224609 15.70530033111572 C 88.74921417236328 20.1599292755127 92.24645233154297 25.34687232971191 94.68914031982422 31.12202835083008 C 97.21776580810547 37.10037231445312 98.49988555908203 43.45181274414062 98.49988555908203 49.99992752075195 C 98.49988555908203 56.54818725585938 97.21776580810547 62.89962768554688 94.68914031982422 68.87796783447266 C 92.24645233154297 74.65312957763672 88.74921417236328 79.84007263183594 84.29457855224609 84.29470062255859 C 79.83995056152344 88.74932861328125 74.65300750732422 92.24657440185547 68.87785339355469 94.68925476074219 C 62.89949798583984 97.21788787841797 56.54805374145508 98.5 49.99993896484375 98.5 Z" stroke="none"/>
                <path d="M 49.99993896484375 3 C 43.65366363525391 3 37.49881744384766 4.242263793945312 31.70636749267578 6.6922607421875 C 26.11000061035156 9.059326171875 21.08332061767578 12.44860076904297 16.76596832275391 16.76595306396484 C 12.44860076904297 21.08332061767578 9.059326171875 26.11000061035156 6.6922607421875 31.70635223388672 C 4.242263793945312 37.49881362915039 3 43.65365982055664 3 50.00006103515625 C 3 56.34634017944336 4.242263793945312 62.50118637084961 6.6922607421875 68.29363250732422 C 9.059326171875 73.88999938964844 12.44860076904297 78.91667938232422 16.76596832275391 83.23403167724609 C 21.08332061767578 87.55139923095703 26.11000061035156 90.940673828125 31.70636749267578 93.3077392578125 C 37.49881744384766 95.75773620605469 43.65366363525391 97 49.99993896484375 97 C 56.34621429443359 97 62.50106048583984 95.75773620605469 68.29352569580078 93.3077392578125 C 73.88987731933594 90.940673828125 78.91654968261719 87.55139923095703 83.23392486572266 83.23403167724609 C 87.55127716064453 78.91667938232422 90.9405517578125 73.88999938964844 93.3076171875 68.29363250732422 C 95.75761413574219 62.50118637084961 96.9998779296875 56.34634017944336 96.9998779296875 49.99993896484375 C 96.9998779296875 43.65365982055664 95.75761413574219 37.49881362915039 93.3076171875 31.70635223388672 C 90.94056701660156 26.11000061035156 87.55127716064453 21.08332061767578 83.23392486572266 16.76595306396484 C 78.91654968261719 12.44860076904297 73.88987731933594 9.059310913085938 68.29352569580078 6.6922607421875 C 62.50106048583984 4.242263793945312 56.34621429443359 3 49.99993896484375 3 M 49.99993896484375 0 C 77.61415100097656 0 99.9998779296875 22.38571929931641 99.9998779296875 49.99993896484375 L 99.9998779296875 50.00006103515625 C 99.9998779296875 77.6142578125 77.61415100097656 100 49.99993896484375 100 C 22.3857421875 100 0 77.6142578125 0 50.00006103515625 L 0 49.99993896484375 C 0 22.38571929931641 22.3857421875 0 49.99993896484375 0 Z" stroke="none" fill="#fff"/>
              </g>
            </g>
            <g id="Rectángulo_400907" data-name="Rectángulo 400907" transform="translate(0)" fill="none" stroke="#fff" stroke-width="3">
              <rect width="100" height="100" rx="50" stroke="none"/>
              <rect x="1.5" y="1.5" width="97" height="97" rx="48.5" fill="none"/>
            </g>
          </g>
        </g>
      </g>
    </g>
    <g id="online-course_9013869" transform="translate(-11.311 -51.002)">
      <g id="Grupo_1181630" data-name="Grupo 1181630" transform="translate(27.67 74.42)">
        <g id="Grupo_1181629" data-name="Grupo 1181629" transform="translate(0)">
          <g id="Grupo_1181614" data-name="Grupo 1181614">
            <g id="Grupo_1181585" data-name="Grupo 1181585">
              <g id="Grupo_1181530" data-name="Grupo 1181530" transform="translate(6.394 0.344)">
                <path id="Trazado_1049739" data-name="Trazado 1049739" d="M102.627,79.817v32.6a4.249,4.249,0,0,1-4.247,4.244H53.267a4.249,4.249,0,0,1-4.247-4.244v-32.6a4.245,4.245,0,0,1,4.247-4.247H98.38a4.245,4.245,0,0,1,4.247,4.247Z" transform="translate(-49.02 -75.57)" fill="#e1e1f1"/>
              </g>
              <g id="Grupo_1181531" data-name="Grupo 1181531" transform="translate(6.873 0.824)" opacity="0.15">
                <path id="Trazado_1049740" data-name="Trazado 1049740" d="M103.748,80.938v32.6a4.249,4.249,0,0,1-4.247,4.244H54.388a4.236,4.236,0,0,1-3.768-2.294,4.191,4.191,0,0,0,1.95.479h46.8c2.342,0,2.564-1.9,2.564-4.247V79.12a4.259,4.259,0,0,0-.47-1.95,4.249,4.249,0,0,1,2.282,3.768Z" transform="translate(-50.62 -77.17)"/>
              </g>
              <g id="Grupo_1181532" data-name="Grupo 1181532" transform="translate(6.047)">
                <path id="Trazado_1049741" data-name="Trazado 1049741" d="M97.568,116.2H52.454a4.6,4.6,0,0,1-4.594-4.591v-32.6a4.6,4.6,0,0,1,4.594-4.591H97.571a4.6,4.6,0,0,1,4.591,4.591v32.6A4.6,4.6,0,0,1,97.568,116.2ZM52.454,75.112a3.9,3.9,0,0,0-3.9,3.9v32.6a3.9,3.9,0,0,0,3.9,3.9H97.571a3.9,3.9,0,0,0,3.9-3.9v-32.6a3.9,3.9,0,0,0-3.9-3.9Z" transform="translate(-47.86 -74.42)" fill="#5a050a"/>
              </g>
              <g id="Grupo_1181533" data-name="Grupo 1181533" transform="translate(6.394 0.344)" opacity="0.15">
                <path id="Trazado_1049742" data-name="Trazado 1049742" d="M84.723,75.57c-.551.036-1.108.069-1.656.1q-5.13.274-10.264.557c-2.989.165-5.981.326-8.94.77-2.183.326-4.678.8-6.832,1.279a9.254,9.254,0,0,0-3.8,1.456c-2.019,1.572-2.471,4.594-2.57,7.155-.249,6.544.875,9.233-.656,19.413-.087.587.2,3.57-.078,4.091-.237.446.509.371.4.863-.213,1-.479,2.279-1.09,2.522L49.02,79.817a4.245,4.245,0,0,1,4.247-4.247Z" transform="translate(-49.02 -75.57)" fill="#fff"/>
              </g>
              <g id="Grupo_1181534" data-name="Grupo 1181534" transform="translate(6.047)">
                <path id="Trazado_1049743" data-name="Trazado 1049743" d="M97.568,116.2H52.454a4.6,4.6,0,0,1-4.594-4.591v-32.6a4.6,4.6,0,0,1,4.594-4.591H97.571a4.6,4.6,0,0,1,4.591,4.591v32.6A4.6,4.6,0,0,1,97.568,116.2ZM52.454,75.112a3.9,3.9,0,0,0-3.9,3.9v32.6a3.9,3.9,0,0,0,3.9,3.9H97.571a3.9,3.9,0,0,0,3.9-3.9v-32.6a3.9,3.9,0,0,0-3.9-3.9Z" transform="translate(-47.86 -74.42)"/>
              </g>
              <g id="Grupo_1181535" data-name="Grupo 1181535" transform="translate(10.027 3.615)">
                <path id="Trazado_1049744" data-name="Trazado 1049744" d="M107.156,87.466V115.73a.976.976,0,0,1-.976.973H62.126a.991.991,0,0,1-.38-.078.972.972,0,0,1-.6-.9V87.466a.977.977,0,0,1,.976-.976h44.05a1.015,1.015,0,0,1,.38.078.971.971,0,0,1,.6.9Z" transform="translate(-61.15 -86.49)" fill="#6191f7"/>
              </g>
              <g id="Grupo_1181536" data-name="Grupo 1181536" transform="translate(10.027 3.612)" opacity="0.15">
                <path id="Trazado_1049745" data-name="Trazado 1049745" d="M107.153,87.459v28.264a.975.975,0,0,1-.973.973h-.419V88.858a.971.971,0,0,0-.6-.9.937.937,0,0,0-.377-.081H61.15v-.419a.984.984,0,0,1,.979-.979h44.05a.948.948,0,0,1,.377.081A.969.969,0,0,1,107.153,87.459Z" transform="translate(-61.15 -86.48)"/>
              </g>
              <g id="Grupo_1181537" data-name="Grupo 1181537" transform="translate(9.68 3.268)">
                <path id="Trazado_1049746" data-name="Trazado 1049746" d="M105.367,116.238H61.314a1.324,1.324,0,0,1-1.324-1.324V86.654a1.324,1.324,0,0,1,1.324-1.324h44.053a1.324,1.324,0,0,1,1.324,1.324v28.264A1.327,1.327,0,0,1,105.367,116.238ZM61.314,86.025a.629.629,0,0,0-.629.629v28.264a.629.629,0,0,0,.629.629h44.053a.629.629,0,0,0,.629-.629V86.654a.629.629,0,0,0-.629-.629Z" transform="translate(-59.99 -85.33)"/>
              </g>
              <g id="Grupo_1181538" data-name="Grupo 1181538" transform="translate(21.198 41.438)">
                <path id="Trazado_1049747" data-name="Trazado 1049747" d="M102.02,212.78h16.529l3.57,4.777H98.45Z" transform="translate(-98.45 -212.78)" fill="#524959"/>
              </g>
              <g id="Grupo_1181539" data-name="Grupo 1181539" transform="translate(21.195 41.441)" opacity="0.15">
                <path id="Trazado_1049748" data-name="Trazado 1049748" d="M98.44,217.564l3.573-4.774h16.529l.892,1.791h-9.629c-3.675,0-7.041-.305-8.679,2.986Z" transform="translate(-98.44 -212.79)"/>
              </g>
              <g id="Grupo_1181540" data-name="Grupo 1181540" transform="translate(20.85 41.094)">
                <path id="Trazado_1049749" data-name="Trazado 1049749" d="M121.3,217.1H97.636a.351.351,0,0,1-.311-.192.345.345,0,0,1,.033-.362l3.57-4.777a.348.348,0,0,1,.279-.138h16.529a.348.348,0,0,1,.279.138l3.57,4.777a.346.346,0,0,1-.279.554ZM98.327,216.4h22.286l-3.052-4.082H101.379Z" transform="translate(-97.287 -211.63)"/>
              </g>
              <g id="Grupo_1181541" data-name="Grupo 1181541" transform="translate(15.535 46.212)">
                <path id="Trazado_1049750" data-name="Trazado 1049750" d="M114.527,230.924a2.209,2.209,0,0,1-2.2,2.207H81.744a2.206,2.206,0,0,1,0-4.412h30.582a2.207,2.207,0,0,1,2.2,2.2Z" transform="translate(-79.54 -228.72)" fill="#e1e1f1"/>
              </g>
              <g id="Grupo_1181542" data-name="Grupo 1181542" transform="translate(15.58 46.212)" opacity="0.15">
                <path id="Trazado_1049751" data-name="Trazado 1049751" d="M114.632,230.924a2.213,2.213,0,0,1-1.758,2.162,2.21,2.21,0,0,0-2.159-2.654H80.136a2.189,2.189,0,0,0-.446.045,2.225,2.225,0,0,1,.6-1.111,2.2,2.2,0,0,1,1.557-.647h30.582A2.207,2.207,0,0,1,114.632,230.924Z" transform="translate(-79.69 -228.72)"/>
              </g>
              <g id="Grupo_1181543" data-name="Grupo 1181543" transform="translate(15.19 45.868)">
                <path id="Trazado_1049752" data-name="Trazado 1049752" d="M111.52,232.673H80.939a2.552,2.552,0,0,1,0-5.1H111.52a2.55,2.55,0,0,1,1.8,4.355,2.511,2.511,0,0,1-1.8.749Zm-30.582-4.412a1.858,1.858,0,0,0,0,3.717H111.52a1.86,1.86,0,0,0,0-3.72H80.939Z" transform="translate(-78.39 -227.57)" fill="#5a050a"/>
              </g>
              <g id="Grupo_1181544" data-name="Grupo 1181544" transform="translate(0 50.277)">
                <path id="Trazado_1049753" data-name="Trazado 1049753" d="M93.38,242.985H28.017a.347.347,0,1,1,0-.695H93.38a.347.347,0,1,1,0,.695Z" transform="translate(-27.67 -242.29)"/>
              </g>
              <g id="Grupo_1181547" data-name="Grupo 1181547" transform="translate(10.623 36.215)">
                <g id="Grupo_1181545" data-name="Grupo 1181545" transform="translate(0 0.003)">
                  <path id="Trazado_1049754" data-name="Trazado 1049754" d="M65.967,195.916v1.692a.568.568,0,0,1-.566.569h-1.7a.568.568,0,0,1-.566-.569v-1.692a.568.568,0,0,1,.566-.566h1.7A.566.566,0,0,1,65.967,195.916Z" transform="translate(-63.14 -195.35)" fill="#433758"/>
                </g>
                <g id="Grupo_1181546" data-name="Grupo 1181546" opacity="0.15">
                  <path id="Trazado_1049755" data-name="Trazado 1049755" d="M65.967,195.909V197.6a.568.568,0,0,1-.566.569h-1.7a.568.568,0,0,1-.566-.569v-.1h1.59a.568.568,0,0,0,.566-.569V195.34h.1a.57.57,0,0,1,.566.569Z" transform="translate(-63.14 -195.34)"/>
                </g>
              </g>
              <g id="Grupo_1181550" data-name="Grupo 1181550" transform="translate(14.496 36.215)">
                <g id="Grupo_1181548" data-name="Grupo 1181548" transform="translate(0 0.003)">
                  <path id="Trazado_1049756" data-name="Trazado 1049756" d="M78.9,195.916v1.692a.568.568,0,0,1-.566.569h-1.7a.568.568,0,0,1-.566-.569v-1.692a.568.568,0,0,1,.566-.566h1.7a.568.568,0,0,1,.566.566Z" transform="translate(-76.07 -195.35)" fill="#433758"/>
                </g>
                <g id="Grupo_1181549" data-name="Grupo 1181549" transform="translate(0)" opacity="0.15">
                  <path id="Trazado_1049757" data-name="Trazado 1049757" d="M78.9,195.909V197.6a.568.568,0,0,1-.566.569h-1.7a.568.568,0,0,1-.566-.569v-.1h1.59a.568.568,0,0,0,.566-.569V195.34h.1a.572.572,0,0,1,.566.569Z" transform="translate(-76.07 -195.34)"/>
                </g>
              </g>
              <g id="Grupo_1181553" data-name="Grupo 1181553" transform="translate(18.368 36.215)">
                <g id="Grupo_1181551" data-name="Grupo 1181551" transform="translate(0 0.003)">
                  <path id="Trazado_1049758" data-name="Trazado 1049758" d="M91.827,195.916v1.692a.568.568,0,0,1-.566.569h-1.7a.568.568,0,0,1-.566-.569v-1.692a.568.568,0,0,1,.566-.566h1.7A.568.568,0,0,1,91.827,195.916Z" transform="translate(-89 -195.35)" fill="#433758"/>
                </g>
                <g id="Grupo_1181552" data-name="Grupo 1181552" opacity="0.15">
                  <path id="Trazado_1049759" data-name="Trazado 1049759" d="M91.827,195.909V197.6a.568.568,0,0,1-.566.569h-1.7A.568.568,0,0,1,89,197.6v-.1h1.59a.568.568,0,0,0,.566-.569V195.34h.1a.572.572,0,0,1,.566.569Z" transform="translate(-89 -195.34)"/>
                </g>
              </g>
              <g id="Grupo_1181559" data-name="Grupo 1181559" transform="translate(13.343 6.185)">
                <g id="Grupo_1181554" data-name="Grupo 1181554" opacity="0.26">
                  <path id="Trazado_1049760" data-name="Trazado 1049760" d="M109.447,95.07H74.367a2.147,2.147,0,0,0-2.147,2.147V110.9a2.147,2.147,0,0,0,2.147,2.147h35.077a2.147,2.147,0,0,0,2.144-2.147V97.217a2.146,2.146,0,0,0-2.141-2.147ZM91.906,111.2a7.145,7.145,0,1,1,7.146-7.146A7.145,7.145,0,0,1,91.906,111.2Z" transform="translate(-72.22 -95.07)" fill="#fff"/>
                </g>
                <g id="Grupo_1181555" data-name="Grupo 1181555" transform="translate(17.179 4.894)" opacity="0.15">
                  <path id="Trazado_1049761" data-name="Trazado 1049761" d="M136.747,117.208l-5.247,3.543a1.231,1.231,0,0,1-1.92-1.021v-7.086a1.231,1.231,0,0,1,1.92-1.021l5.247,3.543A1.231,1.231,0,0,1,136.747,117.208Z" transform="translate(-129.58 -111.41)"/>
                </g>
                <g id="Grupo_1181556" data-name="Grupo 1181556" transform="translate(16.496 4.211)">
                  <path id="Trazado_1049762" data-name="Trazado 1049762" d="M134.467,114.928l-5.247,3.543a1.231,1.231,0,0,1-1.92-1.021v-7.086a1.231,1.231,0,0,1,1.92-1.021l5.247,3.543A1.231,1.231,0,0,1,134.467,114.928Z" transform="translate(-127.3 -109.13)" fill="#ee1c2f"/>
                </g>
                <g id="Grupo_1181557" data-name="Grupo 1181557" transform="translate(16.499 4.204)" opacity="0.26">
                  <path id="Trazado_1049763" data-name="Trazado 1049763" d="M135.019,113.905l-3.732-2.519a1.228,1.228,0,0,0-1.917,1.018v5.951l-.141.1a1.233,1.233,0,0,1-1.92-1.024v-7.086a1.233,1.233,0,0,1,1.92-1.024l5.247,3.543a1.26,1.26,0,0,1,.542,1.045Z" transform="translate(-127.31 -109.106)" fill="#fff"/>
                </g>
                <g id="Grupo_1181558" data-name="Grupo 1181558" transform="translate(16.149 3.866)">
                  <path id="Trazado_1049764" data-name="Trazado 1049764" d="M127.718,118.222a1.6,1.6,0,0,1-.743-.186,1.553,1.553,0,0,1-.836-1.393v-7.086a1.553,1.553,0,0,1,.836-1.393,1.58,1.58,0,0,1,1.626.084l5.247,3.543a1.58,1.58,0,0,1,0,2.618l-5.247,3.543A1.6,1.6,0,0,1,127.718,118.222Zm0-9.554a.915.915,0,0,0-.419.1.87.87,0,0,0-.467.779v7.086a.883.883,0,0,0,1.378.734l5.247-3.543a.863.863,0,0,0,.389-.734.878.878,0,0,0-.389-.734l-5.247-3.543a.917.917,0,0,0-.491-.15Z" transform="translate(-126.14 -107.979)" fill="#5a050a"/>
                </g>
              </g>
              <g id="Grupo_1181584" data-name="Grupo 1181584" transform="translate(14.364 25.763)">
                <g id="Grupo_1181571" data-name="Grupo 1181571">
                  <g id="Grupo_1181563" data-name="Grupo 1181563" transform="translate(0.003)">
                    <g id="Grupo_1181560" data-name="Grupo 1181560" opacity="0.15">
                      <path id="Trazado_1049765" data-name="Trazado 1049765" d="M81.187,160.985a.542.542,0,0,1-.545.545h-4.46a.545.545,0,0,1,0-1.09h4.46A.549.549,0,0,1,81.187,160.985Z" transform="translate(-75.64 -160.44)"/>
                    </g>
                    <g id="Grupo_1181561" data-name="Grupo 1181561" transform="translate(14.666)" opacity="0.15">
                      <path id="Trazado_1049766" data-name="Trazado 1049766" d="M127.087,160.985a.542.542,0,0,1-.545.545h-1.39a.545.545,0,0,1,0-1.09h1.39A.547.547,0,0,1,127.087,160.985Z" transform="translate(-124.61 -160.44)"/>
                    </g>
                    <g id="Grupo_1181562" data-name="Grupo 1181562" transform="translate(6.292)" opacity="0.15">
                      <path id="Trazado_1049767" data-name="Trazado 1049767" d="M104.284,160.985a.542.542,0,0,1-.545.545H97.192a.545.545,0,0,1,0-1.09h6.547A.549.549,0,0,1,104.284,160.985Z" transform="translate(-96.65 -160.44)"/>
                    </g>
                  </g>
                  <g id="Grupo_1181567" data-name="Grupo 1181567" transform="translate(0 2.378)">
                    <g id="Grupo_1181564" data-name="Grupo 1181564" transform="translate(11.6)" opacity="0.15">
                      <path id="Trazado_1049768" data-name="Trazado 1049768" d="M114.36,168.925a.542.542,0,0,0,.545.545h4.46a.545.545,0,0,0,0-1.09h-4.46A.547.547,0,0,0,114.36,168.925Z" transform="translate(-114.36 -168.38)"/>
                    </g>
                    <g id="Grupo_1181565" data-name="Grupo 1181565" opacity="0.15">
                      <path id="Trazado_1049769" data-name="Trazado 1049769" d="M75.63,168.925a.542.542,0,0,0,.545.545h1.39a.545.545,0,0,0,0-1.09h-1.39A.549.549,0,0,0,75.63,168.925Z" transform="translate(-75.63 -168.38)"/>
                    </g>
                    <g id="Grupo_1181566" data-name="Grupo 1181566" transform="translate(3.22)" opacity="0.15">
                      <path id="Trazado_1049770" data-name="Trazado 1049770" d="M86.38,168.925a.542.542,0,0,0,.545.545h6.547a.545.545,0,0,0,0-1.09H86.925A.547.547,0,0,0,86.38,168.925Z" transform="translate(-86.38 -168.38)"/>
                    </g>
                  </g>
                  <g id="Grupo_1181570" data-name="Grupo 1181570" transform="translate(0.003 4.756)">
                    <g id="Grupo_1181568" data-name="Grupo 1181568" opacity="0.15">
                      <path id="Trazado_1049771" data-name="Trazado 1049771" d="M81.187,176.865a.542.542,0,0,1-.545.545h-4.46a.545.545,0,0,1,0-1.09h4.46A.547.547,0,0,1,81.187,176.865Z" transform="translate(-75.64 -176.32)"/>
                    </g>
                    <g id="Grupo_1181569" data-name="Grupo 1181569" transform="translate(6.292)" opacity="0.15">
                      <path id="Trazado_1049772" data-name="Trazado 1049772" d="M104.284,176.865a.542.542,0,0,1-.545.545H97.192a.545.545,0,0,1,0-1.09h6.547A.547.547,0,0,1,104.284,176.865Z" transform="translate(-96.65 -176.32)"/>
                    </g>
                  </g>
                </g>
                <g id="Grupo_1181583" data-name="Grupo 1181583" transform="translate(20.183)">
                  <g id="Grupo_1181575" data-name="Grupo 1181575" transform="translate(0)">
                    <g id="Grupo_1181572" data-name="Grupo 1181572" opacity="0.15">
                      <path id="Trazado_1049773" data-name="Trazado 1049773" d="M148.567,160.985a.542.542,0,0,1-.545.545h-4.46a.545.545,0,0,1,0-1.09h4.46a.547.547,0,0,1,.545.545Z" transform="translate(-143.02 -160.44)"/>
                    </g>
                    <g id="Grupo_1181573" data-name="Grupo 1181573" transform="translate(14.666)" opacity="0.15">
                      <path id="Trazado_1049774" data-name="Trazado 1049774" d="M194.467,160.985a.542.542,0,0,1-.545.545h-1.39a.545.545,0,0,1,0-1.09h1.39A.547.547,0,0,1,194.467,160.985Z" transform="translate(-191.99 -160.44)"/>
                    </g>
                    <g id="Grupo_1181574" data-name="Grupo 1181574" transform="translate(6.292)" opacity="0.15">
                      <path id="Trazado_1049775" data-name="Trazado 1049775" d="M171.664,160.985a.542.542,0,0,1-.545.545h-6.547a.545.545,0,0,1,0-1.09h6.547a.547.547,0,0,1,.545.545Z" transform="translate(-164.03 -160.44)"/>
                    </g>
                  </g>
                  <g id="Grupo_1181579" data-name="Grupo 1181579" transform="translate(0 2.378)">
                    <g id="Grupo_1181576" data-name="Grupo 1181576" transform="translate(11.597)" opacity="0.15">
                      <path id="Trazado_1049776" data-name="Trazado 1049776" d="M181.74,168.925a.542.542,0,0,0,.545.545h4.46a.545.545,0,0,0,0-1.09h-4.46A.549.549,0,0,0,181.74,168.925Z" transform="translate(-181.74 -168.38)"/>
                    </g>
                    <g id="Grupo_1181577" data-name="Grupo 1181577" opacity="0.15">
                      <path id="Trazado_1049777" data-name="Trazado 1049777" d="M143.02,168.925a.542.542,0,0,0,.545.545h1.39a.545.545,0,0,0,0-1.09h-1.39A.547.547,0,0,0,143.02,168.925Z" transform="translate(-143.02 -168.38)"/>
                    </g>
                    <g id="Grupo_1181578" data-name="Grupo 1181578" transform="translate(3.217)" opacity="0.15">
                      <path id="Trazado_1049778" data-name="Trazado 1049778" d="M153.76,168.925a.542.542,0,0,0,.545.545h6.547a.545.545,0,0,0,0-1.09h-6.547A.549.549,0,0,0,153.76,168.925Z" transform="translate(-153.76 -168.38)"/>
                    </g>
                  </g>
                  <g id="Grupo_1181582" data-name="Grupo 1181582" transform="translate(0 4.756)">
                    <g id="Grupo_1181580" data-name="Grupo 1181580" opacity="0.15">
                      <path id="Trazado_1049779" data-name="Trazado 1049779" d="M148.567,176.865a.542.542,0,0,1-.545.545h-4.46a.545.545,0,0,1,0-1.09h4.46a.545.545,0,0,1,.545.545Z" transform="translate(-143.02 -176.32)"/>
                    </g>
                    <g id="Grupo_1181581" data-name="Grupo 1181581" transform="translate(6.292)" opacity="0.15">
                      <path id="Trazado_1049780" data-name="Trazado 1049780" d="M171.664,176.865a.542.542,0,0,1-.545.545h-6.547a.545.545,0,0,1,0-1.09h6.547a.545.545,0,0,1,.545.545Z" transform="translate(-164.03 -176.32)"/>
                    </g>
                  </g>
                </g>
              </g>
            </g>
            <g id="Grupo_1181596" data-name="Grupo 1181596" transform="translate(39.549 40.648)">
              <g id="Grupo_1181586" data-name="Grupo 1181586" transform="translate(1.767 3.19)">
                <path id="Trazado_1049781" data-name="Trazado 1049781" d="M165.62,220.79h23.807V225.2H165.62Z" transform="translate(-165.62 -220.79)" fill="#fff"/>
              </g>
              <g id="Grupo_1181587" data-name="Grupo 1181587" transform="translate(1.767 3.19)" opacity="0.15">
                <path id="Trazado_1049782" data-name="Trazado 1049782" d="M189.427,225.2H165.62l23.807-4.412Z" transform="translate(-165.62 -220.79)"/>
              </g>
              <g id="Grupo_1181589" data-name="Grupo 1181589" transform="translate(0.347 0.347)">
                <g id="Grupo_1181588" data-name="Grupo 1181588">
                  <path id="Trazado_1049783" data-name="Trazado 1049783" d="M183.13,220.884H162.3a1.42,1.42,0,1,1,0-2.839h20.83a1.953,1.953,0,1,0,0-3.905H162.3a1.42,1.42,0,1,1,0-2.839h20.83a4.792,4.792,0,1,1,0,9.584Z" transform="translate(-160.88 -211.3)" fill="#90d542"/>
                </g>
              </g>
              <g id="Grupo_1181591" data-name="Grupo 1181591" transform="translate(0.347 0.347)">
                <g id="Grupo_1181590" data-name="Grupo 1181590">
                  <path id="Trazado_1049784" data-name="Trazado 1049784" d="M183.13,220.884H162.3a1.42,1.42,0,1,1,0-2.839h20.83a1.953,1.953,0,1,0,0-3.905H162.3a1.42,1.42,0,1,1,0-2.839h20.83a4.792,4.792,0,1,1,0,9.584Z" transform="translate(-160.88 -211.3)" fill="#ee1c2f"/>
                </g>
              </g>
              <g id="Grupo_1181593" data-name="Grupo 1181593" transform="translate(0.356 0.353)" opacity="0.25">
                <g id="Grupo_1181592" data-name="Grupo 1181592">
                  <path id="Trazado_1049785" data-name="Trazado 1049785" d="M187.943,216.109a4.777,4.777,0,0,1-2.09,3.953,4.731,4.731,0,0,0,.836-2.7,4.8,4.8,0,0,0-4.792-4.789h-20.83a1.322,1.322,0,0,0-.156.009,1.418,1.418,0,0,1,1.411-1.261h20.83A4.794,4.794,0,0,1,187.943,216.109Z" transform="translate(-160.91 -211.32)" fill="#fff"/>
                </g>
              </g>
              <g id="Grupo_1181595" data-name="Grupo 1181595">
                <g id="Grupo_1181594" data-name="Grupo 1181594">
                  <path id="Trazado_1049786" data-name="Trazado 1049786" d="M182.317,220.419h-20.83a1.767,1.767,0,1,1,0-3.534h20.83a1.605,1.605,0,0,0,0-3.211h-20.83a1.767,1.767,0,1,1,0-3.534h20.83a5.139,5.139,0,0,1,0,10.279Zm-20.83-2.839a1.072,1.072,0,1,0,0,2.144h20.83a4.445,4.445,0,1,0,0-8.889h-20.83a1.072,1.072,0,1,0,0,2.144h20.83a2.3,2.3,0,1,1,0,4.594h-20.83Z" transform="translate(-159.72 -210.14)"/>
                </g>
              </g>
            </g>
            <g id="Grupo_1181607" data-name="Grupo 1181607" transform="translate(38.509 31.082)">
              <g id="Grupo_1181597" data-name="Grupo 1181597" transform="translate(2.158 3.184)">
                <path id="Trazado_1049787" data-name="Trazado 1049787" d="M0,0H23.807V4.412H0Z" transform="translate(23.807 4.412) rotate(180)" fill="#fff"/>
              </g>
              <g id="Grupo_1181598" data-name="Grupo 1181598" transform="translate(2.159 3.184)" opacity="0.15">
                <path id="Trazado_1049788" data-name="Trazado 1049788" d="M163.46,193.242h23.807L163.46,188.83Z" transform="translate(-163.46 -188.83)"/>
              </g>
              <g id="Grupo_1181600" data-name="Grupo 1181600" transform="translate(0.344 0.341)">
                <g id="Grupo_1181599" data-name="Grupo 1181599">
                  <path id="Trazado_1049789" data-name="Trazado 1049789" d="M162.192,188.924h20.83a1.42,1.42,0,1,0,0-2.839h-20.83a1.953,1.953,0,0,1,0-3.905h20.83a1.42,1.42,0,1,0,0-2.839h-20.83a4.792,4.792,0,0,0,0,9.584Z" transform="translate(-157.4 -179.34)" fill="#90d542"/>
                </g>
              </g>
              <g id="Grupo_1181602" data-name="Grupo 1181602" transform="translate(0.344 0.341)">
                <g id="Grupo_1181601" data-name="Grupo 1181601">
                  <path id="Trazado_1049790" data-name="Trazado 1049790" d="M162.192,188.924h20.83a1.42,1.42,0,1,0,0-2.839h-20.83a1.953,1.953,0,0,1,0-3.905h20.83a1.42,1.42,0,1,0,0-2.839h-20.83a4.792,4.792,0,0,0,0,9.584Z" transform="translate(-157.4 -179.34)" fill="#fece00"/>
                </g>
              </g>
              <g id="Grupo_1181604" data-name="Grupo 1181604" transform="translate(0.344 0.347)" opacity="0.25">
                <g id="Grupo_1181603" data-name="Grupo 1181603">
                  <path id="Trazado_1049791" data-name="Trazado 1049791" d="M157.4,184.149a4.777,4.777,0,0,0,2.09,3.953,4.731,4.731,0,0,1-.836-2.7,4.8,4.8,0,0,1,4.792-4.789h20.83a1.322,1.322,0,0,1,.156.009,1.418,1.418,0,0,0-1.411-1.261h-20.83A4.794,4.794,0,0,0,157.4,184.149Z" transform="translate(-157.4 -179.36)" fill="#fff"/>
                </g>
              </g>
              <g id="Grupo_1181606" data-name="Grupo 1181606">
                <g id="Grupo_1181605" data-name="Grupo 1181605">
                  <path id="Trazado_1049792" data-name="Trazado 1049792" d="M182.216,188.473h-20.83a5.136,5.136,0,1,1,0-10.273h20.83a1.767,1.767,0,1,1,0,3.534h-20.83a1.605,1.605,0,1,0,0,3.211h20.83a1.764,1.764,0,1,1,0,3.528Zm-20.83-9.581a4.445,4.445,0,1,0,0,8.889h20.83a1.072,1.072,0,0,0,0-2.144h-20.83a2.3,2.3,0,1,1,0-4.594h20.83a1.072,1.072,0,0,0,0-2.144h-20.83Z" transform="translate(-156.25 -178.2)"/>
                </g>
              </g>
            </g>
            <g id="Grupo_1181613" data-name="Grupo 1181613" transform="translate(0.632 35.88)">
              <g id="Grupo_1181608" data-name="Grupo 1181608" transform="translate(3.196 0.347)">
                <path id="Trazado_1049793" data-name="Trazado 1049793" d="M40.45,195.38v12.007a2.343,2.343,0,0,0,2.345,2.345h7.769a2.345,2.345,0,0,0,2.345-2.345V195.38Z" transform="translate(-40.45 -195.38)" fill="#b98a6c"/>
              </g>
              <g id="Grupo_1181609" data-name="Grupo 1181609" transform="translate(3.345 0.347)" opacity="0.25">
                <path id="Trazado_1049794" data-name="Trazado 1049794" d="M40.95,208.216a2.343,2.343,0,0,0,2.192,1.515h7.769a2.345,2.345,0,0,0,2.345-2.345V195.38H51.891v10.641a2.345,2.345,0,0,1-2.345,2.345H41.777A2.3,2.3,0,0,1,40.95,208.216Z" transform="translate(-40.95 -195.38)" fill="#fff"/>
              </g>
              <g id="Grupo_1181610" data-name="Grupo 1181610" transform="translate(3.196 0.344)" opacity="0.15">
                <path id="Trazado_1049795" data-name="Trazado 1049795" d="M40.45,195.373v11.093a3.583,3.583,0,0,0,1.177-1.309,4.058,4.058,0,0,0,.374-1.21c.264-1.617-.165-3.259-.195-4.9-.012-.707.048-1.417-.033-2.117a8.847,8.847,0,0,0-.368-1.563H40.45Z" transform="translate(-40.45 -195.37)"/>
              </g>
              <g id="Grupo_1181611" data-name="Grupo 1181611" transform="translate(2.848)">
                <path id="Trazado_1049796" data-name="Trazado 1049796" d="M49.748,209.267H41.982a2.694,2.694,0,0,1-2.692-2.692V194.567a.348.348,0,0,1,.347-.347H52.1a.348.348,0,0,1,.347.347v12.007A2.7,2.7,0,0,1,49.748,209.267Zm-9.767-14.352v11.662a2,2,0,0,0,2,2h7.769a2,2,0,0,0,2-2V194.915Z" transform="translate(-39.29 -194.22)"/>
              </g>
              <g id="Grupo_1181612" data-name="Grupo 1181612" transform="translate(0 2.645)">
                <path id="Trazado_1049797" data-name="Trazado 1049797" d="M32.976,209.956H31.334A1.557,1.557,0,0,1,29.78,208.4V204.6a1.557,1.557,0,0,1,1.554-1.554h1.641a.348.348,0,0,1,.347.347v6.215A.347.347,0,0,1,32.976,209.956Zm-1.641-6.215a.863.863,0,0,0-.863.863V208.4a.863.863,0,0,0,.863.863h1.294v-5.52Z" transform="translate(-29.78 -203.05)"/>
              </g>
            </g>
          </g>
          <g id="Grupo_1181628" data-name="Grupo 1181628" transform="translate(8.329 44.913)">
            <g id="Grupo_1181615" data-name="Grupo 1181615" transform="translate(0.344 0.347)">
              <path id="Trazado_1049798" data-name="Trazado 1049798" d="M59.293,225.54H79.179v5.319H59.293a2.66,2.66,0,1,1,0-5.319Z" transform="translate(-56.63 -225.54)" fill="#91d834"/>
            </g>
            <g id="Grupo_1181616" data-name="Grupo 1181616" transform="translate(0.347 0.347)">
              <path id="Trazado_1049799" data-name="Trazado 1049799" d="M62.558,225.54H59.3a2.66,2.66,0,0,0,0,5.319h3.259Z" transform="translate(-56.64 -225.54)" fill="#ee1c2f"/>
            </g>
            <g id="Grupo_1181617" data-name="Grupo 1181617" transform="translate(0)">
              <path id="Trazado_1049800" data-name="Trazado 1049800" d="M61.745,230.394H58.487a3.007,3.007,0,1,1,0-6.014h3.259a.348.348,0,0,1,.347.347v5.319a.344.344,0,0,1-.1.246A.349.349,0,0,1,61.745,230.394Zm-3.259-5.322a2.314,2.314,0,0,0,0,4.627H61.4v-4.627Z" transform="translate(-55.48 -224.38)" fill="#5a050a"/>
            </g>
            <g id="Grupo_1181618" data-name="Grupo 1181618" transform="translate(9.371 3.902)" opacity="0.3">
              <path id="Trazado_1049801" data-name="Trazado 1049801" d="M95.8,237.41a3.169,3.169,0,0,1,2.108.695c.946.225.692.608,1.018,1.072H86.77a3.022,3.022,0,0,1,1.578-.958C88.5,237.9,94.68,237.41,95.8,237.41Z" transform="translate(-86.77 -237.41)" fill="#fff"/>
            </g>
            <g id="Grupo_1181619" data-name="Grupo 1181619" transform="translate(0.344 0.347)" opacity="0.15">
              <path id="Trazado_1049802" data-name="Trazado 1049802" d="M59.293,225.54H79.179v1.183h-18.7a2.66,2.66,0,0,0-2.381,3.852,2.658,2.658,0,0,1,1.195-5.035Z" transform="translate(-56.63 -225.54)"/>
            </g>
            <g id="Grupo_1181620" data-name="Grupo 1181620">
              <path id="Trazado_1049803" data-name="Trazado 1049803" d="M78.374,230.394H58.487a3.007,3.007,0,1,1,0-6.014H78.374a.348.348,0,0,1,.347.347v5.319A.35.35,0,0,1,78.374,230.394Zm-19.887-5.322a2.314,2.314,0,0,0,0,4.627H78.026v-4.627Z" transform="translate(-55.48 -224.38)"/>
            </g>
            <g id="Grupo_1181621" data-name="Grupo 1181621" transform="translate(6.263 0.342)">
              <path id="Trazado_1049804" data-name="Trazado 1049804" d="M0,0H5.319V2.276H0Z" transform="translate(0 5.319) rotate(-90)" fill="#e1e1f1"/>
            </g>
            <g id="Grupo_1181622" data-name="Grupo 1181622" transform="translate(22.894 0.347)">
              <path id="Trazado_1049805" data-name="Trazado 1049805" d="M131.92,225.54l3.672,1.617,2.366,1.042-2.366,1.042-3.672,1.617Z" transform="translate(-131.92 -225.54)" fill="#fbe494"/>
            </g>
            <g id="Grupo_1181623" data-name="Grupo 1181623" transform="translate(22.894 0.347)" opacity="0.15">
              <path id="Trazado_1049806" data-name="Trazado 1049806" d="M131.92,225.54l3.672,1.617,2.366,1.042-1.093.482-1.941-.857-3-1.324Z" transform="translate(-131.92 -225.54)"/>
            </g>
            <g id="Grupo_1181624" data-name="Grupo 1181624" transform="translate(22.549 0.001)">
              <path id="Trazado_1049807" data-name="Trazado 1049807" d="M131.114,230.4a.332.332,0,0,1-.189-.057.343.343,0,0,1-.156-.291v-5.319a.345.345,0,0,1,.485-.317l6.038,2.66a.347.347,0,0,1,0,.635l-6.038,2.66A.35.35,0,0,1,131.114,230.4Zm.344-5.133v4.256l4.831-2.126Z" transform="translate(-130.77 -224.382)"/>
            </g>
            <g id="Grupo_1181625" data-name="Grupo 1181625" transform="translate(26.218 1.618)">
              <path id="Trazado_1049808" data-name="Trazado 1049808" d="M144.18,230.94l2.366,1.042-2.366,1.042Z" transform="translate(-143.833 -230.593)" fill="#585d5b"/>
              <path id="Trazado_1049809" data-name="Trazado 1049809" d="M143.367,232.561a.332.332,0,0,1-.189-.057.346.346,0,0,1-.159-.291v-2.085a.348.348,0,0,1,.488-.317l2.366,1.042a.347.347,0,0,1,0,.635l-2.366,1.042A.331.331,0,0,1,143.367,232.561Zm.347-1.9v1.021l1.159-.509Z" transform="translate(-143.02 -229.782)"/>
            </g>
            <g id="Grupo_1181626" data-name="Grupo 1181626" transform="translate(5.918)">
              <path id="Trazado_1049810" data-name="Trazado 1049810" d="M77.864,230.394H75.587a.348.348,0,0,1-.347-.347v-5.319a.348.348,0,0,1,.347-.347h2.276a.348.348,0,0,1,.347.347v5.319A.35.35,0,0,1,77.864,230.394Zm-1.929-.695h1.581v-4.627H75.935Z" transform="translate(-75.24 -224.38)"/>
            </g>
            <g id="Grupo_1181627" data-name="Grupo 1181627" transform="translate(9.847 1.743)">
              <path id="Trazado_1049811" data-name="Trazado 1049811" d="M99.13,230.895H88.707a.347.347,0,1,1,0-.695H99.13a.347.347,0,0,1,0,.695Z" transform="translate(-88.36 -230.2)"/>
            </g>
          </g>
        </g>
      </g>
    </g>
  </g>
</svg>
