<svg xmlns="http://www.w3.org/2000/svg" width="610" height="370" viewBox="0 0 610 370">
  <g id="Grupo_1181776" data-name="Grupo 1181776" transform="translate(-365.051 -4534)">
    <g id="Grupo_1099019" data-name="Grupo 1099019" transform="translate(365.051 4534)">
      <path id="Rectángulo_389225" data-name="Rectángulo 389225" d="M9,0H601a9,9,0,0,1,9,9V55a0,0,0,0,1,0,0H0a0,0,0,0,1,0,0V9A9,9,0,0,1,9,0Z" fill="#3a1d71"/>
      <path id="Rectángulo_389226" data-name="Rectángulo 389226" d="M0,0H610a0,0,0,0,1,0,0V306a9,9,0,0,1-9,9H9a9,9,0,0,1-9-9V0A0,0,0,0,1,0,0Z" transform="translate(0 55)" fill="#110628"/>
      <g id="Grupo_1181761" data-name="Grupo 1181761" transform="translate(32 19)">
        <circle id="Elipse_11380" data-name="Elipse 11380" cx="8" cy="8" r="8" fill="#fb130d"/>
        <circle id="Elipse_11381" data-name="Elipse 11381" cx="8" cy="8" r="8" transform="translate(27)" fill="#fecd02"/>
        <circle id="Elipse_11382" data-name="Elipse 11382" cx="8" cy="8" r="8" transform="translate(53)" fill="#43dfaa"/>
      </g>
    </g>
    <text id="Inicio_a_5_b_3_c_a_b_Mostrar_c_a_7_b_2_c_a_b_Mostrar_c_Fin" data-name="Inicio
    a = 5
    b = 3
    c = a + b
    Mostrar c

    a = 7
    b = 2
    c = a + b
    Mostrar c
Fin" transform="translate(399.051 4623)" fill="#fff" font-size="16" font-family="SegoeUI, Segoe UI"><tspan x="0" y="17">Inicio</tspan><tspan x="0" y="40" xml:space="preserve">    a = 5</tspan><tspan x="0" y="63" xml:space="preserve">    b = 3</tspan><tspan x="0" y="86" xml:space="preserve">    c = a + b</tspan><tspan x="0" y="109" xml:space="preserve">    Mostrar c</tspan><tspan x="0" y="132"></tspan><tspan x="0" y="155" xml:space="preserve">    a = 7</tspan><tspan x="0" y="178" xml:space="preserve">    b = 2</tspan><tspan x="0" y="201" xml:space="preserve">    c = a + b</tspan><tspan x="0" y="224" xml:space="preserve">    Mostrar c</tspan><tspan x="0" y="247">Fin</tspan></text>
    <text id="Código_redundante" data-name="Código redundante" transform="translate(561.051 4568.38)" fill="#fff" font-size="18" font-family="SegoeUIBlack, Segoe UI"><tspan x="-85.175" y="0">Código redundante</tspan></text>
  </g>
</svg>
