<svg xmlns="http://www.w3.org/2000/svg" xmlns:xlink="http://www.w3.org/1999/xlink" width="118" height="118" viewBox="0 0 118 118">
  <defs>
    <filter id="Trazado_896985" x="0" y="0" width="118" height="118" filterUnits="userSpaceOnUse">
      <feOffset dy="3" input="SourceAlpha"/>
      <feGaussianBlur stdDeviation="3" result="blur"/>
      <feFlood flood-opacity="0.161"/>
      <feComposite operator="in" in2="blur"/>
      <feComposite in="SourceGraphic"/>
    </filter>
  </defs>
  <g id="Grupo_1181634" data-name="Grupo 1181634" transform="translate(-744.442 -1656.43)">
    <g id="Grupo_1179749" data-name="Grupo 1179749" transform="translate(753.442 1662.43)">
      <g id="Grupo_1179021" data-name="Grupo 1179021">
        <g id="Grupo_1111320" data-name="Grupo 1111320" transform="translate(0 0)">
          <g id="Grupo_1109828" data-name="Grupo 1109828">
            <g id="Grupo_1098742" data-name="Grupo 1098742">
              <g transform="matrix(1, 0, 0, 1, -9, -6)" filter="url(#Trazado_896985)">
                <g id="Trazado_896985-2" data-name="Trazado 896985" transform="translate(9 6)" fill="#1bebf5" opacity="0.859">
                  <path d="M 49.99993896484375 98.5 C 43.45182418823242 98.5 37.10037994384766 97.21788787841797 31.12203979492188 94.68925476074219 C 25.34688186645508 92.24657440185547 20.15993881225586 88.74932861328125 15.70529651641846 84.29470062255859 C 11.25066757202148 79.84007263183594 7.753438949584961 74.65312957763672 5.310753345489502 68.87796783447266 C 2.782124757766724 62.89962768554688 1.499996066093445 56.54818725585938 1.499996066093445 50.00007247924805 C 1.499996066093445 43.45181274414062 2.782124757766724 37.10037231445312 5.310753345489502 31.12202835083008 C 7.753438949584961 25.34687232971191 11.25066757202148 20.1599292755127 15.70529651641846 15.70530033111572 C 20.15993881225586 11.25067138671875 25.34688186645508 7.75342845916748 31.12203979492188 5.310742855072021 C 37.10037994384766 2.782114267349243 43.45182418823242 1.5 49.99993896484375 1.5 C 56.54805374145508 1.5 62.89949798583984 2.782114267349243 68.87785339355469 5.310742855072021 C 74.65300750732422 7.75342845916748 79.83995056152344 11.25067138671875 84.29457855224609 15.70530033111572 C 88.74921417236328 20.1599292755127 92.24645233154297 25.34687232971191 94.68914031982422 31.12202835083008 C 97.21776580810547 37.10037231445312 98.49988555908203 43.45181274414062 98.49988555908203 49.99992752075195 C 98.49988555908203 56.54818725585938 97.21776580810547 62.89962768554688 94.68914031982422 68.87796783447266 C 92.24645233154297 74.65312957763672 88.74921417236328 79.84007263183594 84.29457855224609 84.29470062255859 C 79.83995056152344 88.74932861328125 74.65300750732422 92.24657440185547 68.87785339355469 94.68925476074219 C 62.89949798583984 97.21788787841797 56.54805374145508 98.5 49.99993896484375 98.5 Z" stroke="none"/>
                  <path d="M 49.99993896484375 3 C 43.65366363525391 3 37.49881744384766 4.242263793945312 31.70636749267578 6.6922607421875 C 26.11000061035156 9.059326171875 21.08332061767578 12.44860076904297 16.76596832275391 16.76595306396484 C 12.44860076904297 21.08332061767578 9.059326171875 26.11000061035156 6.6922607421875 31.70635223388672 C 4.242263793945312 37.49881362915039 3 43.65365982055664 3 50.00006103515625 C 3 56.34634017944336 4.242263793945312 62.50118637084961 6.6922607421875 68.29363250732422 C 9.059326171875 73.88999938964844 12.44860076904297 78.91667938232422 16.76596832275391 83.23403167724609 C 21.08332061767578 87.55139923095703 26.11000061035156 90.940673828125 31.70636749267578 93.3077392578125 C 37.49881744384766 95.75773620605469 43.65366363525391 97 49.99993896484375 97 C 56.34621429443359 97 62.50106048583984 95.75773620605469 68.29352569580078 93.3077392578125 C 73.88987731933594 90.940673828125 78.91654968261719 87.55139923095703 83.23392486572266 83.23403167724609 C 87.55127716064453 78.91667938232422 90.9405517578125 73.88999938964844 93.3076171875 68.29363250732422 C 95.75761413574219 62.50118637084961 96.9998779296875 56.34634017944336 96.9998779296875 49.99993896484375 C 96.9998779296875 43.65365982055664 95.75761413574219 37.49881362915039 93.3076171875 31.70635223388672 C 90.94056701660156 26.11000061035156 87.55127716064453 21.08332061767578 83.23392486572266 16.76595306396484 C 78.91654968261719 12.44860076904297 73.88987731933594 9.059310913085938 68.29352569580078 6.6922607421875 C 62.50106048583984 4.242263793945312 56.34621429443359 3 49.99993896484375 3 M 49.99993896484375 0 C 77.61415100097656 0 99.9998779296875 22.38571929931641 99.9998779296875 49.99993896484375 L 99.9998779296875 50.00006103515625 C 99.9998779296875 77.6142578125 77.61415100097656 100 49.99993896484375 100 C 22.3857421875 100 0 77.6142578125 0 50.00006103515625 L 0 49.99993896484375 C 0 22.38571929931641 22.3857421875 0 49.99993896484375 0 Z" stroke="none" fill="#fff"/>
                </g>
              </g>
              <g id="Rectángulo_400907" data-name="Rectángulo 400907" transform="translate(0)" fill="none" stroke="#fff" stroke-width="3">
                <rect width="100" height="100" rx="50" stroke="none"/>
                <rect x="1.5" y="1.5" width="97" height="97" rx="48.5" fill="none"/>
              </g>
            </g>
          </g>
        </g>
      </g>
    </g>
    <g id="cook-book_6192738" transform="translate(767.224 1676.348)">
      <path id="Trazado_1049833" data-name="Trazado 1049833" d="M59.466,24.323,63.344,24,70.16,55.808,40.624,63.76l-.663.663a5.485,5.485,0,0,1-7.761,0l-.663-.663L2,55.808,8.816,24l3.878.323Z" transform="translate(0.136 2.992)" fill="#006bdb"/>
      <path id="Trazado_1049834" data-name="Trazado 1049834" d="M46.76,22.7,58.12,21,63.8,52.808,35.4,60.76,7,52.808,12.68,21l11.36,1.7Z" transform="translate(0.816 2.584)" fill="#ffd98c"/>
      <path id="Trazado_1049835" data-name="Trazado 1049835" d="M11.275,49.514a26.612,26.612,0,0,0,7.311,1.022A26.619,26.619,0,0,1,32.7,54.582l2.611,1.634,2.613-1.635a26.618,26.618,0,0,1,14.108-4.045,26.622,26.622,0,0,0,7.317-1.024l3.59-1.021L58.027,21l-11.36,1.7H23.947L12.588,21,7.68,48.484Z" transform="translate(0.909 2.584)" fill="#ffe1ae"/>
      <path id="Trazado_1049836" data-name="Trazado 1049836" d="M58.027,21,47.8,22.534V32.36A3.408,3.408,0,0,1,44.4,35.768H26.219a3.408,3.408,0,0,1-3.408-3.408V22.534L12.588,21,7.68,48.484l3.6,1.022a26.612,26.612,0,0,0,7.311,1.022,26.618,26.618,0,0,1,14.108,4.052l2.613,1.635,2.613-1.635a26.618,26.618,0,0,1,14.108-4.045,26.622,26.622,0,0,0,7.317-1.024l3.59-1.021Z" transform="translate(0.909 2.584)" fill="#ffeacd"/>
      <path id="Trazado_1049837" data-name="Trazado 1049837" d="M45.262,18.518v16.29A2.279,2.279,0,0,1,42.99,37.08H24.814a2.279,2.279,0,0,1-2.272-2.272V18.518A6.816,6.816,0,1,1,27.734,5.931a7.952,7.952,0,0,1,12.337,0,6.817,6.817,0,1,1,5.192,12.587Z" transform="translate(2.314 0.136)" fill="#bcbdbc"/>
      <path id="Trazado_1049838" data-name="Trazado 1049838" d="M44.991,34.808V18.518A6.816,6.816,0,1,0,39.8,5.931a7.952,7.952,0,0,0-12.337,0,6.764,6.764,0,0,0-1.8-.545c-.119.018-.236.024-.356.05a6.825,6.825,0,0,0-.761,13.082v16.29a2.279,2.279,0,0,0,2.272,2.272h15.9A2.279,2.279,0,0,0,44.991,34.808Z" transform="translate(2.585 0.136)" fill="#dfe0df"/>
      <path id="Trazado_1049839" data-name="Trazado 1049839" d="M33.272,33H31V58.81l1.136.318,1.136-.318Z" transform="translate(4.08 4.216)" fill="#f9cb5d"/>
      <path id="Trazado_1049840" data-name="Trazado 1049840" d="M26.272,10.648a6.816,6.816,0,0,1,1.527-4.3l-.88-.719A6.193,6.193,0,0,0,25.8,5.234,9.1,9.1,0,0,0,24,10.648Z" transform="translate(3.128 0.44)" fill="#bcbdbc"/>
      <path id="Trazado_1049841" data-name="Trazado 1049841" d="M38.183,10.65h2.272a9.1,9.1,0,0,0-1.809-5.43,6.826,6.826,0,0,0-1.11.409l-.88.719a6.816,6.816,0,0,1,1.527,4.3Z" transform="translate(4.849 0.438)" fill="#bcbdbc"/>
      <path id="Trazado_1049842" data-name="Trazado 1049842" d="M22,31.544a2.279,2.279,0,0,0,2.272,2.272H42.448a2.279,2.279,0,0,0,2.272-2.272V27H22Z" transform="translate(2.856 3.4)" fill="#747574"/>
      <path id="Trazado_1049843" data-name="Trazado 1049843" d="M44.448,31.544V27H24v4.544a2.279,2.279,0,0,0,2.272,2.272h15.9A2.279,2.279,0,0,0,44.448,31.544Z" transform="translate(3.128 3.4)" fill="#9d9e9d"/>
      <path id="Trazado_1049844" data-name="Trazado 1049844" d="M31,53.874l1.136.71,1.136-.71V33H31Z" transform="translate(4.08 4.216)" fill="#ffd98c"/>
      <path id="Trazado_1049845" data-name="Trazado 1049845" d="M31,33h2.272v1.136H31Z" transform="translate(4.08 4.216)" fill="#f9cb5d"/>
      <path id="Trazado_1049846" data-name="Trazado 1049846" d="M1.841,59.9l29.243,7.877.449.449a6.621,6.621,0,0,0,9.367,0l.454-.449L70.6,59.9a1.136,1.136,0,0,0,.816-1.335L64.6,26.759a1.136,1.136,0,0,0-1.211-.9l-2.847.237-.485-2.713a1.136,1.136,0,0,0-1.286-.924L48.712,23.969V19.413A7.941,7.941,0,0,0,42.7,4.733a9.061,9.061,0,0,0-12.971,0A7.942,7.942,0,0,0,23.72,19.413v4.556L13.664,22.46a1.136,1.136,0,0,0-1.286.924L11.893,26.1l-2.847-.241a1.127,1.127,0,0,0-1.205.9L1.025,58.559A1.136,1.136,0,0,0,1.841,59.9ZM58.012,24.871l4.533,25.387L59.932,51a25.485,25.485,0,0,1-7,.98A27.725,27.725,0,0,0,38.229,56.2l-.877.553v-18.4H45.3a3.408,3.408,0,0,0,3.408-3.408V26.265Zm5.3,29.705L37.352,61.845V59.429l2.081-1.3a25.457,25.457,0,0,1,13.5-3.873,27.726,27.726,0,0,0,7.628-1.069l2.382-.68ZM9.485,52.506l2.386.682a27.719,27.719,0,0,0,7.624,1.068A25.457,25.457,0,0,1,33,58.129l2.082,1.3v2.416L9.116,54.575ZM25.992,31.536H46.44v3.408A1.136,1.136,0,0,1,45.3,36.08H27.128a1.136,1.136,0,0,1-1.136-1.136ZM21.568,11.03A5.641,5.641,0,0,1,25.85,6.683a5.837,5.837,0,0,1,2.425,0,9.033,9.033,0,0,0-1.147,4.405H29.4a6.816,6.816,0,1,1,13.632,0H45.3a9.033,9.033,0,0,0-1.147-4.409,5.831,5.831,0,0,1,2.424,0,5.68,5.68,0,0,1,.617,10.9,1.136,1.136,0,0,0-.758,1.071V29.264H25.992V18.653a1.136,1.136,0,0,0-.758-1.071,5.68,5.68,0,0,1-3.666-6.551ZM14.42,24.871l9.3,1.4v8.678a3.408,3.408,0,0,0,3.408,3.408H35.08v18.4l-.877-.549A27.725,27.725,0,0,0,19.5,51.984a25.482,25.482,0,0,1-7-.98l-2.614-.746ZM9.853,28.206l1.639.137L6.7,55.192a1.136,1.136,0,0,0,.811,1.294l28.4,7.952a1.136,1.136,0,0,0,.613,0l28.4-7.952a1.136,1.136,0,0,0,.811-1.294L60.94,28.344l1.639-.137,6.38,29.777L40.465,65.654a1.136,1.136,0,0,0-.508.294l-.663.663a4.457,4.457,0,0,1-6.155,0l-.663-.663a1.136,1.136,0,0,0-.508-.294L3.473,57.983Z" transform="translate(0)"/>
    </g>
  </g>
</svg>
