<svg xmlns="http://www.w3.org/2000/svg" xmlns:xlink="http://www.w3.org/1999/xlink" width="118" height="118" viewBox="0 0 118 118">
  <defs>
    <filter id="Trazado_896985" x="0" y="0" width="118" height="118" filterUnits="userSpaceOnUse">
      <feOffset dy="3" input="SourceAlpha"/>
      <feGaussianBlur stdDeviation="3" result="blur"/>
      <feFlood flood-opacity="0.161"/>
      <feComposite operator="in" in2="blur"/>
      <feComposite in="SourceGraphic"/>
    </filter>
  </defs>
  <g id="Grupo_1181710" data-name="Grupo 1181710" transform="translate(-271.258 -6710.329)">
    <g id="Grupo_1179021" data-name="Grupo 1179021" transform="translate(280.258 6716.329)">
      <g id="Grupo_1111320" data-name="Grupo 1111320">
        <g id="Grupo_1109828" data-name="Grupo 1109828">
          <g id="Grupo_1098742" data-name="Grupo 1098742" transform="translate(0 0)">
            <g transform="matrix(1, 0, 0, 1, -9, -6)" filter="url(#Trazado_896985)">
              <g id="Trazado_896985-2" data-name="Trazado 896985" transform="translate(9 6)" fill="#1bebf5" opacity="0.859">
                <path d="M 49.99993896484375 98.5 C 43.45182418823242 98.5 37.10037994384766 97.21788787841797 31.12203979492188 94.68926239013672 C 25.34688186645508 92.24657440185547 20.15993881225586 88.74932861328125 15.70529651641846 84.29470062255859 C 11.25066757202148 79.84007263183594 7.753438949584961 74.65312957763672 5.310753345489502 68.87797546386719 C 2.782124757766724 62.89963150024414 1.499996066093445 56.54819107055664 1.499996066093445 50.00007629394531 C 1.499996066093445 43.45181655883789 2.782124757766724 37.10037612915039 5.310753345489502 31.12203216552734 C 7.753438949584961 25.34687614440918 11.25066757202148 20.15993309020996 15.70529651641846 15.70530414581299 C 20.15993881225586 11.25067520141602 25.34688186645508 7.753432273864746 31.12203979492188 5.310746669769287 C 37.10037994384766 2.782118082046509 43.45182418823242 1.500003814697266 49.99993896484375 1.500003814697266 C 56.54805374145508 1.500003814697266 62.89949798583984 2.782118082046509 68.87785339355469 5.310746669769287 C 74.65300750732422 7.753432273864746 79.83995056152344 11.25067520141602 84.29457855224609 15.70530414581299 C 88.74921417236328 20.15993309020996 92.24645233154297 25.34687614440918 94.68914031982422 31.12203216552734 C 97.21776580810547 37.10037612915039 98.49988555908203 43.45181655883789 98.49988555908203 49.99993133544922 C 98.49988555908203 56.54819107055664 97.21776580810547 62.89963150024414 94.68914031982422 68.87797546386719 C 92.24645233154297 74.65312957763672 88.74921417236328 79.84007263183594 84.29457855224609 84.29470062255859 C 79.83995056152344 88.74932861328125 74.65300750732422 92.24657440185547 68.87785339355469 94.68926239013672 C 62.89949798583984 97.21788787841797 56.54805374145508 98.5 49.99993896484375 98.5 Z" stroke="none"/>
                <path d="M 49.99993896484375 3.000007629394531 C 43.65366363525391 3.000007629394531 37.49881744384766 4.242263793945312 31.70636749267578 6.692268371582031 C 26.11000061035156 9.059326171875 21.08332061767578 12.44860076904297 16.76596832275391 16.76596069335938 C 12.44860076904297 21.08332824707031 9.059326171875 26.11000061035156 6.6922607421875 31.70635986328125 C 4.242263793945312 37.49881744384766 3 43.65366363525391 3 50.00006484985352 C 3 56.34634399414062 4.242263793945312 62.50119018554688 6.6922607421875 68.29363250732422 C 9.059326171875 73.88999938964844 12.44860076904297 78.91667938232422 16.76596832275391 83.23403930664062 C 21.08332061767578 87.55140686035156 26.11000061035156 90.94068145751953 31.70636749267578 93.3077392578125 C 37.49881744384766 95.75774383544922 43.65366363525391 97 49.99993896484375 97 C 56.34621429443359 97 62.50106048583984 95.75774383544922 68.29352569580078 93.3077392578125 C 73.88987731933594 90.94068145751953 78.91654968261719 87.55140686035156 83.23392486572266 83.23403930664062 C 87.55127716064453 78.91667938232422 90.9405517578125 73.88999938964844 93.3076171875 68.29363250732422 C 95.75761413574219 62.50119018554688 96.9998779296875 56.34634399414062 96.9998779296875 49.99994277954102 C 96.9998779296875 43.65366363525391 95.75761413574219 37.49881744384766 93.3076171875 31.70635986328125 C 90.94056701660156 26.11000061035156 87.55127716064453 21.08332824707031 83.23392486572266 16.76596069335938 C 78.91654968261719 12.44860076904297 73.88987731933594 9.059310913085938 68.29352569580078 6.692268371582031 C 62.50106048583984 4.242263793945312 56.34621429443359 3.000007629394531 49.99993896484375 3.000007629394531 M 49.99993896484375 7.62939453125e-06 C 77.61415100097656 7.62939453125e-06 99.9998779296875 22.38572692871094 99.9998779296875 49.99994277954102 L 99.9998779296875 50.00006484985352 C 99.9998779296875 77.61426544189453 77.61415100097656 100 49.99993896484375 100 C 22.3857421875 100 0 77.61426544189453 0 50.00006484985352 L 0 49.99994277954102 C 0 22.38572692871094 22.3857421875 7.62939453125e-06 49.99993896484375 7.62939453125e-06 Z" stroke="none" fill="#fff"/>
              </g>
            </g>
            <g id="Rectángulo_400907" data-name="Rectángulo 400907" transform="translate(0)" fill="none" stroke="#fff" stroke-width="3">
              <rect width="100" height="100" rx="50" stroke="none"/>
              <rect x="1.5" y="1.5" width="97" height="97" rx="48.5" fill="none"/>
            </g>
          </g>
        </g>
      </g>
    </g>
    <g id="expert_6601289" transform="translate(295.442 6728.51)">
      <path id="Trazado_1046380" data-name="Trazado 1046380" d="M5,61.815V21.454A5.454,5.454,0,0,1,10.454,16h48A5.454,5.454,0,0,1,63.9,21.454V61.815Z" transform="translate(0.363 1.18)" fill="#a5badb"/>
      <path id="Trazado_1046381" data-name="Trazado 1046381" d="M58.269,16H12.454A5.454,5.454,0,0,0,7,21.454V61.815H63.723V21.454A5.454,5.454,0,0,0,58.269,16Z" transform="translate(0.545 1.18)" fill="#c1cfe8"/>
      <path id="Trazado_1046382" data-name="Trazado 1046382" d="M41.27,54v2.182H28.18V54H2a6.545,6.545,0,0,0,6.545,6.545H60.9A6.545,6.545,0,0,0,67.45,54Z" transform="translate(0.091 4.631)" fill="#0059be"/>
      <path id="Trazado_1046383" data-name="Trazado 1046383" d="M9,60.361V20H59.178V60.361" transform="translate(0.727 1.543)" fill="#66c3e9"/>
      <path id="Trazado_1046384" data-name="Trazado 1046384" d="M41.056,56.182H27.966V54H4.349a6.545,6.545,0,0,0,6.164,4.363h52.36a6.51,6.51,0,0,0,3.4-.961,6.51,6.51,0,0,0,.961-3.4H41.056Z" transform="translate(0.304 4.631)" fill="#006bdb"/>
      <path id="Trazado_1046385" data-name="Trazado 1046385" d="M11,20V47.842a7.065,7.065,0,0,0,7.063,7.064H59V20Z" transform="translate(0.908 1.543)" fill="#8adef9"/>
      <path id="Trazado_1046386" data-name="Trazado 1046386" d="M52.27,14H15.182A2.182,2.182,0,0,0,13,16.182V51.088a2.182,2.182,0,0,0,2.182,2.182H52.27a2.182,2.182,0,0,0,2.182-2.182V16.182A2.182,2.182,0,0,0,52.27,14Z" transform="translate(1.09 0.998)" fill="#0059be"/>
      <path id="Trazado_1046387" data-name="Trazado 1046387" d="M52,14H16V47.816A2.182,2.182,0,0,0,18.182,50h36V16.182A2.182,2.182,0,0,0,52,14Z" transform="translate(1.362 0.998)" fill="#006bdb"/>
      <path id="Trazado_1046388" data-name="Trazado 1046388" d="M13,20V50.543a2.182,2.182,0,0,0,2.182,2.182H52.27a2.182,2.182,0,0,0,2.182-2.182V20Z" transform="translate(1.09 1.543)" fill="#f79b31"/>
      <path id="Trazado_1046389" data-name="Trazado 1046389" d="M16,47.271a2.182,2.182,0,0,0,2.182,2.182h36V20H16Z" transform="translate(1.362 1.543)" fill="#fcb732"/>
      <g id="Grupo_1179469" data-name="Grupo 1179469" transform="translate(18.453 31.235)">
        <path id="Trazado_1046390" data-name="Trazado 1046390" d="M17,28.885h2.182v8.727H17Z" transform="translate(-17 -28.885)" fill="#fff"/>
        <path id="Trazado_1046391" data-name="Trazado 1046391" d="M26.454,37.612H22.091A1.091,1.091,0,0,1,21,36.521V29.976a1.091,1.091,0,0,1,1.091-1.091h4.363a1.091,1.091,0,0,1,1.091,1.091v6.545A1.091,1.091,0,0,1,26.454,37.612ZM23.182,35.43h2.182V31.067H23.182Z" transform="translate(-16.637 -28.885)" fill="#fff"/>
        <path id="Trazado_1046392" data-name="Trazado 1046392" d="M29,28.885h2.182v8.727H29Z" transform="translate(-15.91 -28.885)" fill="#fff"/>
        <path id="Trazado_1046393" data-name="Trazado 1046393" d="M33,28.885h2.182v8.727H33Z" transform="translate(-15.547 -28.885)" fill="#fff"/>
        <path id="Trazado_1046394" data-name="Trazado 1046394" d="M42.454,37.612H38.091A1.091,1.091,0,0,1,37,36.521V29.976a1.091,1.091,0,0,1,1.091-1.091h4.363a1.091,1.091,0,0,1,1.091,1.091v6.545A1.091,1.091,0,0,1,42.454,37.612ZM39.182,35.43h2.182V31.067H39.182Z" transform="translate(-15.183 -28.885)" fill="#fff"/>
        <path id="Trazado_1046395" data-name="Trazado 1046395" d="M45,28.885h2.182v8.727H45Z" transform="translate(-14.457 -28.885)" fill="#fff"/>
        <path id="Trazado_1046396" data-name="Trazado 1046396" d="M17,38.885h2.182v8.727H17Z" transform="translate(-17 -27.977)" fill="#fff"/>
        <path id="Trazado_1046397" data-name="Trazado 1046397" d="M42.454,47.612H38.091A1.091,1.091,0,0,1,37,46.521V39.976a1.091,1.091,0,0,1,1.091-1.091h4.363a1.091,1.091,0,0,1,1.091,1.091v6.545A1.091,1.091,0,0,1,42.454,47.612ZM39.182,45.43h2.182V41.067H39.182Z" transform="translate(-15.183 -27.977)" fill="#fff"/>
        <path id="Trazado_1046398" data-name="Trazado 1046398" d="M45,38.885h2.182v8.727H45Z" transform="translate(-14.457 -27.977)" fill="#fff"/>
        <path id="Trazado_1046399" data-name="Trazado 1046399" d="M34.454,47.612H30.091A1.091,1.091,0,0,1,29,46.521V39.976a1.091,1.091,0,0,1,1.091-1.091h4.363a1.091,1.091,0,0,1,1.091,1.091v6.545A1.091,1.091,0,0,1,34.454,47.612ZM31.182,45.43h2.182V41.067H31.182Z" transform="translate(-15.91 -27.977)" fill="#fff"/>
        <path id="Trazado_1046400" data-name="Trazado 1046400" d="M21,38.885h2.182v8.727H21Z" transform="translate(-16.637 -27.977)" fill="#fff"/>
        <path id="Trazado_1046401" data-name="Trazado 1046401" d="M25,38.885h2.182v8.727H25Z" transform="translate(-16.273 -27.977)" fill="#fff"/>
      </g>
      <circle id="Elipse_11913" data-name="Elipse 11913" cx="11.999" cy="11.999" r="11.999" transform="translate(22.817 4.09)" fill="#66c3e9"/>
      <path id="Trazado_1046402" data-name="Trazado 1046402" d="M32.817,4A11.934,11.934,0,0,0,25.5,6.5,11.985,11.985,0,0,0,42.314,23.314,11.985,11.985,0,0,0,32.817,4Z" transform="translate(1.998 0.09)" fill="#8adef9"/>
      <path id="Trazado_1046403" data-name="Trazado 1046403" d="M27.592,19.38,24.32,16.108a1.091,1.091,0,0,1,0-1.542l3.272-3.272,1.542,1.542-2.5,2.5,2.5,2.5Z" transform="translate(2.089 0.752)" fill="#fff"/>
      <path id="Trazado_1046404" data-name="Trazado 1046404" d="M0,0H9.756V2.182H0Z" transform="translate(31.646 19.973) rotate(-63.435)" fill="#fff"/>
      <path id="Trazado_1046405" data-name="Trazado 1046405" d="M36.835,19.38l-1.542-1.542,2.5-2.5-2.5-2.5,1.542-1.542,3.272,3.272a1.091,1.091,0,0,1,0,1.542Z" transform="translate(3.115 0.752)" fill="#fff"/>
      <path id="Trazado_1046406" data-name="Trazado 1046406" d="M8.636,66.142H61a7.646,7.646,0,0,0,7.636-7.636,1.091,1.091,0,0,0-1.091-1.091H65.359V22.509a6.552,6.552,0,0,0-6.545-6.545H56.431a3.272,3.272,0,0,0-3.073-2.182H47.687a13.077,13.077,0,0,0-25.744,0H16.272A3.272,3.272,0,0,0,13.2,15.964H10.817a6.552,6.552,0,0,0-6.545,6.545V57.416H2.091A1.091,1.091,0,0,0,1,58.507a7.646,7.646,0,0,0,7.636,7.636ZM63.177,22.509V57.416H61v-36A1.091,1.091,0,0,0,59.9,20.328H56.632V18.146h2.182A4.363,4.363,0,0,1,63.177,22.509ZM28.271,57.416H10.817V22.509H13V51.962a3.272,3.272,0,0,0,3.272,3.272H53.36a3.278,3.278,0,0,0,3.272-3.272V22.509h2.182V57.416H41.361a1.091,1.091,0,0,0-1.091,1.091V59.6H29.361V58.507A1.091,1.091,0,0,0,28.271,57.416Zm6.545-28.237A13.09,13.09,0,0,0,46.21,22.509h8.24V51.962a1.091,1.091,0,0,1-1.091,1.091H16.272a1.091,1.091,0,0,1-1.091-1.091V22.509h8.241A13.09,13.09,0,0,0,34.816,29.179ZM53.36,15.963a1.091,1.091,0,0,1,1.091,1.091v3.272H47.188a13.028,13.028,0,0,0,.718-4.238c0-.043-.005-.083-.007-.125ZM34.816,5.18A10.908,10.908,0,1,1,23.907,16.089,10.908,10.908,0,0,1,34.816,5.18ZM16.272,15.963h5.461c0,.043-.007.083-.007.125a13.028,13.028,0,0,0,.718,4.239H15.181V17.055a1.091,1.091,0,0,1,1.091-1.092ZM6.454,22.508a4.363,4.363,0,0,1,4.363-4.363H13v2.182H9.727a1.091,1.091,0,0,0-1.091,1.091v36H6.454ZM27.18,59.6v1.091a1.091,1.091,0,0,0,1.091,1.091h13.09a1.091,1.091,0,0,0,1.091-1.091V59.6H66.341A5.463,5.463,0,0,1,61,63.96H8.636A5.463,5.463,0,0,1,3.291,59.6Z" transform="translate(0 0)"/>
      <path id="Trazado_1046407" data-name="Trazado 1046407" d="M17,28.885h2.182v8.727H17Z" transform="translate(1.453 2.35)"/>
      <path id="Trazado_1046408" data-name="Trazado 1046408" d="M22.091,37.612h4.363a1.091,1.091,0,0,0,1.091-1.091V29.976a1.091,1.091,0,0,0-1.091-1.091H22.091A1.091,1.091,0,0,0,21,29.976v6.545A1.091,1.091,0,0,0,22.091,37.612Zm1.091-6.545h2.182V35.43H23.182Z" transform="translate(1.817 2.35)"/>
      <path id="Trazado_1046409" data-name="Trazado 1046409" d="M29,28.885h2.182v8.727H29Z" transform="translate(2.543 2.35)"/>
      <path id="Trazado_1046410" data-name="Trazado 1046410" d="M33,28.885h2.182v8.727H33Z" transform="translate(2.906 2.35)"/>
      <path id="Trazado_1046411" data-name="Trazado 1046411" d="M38.091,37.612h4.363a1.091,1.091,0,0,0,1.091-1.091V29.976a1.091,1.091,0,0,0-1.091-1.091H38.091A1.091,1.091,0,0,0,37,29.976v6.545A1.091,1.091,0,0,0,38.091,37.612Zm1.091-6.545h2.182V35.43H39.182Z" transform="translate(3.27 2.35)"/>
      <path id="Trazado_1046412" data-name="Trazado 1046412" d="M45,28.885h2.182v8.727H45Z" transform="translate(3.996 2.35)"/>
      <path id="Trazado_1046413" data-name="Trazado 1046413" d="M17,38.885h2.182v8.727H17Z" transform="translate(1.453 3.258)"/>
      <path id="Trazado_1046414" data-name="Trazado 1046414" d="M38.091,47.612h4.363a1.091,1.091,0,0,0,1.091-1.091V39.976a1.091,1.091,0,0,0-1.091-1.091H38.091A1.091,1.091,0,0,0,37,39.976v6.545A1.091,1.091,0,0,0,38.091,47.612Zm1.091-6.545h2.182V45.43H39.182Z" transform="translate(3.27 3.258)"/>
      <path id="Trazado_1046415" data-name="Trazado 1046415" d="M45,38.885h2.182v8.727H45Z" transform="translate(3.996 3.258)"/>
      <path id="Trazado_1046416" data-name="Trazado 1046416" d="M30.091,47.612h4.363a1.091,1.091,0,0,0,1.091-1.091V39.976a1.091,1.091,0,0,0-1.091-1.091H30.091A1.091,1.091,0,0,0,29,39.976v6.545A1.091,1.091,0,0,0,30.091,47.612Zm1.091-6.545h2.182V45.43H31.182Z" transform="translate(2.543 3.258)"/>
      <path id="Trazado_1046417" data-name="Trazado 1046417" d="M21,38.885h2.182v8.727H21Z" transform="translate(1.817 3.258)"/>
      <path id="Trazado_1046418" data-name="Trazado 1046418" d="M25,38.885h2.182v8.727H25Z" transform="translate(2.18 3.258)"/>
      <path id="Trazado_1046419" data-name="Trazado 1046419" d="M29.135,17.838l-2.5-2.5,2.5-2.5-1.542-1.542L24.32,14.565a1.091,1.091,0,0,0,0,1.542l3.272,3.272Z" transform="translate(2.089 0.752)"/>
      <path id="Trazado_1046420" data-name="Trazado 1046420" d="M0,0H9.756V2.182H0Z" transform="translate(31.646 19.973) rotate(-63.435)"/>
      <path id="Trazado_1046421" data-name="Trazado 1046421" d="M36.835,19.38l3.272-3.272a1.091,1.091,0,0,0,0-1.542l-3.272-3.272-1.542,1.542,2.5,2.5-2.5,2.5Z" transform="translate(3.115 0.752)"/>
    </g>
  </g>
</svg>
