<svg xmlns="http://www.w3.org/2000/svg" xmlns:xlink="http://www.w3.org/1999/xlink" width="118" height="118" viewBox="0 0 118 118">
  <defs>
    <filter id="Trazado_896985" x="0" y="0" width="118" height="118" filterUnits="userSpaceOnUse">
      <feOffset dy="3" input="SourceAlpha"/>
      <feGaussianBlur stdDeviation="3" result="blur"/>
      <feFlood flood-opacity="0.161"/>
      <feComposite operator="in" in2="blur"/>
      <feComposite in="SourceGraphic"/>
    </filter>
  </defs>
  <g id="Grupo_1181715" data-name="Grupo 1181715" transform="translate(-324.72 -1501.5)">
    <g id="Grupo_1179894" data-name="Grupo 1179894" transform="translate(333.72 1507.5)">
      <g id="Grupo_1179021" data-name="Grupo 1179021">
        <g id="Grupo_1111320" data-name="Grupo 1111320" transform="translate(0 0)">
          <g id="Grupo_1109828" data-name="Grupo 1109828">
            <g id="Grupo_1098742" data-name="Grupo 1098742">
              <g transform="matrix(1, 0, 0, 1, -9, -6)" filter="url(#Trazado_896985)">
                <g id="Trazado_896985-2" data-name="Trazado 896985" transform="translate(9 6)" fill="#1bebf5" opacity="0.859">
                  <path d="M 49.99993896484375 98.5 C 43.45182418823242 98.5 37.10037994384766 97.21788787841797 31.12203979492188 94.68925476074219 C 25.34688186645508 92.24657440185547 20.15993881225586 88.74932861328125 15.70529651641846 84.29470062255859 C 11.25066757202148 79.84007263183594 7.753438949584961 74.65312957763672 5.310753345489502 68.87796783447266 C 2.782124757766724 62.89962768554688 1.499996066093445 56.54818725585938 1.499996066093445 50.00007247924805 C 1.499996066093445 43.45181274414062 2.782124757766724 37.10037231445312 5.310753345489502 31.12202835083008 C 7.753438949584961 25.34687232971191 11.25066757202148 20.1599292755127 15.70529651641846 15.70530033111572 C 20.15993881225586 11.25067138671875 25.34688186645508 7.75342845916748 31.12203979492188 5.310742855072021 C 37.10037994384766 2.782114267349243 43.45182418823242 1.5 49.99993896484375 1.5 C 56.54805374145508 1.5 62.89949798583984 2.782114267349243 68.87785339355469 5.310742855072021 C 74.65300750732422 7.75342845916748 79.83995056152344 11.25067138671875 84.29457855224609 15.70530033111572 C 88.74921417236328 20.1599292755127 92.24645233154297 25.34687232971191 94.68914031982422 31.12202835083008 C 97.21776580810547 37.10037231445312 98.49988555908203 43.45181274414062 98.49988555908203 49.99992752075195 C 98.49988555908203 56.54818725585938 97.21776580810547 62.89962768554688 94.68914031982422 68.87796783447266 C 92.24645233154297 74.65312957763672 88.74921417236328 79.84007263183594 84.29457855224609 84.29470062255859 C 79.83995056152344 88.74932861328125 74.65300750732422 92.24657440185547 68.87785339355469 94.68925476074219 C 62.89949798583984 97.21788787841797 56.54805374145508 98.5 49.99993896484375 98.5 Z" stroke="none"/>
                  <path d="M 49.99993896484375 3 C 43.65366363525391 3 37.49881744384766 4.242263793945312 31.70636749267578 6.6922607421875 C 26.11000061035156 9.059326171875 21.08332061767578 12.44860076904297 16.76596832275391 16.76595306396484 C 12.44860076904297 21.08332061767578 9.059326171875 26.11000061035156 6.6922607421875 31.70635223388672 C 4.242263793945312 37.49881362915039 3 43.65365982055664 3 50.00006103515625 C 3 56.34634017944336 4.242263793945312 62.50118637084961 6.6922607421875 68.29363250732422 C 9.059326171875 73.88999938964844 12.44860076904297 78.91667938232422 16.76596832275391 83.23403167724609 C 21.08332061767578 87.55139923095703 26.11000061035156 90.940673828125 31.70636749267578 93.3077392578125 C 37.49881744384766 95.75773620605469 43.65366363525391 97 49.99993896484375 97 C 56.34621429443359 97 62.50106048583984 95.75773620605469 68.29352569580078 93.3077392578125 C 73.88987731933594 90.940673828125 78.91654968261719 87.55139923095703 83.23392486572266 83.23403167724609 C 87.55127716064453 78.91667938232422 90.9405517578125 73.88999938964844 93.3076171875 68.29363250732422 C 95.75761413574219 62.50118637084961 96.9998779296875 56.34634017944336 96.9998779296875 49.99993896484375 C 96.9998779296875 43.65365982055664 95.75761413574219 37.49881362915039 93.3076171875 31.70635223388672 C 90.94056701660156 26.11000061035156 87.55127716064453 21.08332061767578 83.23392486572266 16.76595306396484 C 78.91654968261719 12.44860076904297 73.88987731933594 9.059310913085938 68.29352569580078 6.6922607421875 C 62.50106048583984 4.242263793945312 56.34621429443359 3 49.99993896484375 3 M 49.99993896484375 0 C 77.61415100097656 0 99.9998779296875 22.38571929931641 99.9998779296875 49.99993896484375 L 99.9998779296875 50.00006103515625 C 99.9998779296875 77.6142578125 77.61415100097656 100 49.99993896484375 100 C 22.3857421875 100 0 77.6142578125 0 50.00006103515625 L 0 49.99993896484375 C 0 22.38571929931641 22.3857421875 0 49.99993896484375 0 Z" stroke="none" fill="#fff"/>
                </g>
              </g>
              <g id="Rectángulo_400907" data-name="Rectángulo 400907" transform="translate(0)" fill="none" stroke="#fff" stroke-width="3">
                <rect width="100" height="100" rx="50" stroke="none"/>
                <rect x="1.5" y="1.5" width="97" height="97" rx="48.5" fill="none"/>
              </g>
            </g>
          </g>
        </g>
      </g>
    </g>
    <g id="coder_4941480_1_" data-name="coder_4941480 (1)" transform="translate(352.763 1526.543)">
      <path id="Trazado_1050058" data-name="Trazado 1050058" d="M24.446,256C14.772,256,8,266.626,8,282.12v3.87H40.892v-3.87C40.892,266.626,34.12,256,24.446,256Z" transform="translate(-7.033 -225.043)" fill="#fdbf44"/>
      <g id="Grupo_1181713" data-name="Grupo 1181713" transform="translate(4.837 0.507)">
        <path id="Trazado_1050059" data-name="Trazado 1050059" d="M0,0H2.419A2.419,2.419,0,0,1,4.837,2.419V4.353A2.419,2.419,0,0,1,2.419,6.772H0Z" transform="translate(4.837 19.808) rotate(180)" fill="#ffd4cf"/>
        <rect id="Rectángulo_417988" data-name="Rectángulo 417988" width="21.315" height="16.24" rx="8.12" transform="translate(1.76)" fill="#fa5d3f"/>
        <path id="Trazado_1050060" data-name="Trazado 1050060" d="M208,112h2.419a2.419,2.419,0,0,1,2.419,2.419v1.935a2.419,2.419,0,0,1-2.419,2.419H208Z" transform="translate(-187.684 -98.964)" fill="#ffd4cf"/>
        <path id="Trazado_1050061" data-name="Trazado 1050061" d="M104,213a6.3,6.3,0,0,0,9.674,0l-1.935-7.739h-5.8Z" transform="translate(-96.261 -180.951)" fill="#ffd4cf"/>
        <path id="Trazado_1050062" data-name="Trazado 1050062" d="M119.988,205.265h-5.8l-.8,3.2.126.079a6.772,6.772,0,0,0,7.152.016l.13-.081Z" transform="translate(-104.509 -180.951)" fill="#fbb8b0"/>
        <path id="Trazado_1050063" data-name="Trazado 1050063" d="M80,68.837,84.837,64l.085.14a9.674,9.674,0,0,0,8.3,4.7h2.261v7.322A6.046,6.046,0,0,1,92.613,81.3L90.3,82.733a4.837,4.837,0,0,1-5.108-.012l-2.346-1.466A6.046,6.046,0,0,1,80,76.127Z" transform="translate(-75.163 -56.768)" fill="#ffd4cf"/>
      </g>
      <g id="Grupo_1181714" data-name="Grupo 1181714" transform="translate(28.055 32.892)">
        <path id="Trazado_1050064" data-name="Trazado 1050064" d="M232,272h32.892v21.283H232Z" transform="translate(-232 -272)" fill="#f2faff"/>
        <path id="Trazado_1050065" data-name="Trazado 1050065" d="M330.641,454.772H320v-1.935L321.935,448h6.772l1.935,4.837Z" transform="translate(-309.358 -426.717)" fill="#25b1fa"/>
      </g>
      <path id="Trazado_1050066" data-name="Trazado 1050066" d="M293.544,24C286.064,24,280,28.331,280,33.674a7.034,7.034,0,0,0,1.935,4.837L280,48.185l10.25-5.125a18.759,18.759,0,0,0,3.294.288c7.48,0,13.544-4.331,13.544-9.674S301.024,24,293.544,24Z" transform="translate(-246.141 -21.098)" fill="#f2faff"/>
      <rect id="Rectángulo_417989" data-name="Rectángulo 417989" width="27.405" height="12.18" rx="2" transform="translate(7.612 49.227)" fill="#25b1fa"/>
      <path id="Trazado_1050067" data-name="Trazado 1050067" d="M125.8,180H123.87c0,.171-.367.484-.967.484s-.967-.313-.967-.484H120a2.951,2.951,0,0,0,5.8,0Z" transform="translate(-105.489 -158.233)"/>
      <path id="Trazado_1050068" data-name="Trazado 1050068" d="M168,128h1.935v1.935H168Z" transform="translate(-147.684 -112.521)"/>
      <path id="Trazado_1050069" data-name="Trazado 1050069" d="M104,128h1.935v1.935H104Z" transform="translate(-91.424 -112.521)"/>
      <path id="Trazado_1050070" data-name="Trazado 1050070" d="M60.947,31.924H28.055a.967.967,0,0,0-.967.967v1.1a14.789,14.789,0,0,0-4.194-2.845l-1.157-4.628,1.06-.655a6.963,6.963,0,0,0,3.188-4.58h1.587A3.39,3.39,0,0,0,30.957,17.9V15.962a3.391,3.391,0,0,0-2.863-3.346A8.705,8.705,0,0,0,20.316,0H18.381V1.935h1.935a6.779,6.779,0,0,1,6.772,6.772,6.692,6.692,0,0,1-1.015,3.57.967.967,0,0,0-.92-.667H22.891a8.75,8.75,0,0,1-7.466-4.227l-.085-.14a.967.967,0,0,0-1.514-.187L8.99,11.892a.967.967,0,0,0-.236.384,6.692,6.692,0,0,1-1.015-3.57,6.779,6.779,0,0,1,6.772-6.772h1.935V0H14.511A8.705,8.705,0,0,0,6.733,12.617,3.391,3.391,0,0,0,3.87,15.962V17.9a3.39,3.39,0,0,0,3.386,3.386H8.849A6.968,6.968,0,0,0,12,25.814L13.1,26.5l-1.162,4.649c-3.755,1.671-6.845,5.081-8.949,9.882l1.772.776c1.753-4,4.22-6.918,7.178-8.506a7.264,7.264,0,0,0,10.959,0,14.061,14.061,0,0,1,4.195,3.536V48.37H18.381v1.935H33.617a.242.242,0,0,1,.242.242v9.19a.242.242,0,0,1-.242.242H8.949a.242.242,0,0,1-.242-.242v-9.19a.242.242,0,0,1,.242-.242h7.5V48.37h-5.8V41.6H8.707v6.785a2.18,2.18,0,0,0-1.935,2.163v9.19a2.188,2.188,0,0,0,.013.242H1.935v-2.9a40.372,40.372,0,0,1,2.02-13.226l-1.828-.635A42.286,42.286,0,0,0,0,57.077v3.87a.967.967,0,0,0,.967.967h32.65a2.179,2.179,0,0,0,2.177-2.177v-4.6H39.2l-1.4,3.51a.967.967,0,0,0-.069.359v1.935a.967.967,0,0,0,.967.967H49.338a.967.967,0,0,0,.967-.967V59.012a.967.967,0,0,0-.069-.359l-1.4-3.51H60.947a.967.967,0,0,0,.967-.967V39.664H59.979V53.207H35.794v-2.66a2.179,2.179,0,0,0-2.177-2.177h-4.6V33.859H59.979v3.87h1.935V32.892A.967.967,0,0,0,60.947,31.924ZM26.12,14.511h1.451a1.453,1.453,0,0,1,1.451,1.451V17.9a1.453,1.453,0,0,1-1.451,1.451H26.12ZM8.707,19.348H7.256A1.453,1.453,0,0,1,5.8,17.9V15.962a1.453,1.453,0,0,1,1.451-1.451H8.707Zm4.322,4.825a5.05,5.05,0,0,1-2.387-4.306v-6.89L14.358,9.26a10.7,10.7,0,0,0,8.533,4.284h1.294V19.9a5.047,5.047,0,0,1-2.406,4.319L19.463,25.65a3.845,3.845,0,0,1-4.087-.009Zm4.385,9.686a5.313,5.313,0,0,1-3.773-1.565l1.186-4.745A5.756,5.756,0,0,0,20,27.561l1.183,4.733a5.313,5.313,0,0,1-3.773,1.565ZM39.664,59.2l1.622-4.056h5.462L48.37,59.2v.781H39.664Z" transform="translate(0)"/>
      <path id="Trazado_1050071" data-name="Trazado 1050071" d="M299.628,309.8a2.179,2.179,0,0,0,2.177-2.177v-1.451A2.179,2.179,0,0,0,299.628,304h-1.451A2.179,2.179,0,0,0,296,306.177v1.451a2.179,2.179,0,0,0,2.177,2.177Zm-1.693-2.177v-1.451a.245.245,0,0,1,.242-.242h1.451a.245.245,0,0,1,.242.242v1.451a.245.245,0,0,1-.242.242h-1.451A.245.245,0,0,1,297.935,307.628Z" transform="translate(-260.206 -267.238)"/>
      <path id="Trazado_1050072" data-name="Trazado 1050072" d="M360,304h1.935v5.8H360Z" transform="translate(-316.467 -267.238)"/>
      <path id="Trazado_1050073" data-name="Trazado 1050073" d="M264,304h1.935v5.8H264Z" transform="translate(-232.076 -267.238)"/>
      <path id="Trazado_1050074" data-name="Trazado 1050074" d="M395.628,309.8a2.179,2.179,0,0,0,2.177-2.177v-1.451A2.179,2.179,0,0,0,395.628,304h-1.451A2.179,2.179,0,0,0,392,306.177v1.451a2.179,2.179,0,0,0,2.177,2.177Zm-1.693-2.177v-1.451a.245.245,0,0,1,.242-.242h1.451a.245.245,0,0,1,.242.242v1.451a.245.245,0,0,1-.242.242h-1.451A.245.245,0,0,1,393.935,307.628Z" transform="translate(-344.597 -267.238)"/>
      <path id="Trazado_1050075" data-name="Trazado 1050075" d="M456,304h1.935v5.8H456Z" transform="translate(-400.858 -267.238)"/>
      <path id="Trazado_1050076" data-name="Trazado 1050076" d="M306.177,373.8h1.451a2.179,2.179,0,0,0,2.177-2.177v-1.451A2.179,2.179,0,0,0,307.628,368h-1.451A2.179,2.179,0,0,0,304,370.177v1.451A2.179,2.179,0,0,0,306.177,373.8Zm-.242-3.628a.245.245,0,0,1,.242-.242h1.451a.245.245,0,0,1,.242.242v1.451a.245.245,0,0,1-.242.242h-1.451a.245.245,0,0,1-.242-.242Z" transform="translate(-267.238 -323.499)"/>
      <path id="Trazado_1050077" data-name="Trazado 1050077" d="M368,368h1.935v5.8H368Z" transform="translate(-323.499 -323.499)"/>
      <path id="Trazado_1050078" data-name="Trazado 1050078" d="M402.177,373.8h1.451a2.179,2.179,0,0,0,2.177-2.177v-1.451A2.179,2.179,0,0,0,403.628,368h-1.451A2.179,2.179,0,0,0,400,370.177v1.451A2.179,2.179,0,0,0,402.177,373.8Zm-.242-3.628a.245.245,0,0,1,.242-.242h1.451a.245.245,0,0,1,.242.242v1.451a.245.245,0,0,1-.242.242h-1.451a.245.245,0,0,1-.242-.242Z" transform="translate(-351.63 -323.499)"/>
      <path id="Trazado_1050079" data-name="Trazado 1050079" d="M464,368h1.935v5.8H464Z" transform="translate(-407.89 -323.499)"/>
      <path id="Trazado_1050080" data-name="Trazado 1050080" d="M296.65,19.014a18.563,18.563,0,0,0-20.278,0A9.437,9.437,0,0,0,272,26.641a7.855,7.855,0,0,0,1.863,5.1l-1.844,9.221a.967.967,0,0,0,1.381,1.055l9.967-4.984a19.828,19.828,0,0,0,3.144.249,17.532,17.532,0,0,0,10.139-3.014,9.437,9.437,0,0,0,4.372-7.628A9.437,9.437,0,0,0,296.65,19.014ZM286.511,35.348a17.832,17.832,0,0,1-3.124-.273.964.964,0,0,0-.6.087L274.3,39.4l1.547-7.734a.967.967,0,0,0-.218-.823,6.1,6.1,0,0,1-1.7-4.2c0-4.8,5.642-8.707,12.576-8.707s12.576,3.906,12.576,8.707S293.445,35.348,286.511,35.348Z" transform="translate(-239.108 -14.065)"/>
      <path id="Trazado_1050081" data-name="Trazado 1050081" d="M324.08,59l-3.87,4.837a.967.967,0,0,0,0,1.209l3.87,4.837,1.511-1.209L322.2,64.442l3.386-4.232Z" transform="translate(-281.302 -51.865)"/>
      <path id="Trazado_1050082" data-name="Trazado 1050082" d="M419.264,59l-1.511,1.209,3.386,4.232-3.386,4.232,1.511,1.209,3.87-4.837a.967.967,0,0,0,0-1.209Z" transform="translate(-367.236 -51.865)"/>
      <path id="Trazado_1050083" data-name="Trazado 1050083" d="M0,0H9.866V1.935H0Z" transform="matrix(0.196, -0.981, 0.981, 0.196, 45.487, 17.205)"/>
      <path id="Trazado_1050084" data-name="Trazado 1050084" d="M88,432h1.935v1.935H88Z" transform="translate(-77.359 -379.76)"/>
      <path id="Trazado_1050085" data-name="Trazado 1050085" d="M88,464h1.935v1.935H88Z" transform="translate(-77.359 -407.89)"/>
      <path id="Trazado_1050086" data-name="Trazado 1050086" d="M120,464h1.935v1.935H120Z" transform="translate(-105.489 -407.89)"/>
      <path id="Trazado_1050087" data-name="Trazado 1050087" d="M120,432h1.935v1.935H120Z" transform="translate(-105.489 -379.76)"/>
      <path id="Trazado_1050088" data-name="Trazado 1050088" d="M152,432h1.935v1.935H152Z" transform="translate(-133.619 -379.76)"/>
      <path id="Trazado_1050089" data-name="Trazado 1050089" d="M152,464h1.935v1.935H152Z" transform="translate(-133.619 -407.89)"/>
      <path id="Trazado_1050090" data-name="Trazado 1050090" d="M184,464h1.935v1.935H184Z" transform="translate(-161.75 -407.89)"/>
      <path id="Trazado_1050091" data-name="Trazado 1050091" d="M184,432h1.935v1.935H184Z" transform="translate(-161.75 -379.76)"/>
      <path id="Trazado_1050092" data-name="Trazado 1050092" d="M216,432h1.935v1.935H216Z" transform="translate(-189.88 -379.76)"/>
      <path id="Trazado_1050093" data-name="Trazado 1050093" d="M216,464h1.935v1.935H216Z" transform="translate(-189.88 -407.89)"/>
      <path id="Trazado_1050094" data-name="Trazado 1050094" d="M248,464h1.935v1.935H248Z" transform="translate(-218.01 -407.89)"/>
      <path id="Trazado_1050095" data-name="Trazado 1050095" d="M248,432h1.935v1.935H248Z" transform="translate(-218.01 -379.76)"/>
    </g>
  </g>
</svg>
