<svg xmlns="http://www.w3.org/2000/svg" xmlns:xlink="http://www.w3.org/1999/xlink" width="118" height="118" viewBox="0 0 118 118">
  <defs>
    <filter id="Trazado_896985" x="0" y="0" width="118" height="118" filterUnits="userSpaceOnUse">
      <feOffset dy="3" input="SourceAlpha"/>
      <feGaussianBlur stdDeviation="3" result="blur"/>
      <feFlood flood-opacity="0.161"/>
      <feComposite operator="in" in2="blur"/>
      <feComposite in="SourceGraphic"/>
    </filter>
  </defs>
  <g id="Grupo_1181636" data-name="Grupo 1181636" transform="translate(-1161.051 -1656.43)">
    <g id="Grupo_1179750" data-name="Grupo 1179750" transform="translate(1170.051 1662.43)">
      <g id="Grupo_1179021" data-name="Grupo 1179021">
        <g id="Grupo_1111320" data-name="Grupo 1111320" transform="translate(0 0)">
          <g id="Grupo_1109828" data-name="Grupo 1109828">
            <g id="Grupo_1098742" data-name="Grupo 1098742">
              <g transform="matrix(1, 0, 0, 1, -9, -6)" filter="url(#Trazado_896985)">
                <g id="Trazado_896985-2" data-name="Trazado 896985" transform="translate(9 6)" fill="#1bebf5" opacity="0.859">
                  <path d="M 49.99993896484375 98.5 C 43.45182418823242 98.5 37.10037994384766 97.21788787841797 31.12203979492188 94.68925476074219 C 25.34688186645508 92.24657440185547 20.15993881225586 88.74932861328125 15.70529651641846 84.29470062255859 C 11.25066757202148 79.84007263183594 7.753438949584961 74.65312957763672 5.310753345489502 68.87796783447266 C 2.782124757766724 62.89962768554688 1.499996066093445 56.54818725585938 1.499996066093445 50.00007247924805 C 1.499996066093445 43.45181274414062 2.782124757766724 37.10037231445312 5.310753345489502 31.12202835083008 C 7.753438949584961 25.34687232971191 11.25066757202148 20.1599292755127 15.70529651641846 15.70530033111572 C 20.15993881225586 11.25067138671875 25.34688186645508 7.75342845916748 31.12203979492188 5.310742855072021 C 37.10037994384766 2.782114267349243 43.45182418823242 1.5 49.99993896484375 1.5 C 56.54805374145508 1.5 62.89949798583984 2.782114267349243 68.87785339355469 5.310742855072021 C 74.65300750732422 7.75342845916748 79.83995056152344 11.25067138671875 84.29457855224609 15.70530033111572 C 88.74921417236328 20.1599292755127 92.24645233154297 25.34687232971191 94.68914031982422 31.12202835083008 C 97.21776580810547 37.10037231445312 98.49988555908203 43.45181274414062 98.49988555908203 49.99992752075195 C 98.49988555908203 56.54818725585938 97.21776580810547 62.89962768554688 94.68914031982422 68.87796783447266 C 92.24645233154297 74.65312957763672 88.74921417236328 79.84007263183594 84.29457855224609 84.29470062255859 C 79.83995056152344 88.74932861328125 74.65300750732422 92.24657440185547 68.87785339355469 94.68925476074219 C 62.89949798583984 97.21788787841797 56.54805374145508 98.5 49.99993896484375 98.5 Z" stroke="none"/>
                  <path d="M 49.99993896484375 3 C 43.65366363525391 3 37.49881744384766 4.242263793945312 31.70636749267578 6.6922607421875 C 26.11000061035156 9.059326171875 21.08332061767578 12.44860076904297 16.76596832275391 16.76595306396484 C 12.44860076904297 21.08332061767578 9.059326171875 26.11000061035156 6.6922607421875 31.70635223388672 C 4.242263793945312 37.49881362915039 3 43.65365982055664 3 50.00006103515625 C 3 56.34634017944336 4.242263793945312 62.50118637084961 6.6922607421875 68.29363250732422 C 9.059326171875 73.88999938964844 12.44860076904297 78.91667938232422 16.76596832275391 83.23403167724609 C 21.08332061767578 87.55139923095703 26.11000061035156 90.940673828125 31.70636749267578 93.3077392578125 C 37.49881744384766 95.75773620605469 43.65366363525391 97 49.99993896484375 97 C 56.34621429443359 97 62.50106048583984 95.75773620605469 68.29352569580078 93.3077392578125 C 73.88987731933594 90.940673828125 78.91654968261719 87.55139923095703 83.23392486572266 83.23403167724609 C 87.55127716064453 78.91667938232422 90.9405517578125 73.88999938964844 93.3076171875 68.29363250732422 C 95.75761413574219 62.50118637084961 96.9998779296875 56.34634017944336 96.9998779296875 49.99993896484375 C 96.9998779296875 43.65365982055664 95.75761413574219 37.49881362915039 93.3076171875 31.70635223388672 C 90.94056701660156 26.11000061035156 87.55127716064453 21.08332061767578 83.23392486572266 16.76595306396484 C 78.91654968261719 12.44860076904297 73.88987731933594 9.059310913085938 68.29352569580078 6.6922607421875 C 62.50106048583984 4.242263793945312 56.34621429443359 3 49.99993896484375 3 M 49.99993896484375 0 C 77.61415100097656 0 99.9998779296875 22.38571929931641 99.9998779296875 49.99993896484375 L 99.9998779296875 50.00006103515625 C 99.9998779296875 77.6142578125 77.61415100097656 100 49.99993896484375 100 C 22.3857421875 100 0 77.6142578125 0 50.00006103515625 L 0 49.99993896484375 C 0 22.38571929931641 22.3857421875 0 49.99993896484375 0 Z" stroke="none" fill="#fff"/>
                </g>
              </g>
              <g id="Rectángulo_400907" data-name="Rectángulo 400907" transform="translate(0)" fill="none" stroke="#fff" stroke-width="3">
                <rect width="100" height="100" rx="50" stroke="none"/>
                <rect x="1.5" y="1.5" width="97" height="97" rx="48.5" fill="none"/>
              </g>
            </g>
          </g>
        </g>
      </g>
    </g>
    <g id="FILDOUTLINE" transform="translate(1185.001 1677.653)">
      <g id="_14-_Car_copy_4" data-name="14- Car copy 4" transform="translate(2 1.998)">
        <path id="Trazado_1049847" data-name="Trazado 1049847" d="M20.481,26l-.393,10.98-.164,4.632-.535,14.979L3,63.147l1.464-12.63.656-5.681,1.169-10.1Z" transform="translate(-1.908 0.223)" fill="#80cbc4"/>
        <path id="Trazado_1049848" data-name="Trazado 1049848" d="M62.481,63.966,46.093,56.591l-.634-17.852-.033-.918-.153-4.316L45,26l6.391,4.13,4.37,2.83,2.753,1.781,1.639,12.04.94,6.949Z" transform="translate(1.979 0.223)" fill="#80cbc4"/>
        <path id="Trazado_1049849" data-name="Trazado 1049849" d="M19.093,26,18,56.591l15.3,7.648V31.769Z" transform="translate(-0.52 0.223)" fill="#24a69a"/>
        <path id="Trazado_1049850" data-name="Trazado 1049850" d="M47.3,56.591s-1.639.808-3.846,1.9c-1.715.852-3.769,1.868-5.659,2.8-3.059,1.54-5.692,2.862-5.79,2.95V31.463L46.2,26Z" transform="translate(0.776 0.223)" fill="#4cb6ac"/>
        <path id="Trazado_1049851" data-name="Trazado 1049851" d="M34.56,42.038l-6.435-.492,6.435,5.965,11.45,10.63c-1.715.852-3.769,1.868-5.659,2.8L20.357,40.946,4.34,50.167,5,44.486l14.159-7.91,15.4,1.093,14.2-4.37,6.391-3.518,4.37,2.83L53.2,35.56,63.917,46.43l.94,6.949L48.533,37.734Z" transform="translate(-1.784 0.573)" fill="#ffdb56"/>
        <g id="Grupo_1181635" data-name="Grupo 1181635" transform="translate(2.556 30.353)">
          <path id="Trazado_1049852" data-name="Trazado 1049852" d="M28.11,40.55l.2.181,4.053.31.434-.133Z" transform="translate(-2.14 -28.783)" fill="#ffcb29"/>
          <path id="Trazado_1049853" data-name="Trazado 1049853" d="M34.15,37.668l14.2-4.37,5.21-2.868-1-.65L46.168,33.3,32.375,37.543Z" transform="translate(-1.745 -29.78)" fill="#ffcb29"/>
          <path id="Trazado_1049854" data-name="Trazado 1049854" d="M46.93,37.06l-1.654.509L61.068,52.705,60.742,50.3Z" transform="translate(-0.552 -29.106)" fill="#ffcb29"/>
          <path id="Trazado_1049855" data-name="Trazado 1049855" d="M7.181,43.91l13.914-7.772L19.155,36,5,43.91,4.34,49.591l2.34-1.347Z" transform="translate(-4.34 -29.204)" fill="#ffcb29"/>
          <path id="Trazado_1049856" data-name="Trazado 1049856" d="M21.117,40l-1.387.8,19.2,19.2,1.464-.721Z" transform="translate(-2.916 -28.834)" fill="#ffcb29"/>
        </g>
        <path id="Trazado_1049857" data-name="Trazado 1049857" d="M47.453,17.446c0,11.443-14.226,22.7-14.226,22.7S19,28.889,19,17.446A14.012,14.012,0,0,1,33.227,3,14.012,14.012,0,0,1,47.453,17.446Z" transform="translate(-0.428 -1.906)" fill="#ff4a4a"/>
        <path id="Trazado_1049858" data-name="Trazado 1049858" d="M22.278,17.446A13.979,13.979,0,0,1,34.866,3.1,15.239,15.239,0,0,0,33.227,3,14.012,14.012,0,0,0,19,17.446c0,11.443,14.226,22.7,14.226,22.7s.639-.507,1.639-1.406c-3.738-3.36-12.588-12.268-12.588-21.295Z" transform="translate(-0.428 -1.906)" fill="#ef4438"/>
        <circle id="Elipse_12505" data-name="Elipse 12505" cx="8.74" cy="8.74" r="8.74" transform="translate(24.036 6.557)" fill="#f5f5f5"/>
        <path id="Trazado_1049859" data-name="Trazado 1049859" d="M32.139,8a8.766,8.766,0,0,0-1.639.159,8.736,8.736,0,0,1,0,17.163A8.739,8.739,0,1,0,32.139,8Z" transform="translate(0.637 -1.443)" fill="#e0e0e0"/>
        <path id="Trazado_1049860" data-name="Trazado 1049860" d="M34.776,27.129A9.833,9.833,0,1,0,24.943,17.3a9.833,9.833,0,0,0,9.833,9.833Zm0-17.481A7.648,7.648,0,1,1,27.129,17.3a7.648,7.648,0,0,1,7.648-7.648Zm33.31,56.647L63.574,36.8a1.092,1.092,0,0,0-.487-.752L49.573,27.3a1.1,1.1,0,0,0-.985-.1l-1.575.606a21.019,21.019,0,0,0,3.1-10.271A15.089,15.089,0,0,0,34.8,2,15.089,15.089,0,0,0,19.481,17.536a20.973,20.973,0,0,0,3.089,10.236l-1.63-.58a1.1,1.1,0,0,0-.939.1L5.808,36.032a1.1,1.1,0,0,0-.512.8L2.007,65.242A1.093,1.093,0,0,0,3.5,66.383L19.431,60.01l14.857,7.428a1.093,1.093,0,0,0,.977,0L50.1,60.022l16.461,7.433a1.092,1.092,0,0,0,1.53-1.161Zm-5.3-20.219-7.5-7.609,4.375-2.041,1.834,1.186ZM46.43,59.412l-10.3-9.56.076-4.539,12.161-3.747.589,16.584ZM21.049,45.538,33.818,58.307l-.106,6.4L20.6,58.149ZM35.968,60.457l2.791,2.791-2.86,1.43Zm-1.992-12.6-2.6-2.409,2.633.2ZM49.5,39.514a1.1,1.1,0,0,0-1.076-.254L34.651,43.5l-6.227-.476a1.093,1.093,0,0,0-.826,1.89l16.724,15.52c-1.14.564-2.357,1.166-3.536,1.747L21.346,42.744a1.093,1.093,0,0,0-1.313-.177L5.891,50.709l.343-2.972,13.388-7.479L34.7,41.329l.1,0a1.091,1.091,0,0,0,.383-.075L49.3,36.914a1.113,1.113,0,0,0,.182-.075l5.841-3.214,2.166,1.4-4.536,2.115a1.093,1.093,0,0,0-.316,1.757L63.1,49.509,63.571,53Zm-17.869-.593L21.31,38.186l.3-8.436,2.849,1.013a53.519,53.519,0,0,0,7.174,8.157ZM45.043,30.9l2.9-1.114.188,5.16-8.913,2.765a51.982,51.982,0,0,0,5.825-6.81Zm5.236,3.008-.132-3.635,3.094,2ZM34.8,4.185A12.952,12.952,0,0,1,47.931,17.536c0,3.588-1.508,7.572-4.481,11.843A53.049,53.049,0,0,1,34.8,38.817a53.073,53.073,0,0,1-8.749-9.588c-2.909-4.214-4.384-8.148-4.384-11.693A12.952,12.952,0,0,1,34.8,4.185ZM19.408,30.221l-.282,7.863a1.1,1.1,0,0,0-.288.109l-12.3,6.869.862-7.448ZM5.577,53.411l13.277-7.647-.44,12.3L4.389,63.672ZM51.14,58.1l-.514-14.483L64.317,56.738a1.063,1.063,0,0,0,.109.076l1.2,7.822Z" transform="translate(-2 -1.998)"/>
      </g>
    </g>
  </g>
</svg>
